%TF.GenerationSoftware,KiCad,Pcbnew,(5.1.9)-1*%
%TF.CreationDate,2021-07-06T15:25:53+10:00*%
%TF.ProjectId,MFD-panel,4d46442d-7061-46e6-956c-2e6b69636164,rev?*%
%TF.SameCoordinates,Original*%
%TF.FileFunction,Paste,Top*%
%TF.FilePolarity,Positive*%
%FSLAX46Y46*%
G04 Gerber Fmt 4.6, Leading zero omitted, Abs format (unit mm)*
G04 Created by KiCad (PCBNEW (5.1.9)-1) date 2021-07-06 15:25:53*
%MOMM*%
%LPD*%
G01*
G04 APERTURE LIST*
%ADD10R,3.000000X1.000000*%
%ADD11C,0.100000*%
%ADD12R,1.300000X1.550000*%
%ADD13R,1.550000X1.300000*%
%ADD14R,1.120000X2.440000*%
%ADD15R,3.000000X1.300000*%
%ADD16R,1.300000X3.000000*%
G04 APERTURE END LIST*
D10*
%TO.C,SW2*%
X74600000Y8860000D03*
X66600000Y8860000D03*
X74600000Y11400000D03*
X66600000Y11400000D03*
X74600000Y13940000D03*
X66600000Y13940000D03*
%TD*%
D11*
%TO.C,Atmega328P-AU1*%
G36*
X50523666Y3294555D02*
G01*
X50134757Y3683464D01*
X51266128Y4814835D01*
X51655037Y4425926D01*
X50523666Y3294555D01*
G37*
G36*
X51089352Y2728870D02*
G01*
X50700443Y3117779D01*
X51831814Y4249150D01*
X52220723Y3860241D01*
X51089352Y2728870D01*
G37*
G36*
X51655037Y2163184D02*
G01*
X51266128Y2552093D01*
X52397499Y3683464D01*
X52786408Y3294555D01*
X51655037Y2163184D01*
G37*
G36*
X52220722Y1597499D02*
G01*
X51831813Y1986408D01*
X52963184Y3117779D01*
X53352093Y2728870D01*
X52220722Y1597499D01*
G37*
G36*
X52786408Y1031813D02*
G01*
X52397499Y1420722D01*
X53528870Y2552093D01*
X53917779Y2163184D01*
X52786408Y1031813D01*
G37*
G36*
X53352093Y466128D02*
G01*
X52963184Y855037D01*
X54094555Y1986408D01*
X54483464Y1597499D01*
X53352093Y466128D01*
G37*
G36*
X53917779Y-99557D02*
G01*
X53528870Y289352D01*
X54660241Y1420723D01*
X55049150Y1031814D01*
X53917779Y-99557D01*
G37*
G36*
X54483464Y-665243D02*
G01*
X54094555Y-276334D01*
X55225926Y855037D01*
X55614835Y466128D01*
X54483464Y-665243D01*
G37*
G36*
X57665445Y-276334D02*
G01*
X57276536Y-665243D01*
X56145165Y466128D01*
X56534074Y855037D01*
X57665445Y-276334D01*
G37*
G36*
X58231130Y289352D02*
G01*
X57842221Y-99557D01*
X56710850Y1031814D01*
X57099759Y1420723D01*
X58231130Y289352D01*
G37*
G36*
X58796816Y855037D02*
G01*
X58407907Y466128D01*
X57276536Y1597499D01*
X57665445Y1986408D01*
X58796816Y855037D01*
G37*
G36*
X59362501Y1420722D02*
G01*
X58973592Y1031813D01*
X57842221Y2163184D01*
X58231130Y2552093D01*
X59362501Y1420722D01*
G37*
G36*
X59928187Y1986408D02*
G01*
X59539278Y1597499D01*
X58407907Y2728870D01*
X58796816Y3117779D01*
X59928187Y1986408D01*
G37*
G36*
X60493872Y2552093D02*
G01*
X60104963Y2163184D01*
X58973592Y3294555D01*
X59362501Y3683464D01*
X60493872Y2552093D01*
G37*
G36*
X61059557Y3117779D02*
G01*
X60670648Y2728870D01*
X59539277Y3860241D01*
X59928186Y4249150D01*
X61059557Y3117779D01*
G37*
G36*
X61625243Y3683464D02*
G01*
X61236334Y3294555D01*
X60104963Y4425926D01*
X60493872Y4814835D01*
X61625243Y3683464D01*
G37*
G36*
X60493872Y5345165D02*
G01*
X60104963Y5734074D01*
X61236334Y6865445D01*
X61625243Y6476536D01*
X60493872Y5345165D01*
G37*
G36*
X59928186Y5910850D02*
G01*
X59539277Y6299759D01*
X60670648Y7431130D01*
X61059557Y7042221D01*
X59928186Y5910850D01*
G37*
G36*
X59362501Y6476536D02*
G01*
X58973592Y6865445D01*
X60104963Y7996816D01*
X60493872Y7607907D01*
X59362501Y6476536D01*
G37*
G36*
X58796816Y7042221D02*
G01*
X58407907Y7431130D01*
X59539278Y8562501D01*
X59928187Y8173592D01*
X58796816Y7042221D01*
G37*
G36*
X58231130Y7607907D02*
G01*
X57842221Y7996816D01*
X58973592Y9128187D01*
X59362501Y8739278D01*
X58231130Y7607907D01*
G37*
G36*
X57665445Y8173592D02*
G01*
X57276536Y8562501D01*
X58407907Y9693872D01*
X58796816Y9304963D01*
X57665445Y8173592D01*
G37*
G36*
X57099759Y8739277D02*
G01*
X56710850Y9128186D01*
X57842221Y10259557D01*
X58231130Y9870648D01*
X57099759Y8739277D01*
G37*
G36*
X56534074Y9304963D02*
G01*
X56145165Y9693872D01*
X57276536Y10825243D01*
X57665445Y10436334D01*
X56534074Y9304963D01*
G37*
G36*
X55614835Y9693872D02*
G01*
X55225926Y9304963D01*
X54094555Y10436334D01*
X54483464Y10825243D01*
X55614835Y9693872D01*
G37*
G36*
X55049150Y9128186D02*
G01*
X54660241Y8739277D01*
X53528870Y9870648D01*
X53917779Y10259557D01*
X55049150Y9128186D01*
G37*
G36*
X54483464Y8562501D02*
G01*
X54094555Y8173592D01*
X52963184Y9304963D01*
X53352093Y9693872D01*
X54483464Y8562501D01*
G37*
G36*
X53917779Y7996816D02*
G01*
X53528870Y7607907D01*
X52397499Y8739278D01*
X52786408Y9128187D01*
X53917779Y7996816D01*
G37*
G36*
X53352093Y7431130D02*
G01*
X52963184Y7042221D01*
X51831813Y8173592D01*
X52220722Y8562501D01*
X53352093Y7431130D01*
G37*
G36*
X52786408Y6865445D02*
G01*
X52397499Y6476536D01*
X51266128Y7607907D01*
X51655037Y7996816D01*
X52786408Y6865445D01*
G37*
G36*
X52220723Y6299759D02*
G01*
X51831814Y5910850D01*
X50700443Y7042221D01*
X51089352Y7431130D01*
X52220723Y6299759D01*
G37*
G36*
X51655037Y5734074D02*
G01*
X51266128Y5345165D01*
X50134757Y6476536D01*
X50523666Y6865445D01*
X51655037Y5734074D01*
G37*
%TD*%
%TO.C,R8*%
G36*
G01*
X69700000Y-619999D02*
X69700000Y-1920001D01*
G75*
G02*
X69450001Y-2170000I-249999J0D01*
G01*
X68624999Y-2170000D01*
G75*
G02*
X68375000Y-1920001I0J249999D01*
G01*
X68375000Y-619999D01*
G75*
G02*
X68624999Y-370000I249999J0D01*
G01*
X69450001Y-370000D01*
G75*
G02*
X69700000Y-619999I0J-249999D01*
G01*
G37*
G36*
G01*
X72825000Y-619999D02*
X72825000Y-1920001D01*
G75*
G02*
X72575001Y-2170000I-249999J0D01*
G01*
X71749999Y-2170000D01*
G75*
G02*
X71500000Y-1920001I0J249999D01*
G01*
X71500000Y-619999D01*
G75*
G02*
X71749999Y-370000I249999J0D01*
G01*
X72575001Y-370000D01*
G75*
G02*
X72825000Y-619999I0J-249999D01*
G01*
G37*
%TD*%
%TO.C,D1*%
G36*
G01*
X71225000Y695000D02*
X71225000Y1845000D01*
G75*
G02*
X71475000Y2095000I250000J0D01*
G01*
X72575000Y2095000D01*
G75*
G02*
X72825000Y1845000I0J-250000D01*
G01*
X72825000Y695000D01*
G75*
G02*
X72575000Y445000I-250000J0D01*
G01*
X71475000Y445000D01*
G75*
G02*
X71225000Y695000I0J250000D01*
G01*
G37*
G36*
G01*
X68375000Y695000D02*
X68375000Y1845000D01*
G75*
G02*
X68625000Y2095000I250000J0D01*
G01*
X69725000Y2095000D01*
G75*
G02*
X69975000Y1845000I0J-250000D01*
G01*
X69975000Y695000D01*
G75*
G02*
X69725000Y445000I-250000J0D01*
G01*
X68625000Y445000D01*
G75*
G02*
X68375000Y695000I0J250000D01*
G01*
G37*
%TD*%
D12*
%TO.C,SW47*%
X5100000Y-28680000D03*
X9600000Y-28680000D03*
X9600000Y-20720000D03*
X5100000Y-20720000D03*
%TD*%
%TO.C,SW46*%
X5100000Y-17680000D03*
X9600000Y-17680000D03*
X9600000Y-9720000D03*
X5100000Y-9720000D03*
%TD*%
%TO.C,SW45*%
X5100000Y-43980000D03*
X9600000Y-43980000D03*
X9600000Y-36020000D03*
X5100000Y-36020000D03*
%TD*%
%TO.C,SW44*%
X5100000Y-59280000D03*
X9600000Y-59280000D03*
X9600000Y-51320000D03*
X5100000Y-51320000D03*
%TD*%
%TO.C,SW43*%
X5100000Y-74580000D03*
X9600000Y-74580000D03*
X9600000Y-66620000D03*
X5100000Y-66620000D03*
%TD*%
%TO.C,SW42*%
X5100000Y-89880000D03*
X9600000Y-89880000D03*
X9600000Y-81920000D03*
X5100000Y-81920000D03*
%TD*%
%TO.C,SW41*%
X5100000Y-105180000D03*
X9600000Y-105180000D03*
X9600000Y-97220000D03*
X5100000Y-97220000D03*
%TD*%
%TO.C,SW37*%
X5100000Y-131480000D03*
X9600000Y-131480000D03*
X9600000Y-123520000D03*
X5100000Y-123520000D03*
%TD*%
%TO.C,SW36*%
X5100000Y-120480000D03*
X9600000Y-120480000D03*
X9600000Y-112520000D03*
X5100000Y-112520000D03*
%TD*%
D13*
%TO.C,SW35*%
X43980000Y-136100000D03*
X43980000Y-131600000D03*
X36020000Y-131600000D03*
X36020000Y-136100000D03*
%TD*%
%TO.C,SW34*%
X59280000Y-136100000D03*
X59280000Y-131600000D03*
X51320000Y-131600000D03*
X51320000Y-136100000D03*
%TD*%
%TO.C,SW33*%
X74580000Y-136100000D03*
X74580000Y-131600000D03*
X66620000Y-131600000D03*
X66620000Y-136100000D03*
%TD*%
%TO.C,SW32*%
X89880000Y-136100000D03*
X89880000Y-131600000D03*
X81920000Y-131600000D03*
X81920000Y-136100000D03*
%TD*%
%TO.C,SW31*%
X105180000Y-136100000D03*
X105180000Y-131600000D03*
X97220000Y-131600000D03*
X97220000Y-136100000D03*
%TD*%
D12*
%TO.C,SW27*%
X136100000Y-123520000D03*
X131600000Y-123520000D03*
X131600000Y-131480000D03*
X136100000Y-131480000D03*
%TD*%
%TO.C,SW26*%
X136100000Y-112520000D03*
X131600000Y-112520000D03*
X131600000Y-120480000D03*
X136100000Y-120480000D03*
%TD*%
%TO.C,SW25*%
X136100000Y-97220000D03*
X131600000Y-97220000D03*
X131600000Y-105180000D03*
X136100000Y-105180000D03*
%TD*%
%TO.C,SW24*%
X136100000Y-81920000D03*
X131600000Y-81920000D03*
X131600000Y-89880000D03*
X136100000Y-89880000D03*
%TD*%
%TO.C,SW23*%
X136100000Y-66620000D03*
X131600000Y-66620000D03*
X131600000Y-74580000D03*
X136100000Y-74580000D03*
%TD*%
%TO.C,SW22*%
X136100000Y-51320000D03*
X131600000Y-51320000D03*
X131600000Y-59280000D03*
X136100000Y-59280000D03*
%TD*%
%TO.C,SW21*%
X136100000Y-36020000D03*
X131600000Y-36020000D03*
X131600000Y-43980000D03*
X136100000Y-43980000D03*
%TD*%
%TO.C,SW17*%
X136100000Y-20720000D03*
X131600000Y-20720000D03*
X131600000Y-28680000D03*
X136100000Y-28680000D03*
%TD*%
%TO.C,SW16*%
X136100000Y-9720000D03*
X131600000Y-9720000D03*
X131600000Y-17680000D03*
X136100000Y-17680000D03*
%TD*%
D13*
%TO.C,SW15*%
X105180000Y-9600000D03*
X105180000Y-5100000D03*
X97220000Y-5100000D03*
X97220000Y-9600000D03*
%TD*%
%TO.C,SW14*%
X89880000Y-9600000D03*
X89880000Y-5100000D03*
X81920000Y-5100000D03*
X81920000Y-9600000D03*
%TD*%
%TO.C,SW13*%
X74580000Y-9600000D03*
X74580000Y-5100000D03*
X66620000Y-5100000D03*
X66620000Y-9600000D03*
%TD*%
%TO.C,SW12*%
X59280000Y-9600000D03*
X59280000Y-5100000D03*
X51320000Y-5100000D03*
X51320000Y-9600000D03*
%TD*%
%TO.C,SW11*%
X43980000Y-9600000D03*
X43980000Y-5100000D03*
X36020000Y-5100000D03*
X36020000Y-9600000D03*
%TD*%
D14*
%TO.C,SW1*%
X97028000Y-508000D03*
X97028000Y8102000D03*
%TD*%
%TO.C,R5*%
G36*
G01*
X102854997Y5819500D02*
X104155003Y5819500D01*
G75*
G02*
X104405000Y5569503I0J-249997D01*
G01*
X104405000Y4744497D01*
G75*
G02*
X104155003Y4494500I-249997J0D01*
G01*
X102854997Y4494500D01*
G75*
G02*
X102605000Y4744497I0J249997D01*
G01*
X102605000Y5569503D01*
G75*
G02*
X102854997Y5819500I249997J0D01*
G01*
G37*
G36*
G01*
X102854997Y2694500D02*
X104155003Y2694500D01*
G75*
G02*
X104405000Y2444503I0J-249997D01*
G01*
X104405000Y1619497D01*
G75*
G02*
X104155003Y1369500I-249997J0D01*
G01*
X102854997Y1369500D01*
G75*
G02*
X102605000Y1619497I0J249997D01*
G01*
X102605000Y2444503D01*
G75*
G02*
X102854997Y2694500I249997J0D01*
G01*
G37*
%TD*%
%TO.C,R1*%
G36*
G01*
X101615003Y4494500D02*
X100314997Y4494500D01*
G75*
G02*
X100065000Y4744497I0J249997D01*
G01*
X100065000Y5569503D01*
G75*
G02*
X100314997Y5819500I249997J0D01*
G01*
X101615003Y5819500D01*
G75*
G02*
X101865000Y5569503I0J-249997D01*
G01*
X101865000Y4744497D01*
G75*
G02*
X101615003Y4494500I-249997J0D01*
G01*
G37*
G36*
G01*
X101615003Y1369500D02*
X100314997Y1369500D01*
G75*
G02*
X100065000Y1619497I0J249997D01*
G01*
X100065000Y2444503D01*
G75*
G02*
X100314997Y2694500I249997J0D01*
G01*
X101615003Y2694500D01*
G75*
G02*
X101865000Y2444503I0J-249997D01*
G01*
X101865000Y1619497D01*
G75*
G02*
X101615003Y1369500I-249997J0D01*
G01*
G37*
%TD*%
%TO.C,C4*%
G36*
G01*
X64150003Y13854000D02*
X62849997Y13854000D01*
G75*
G02*
X62600000Y14103997I0J249997D01*
G01*
X62600000Y14929003D01*
G75*
G02*
X62849997Y15179000I249997J0D01*
G01*
X64150003Y15179000D01*
G75*
G02*
X64400000Y14929003I0J-249997D01*
G01*
X64400000Y14103997D01*
G75*
G02*
X64150003Y13854000I-249997J0D01*
G01*
G37*
G36*
G01*
X64150003Y10729000D02*
X62849997Y10729000D01*
G75*
G02*
X62600000Y10978997I0J249997D01*
G01*
X62600000Y11804003D01*
G75*
G02*
X62849997Y12054000I249997J0D01*
G01*
X64150003Y12054000D01*
G75*
G02*
X64400000Y11804003I0J-249997D01*
G01*
X64400000Y10978997D01*
G75*
G02*
X64150003Y10729000I-249997J0D01*
G01*
G37*
%TD*%
D15*
%TO.C,J4*%
X73068000Y-114790000D03*
X73068000Y-117330000D03*
X73068000Y-119870000D03*
X73068000Y-122410000D03*
%TD*%
%TO.C,J3*%
X68132000Y-122410000D03*
X68132000Y-119870000D03*
X68132000Y-117330000D03*
X68132000Y-114790000D03*
%TD*%
D16*
%TO.C,J2*%
X44290000Y-29060000D03*
X46830000Y-29060000D03*
X49370000Y-29060000D03*
X51910000Y-29060000D03*
%TD*%
D11*
%TO.C,U1*%
G36*
X71254074Y-20375037D02*
G01*
X70865165Y-19986128D01*
X71996536Y-18854757D01*
X72385445Y-19243666D01*
X71254074Y-20375037D01*
G37*
G36*
X71819759Y-20940723D02*
G01*
X71430850Y-20551814D01*
X72562221Y-19420443D01*
X72951130Y-19809352D01*
X71819759Y-20940723D01*
G37*
G36*
X72385445Y-21506408D02*
G01*
X71996536Y-21117499D01*
X73127907Y-19986128D01*
X73516816Y-20375037D01*
X72385445Y-21506408D01*
G37*
G36*
X72951130Y-22072093D02*
G01*
X72562221Y-21683184D01*
X73693592Y-20551813D01*
X74082501Y-20940722D01*
X72951130Y-22072093D01*
G37*
G36*
X73516816Y-22637779D02*
G01*
X73127907Y-22248870D01*
X74259278Y-21117499D01*
X74648187Y-21506408D01*
X73516816Y-22637779D01*
G37*
G36*
X74082501Y-23203464D02*
G01*
X73693592Y-22814555D01*
X74824963Y-21683184D01*
X75213872Y-22072093D01*
X74082501Y-23203464D01*
G37*
G36*
X74648186Y-23769150D02*
G01*
X74259277Y-23380241D01*
X75390648Y-22248870D01*
X75779557Y-22637779D01*
X74648186Y-23769150D01*
G37*
G36*
X75213872Y-24334835D02*
G01*
X74824963Y-23945926D01*
X75956334Y-22814555D01*
X76345243Y-23203464D01*
X75213872Y-24334835D01*
G37*
G36*
X74824963Y-25254074D02*
G01*
X75213872Y-24865165D01*
X76345243Y-25996536D01*
X75956334Y-26385445D01*
X74824963Y-25254074D01*
G37*
G36*
X74259277Y-25819759D02*
G01*
X74648186Y-25430850D01*
X75779557Y-26562221D01*
X75390648Y-26951130D01*
X74259277Y-25819759D01*
G37*
G36*
X73693592Y-26385445D02*
G01*
X74082501Y-25996536D01*
X75213872Y-27127907D01*
X74824963Y-27516816D01*
X73693592Y-26385445D01*
G37*
G36*
X73127907Y-26951130D02*
G01*
X73516816Y-26562221D01*
X74648187Y-27693592D01*
X74259278Y-28082501D01*
X73127907Y-26951130D01*
G37*
G36*
X72562221Y-27516816D02*
G01*
X72951130Y-27127907D01*
X74082501Y-28259278D01*
X73693592Y-28648187D01*
X72562221Y-27516816D01*
G37*
G36*
X71996536Y-28082501D02*
G01*
X72385445Y-27693592D01*
X73516816Y-28824963D01*
X73127907Y-29213872D01*
X71996536Y-28082501D01*
G37*
G36*
X71430850Y-28648186D02*
G01*
X71819759Y-28259277D01*
X72951130Y-29390648D01*
X72562221Y-29779557D01*
X71430850Y-28648186D01*
G37*
G36*
X70865165Y-29213872D02*
G01*
X71254074Y-28824963D01*
X72385445Y-29956334D01*
X71996536Y-30345243D01*
X70865165Y-29213872D01*
G37*
G36*
X69203464Y-30345243D02*
G01*
X68814555Y-29956334D01*
X69945926Y-28824963D01*
X70334835Y-29213872D01*
X69203464Y-30345243D01*
G37*
G36*
X68637779Y-29779557D02*
G01*
X68248870Y-29390648D01*
X69380241Y-28259277D01*
X69769150Y-28648186D01*
X68637779Y-29779557D01*
G37*
G36*
X68072093Y-29213872D02*
G01*
X67683184Y-28824963D01*
X68814555Y-27693592D01*
X69203464Y-28082501D01*
X68072093Y-29213872D01*
G37*
G36*
X67506408Y-28648187D02*
G01*
X67117499Y-28259278D01*
X68248870Y-27127907D01*
X68637779Y-27516816D01*
X67506408Y-28648187D01*
G37*
G36*
X66940722Y-28082501D02*
G01*
X66551813Y-27693592D01*
X67683184Y-26562221D01*
X68072093Y-26951130D01*
X66940722Y-28082501D01*
G37*
G36*
X66375037Y-27516816D02*
G01*
X65986128Y-27127907D01*
X67117499Y-25996536D01*
X67506408Y-26385445D01*
X66375037Y-27516816D01*
G37*
G36*
X65809352Y-26951130D02*
G01*
X65420443Y-26562221D01*
X66551814Y-25430850D01*
X66940723Y-25819759D01*
X65809352Y-26951130D01*
G37*
G36*
X65243666Y-26385445D02*
G01*
X64854757Y-25996536D01*
X65986128Y-24865165D01*
X66375037Y-25254074D01*
X65243666Y-26385445D01*
G37*
G36*
X64854757Y-23203464D02*
G01*
X65243666Y-22814555D01*
X66375037Y-23945926D01*
X65986128Y-24334835D01*
X64854757Y-23203464D01*
G37*
G36*
X65420443Y-22637779D02*
G01*
X65809352Y-22248870D01*
X66940723Y-23380241D01*
X66551814Y-23769150D01*
X65420443Y-22637779D01*
G37*
G36*
X65986128Y-22072093D02*
G01*
X66375037Y-21683184D01*
X67506408Y-22814555D01*
X67117499Y-23203464D01*
X65986128Y-22072093D01*
G37*
G36*
X66551813Y-21506408D02*
G01*
X66940722Y-21117499D01*
X68072093Y-22248870D01*
X67683184Y-22637779D01*
X66551813Y-21506408D01*
G37*
G36*
X67117499Y-20940722D02*
G01*
X67506408Y-20551813D01*
X68637779Y-21683184D01*
X68248870Y-22072093D01*
X67117499Y-20940722D01*
G37*
G36*
X67683184Y-20375037D02*
G01*
X68072093Y-19986128D01*
X69203464Y-21117499D01*
X68814555Y-21506408D01*
X67683184Y-20375037D01*
G37*
G36*
X68248870Y-19809352D02*
G01*
X68637779Y-19420443D01*
X69769150Y-20551814D01*
X69380241Y-20940723D01*
X68248870Y-19809352D01*
G37*
G36*
X68814555Y-19243666D02*
G01*
X69203464Y-18854757D01*
X70334835Y-19986128D01*
X69945926Y-20375037D01*
X68814555Y-19243666D01*
G37*
%TD*%
%TO.C,C1*%
G36*
G01*
X60750001Y-28950000D02*
X59449999Y-28950000D01*
G75*
G02*
X59200000Y-28700001I0J249999D01*
G01*
X59200000Y-27874999D01*
G75*
G02*
X59449999Y-27625000I249999J0D01*
G01*
X60750001Y-27625000D01*
G75*
G02*
X61000000Y-27874999I0J-249999D01*
G01*
X61000000Y-28700001D01*
G75*
G02*
X60750001Y-28950000I-249999J0D01*
G01*
G37*
G36*
G01*
X60750001Y-32075000D02*
X59449999Y-32075000D01*
G75*
G02*
X59200000Y-31825001I0J249999D01*
G01*
X59200000Y-30999999D01*
G75*
G02*
X59449999Y-30750000I249999J0D01*
G01*
X60750001Y-30750000D01*
G75*
G02*
X61000000Y-30999999I0J-249999D01*
G01*
X61000000Y-31825001D01*
G75*
G02*
X60750001Y-32075000I-249999J0D01*
G01*
G37*
%TD*%
%TO.C,R5*%
G36*
G01*
X80785000Y-25610000D02*
X82035000Y-25610000D01*
G75*
G02*
X82285000Y-25860000I0J-250000D01*
G01*
X82285000Y-26660000D01*
G75*
G02*
X82035000Y-26910000I-250000J0D01*
G01*
X80785000Y-26910000D01*
G75*
G02*
X80535000Y-26660000I0J250000D01*
G01*
X80535000Y-25860000D01*
G75*
G02*
X80785000Y-25610000I250000J0D01*
G01*
G37*
G36*
G01*
X80785000Y-22510000D02*
X82035000Y-22510000D01*
G75*
G02*
X82285000Y-22760000I0J-250000D01*
G01*
X82285000Y-23560000D01*
G75*
G02*
X82035000Y-23810000I-250000J0D01*
G01*
X80785000Y-23810000D01*
G75*
G02*
X80535000Y-23560000I0J250000D01*
G01*
X80535000Y-22760000D01*
G75*
G02*
X80785000Y-22510000I250000J0D01*
G01*
G37*
%TD*%
%TO.C,D1*%
G36*
G01*
X84575000Y-23997500D02*
X83325000Y-23997500D01*
G75*
G02*
X83075000Y-23747500I0J250000D01*
G01*
X83075000Y-22822500D01*
G75*
G02*
X83325000Y-22572500I250000J0D01*
G01*
X84575000Y-22572500D01*
G75*
G02*
X84825000Y-22822500I0J-250000D01*
G01*
X84825000Y-23747500D01*
G75*
G02*
X84575000Y-23997500I-250000J0D01*
G01*
G37*
G36*
G01*
X84575000Y-26972500D02*
X83325000Y-26972500D01*
G75*
G02*
X83075000Y-26722500I0J250000D01*
G01*
X83075000Y-25797500D01*
G75*
G02*
X83325000Y-25547500I250000J0D01*
G01*
X84575000Y-25547500D01*
G75*
G02*
X84825000Y-25797500I0J-250000D01*
G01*
X84825000Y-26722500D01*
G75*
G02*
X84575000Y-26972500I-250000J0D01*
G01*
G37*
%TD*%
%TO.C,R4*%
G36*
G01*
X107435000Y-77456000D02*
X106185000Y-77456000D01*
G75*
G02*
X105935000Y-77206000I0J250000D01*
G01*
X105935000Y-76406000D01*
G75*
G02*
X106185000Y-76156000I250000J0D01*
G01*
X107435000Y-76156000D01*
G75*
G02*
X107685000Y-76406000I0J-250000D01*
G01*
X107685000Y-77206000D01*
G75*
G02*
X107435000Y-77456000I-250000J0D01*
G01*
G37*
G36*
G01*
X107435000Y-80556000D02*
X106185000Y-80556000D01*
G75*
G02*
X105935000Y-80306000I0J250000D01*
G01*
X105935000Y-79506000D01*
G75*
G02*
X106185000Y-79256000I250000J0D01*
G01*
X107435000Y-79256000D01*
G75*
G02*
X107685000Y-79506000I0J-250000D01*
G01*
X107685000Y-80306000D01*
G75*
G02*
X107435000Y-80556000I-250000J0D01*
G01*
G37*
%TD*%
%TO.C,R3*%
G36*
G01*
X35299000Y-77456000D02*
X34049000Y-77456000D01*
G75*
G02*
X33799000Y-77206000I0J250000D01*
G01*
X33799000Y-76406000D01*
G75*
G02*
X34049000Y-76156000I250000J0D01*
G01*
X35299000Y-76156000D01*
G75*
G02*
X35549000Y-76406000I0J-250000D01*
G01*
X35549000Y-77206000D01*
G75*
G02*
X35299000Y-77456000I-250000J0D01*
G01*
G37*
G36*
G01*
X35299000Y-80556000D02*
X34049000Y-80556000D01*
G75*
G02*
X33799000Y-80306000I0J250000D01*
G01*
X33799000Y-79506000D01*
G75*
G02*
X34049000Y-79256000I250000J0D01*
G01*
X35299000Y-79256000D01*
G75*
G02*
X35549000Y-79506000I0J-250000D01*
G01*
X35549000Y-80306000D01*
G75*
G02*
X35299000Y-80556000I-250000J0D01*
G01*
G37*
%TD*%
%TO.C,R2*%
G36*
G01*
X107435000Y-92696000D02*
X106185000Y-92696000D01*
G75*
G02*
X105935000Y-92446000I0J250000D01*
G01*
X105935000Y-91646000D01*
G75*
G02*
X106185000Y-91396000I250000J0D01*
G01*
X107435000Y-91396000D01*
G75*
G02*
X107685000Y-91646000I0J-250000D01*
G01*
X107685000Y-92446000D01*
G75*
G02*
X107435000Y-92696000I-250000J0D01*
G01*
G37*
G36*
G01*
X107435000Y-95796000D02*
X106185000Y-95796000D01*
G75*
G02*
X105935000Y-95546000I0J250000D01*
G01*
X105935000Y-94746000D01*
G75*
G02*
X106185000Y-94496000I250000J0D01*
G01*
X107435000Y-94496000D01*
G75*
G02*
X107685000Y-94746000I0J-250000D01*
G01*
X107685000Y-95546000D01*
G75*
G02*
X107435000Y-95796000I-250000J0D01*
G01*
G37*
%TD*%
%TO.C,R1*%
G36*
G01*
X35299000Y-92696000D02*
X34049000Y-92696000D01*
G75*
G02*
X33799000Y-92446000I0J250000D01*
G01*
X33799000Y-91646000D01*
G75*
G02*
X34049000Y-91396000I250000J0D01*
G01*
X35299000Y-91396000D01*
G75*
G02*
X35549000Y-91646000I0J-250000D01*
G01*
X35549000Y-92446000D01*
G75*
G02*
X35299000Y-92696000I-250000J0D01*
G01*
G37*
G36*
G01*
X35299000Y-95796000D02*
X34049000Y-95796000D01*
G75*
G02*
X33799000Y-95546000I0J250000D01*
G01*
X33799000Y-94746000D01*
G75*
G02*
X34049000Y-94496000I250000J0D01*
G01*
X35299000Y-94496000D01*
G75*
G02*
X35549000Y-94746000I0J-250000D01*
G01*
X35549000Y-95546000D01*
G75*
G02*
X35299000Y-95796000I-250000J0D01*
G01*
G37*
%TD*%
M02*
