M48
; DRILL file {KiCad (5.1.9)-1} date 07/06/21 15:25:54
; FORMAT={-:-/ absolute / inch / decimal}
; #@! TF.CreationDate,2021-07-06T15:25:54+10:00
; #@! TF.GenerationSoftware,Kicad,Pcbnew,(5.1.9)-1
; #@! TF.FileFunction,Plated,1,2,PTH
FMAT,2
INCH
T1C0.0118
T2C0.0157
T3C0.0394
T4C0.0433
T5C0.0591
%
G90
G05
T1
X0.2008Y-4.35
X0.2008Y-5.0692
X0.2627Y-0.3827
X0.2647Y-0.83
X0.2647Y-0.9101
X0.3Y-3.9
X0.3Y-4.1
X0.3Y-4.3
X0.3Y-4.5
X0.3Y-4.7
X0.3Y-4.9
X0.3Y-5.1
X0.3041Y-1.0459
X0.33Y-1.08
X0.3465Y-1.19
X0.378Y-0.432
X0.378Y-2.672
X0.38Y-1.36
X0.4Y-0.15
X0.4Y-0.25
X0.4Y-2.4
X0.4Y-3.0
X0.4Y-3.6
X0.4Y-4.2
X0.4Y-5.4
X0.4491Y-0.7391
X0.45Y-0.55
X0.45Y-1.2
X0.45Y-1.35
X0.45Y-1.5
X0.45Y-1.7
X0.45Y-1.9
X0.45Y-2.1
X0.45Y-2.3
X0.45Y-2.5
X0.45Y-2.7
X0.45Y-2.9
X0.45Y-3.1
X0.45Y-3.3
X0.45Y-3.5
X0.45Y-3.7
X0.45Y-3.9
X0.45Y-4.1
X0.45Y-4.4
X0.475Y-0.9
X0.5Y-0.15
X0.5Y-0.35
X0.5Y-4.7
X0.5Y-4.9
X0.5Y-5.1
X0.55Y-0.45
X0.55Y-0.8
X0.6Y-4.8
X0.6Y-5.0
X0.6Y-5.2
X0.625Y-0.725
X0.7Y-0.65
X0.7Y-5.3
X0.775Y-0.575
X0.8Y-0.05
X0.8Y-0.35
X0.8Y-5.2
X0.8551Y-1.1339
X0.8551Y-1.5339
X0.8551Y-1.9339
X0.8551Y-2.3339
X0.8551Y-2.7339
X0.8551Y-3.1339
X0.8551Y-3.5339
X0.8551Y-4.3339
X0.8551Y-4.7339
X0.9Y0.05
X0.9Y-0.575
X1.0Y-0.05
X1.0Y-0.2
X1.0Y-0.35
X1.0Y-5.2
X1.0Y-5.4
X1.0551Y-0.9339
X1.0551Y-1.3339
X1.0551Y-2.1339
X1.0551Y-2.5339
X1.0551Y-2.9339
X1.0551Y-4.1339
X1.0551Y-4.5339
X1.1Y-5.3
X1.15Y0.1
X1.15Y-0.05
X1.15Y-0.2
X1.15Y-0.35
X1.2Y-5.2
X1.2Y-5.4
X1.2551Y-0.7339
X1.2551Y-1.1339
X1.2551Y-1.9339
X1.2551Y-2.7339
X1.2551Y-4.7339
X1.3Y-0.05
X1.3Y-0.2
X1.3Y-0.35
X1.3Y-5.3
X1.3951Y-0.4341
X1.4Y-5.1
X1.45Y0.16
X1.45Y0.06
X1.45Y-0.04
X1.45Y-0.3
X1.4551Y-0.9339
X1.4551Y-1.7339
X1.4551Y-2.1339
X1.4551Y-2.5339
X1.4551Y-2.9339
X1.4551Y-3.3339
X1.4551Y-3.7339
X1.4551Y-4.1339
X1.4551Y-4.5339
X1.4817Y-5.3583
X1.5Y-5.3
X1.51Y0.31
X1.6Y-0.3
X1.6Y-5.1
X1.6Y-5.4
X1.61Y0.11
X1.6288Y-1.1825
X1.6551Y-1.9339
X1.6551Y-2.3339
X1.6551Y-2.7339
X1.6551Y-3.1339
X1.6551Y-3.5339
X1.6551Y-3.9339
X1.6551Y-4.3339
X1.6551Y-4.7339
X1.7Y-5.3
X1.75Y0.1
X1.75Y-0.3
X1.8Y-5.4
X1.8065Y0.3091
X1.84Y0.5
X1.85Y-0.2
X1.8551Y-1.3339
X1.8551Y-4.1339
X1.8551Y-4.5339
X1.9Y0.12
X1.9Y-5.3
X1.95Y-0.3
X2.0Y-5.1
X2.03Y0.56
X2.0551Y-1.5339
X2.0551Y-1.9339
X2.0551Y-2.7339
X2.0551Y-3.5339
X2.0551Y-3.9339
X2.0551Y-4.3339
X2.0551Y-4.7339
X2.0572Y-0.7541
X2.1Y-0.3
X2.1Y-5.3
X2.1077Y0.4546
X2.11Y0.2
X2.13Y0.43
X2.1301Y-0.7839
X2.14Y-0.1
X2.1847Y0.1596
X2.19Y0.58
X2.2Y-5.1
X2.2Y-5.4
X2.21Y0.41
X2.21Y0.32
X2.2443Y0.1348
X2.25Y-0.3
X2.2523Y0.4989
X2.2551Y-1.3339
X2.2551Y-1.7339
X2.2551Y-2.1339
X2.2551Y-2.5339
X2.2551Y-2.9339
X2.2551Y-3.3339
X2.2551Y-3.7339
X2.2551Y-4.1339
X2.2551Y-4.5339
X2.2672Y0.1132
X2.2892Y-0.2008
X2.2892Y-0.4587
X2.3Y-5.3
X2.3051Y-0.9589
X2.3223Y0.0123
X2.34Y-0.1354
X2.35Y0.41
X2.35Y-0.0854
X2.4Y-0.1846
X2.4Y-0.3
X2.4Y-5.4
X2.4051Y-1.0339
X2.4236Y-0.9287
X2.4253Y-0.037
X2.44Y0.24
X2.4476Y-0.0124
X2.45Y0.08
X2.4547Y-0.9587
X2.4551Y-1.5339
X2.4551Y-1.9339
X2.4551Y-2.3339
X2.4551Y-2.7339
X2.4551Y-3.5339
X2.4551Y-3.9339
X2.4551Y-4.3339
X2.4551Y-4.7339
X2.47Y-0.06
X2.4896Y0.2252
X2.494Y0.34
X2.5Y0.51
X2.5039Y-0.9291
X2.5252Y0.2244
X2.5351Y-0.9041
X2.55Y-0.3
X2.5551Y-0.8689
X2.57Y0.6
X2.57Y0.33
X2.57Y0.23
X2.5799Y-0.7841
X2.6Y-5.1
X2.65Y0.07
X2.6551Y-0.9839
X2.6551Y-4.1339
X2.7Y-0.3
X2.76Y0.43
X2.76Y0.34
X2.7751Y-0.8441
X2.7751Y-1.1241
X2.78Y0.61
X2.8Y-5.1
X2.8Y-5.4
X2.8168Y-0.9417
X2.8194Y-1.0467
X2.8351Y-0.8641
X2.8351Y-0.9041
X2.85Y-0.3
X2.8551Y-1.0339
X2.8551Y-3.5339
X2.8551Y-3.9339
X2.8551Y-4.3339
X2.87Y0.27
X2.8801Y-0.9339
X2.8892Y-0.2008
X2.8892Y-0.4833
X2.9751Y-1.1241
X3.0Y0.05
X3.0Y-0.3
X3.0Y-5.4
X3.0301Y-0.9339
X3.0315Y-5.1181
X3.0551Y-3.7339
X3.0551Y-4.1339
X3.0639Y-0.9274
X3.07Y0.61
X3.07Y0.42
X3.1Y-5.3
X3.1051Y-0.8839
X3.15Y0.05
X3.15Y-0.1
X3.1551Y-1.0839
X3.2551Y-1.5339
X3.2551Y-1.9339
X3.2551Y-2.3339
X3.2551Y-2.7339
X3.2551Y-3.1339
X3.2551Y-3.5339
X3.2551Y-3.9339
X3.2551Y-4.3339
X3.2551Y-4.7339
X3.2801Y-1.1589
X3.3Y0.05
X3.3Y-0.1
X3.3Y-0.25
X3.3Y-5.3
X3.3301Y-1.1589
X3.3551Y-1.2839
X3.4Y-5.4
X3.4298Y-0.9335
X3.45Y0.05
X3.45Y-0.1
X3.45Y-0.25
X3.4551Y-4.1339
X3.4551Y-4.5339
X3.4892Y-0.2008
X3.4892Y-0.5079
X3.5Y-5.3
X3.51Y0.55
X3.51Y0.41
X3.6Y0.05
X3.6Y-0.1
X3.6Y-0.25
X3.6Y-5.4
X3.6551Y-1.2839
X3.6551Y-1.9339
X3.6551Y-2.7339
X3.6551Y-3.5339
X3.6551Y-3.9339
X3.6551Y-4.3339
X3.6551Y-4.7339
X3.7Y-5.3
X3.75Y-0.25
X3.7868Y-0.16
X3.8051Y-1.4339
X3.82Y0.05
X3.8551Y-1.7339
X3.8551Y-2.1339
X3.8551Y-2.5339
X3.8551Y-2.9339
X3.8551Y-3.3339
X3.8551Y-3.7339
X3.8551Y-4.1339
X3.8551Y-4.5339
X3.9Y-5.3
X3.91Y-0.5325
X3.9551Y-1.2839
X4.0Y-5.4
X4.05Y-0.25
X4.0551Y-0.7339
X4.0551Y-1.9339
X4.0551Y-2.3339
X4.0551Y-2.7339
X4.0551Y-3.1339
X4.0551Y-3.5339
X4.0551Y-3.9339
X4.0551Y-4.3339
X4.0551Y-4.7339
X4.1Y-5.3
X4.1051Y-1.4339
X4.12Y-0.1
X4.1551Y-1.1089
X4.16Y-0.02
X4.1654Y-0.0646
X4.2Y0.2
X4.2Y-0.25
X4.2Y-5.2
X4.2Y-5.4
X4.21Y0.06
X4.2551Y-0.9339
X4.2551Y-2.5339
X4.2551Y-2.9339
X4.2551Y-4.1339
X4.2551Y-4.5339
X4.3Y-5.3
X4.4Y-5.2
X4.4Y-5.4
X4.4551Y-0.7339
X4.4551Y-1.1339
X4.4551Y-1.9339
X4.4551Y-2.7339
X4.4551Y-3.5339
X4.4551Y-3.9339
X4.4551Y-4.3339
X4.4551Y-4.7339
X4.5Y-0.25
X4.5Y-5.3
X4.6Y-5.2
X4.6551Y-0.9339
X4.6551Y-1.3339
X4.6551Y-3.7339
X4.6551Y-4.1339
X4.6551Y-4.5339
X4.8Y-0.1
X4.8Y-0.4
X4.8Y-5.2
X4.8551Y-1.1339
X4.8551Y-1.5339
X4.8551Y-1.9339
X4.8551Y-2.3339
X4.8551Y-2.7339
X4.8551Y-3.1339
X4.8551Y-3.5339
X4.8551Y-3.9339
X4.8551Y-4.3339
X4.9Y-5.1
X4.95Y-0.4
X4.95Y-0.55
X5.0Y-5.0
X5.0Y-5.2
X5.0266Y-4.0911
X5.0512Y-3.4788
X5.07Y-0.82
X5.0758Y-2.8789
X5.1Y-0.4
X5.1Y-0.55
X5.1Y-0.7
X5.1Y-4.9
X5.1Y-5.1
X5.1Y-5.3
X5.1004Y-2.2796
X5.1811Y-2.2789
X5.1811Y-2.8789
X5.1811Y-3.4789
X5.1811Y-4.0911
X5.2Y-1.3
X5.2Y-1.9
X5.2Y-2.5
X5.2Y-3.1
X5.2Y-3.7
X5.2Y-4.3
X5.28Y-0.38
X5.29Y-0.82
X5.29Y-0.88
X5.29Y-0.96
X5.29Y-1.04
X5.29Y-1.12
X5.3Y-0.75
X5.3Y-1.4
X5.3Y-1.6
X5.3Y-1.8
X5.3Y-2.0
X5.3Y-2.2
X5.3Y-2.4
X5.3Y-2.6
X5.3Y-2.8
X5.3Y-3.0
X5.3Y-3.2
X5.3Y-3.4
X5.3Y-3.6
X5.3Y-3.8
X5.3Y-4.0
X5.3Y-4.2
X5.3Y-4.5
X5.3Y-4.7
X5.3Y-4.9
X5.3Y-5.1
X5.313Y-4.43
X5.32Y-4.8
X5.36Y-1.37
X5.4Y-0.5
X5.4Y-0.6
X5.4Y-0.9
X5.4Y-1.0
X5.4Y-1.2
X5.4Y-4.34
X5.43Y-4.66
T2
X2.51Y-0.378
X2.7795Y-4.8071
X2.7828Y-0.9577
X2.8386Y-4.4528
X2.8732Y-1.6171
X2.9715Y0.2495
X3.0258Y-2.2045
T3
X0.9583Y-3.0339
X0.9583Y-3.6339
X1.0567Y-3.0339
X1.0567Y-3.6339
X1.1551Y-3.0339
X1.1551Y-3.6339
X3.6551Y-0.8839
X3.6551Y-0.9839
X3.6551Y-1.0839
X3.7551Y-0.8839
X3.7551Y-0.9839
X3.7551Y-1.0839
X4.3985Y0.037
X4.4083Y-3.0339
X4.4083Y-3.6339
X4.4376Y0.1291
X4.4906Y-0.0021
X4.5067Y-3.0339
X4.5067Y-3.6339
X4.5296Y0.09
X4.5826Y-0.0411
X4.6051Y-3.0339
X4.6051Y-3.6339
X4.6217Y0.0509
T5
X1.0051Y-1.6339
X1.0051Y-2.4339
X1.2551Y-1.5339
X1.2551Y-2.3339
X1.8295Y-1.5583
X1.8295Y-2.3583
X1.8295Y-3.1583
X1.8295Y-3.9583
X2.0795Y-1.4583
X2.0795Y-2.2583
X2.0795Y-3.0583
X2.0795Y-3.8583
X2.6295Y-1.5583
X2.6295Y-2.3583
X2.6295Y-3.1583
X2.6295Y-3.9583
X2.8795Y-1.4583
X2.8795Y-2.2583
X2.8795Y-3.0583
X2.8795Y-3.8583
X3.4295Y-1.5583
X3.4295Y-2.3583
X3.4295Y-3.1583
X3.4295Y-3.9583
X3.6795Y-1.4583
X3.6795Y-2.2583
X3.6795Y-3.0583
X3.6795Y-3.8583
X4.2551Y-1.6339
X4.2551Y-2.4339
X4.5051Y-1.5339
X4.5051Y-2.3339
T4
G00X0.8677Y-3.3154
M15
G01X0.8677Y-3.3429
M16
G05
G00X0.8677Y-3.9154
M15
G01X0.8677Y-3.9429
M16
G05
G00X1.2457Y-3.3154
M15
G01X1.2457Y-3.3429
M16
G05
G00X1.2457Y-3.9154
M15
G01X1.2457Y-3.9429
M16
G05
G00X4.3177Y-3.3154
M15
G01X4.3177Y-3.3429
M16
G05
G00X4.3177Y-3.9154
M15
G01X4.3177Y-3.9429
M16
G05
G00X4.6957Y-3.3154
M15
G01X4.6957Y-3.3429
M16
G05
G00X4.6957Y-3.9154
M15
G01X4.6957Y-3.9429
M16
G05
T0
M30
