M48
; DRILL file {KiCad (5.1.9)-1} date 07/06/21 15:25:54
; FORMAT={-:-/ absolute / inch / decimal}
; #@! TF.CreationDate,2021-07-06T15:25:54+10:00
; #@! TF.GenerationSoftware,Kicad,Pcbnew,(5.1.9)-1
; #@! TF.FileFunction,NonPlated,1,2,NPTH
FMAT,2
INCH
T1C0.0197
T2C0.0669
T3C0.0787
T4C0.1575
%
G90
G05
T1
X0.565Y-2.6663
X0.565Y-2.6959
X0.565Y-2.7254
X0.565Y-2.7549
X0.565Y-2.7844
X0.565Y-2.814
X0.565Y-2.8435
X0.565Y-2.873
X0.565Y-2.9026
X0.624Y-2.6663
X0.624Y-2.6959
X0.624Y-2.7254
X0.624Y-2.7549
X0.624Y-2.7844
X0.624Y-2.814
X0.624Y-2.8435
X0.624Y-2.873
X0.624Y-2.9026
X2.6565Y-0.565
X2.6565Y-0.624
X2.6663Y-4.935
X2.6663Y-4.9941
X2.686Y-0.565
X2.686Y-0.624
X2.6959Y-4.935
X2.6959Y-4.9941
X2.7156Y-0.565
X2.7156Y-0.624
X2.7254Y-4.935
X2.7254Y-4.9941
X2.7451Y-0.565
X2.7451Y-0.624
X2.7549Y-4.935
X2.7549Y-4.9941
X2.7746Y-0.565
X2.7746Y-0.624
X2.7844Y-4.935
X2.7844Y-4.9941
X2.8041Y-0.565
X2.8041Y-0.624
X2.814Y-4.935
X2.814Y-4.9941
X2.8337Y-0.565
X2.8337Y-0.624
X2.8435Y-4.935
X2.8435Y-4.9941
X2.8632Y-0.565
X2.8632Y-0.624
X2.873Y-4.935
X2.873Y-4.9941
X2.8927Y-0.565
X2.8927Y-0.624
X2.9026Y-4.935
X2.9026Y-4.9941
X4.935Y-2.6565
X4.935Y-2.686
X4.935Y-2.7156
X4.935Y-2.7451
X4.935Y-2.7746
X4.935Y-2.8041
X4.935Y-2.8337
X4.935Y-2.8632
X4.935Y-2.8927
X4.9941Y-2.6565
X4.9941Y-2.686
X4.9941Y-2.7156
X4.9941Y-2.7451
X4.9941Y-2.7746
X4.9941Y-2.8041
X4.9941Y-2.8337
X4.9941Y-2.8632
X4.9941Y-2.8927
T2
X0.9551Y-1.7339
X0.9551Y-2.5339
X1.3551Y-1.7339
X1.3551Y-2.5339
X1.7795Y-1.6583
X1.7795Y-2.4583
X1.7795Y-3.2583
X1.7795Y-4.0583
X2.1795Y-1.6583
X2.1795Y-2.4583
X2.1795Y-3.2583
X2.1795Y-4.0583
X2.5795Y-1.6583
X2.5795Y-2.4583
X2.5795Y-3.2583
X2.5795Y-4.0583
X2.9795Y-1.6583
X2.9795Y-2.4583
X2.9795Y-3.2583
X2.9795Y-4.0583
X3.3795Y-1.6583
X3.3795Y-2.4583
X3.3795Y-3.2583
X3.3795Y-4.0583
X3.7795Y-1.6583
X3.7795Y-2.4583
X3.7795Y-3.2583
X3.7795Y-4.0583
X4.2051Y-1.7339
X4.2051Y-2.5339
X4.6051Y-1.7339
X4.6051Y-2.5339
T3
X0.5945Y-2.6024
X0.5945Y-2.9567
X2.6024Y-0.5945
X2.6024Y-4.9646
X2.9567Y-0.5945
X2.9567Y-4.9646
X4.9646Y-2.6024
X4.9646Y-2.9567
T4
X1.1551Y-1.7339
X1.1551Y-2.5339
X1.9795Y-1.6583
X1.9795Y-2.4583
X1.9795Y-3.2583
X1.9795Y-4.0583
X2.7795Y-1.6583
X2.7795Y-2.4583
X2.7795Y-3.2583
X2.7795Y-4.0583
X3.5795Y-1.6583
X3.5795Y-2.4583
X3.5795Y-3.2583
X3.5795Y-4.0583
X4.4051Y-1.7339
X4.4051Y-2.5339
T0
M30
