<?xml version="1.0" encoding="UTF-8" standalone="no"?>
<svg
   viewBox="0 0 793.7007874015749 1122.5196850393702"
   width="793.7007874015749"
   height="1122.5196850393702"
   version="1.1"
   id="svg73"
   sodipodi:docname="ButtonBox-Bottomplate.DXF"
   xmlns:inkscape="http://www.inkscape.org/namespaces/inkscape"
   xmlns:sodipodi="http://sodipodi.sourceforge.net/DTD/sodipodi-0.dtd"
   xmlns="http://www.w3.org/2000/svg"
   xmlns:svg="http://www.w3.org/2000/svg">
  <sodipodi:namedview
     id="namedview75"
     pagecolor="#ffffff"
     bordercolor="#666666"
     borderopacity="1.0"
     inkscape:pageshadow="2"
     inkscape:pageopacity="0.0"
     inkscape:pagecheckerboard="0" />
  <desc
     id="desc2">ButtonBox-Bottomplate.DXF - scale = 1.0, origin = (0.0, 0.0), method = manual</desc>
  <defs
     id="defs17">
    <marker
       id="DistanceX"
       orient="auto"
       refX="0.0"
       refY="0.0"
       style="overflow:visible">
      <path
         d="M 3,-3 L -3,3 M 0,-5 L  0,5"
         style="stroke:#000000; stroke-width:0.5"
         id="path4" />
    </marker>
    <pattern
       id="Hatch"
       patternUnits="userSpaceOnUse"
       width="8"
       height="8"
       x="0"
       y="0">
      <path
         d="M8 4 l-4,4"
         stroke="#000000"
         stroke-width="0.25"
         linecap="square"
         id="path7" />
      <path
         d="M6 2 l-4,4"
         stroke="#000000"
         stroke-width="0.25"
         linecap="square"
         id="path9" />
      <path
         d="M4 0 l-4,4"
         stroke="#000000"
         stroke-width="0.25"
         linecap="square"
         id="path11" />
    </pattern>
    <symbol
       id="*Model_Space" />
    <symbol
       id="*Paper_Space" />
    <symbol
       id="*Paper_Space0" />
  </defs>
  <g
     inkscape:groupmode="layer"
     inkscape:label="0"
     id="g71">
    <path
       d="M 89.231640,960.226772 A 6.082034,6.082034 -0.000000 1 0 77.067572,960.226772 6.082034,6.082034 -0.000000 1 0 89.231640,960.226772 z"
       style="fill:none;stroke:#000000;stroke-width:0.9;stroke-linecap: round"
       id="path19" />
    <path
       d="M -77.067572,1284.812598 A 6.082034,6.082034 -0.000000 1 0 -89.231640,1284.812598 6.082034,6.082034 -0.000000 1 0 -77.067572,1284.812598 z"
       style="fill:none;stroke:#000000;stroke-width:0.9;stroke-linecap: round"
       id="path21" />
    <path
       d="M 8.692913,980.787402 A 8.692913,8.692913 -0.000000 1 0 -8.692913,980.787402 8.692913,8.692913 -0.000000 1 0 8.692913,980.787402 z"
       style="fill:none;stroke:#000000;stroke-width:0.9;stroke-linecap: round"
       id="path23" />
    <path
       style="fill:none;stroke:#000000;stroke-width:0.9;stroke-linecap:round"
       d="M 116.22 901.417 L 52.9134 901.417"
       id="path25" />
    <path
       style="fill:none;stroke:#000000;stroke-width:0.9;stroke-linecap:round"
       d="M 52.9134 901.417 L 52.9134 912.756"
       id="path27" />
    <path
       style="fill:none;stroke:#000000;stroke-width:0.9;stroke-linecap:round"
       d="M 52.9134 912.756 L -52.9134 912.756"
       id="path29" />
    <path
       style="fill:none;stroke:#000000;stroke-width:0.9;stroke-linecap:round"
       d="M -52.9134 912.756 L -52.9134 901.417"
       id="path31" />
    <path
       style="fill:none;stroke:#000000;stroke-width:0.9;stroke-linecap:round"
       d="M -52.9134 901.417 L -116.22 901.417"
       id="path33" />
    <path
       style="fill:none;stroke:#000000;stroke-width:0.9;stroke-linecap:round"
       d="M -116.22 901.417 L -116.22 1048.82"
       id="path35" />
    <path
       style="fill:none;stroke:#000000;stroke-width:0.9;stroke-linecap:round"
       d="M -116.22 1048.82 L -104.882 1048.82"
       id="path37" />
    <path
       style="fill:none;stroke:#000000;stroke-width:0.9;stroke-linecap:round"
       d="M -104.882 1048.82 L -104.882 1196.22"
       id="path39" />
    <path
       style="fill:none;stroke:#000000;stroke-width:0.9;stroke-linecap:round"
       d="M -104.882 1196.22 L -116.22 1196.22"
       id="path41" />
    <path
       style="fill:none;stroke:#000000;stroke-width:0.9;stroke-linecap:round"
       d="M -116.22 1196.22 L -116.22 1343.62"
       id="path43" />
    <path
       style="fill:none;stroke:#000000;stroke-width:0.9;stroke-linecap:round"
       d="M -116.22 1343.62 L -52.9134 1343.62"
       id="path45" />
    <path
       style="fill:none;stroke:#000000;stroke-width:0.9;stroke-linecap:round"
       d="M -52.9134 1343.62 L -52.9134 1332.28"
       id="path47" />
    <path
       style="fill:none;stroke:#000000;stroke-width:0.9;stroke-linecap:round"
       d="M -52.9134 1332.28 L 52.9134 1332.28"
       id="path49" />
    <path
       style="fill:none;stroke:#000000;stroke-width:0.9;stroke-linecap:round"
       d="M 52.9134 1332.28 L 52.9134 1343.62"
       id="path51" />
    <path
       style="fill:none;stroke:#000000;stroke-width:0.9;stroke-linecap:round"
       d="M 52.9134 1343.62 L 116.22 1343.62"
       id="path53" />
    <path
       style="fill:none;stroke:#000000;stroke-width:0.9;stroke-linecap:round"
       d="M 116.22 1343.62 L 116.22 1196.22"
       id="path55" />
    <path
       style="fill:none;stroke:#000000;stroke-width:0.9;stroke-linecap:round"
       d="M 116.22 1196.22 L 104.882 1196.22"
       id="path57" />
    <path
       style="fill:none;stroke:#000000;stroke-width:0.9;stroke-linecap:round"
       d="M 104.882 1196.22 L 104.882 1048.82"
       id="path59" />
    <path
       style="fill:none;stroke:#000000;stroke-width:0.9;stroke-linecap:round"
       d="M 104.882 1048.82 L 116.22 1048.82"
       id="path61" />
    <path
       style="fill:none;stroke:#000000;stroke-width:0.9;stroke-linecap:round"
       d="M 116.22 1048.82 L 116.22 901.417"
       id="path63" />
    <path
       d="M 8.692913,1264.251969 A 8.692913,8.692913 -0.000000 1 0 -8.692913,1264.251969 8.692913,8.692913 -0.000000 1 0 8.692913,1264.251969 z"
       style="fill:none;stroke:#000000;stroke-width:0.9;stroke-linecap: round"
       id="path65" />
    <path
       d="M 89.231640,1284.812598 A 6.082034,6.082034 -0.000000 1 0 77.067572,1284.812598 6.082034,6.082034 -0.000000 1 0 89.231640,1284.812598 z"
       style="fill:none;stroke:#000000;stroke-width:0.9;stroke-linecap: round"
       id="path67" />
    <path
       d="M -77.067572,960.226772 A 6.082034,6.082034 -0.000000 1 0 -89.231640,960.226772 6.082034,6.082034 -0.000000 1 0 -77.067572,960.226772 z"
       style="fill:none;stroke:#000000;stroke-width:0.9;stroke-linecap: round"
       id="path69" />
  </g>
</svg>
