<?xml version="1.0" encoding="UTF-8" standalone="no"?>
<svg
   viewBox="0 0 793.7007874015749 1122.5196850393702"
   width="793.7007874015749"
   height="1122.5196850393702"
   version="1.1"
   id="svg75"
   sodipodi:docname="Master-Front.DXF"
   xmlns:inkscape="http://www.inkscape.org/namespaces/inkscape"
   xmlns:sodipodi="http://sodipodi.sourceforge.net/DTD/sodipodi-0.dtd"
   xmlns="http://www.w3.org/2000/svg"
   xmlns:svg="http://www.w3.org/2000/svg">
  <sodipodi:namedview
     id="namedview77"
     pagecolor="#ffffff"
     bordercolor="#666666"
     borderopacity="1.0"
     inkscape:pageshadow="2"
     inkscape:pageopacity="0.0"
     inkscape:pagecheckerboard="0" />
  <desc
     id="desc2">Master-Front.DXF - scale = 1.0, origin = (0.0, 0.0), method = manual</desc>
  <defs
     id="defs17">
    <marker
       id="DistanceX"
       orient="auto"
       refX="0.0"
       refY="0.0"
       style="overflow:visible">
      <path
         d="M 3,-3 L -3,3 M 0,-5 L  0,5"
         style="stroke:#000000; stroke-width:0.5"
         id="path4" />
    </marker>
    <pattern
       id="Hatch"
       patternUnits="userSpaceOnUse"
       width="8"
       height="8"
       x="0"
       y="0">
      <path
         d="M8 4 l-4,4"
         stroke="#000000"
         stroke-width="0.25"
         linecap="square"
         id="path7" />
      <path
         d="M6 2 l-4,4"
         stroke="#000000"
         stroke-width="0.25"
         linecap="square"
         id="path9" />
      <path
         d="M4 0 l-4,4"
         stroke="#000000"
         stroke-width="0.25"
         linecap="square"
         id="path11" />
    </pattern>
    <symbol
       id="*Model_Space" />
    <symbol
       id="*Paper_Space" />
    <symbol
       id="*Paper_Space0" />
  </defs>
  <g
     inkscape:groupmode="layer"
     inkscape:label="0"
     id="g73">
    <path
       style="fill:none;stroke:#000000;stroke-width:0.9;stroke-linecap:round"
       d="M 0 1190.55 L 0 1074.94"
       id="path19" />
    <path
       style="fill:none;stroke:#000000;stroke-width:0.9;stroke-linecap:round"
       d="M -94.4882 1190.55 L 0 1190.55"
       id="path21" />
    <path
       style="fill:none;stroke:#000000;stroke-width:0.9;stroke-linecap:round"
       d="M -94.4882 1074.94 L -94.4882 1190.55"
       id="path23" />
    <path
       style="fill:none;stroke:#000000;stroke-width:0.9;stroke-linecap:round"
       d="M 0 1074.94 L -94.4882 1074.94"
       id="path25" />
    <path
       d="M 85.487244,1063.218898 A 6.047244,6.047244 -0.000000 1 0 73.392756,1063.218898 6.047244,6.047244 -0.000000 1 0 85.487244,1063.218898 z"
       style="fill:none;stroke:#000000;stroke-width:0.9;stroke-linecap: round"
       id="path27" />
    <path
       style="fill:none;stroke:#000000;stroke-width:0.9;stroke-linecap:round"
       d="M -37.1654 1031.81 L -111.496 1031.81"
       id="path29" />
    <path
       style="fill:none;stroke:#000000;stroke-width:0.9;stroke-linecap:round"
       d="M -111.496 1031.81 L -111.496 1092.28"
       id="path31" />
    <path
       style="fill:none;stroke:#000000;stroke-width:0.9;stroke-linecap:round"
       d="M -111.496 1092.28 L -100.157 1092.28"
       id="path33" />
    <path
       style="fill:none;stroke:#000000;stroke-width:0.9;stroke-linecap:round"
       d="M -100.157 1092.28 L -100.157 1152.76"
       id="path35" />
    <path
       style="fill:none;stroke:#000000;stroke-width:0.9;stroke-linecap:round"
       d="M -100.157 1152.76 L -111.496 1152.76"
       id="path37" />
    <path
       style="fill:none;stroke:#000000;stroke-width:0.9;stroke-linecap:round"
       d="M -111.496 1152.76 L -111.496 1213.23"
       id="path39" />
    <path
       style="fill:none;stroke:#000000;stroke-width:0.9;stroke-linecap:round"
       d="M -111.496 1213.23 L -37.1654 1213.23"
       id="path41" />
    <path
       style="fill:none;stroke:#000000;stroke-width:0.9;stroke-linecap:round"
       d="M -37.1654 1213.23 L -37.1654 1201.89"
       id="path43" />
    <path
       style="fill:none;stroke:#000000;stroke-width:0.9;stroke-linecap:round"
       d="M -37.1654 1201.89 L 37.1654 1201.89"
       id="path45" />
    <path
       style="fill:none;stroke:#000000;stroke-width:0.9;stroke-linecap:round"
       d="M 37.1654 1201.89 L 37.1654 1213.23"
       id="path47" />
    <path
       style="fill:none;stroke:#000000;stroke-width:0.9;stroke-linecap:round"
       d="M 37.1654 1213.23 L 111.496 1213.23"
       id="path49" />
    <path
       style="fill:none;stroke:#000000;stroke-width:0.9;stroke-linecap:round"
       d="M 111.496 1213.23 L 111.496 1152.76"
       id="path51" />
    <path
       style="fill:none;stroke:#000000;stroke-width:0.9;stroke-linecap:round"
       d="M 111.496 1152.76 L 100.157 1152.76"
       id="path53" />
    <path
       style="fill:none;stroke:#000000;stroke-width:0.9;stroke-linecap:round"
       d="M 100.157 1152.76 L 100.157 1092.28"
       id="path55" />
    <path
       style="fill:none;stroke:#000000;stroke-width:0.9;stroke-linecap:round"
       d="M 100.157 1092.28 L 111.496 1092.28"
       id="path57" />
    <path
       style="fill:none;stroke:#000000;stroke-width:0.9;stroke-linecap:round"
       d="M 111.496 1092.28 L 111.496 1031.81"
       id="path59" />
    <path
       style="fill:none;stroke:#000000;stroke-width:0.9;stroke-linecap:round"
       d="M 111.496 1031.81 L 37.1654 1031.81"
       id="path61" />
    <path
       style="fill:none;stroke:#000000;stroke-width:0.9;stroke-linecap:round"
       d="M 37.1654 1031.81 L 37.1654 1043.15"
       id="path63" />
    <path
       style="fill:none;stroke:#000000;stroke-width:0.9;stroke-linecap:round"
       d="M 37.1654 1043.15 L -37.1654 1043.15"
       id="path65" />
    <path
       style="fill:none;stroke:#000000;stroke-width:0.9;stroke-linecap:round"
       d="M -37.1654 1043.15 L -37.1654 1031.81"
       id="path67" />
    <path
       d="M -73.392756,1063.218898 A 6.047244,6.047244 -0.000000 1 0 -85.487244,1063.218898 6.047244,6.047244 -0.000000 1 0 -73.392756,1063.218898 z"
       style="fill:none;stroke:#000000;stroke-width:0.9;stroke-linecap: round"
       id="path69" />
    <path
       d="M 85.487244,1173.618898 A 6.047244,6.047244 -0.000000 1 0 73.392756,1173.618898 6.047244,6.047244 -0.000000 1 0 85.487244,1173.618898 z"
       style="fill:none;stroke:#000000;stroke-width:0.9;stroke-linecap: round"
       id="path71" />
  </g>
</svg>
