<?xml version="1.0" encoding="UTF-8" standalone="no"?>
<svg
   viewBox="0 0 793.7007874015749 1122.5196850393702"
   width="793.7007874015749"
   height="1122.5196850393702"
   version="1.1"
   id="svg87"
   sodipodi:docname="Master-Back.svg"
   inkscape:version="1.1.1 (3bf5ae0d25, 2021-09-20)"
   xmlns:inkscape="http://www.inkscape.org/namespaces/inkscape"
   xmlns:sodipodi="http://sodipodi.sourceforge.net/DTD/sodipodi-0.dtd"
   xmlns="http://www.w3.org/2000/svg"
   xmlns:svg="http://www.w3.org/2000/svg">
  <sodipodi:namedview
     id="namedview89"
     pagecolor="#ffffff"
     bordercolor="#666666"
     borderopacity="1.0"
     inkscape:pageshadow="2"
     inkscape:pageopacity="0.0"
     inkscape:pagecheckerboard="0"
     showgrid="false"
     inkscape:zoom="4.3994185"
     inkscape:cx="13.638166"
     inkscape:cy="1164.9267"
     inkscape:window-width="3840"
     inkscape:window-height="2066"
     inkscape:window-x="1525"
     inkscape:window-y="-11"
     inkscape:window-maximized="1"
     inkscape:current-layer="g85" />
  <desc
     id="desc2">Master-Back.DXF - scale = 1.0, origin = (0.0, 0.0), method = manual</desc>
  <defs
     id="defs17">
    <marker
       id="DistanceX"
       orient="auto"
       refX="0.0"
       refY="0.0"
       style="overflow:visible">
      <path
         d="M 3,-3 L -3,3 M 0,-5 L  0,5"
         style="stroke:#000000; stroke-width:0.5"
         id="path4" />
    </marker>
    <pattern
       id="Hatch"
       patternUnits="userSpaceOnUse"
       width="8"
       height="8"
       x="0"
       y="0">
      <path
         d="M8 4 l-4,4"
         stroke="#000000"
         stroke-width="0.25"
         linecap="square"
         id="path7" />
      <path
         d="M6 2 l-4,4"
         stroke="#000000"
         stroke-width="0.25"
         linecap="square"
         id="path9" />
      <path
         d="M4 0 l-4,4"
         stroke="#000000"
         stroke-width="0.25"
         linecap="square"
         id="path11" />
    </pattern>
    <symbol
       id="*Model_Space" />
    <symbol
       id="*Paper_Space" />
    <symbol
       id="*Paper_Space0" />
  </defs>
  <g
     inkscape:groupmode="layer"
     inkscape:label="0"
     id="g85">
    <path
       style="fill:none;stroke:#000000;stroke-width:0.9;stroke-linecap:round"
       d="M -37.1654 1213.23 L 37.1654 1213.23"
       id="path19" />
    <path
       style="fill:none;stroke:#000000;stroke-width:0.9;stroke-linecap:round"
       d="M -37.1654 1213.23 L -37.1654 1201.89"
       id="path21" />
    <path
       style="fill:none;stroke:#000000;stroke-width:0.9;stroke-linecap:round"
       d="M -37.1654 1201.89 L 37.1654 1201.89"
       id="path23" />
    <path
       style="fill:none;stroke:#000000;stroke-width:0.9;stroke-linecap:round"
       d="M 37.1654 1201.89 L 37.1654 1213.23"
       id="path25" />
    <path
       style="fill:none;stroke:#000000;stroke-width:0.9;stroke-linecap:round"
       d="M -37.1654 997.795 L -74.3307 1031.81"
       id="path27" />
    <path
       style="fill:none;stroke:#000000;stroke-width:0.9;stroke-linecap:round"
       d="M -74.3307 1031.81 L -111.496 1031.81"
       id="path29" />
    <path
       style="fill:none;stroke:#000000;stroke-width:0.9;stroke-linecap:round"
       d="M -111.496 1031.81 L -111.496 1092.28"
       id="path31" />
    <path
       style="fill:none;stroke:#000000;stroke-width:0.9;stroke-linecap:round"
       d="M -111.496 1092.28 L -100.157 1092.28"
       id="path33" />
    <path
       style="fill:none;stroke:#000000;stroke-width:0.9;stroke-linecap:round"
       d="M -100.157 1092.28 L -100.157 1152.76"
       id="path35" />
    <path
       style="fill:none;stroke:#000000;stroke-width:0.9;stroke-linecap:round"
       d="M -100.157 1152.76 L -111.496 1152.76"
       id="path37" />
    <path
       style="fill:none;stroke:#000000;stroke-width:0.9;stroke-linecap:round"
       d="M -111.496 1152.76 L -111.496 1213.23"
       id="path39" />
    <path
       style="fill:none;stroke:#000000;stroke-width:0.9;stroke-linecap:round"
       d="M -111.496 1213.23 L -74.3307 1213.23"
       id="path41" />
    <path
       style="fill:none;stroke:#000000;stroke-width:0.9;stroke-linecap:round"
       d="M -37.1654 1247.24 L -74.3307 1213.23"
       id="path43" />
    <path
       style="fill:none;stroke:#000000;stroke-width:0.9;stroke-linecap:round"
       d="M 37.1654 1247.24 L -37.1654 1247.24"
       id="path45" />
    <path
       style="fill:none;stroke:#000000;stroke-width:0.9;stroke-linecap:round"
       d="M 74.3307 1213.23 L 37.1654 1247.24"
       id="path47" />
    <path
       style="fill:none;stroke:#000000;stroke-width:0.9;stroke-linecap:round"
       d="M 74.3307 1213.23 L 111.496 1213.23"
       id="path49" />
    <path
       style="fill:none;stroke:#000000;stroke-width:0.9;stroke-linecap:round"
       d="M 111.496 1213.23 L 111.496 1152.76"
       id="path51" />
    <path
       style="fill:none;stroke:#000000;stroke-width:0.9;stroke-linecap:round"
       d="M 111.496 1152.76 L 100.157 1152.76"
       id="path53" />
    <path
       style="fill:none;stroke:#000000;stroke-width:0.9;stroke-linecap:round"
       d="M 100.157 1152.76 L 100.157 1092.28"
       id="path55" />
    <path
       style="fill:none;stroke:#000000;stroke-width:0.9;stroke-linecap:round"
       d="M 100.157 1092.28 L 111.496 1092.28"
       id="path57" />
    <path
       style="fill:none;stroke:#000000;stroke-width:0.9;stroke-linecap:round"
       d="M 111.496 1092.28 L 111.496 1031.81"
       id="path59" />
    <path
       style="fill:none;stroke:#000000;stroke-width:0.9;stroke-linecap:round"
       d="M 111.496 1031.81 L 74.3307 1031.81"
       id="path61" />
    <path
       style="fill:none;stroke:#000000;stroke-width:0.9;stroke-linecap:round"
       d="M 74.3307 1031.81 L 37.1654 997.795"
       id="path63" />
    <path
       style="fill:none;stroke:#000000;stroke-width:0.9;stroke-linecap:round"
       d="M 37.1654 997.795 L -37.1654 997.795"
       id="path65" />
    <path
       d="M 85.487244,1063.218898 A 6.047244,6.047244 -0.000000 1 0 73.392756,1063.218898 6.047244,6.047244 -0.000000 1 0 85.487244,1063.218898 z"
       style="fill:none;stroke:#000000;stroke-width:0.9;stroke-linecap: round"
       id="path67" />
    <path
       style="fill:none;stroke:#000000;stroke-width:0.9;stroke-linecap:round"
       d="M -37.1654 1043.15 L -37.1654 1031.81"
       id="path69" />
    <path
       style="fill:none;stroke:#000000;stroke-width:0.9;stroke-linecap:round"
       d="M -37.1654 1031.81 L 37.1654 1031.81"
       id="path71" />
    <path
       style="fill:none;stroke:#000000;stroke-width:0.9;stroke-linecap:round"
       d="M 37.1654 1031.81 L 37.1654 1043.15"
       id="path73" />
    <path
       style="fill:none;stroke:#000000;stroke-width:0.9;stroke-linecap:round"
       d="M 37.1654 1043.15 L -37.1654 1043.15"
       id="path75" />
    <path
       d="M -73.392756,1063.218898 A 6.047244,6.047244 -0.000000 1 0 -85.487244,1063.218898 6.047244,6.047244 -0.000000 1 0 -73.392756,1063.218898 z"
       style="fill:none;stroke:#000000;stroke-width:0.9;stroke-linecap: round"
       id="path77" />
    <path
       d="M 85.487244,1173.618898 A 6.047244,6.047244 -0.000000 1 0 73.392756,1173.618898 6.047244,6.047244 -0.000000 1 0 85.487244,1173.618898 z"
       style="fill:none;stroke:#000000;stroke-width:0.9;stroke-linecap: round"
       id="path79" />
    <path
       d="M 7.937008,1014.803150 A 7.937008,7.937008 -0.000000 1 0 -7.937008,1014.803150 7.937008,7.937008 -0.000000 1 0 7.937008,1014.803150 z"
       style="fill:none;stroke:#000000;stroke-width:0.9;stroke-linecap: round"
       id="path81" />
    <path
       d="M 7.937008,1230.236220 A 7.937008,7.937008 -0.000000 1 0 -7.937008,1230.236220 7.937008,7.937008 -0.000000 1 0 7.937008,1230.236220 z"
       style="fill:none;stroke:#000000;stroke-width:0.9;stroke-linecap: round"
       id="path83" />
    <text
       xml:space="preserve"
       style="font-size:9.44882px;line-height:1.25;font-family:'Courier New';-inkscape-font-specification:'Courier New'"
       x="2.554846"
       y="1193.4966"
       id="text2588"><tspan
         sodipodi:role="line"
         id="tspan2586"
         x="2.5548406"
         y="1193.4966"
         style="font-size:9.44882px;text-align:center;text-anchor:middle;fill:none;stroke:#00ff00;stroke-opacity:1">https://github.com/Brunius/BruPit/</tspan></text>
  </g>
</svg>
