<?xml version="1.0" encoding="UTF-8" standalone="no"?>
<svg
   viewBox="0 0 793.7007874015749 1122.5196850393702"
   width="793.7007874015749"
   height="1122.5196850393702"
   version="1.1"
   id="svg477"
   sodipodi:docname="MFD-Layer4.DXF"
   xmlns:inkscape="http://www.inkscape.org/namespaces/inkscape"
   xmlns:sodipodi="http://sodipodi.sourceforge.net/DTD/sodipodi-0.dtd"
   xmlns="http://www.w3.org/2000/svg"
   xmlns:svg="http://www.w3.org/2000/svg">
  <sodipodi:namedview
     id="namedview479"
     pagecolor="#ffffff"
     bordercolor="#666666"
     borderopacity="1.0"
     inkscape:pageshadow="2"
     inkscape:pageopacity="0.0"
     inkscape:pagecheckerboard="0" />
  <desc
     id="desc2">MFD-Layer4.DXF - scale = 1.0, origin = (0.0, 0.0), method = manual</desc>
  <defs
     id="defs17">
    <marker
       id="DistanceX"
       orient="auto"
       refX="0.0"
       refY="0.0"
       style="overflow:visible">
      <path
         d="M 3,-3 L -3,3 M 0,-5 L  0,5"
         style="stroke:#000000; stroke-width:0.5"
         id="path4" />
    </marker>
    <pattern
       id="Hatch"
       patternUnits="userSpaceOnUse"
       width="8"
       height="8"
       x="0"
       y="0">
      <path
         d="M8 4 l-4,4"
         stroke="#000000"
         stroke-width="0.25"
         linecap="square"
         id="path7" />
      <path
         d="M6 2 l-4,4"
         stroke="#000000"
         stroke-width="0.25"
         linecap="square"
         id="path9" />
      <path
         d="M4 0 l-4,4"
         stroke="#000000"
         stroke-width="0.25"
         linecap="square"
         id="path11" />
    </pattern>
    <symbol
       id="*Model_Space" />
    <symbol
       id="*Paper_Space" />
    <symbol
       id="*Paper_Space0" />
  </defs>
  <g
     inkscape:groupmode="layer"
     inkscape:label="0"
     id="g475">
    <path
       d="M 217.209449,1366.677165 A 6.047244,6.047244 -0.000000 1 0 205.114961,1366.677165 6.047244,6.047244 -0.000000 1 0 217.209449,1366.677165 z"
       style="fill:none;stroke:#000000;stroke-width:0.9;stroke-linecap: round"
       id="path19" />
    <path
       d="M -205.114961,878.362205 A 6.047244,6.047244 -0.000000 1 0 -217.209449,878.362205 6.047244,6.047244 -0.000000 1 0 -205.114961,878.362205 z"
       style="fill:none;stroke:#000000;stroke-width:0.9;stroke-linecap: round"
       id="path21" />
    <path
       d="M -234.708661,1366.677165 A 9.448819,9.448819 -0.000000 1 0 -253.606299,1366.677165 9.448819,9.448819 -0.000000 1 0 -234.708661,1366.677165 z"
       style="fill:none;stroke:#000000;stroke-width:0.9;stroke-linecap: round"
       id="path23" />
    <path
       d="M 193.133858,878.362205 A 9.448819,9.448819 -0.000000 1 0 174.236220,878.362205 9.448819,9.448819 -0.000000 1 0 193.133858,878.362205 z"
       style="fill:none;stroke:#000000;stroke-width:0.9;stroke-linecap: round"
       id="path25" />
    <path
       d="M 253.606299,878.362205 A 9.448819,9.448819 -0.000000 1 0 234.708661,878.362205 9.448819,9.448819 -0.000000 1 0 253.606299,878.362205 z"
       style="fill:none;stroke:#000000;stroke-width:0.9;stroke-linecap: round"
       id="path27" />
    <path
       d="M 193.133858,1366.677165 A 9.448819,9.448819 -0.000000 1 0 174.236220,1366.677165 9.448819,9.448819 -0.000000 1 0 193.133858,1366.677165 z"
       style="fill:none;stroke:#000000;stroke-width:0.9;stroke-linecap: round"
       id="path29" />
    <path
       d="M 102.156704,841.889764 A 2.267717,2.267717 -0.000000 1 0 97.621271,841.889764 2.267717,2.267717 -0.000000 1 0 102.156704,841.889764 z"
       style="fill:none;stroke:#000000;stroke-width:0.9;stroke-linecap: round"
       id="path31" />
    <path
       d="M -37.245679,770.645669 A 37.795276,37.795276 -0.000000 0 0 -52.086191,773.681168"
       style="fill:none;stroke:#000000;stroke-width:0.9;stroke-linecap: round"
       id="path33" />
    <path
       style="fill:none;stroke:#000000;stroke-width:0.9;stroke-linecap:round"
       d="M -52.0862 773.681 L -238.8 853.398"
       id="path35" />
    <path
       d="M -247.713649,855.965609 A 37.795276,37.795276 -0.000000 0 0 -238.800085,853.397726"
       style="fill:none;stroke:#000000;stroke-width:0.9;stroke-linecap: round"
       id="path37" />
    <path
       d="M -247.713649,855.965609 A 22.677165,22.677165 -0.000000 0 0 -266.834646,878.362205"
       style="fill:none;stroke:#000000;stroke-width:0.9;stroke-linecap: round"
       id="path39" />
    <path
       style="fill:none;stroke:#000000;stroke-width:0.9;stroke-linecap:round"
       d="M -266.835 878.362 L -266.835 1366.68"
       id="path41" />
    <path
       d="M -266.834646,1366.677165 A 22.677165,22.677165 -0.000000 0 0 -244.157480,1389.354331"
       style="fill:none;stroke:#000000;stroke-width:0.9;stroke-linecap: round"
       id="path43" />
    <path
       style="fill:none;stroke:#000000;stroke-width:0.9;stroke-linecap:round"
       d="M -244.157 1389.35 L 244.157 1389.35"
       id="path45" />
    <path
       d="M 244.157480,1389.354331 A 22.677165,22.677165 -0.000000 0 0 266.834646,1366.677165"
       style="fill:none;stroke:#000000;stroke-width:0.9;stroke-linecap: round"
       id="path47" />
    <path
       style="fill:none;stroke:#000000;stroke-width:0.9;stroke-linecap:round"
       d="M 266.835 1366.68 L 266.835 878.362"
       id="path49" />
    <path
       d="M 266.834646,878.362205 A 22.677165,22.677165 -0.000000 0 0 247.713649,855.965609"
       style="fill:none;stroke:#000000;stroke-width:0.9;stroke-linecap: round"
       id="path51" />
    <path
       d="M 238.800085,853.397726 A 37.795276,37.795276 -0.000000 0 0 247.713649,855.965609"
       style="fill:none;stroke:#000000;stroke-width:0.9;stroke-linecap: round"
       id="path53" />
    <path
       style="fill:none;stroke:#000000;stroke-width:0.9;stroke-linecap:round"
       d="M 238.8 853.398 L 52.0862 773.681"
       id="path55" />
    <path
       d="M 52.086191,773.681168 A 37.795276,37.795276 -0.000000 0 0 37.245679,770.645669"
       style="fill:none;stroke:#000000;stroke-width:0.9;stroke-linecap: round"
       id="path57" />
    <path
       style="fill:none;stroke:#000000;stroke-width:0.9;stroke-linecap:round"
       d="M 37.2457 770.646 L -37.2457 770.646"
       id="path59" />
    <path
       d="M 9.448819,813.165354 A 9.448819,9.448819 -0.000000 1 0 -9.448819,813.165354 9.448819,9.448819 -0.000000 1 0 9.448819,813.165354 z"
       style="fill:none;stroke:#000000;stroke-width:0.9;stroke-linecap: round"
       id="path61" />
    <path
       style="fill:none;stroke:#000000;stroke-width:0.9;stroke-linecap:round"
       d="M -217.701 1346.08 L -217.701 1287.5"
       id="path63" />
    <path
       d="M -223.370079,1351.748031 A 5.669291,5.669291 -0.000000 0 0 -217.700787,1346.078740"
       style="fill:none;stroke:#000000;stroke-width:0.9;stroke-linecap: round"
       id="path65" />
    <path
       style="fill:none;stroke:#000000;stroke-width:0.9;stroke-linecap:round"
       d="M -253.606 1351.75 L -223.37 1351.75"
       id="path67" />
    <path
       d="M -259.275591,1346.078740 A 5.669291,5.669291 -0.000000 0 0 -253.606299,1351.748031"
       style="fill:none;stroke:#000000;stroke-width:0.9;stroke-linecap: round"
       id="path69" />
    <path
       style="fill:none;stroke:#000000;stroke-width:0.9;stroke-linecap:round"
       d="M -259.276 1287.5 L -259.276 1346.08"
       id="path71" />
    <path
       d="M -253.606299,1281.826772 A 5.669291,5.669291 -0.000000 0 0 -259.275591,1287.496063"
       style="fill:none;stroke:#000000;stroke-width:0.9;stroke-linecap: round"
       id="path73" />
    <path
       style="fill:none;stroke:#000000;stroke-width:0.9;stroke-linecap:round"
       d="M -223.37 1281.83 L -253.606 1281.83"
       id="path75" />
    <path
       d="M -217.700787,1287.496063 A 5.669291,5.669291 -0.000000 0 0 -223.370079,1281.826772"
       style="fill:none;stroke:#000000;stroke-width:0.9;stroke-linecap: round"
       id="path77" />
    <path
       style="fill:none;stroke:#000000;stroke-width:0.9;stroke-linecap:round"
       d="M 217.701 1287.5 L 217.701 1346.08"
       id="path79" />
    <path
       d="M 223.370079,1281.826772 A 5.669291,5.669291 -0.000000 0 0 217.700787,1287.496063"
       style="fill:none;stroke:#000000;stroke-width:0.9;stroke-linecap: round"
       id="path81" />
    <path
       style="fill:none;stroke:#000000;stroke-width:0.9;stroke-linecap:round"
       d="M 253.606 1281.83 L 223.37 1281.83"
       id="path83" />
    <path
       d="M 259.275591,1287.496063 A 5.669291,5.669291 -0.000000 0 0 253.606299,1281.826772"
       style="fill:none;stroke:#000000;stroke-width:0.9;stroke-linecap: round"
       id="path85" />
    <path
       style="fill:none;stroke:#000000;stroke-width:0.9;stroke-linecap:round"
       d="M 259.276 1346.08 L 259.276 1287.5"
       id="path87" />
    <path
       d="M 253.606299,1351.748031 A 5.669291,5.669291 -0.000000 0 0 259.275591,1346.078740"
       style="fill:none;stroke:#000000;stroke-width:0.9;stroke-linecap: round"
       id="path89" />
    <path
       style="fill:none;stroke:#000000;stroke-width:0.9;stroke-linecap:round"
       d="M 223.37 1351.75 L 253.606 1351.75"
       id="path91" />
    <path
       d="M 217.700787,1346.078740 A 5.669291,5.669291 -0.000000 0 0 223.370079,1351.748031"
       style="fill:none;stroke:#000000;stroke-width:0.9;stroke-linecap: round"
       id="path93" />
    <path
       style="fill:none;stroke:#000000;stroke-width:0.9;stroke-linecap:round"
       d="M 217.701 898.961 L 217.701 957.543"
       id="path95" />
    <path
       d="M 223.370079,893.291339 A 5.669291,5.669291 -0.000000 0 0 217.700787,898.960630"
       style="fill:none;stroke:#000000;stroke-width:0.9;stroke-linecap: round"
       id="path97" />
    <path
       style="fill:none;stroke:#000000;stroke-width:0.9;stroke-linecap:round"
       d="M 253.606 893.291 L 223.37 893.291"
       id="path99" />
    <path
       d="M 259.275591,898.960630 A 5.669291,5.669291 -0.000000 0 0 253.606299,893.291339"
       style="fill:none;stroke:#000000;stroke-width:0.9;stroke-linecap: round"
       id="path101" />
    <path
       style="fill:none;stroke:#000000;stroke-width:0.9;stroke-linecap:round"
       d="M 259.276 957.543 L 259.276 898.961"
       id="path103" />
    <path
       d="M 253.606299,963.212598 A 5.669291,5.669291 -0.000000 0 0 259.275591,957.543307"
       style="fill:none;stroke:#000000;stroke-width:0.9;stroke-linecap: round"
       id="path105" />
    <path
       style="fill:none;stroke:#000000;stroke-width:0.9;stroke-linecap:round"
       d="M 223.37 963.213 L 253.606 963.213"
       id="path107" />
    <path
       d="M 217.700787,957.543307 A 5.669291,5.669291 -0.000000 0 0 223.370079,963.212598"
       style="fill:none;stroke:#000000;stroke-width:0.9;stroke-linecap: round"
       id="path109" />
    <path
       style="fill:none;stroke:#000000;stroke-width:0.9;stroke-linecap:round"
       d="M -217.701 957.543 L -217.701 898.961"
       id="path111" />
    <path
       d="M -223.370079,963.212598 A 5.669291,5.669291 -0.000000 0 0 -217.700787,957.543307"
       style="fill:none;stroke:#000000;stroke-width:0.9;stroke-linecap: round"
       id="path113" />
    <path
       style="fill:none;stroke:#000000;stroke-width:0.9;stroke-linecap:round"
       d="M -253.606 963.213 L -223.37 963.213"
       id="path115" />
    <path
       d="M -259.275591,957.543307 A 5.669291,5.669291 -0.000000 0 0 -253.606299,963.212598"
       style="fill:none;stroke:#000000;stroke-width:0.9;stroke-linecap: round"
       id="path117" />
    <path
       style="fill:none;stroke:#000000;stroke-width:0.9;stroke-linecap:round"
       d="M -259.276 898.961 L -259.276 957.543"
       id="path119" />
    <path
       d="M -253.606299,893.291339 A 5.669291,5.669291 -0.000000 0 0 -259.275591,898.960630"
       style="fill:none;stroke:#000000;stroke-width:0.9;stroke-linecap: round"
       id="path121" />
    <path
       style="fill:none;stroke:#000000;stroke-width:0.9;stroke-linecap:round"
       d="M -223.37 893.291 L -253.606 893.291"
       id="path123" />
    <path
       d="M -217.700787,898.960630 A 5.669291,5.669291 -0.000000 0 0 -223.370079,893.291339"
       style="fill:none;stroke:#000000;stroke-width:0.9;stroke-linecap: round"
       id="path125" />
    <path
       style="fill:none;stroke:#000000;stroke-width:0.9;stroke-linecap:round"
       d="M 259.276 1021.98 L 259.276 991.748"
       id="path127" />
    <path
       d="M 253.606299,1027.653543 A 5.669291,5.669291 -0.000000 0 0 259.275591,1021.984252"
       style="fill:none;stroke:#000000;stroke-width:0.9;stroke-linecap: round"
       id="path129" />
    <path
       style="fill:none;stroke:#000000;stroke-width:0.9;stroke-linecap:round"
       d="M 223.37 1027.65 L 253.606 1027.65"
       id="path131" />
    <path
       d="M 217.700787,1021.984252 A 5.669291,5.669291 -0.000000 0 0 223.370079,1027.653543"
       style="fill:none;stroke:#000000;stroke-width:0.9;stroke-linecap: round"
       id="path133" />
    <path
       style="fill:none;stroke:#000000;stroke-width:0.9;stroke-linecap:round"
       d="M 217.701 991.748 L 217.701 1021.98"
       id="path135" />
    <path
       d="M 223.370079,986.078740 A 5.669291,5.669291 -0.000000 0 0 217.700787,991.748031"
       style="fill:none;stroke:#000000;stroke-width:0.9;stroke-linecap: round"
       id="path137" />
    <path
       style="fill:none;stroke:#000000;stroke-width:0.9;stroke-linecap:round"
       d="M 253.606 986.079 L 223.37 986.079"
       id="path139" />
    <path
       d="M 259.275591,991.748031 A 5.669291,5.669291 -0.000000 0 0 253.606299,986.078740"
       style="fill:none;stroke:#000000;stroke-width:0.9;stroke-linecap: round"
       id="path141" />
    <path
       style="fill:none;stroke:#000000;stroke-width:0.9;stroke-linecap:round"
       d="M 259.276 1079.81 L 259.276 1049.57"
       id="path143" />
    <path
       d="M 253.606299,1085.480315 A 5.669291,5.669291 -0.000000 0 0 259.275591,1079.811024"
       style="fill:none;stroke:#000000;stroke-width:0.9;stroke-linecap: round"
       id="path145" />
    <path
       style="fill:none;stroke:#000000;stroke-width:0.9;stroke-linecap:round"
       d="M 223.37 1085.48 L 253.606 1085.48"
       id="path147" />
    <path
       d="M 217.700787,1079.811024 A 5.669291,5.669291 -0.000000 0 0 223.370079,1085.480315"
       style="fill:none;stroke:#000000;stroke-width:0.9;stroke-linecap: round"
       id="path149" />
    <path
       style="fill:none;stroke:#000000;stroke-width:0.9;stroke-linecap:round"
       d="M 217.701 1049.57 L 217.701 1079.81"
       id="path151" />
    <path
       d="M 223.370079,1043.905512 A 5.669291,5.669291 -0.000000 0 0 217.700787,1049.574803"
       style="fill:none;stroke:#000000;stroke-width:0.9;stroke-linecap: round"
       id="path153" />
    <path
       style="fill:none;stroke:#000000;stroke-width:0.9;stroke-linecap:round"
       d="M 253.606 1043.91 L 223.37 1043.91"
       id="path155" />
    <path
       d="M 259.275591,1049.574803 A 5.669291,5.669291 -0.000000 0 0 253.606299,1043.905512"
       style="fill:none;stroke:#000000;stroke-width:0.9;stroke-linecap: round"
       id="path157" />
    <path
       style="fill:none;stroke:#000000;stroke-width:0.9;stroke-linecap:round"
       d="M 259.276 1137.64 L 259.276 1107.4"
       id="path159" />
    <path
       d="M 253.606299,1143.307087 A 5.669291,5.669291 -0.000000 0 0 259.275591,1137.637795"
       style="fill:none;stroke:#000000;stroke-width:0.9;stroke-linecap: round"
       id="path161" />
    <path
       style="fill:none;stroke:#000000;stroke-width:0.9;stroke-linecap:round"
       d="M 223.37 1143.31 L 253.606 1143.31"
       id="path163" />
    <path
       d="M 217.700787,1137.637795 A 5.669291,5.669291 -0.000000 0 0 223.370079,1143.307087"
       style="fill:none;stroke:#000000;stroke-width:0.9;stroke-linecap: round"
       id="path165" />
    <path
       style="fill:none;stroke:#000000;stroke-width:0.9;stroke-linecap:round"
       d="M 217.701 1107.4 L 217.701 1137.64"
       id="path167" />
    <path
       d="M 223.370079,1101.732283 A 5.669291,5.669291 -0.000000 0 0 217.700787,1107.401575"
       style="fill:none;stroke:#000000;stroke-width:0.9;stroke-linecap: round"
       id="path169" />
    <path
       style="fill:none;stroke:#000000;stroke-width:0.9;stroke-linecap:round"
       d="M 253.606 1101.73 L 223.37 1101.73"
       id="path171" />
    <path
       d="M 259.275591,1107.401575 A 5.669291,5.669291 -0.000000 0 0 253.606299,1101.732283"
       style="fill:none;stroke:#000000;stroke-width:0.9;stroke-linecap: round"
       id="path173" />
    <path
       style="fill:none;stroke:#000000;stroke-width:0.9;stroke-linecap:round"
       d="M 259.276 1195.46 L 259.276 1165.23"
       id="path175" />
    <path
       d="M 253.606299,1201.133858 A 5.669291,5.669291 -0.000000 0 0 259.275591,1195.464567"
       style="fill:none;stroke:#000000;stroke-width:0.9;stroke-linecap: round"
       id="path177" />
    <path
       style="fill:none;stroke:#000000;stroke-width:0.9;stroke-linecap:round"
       d="M 223.37 1201.13 L 253.606 1201.13"
       id="path179" />
    <path
       d="M 217.700787,1195.464567 A 5.669291,5.669291 -0.000000 0 0 223.370079,1201.133858"
       style="fill:none;stroke:#000000;stroke-width:0.9;stroke-linecap: round"
       id="path181" />
    <path
       style="fill:none;stroke:#000000;stroke-width:0.9;stroke-linecap:round"
       d="M 217.701 1165.23 L 217.701 1195.46"
       id="path183" />
    <path
       d="M 223.370079,1159.559055 A 5.669291,5.669291 -0.000000 0 0 217.700787,1165.228346"
       style="fill:none;stroke:#000000;stroke-width:0.9;stroke-linecap: round"
       id="path185" />
    <path
       style="fill:none;stroke:#000000;stroke-width:0.9;stroke-linecap:round"
       d="M 253.606 1159.56 L 223.37 1159.56"
       id="path187" />
    <path
       d="M 259.275591,1165.228346 A 5.669291,5.669291 -0.000000 0 0 253.606299,1159.559055"
       style="fill:none;stroke:#000000;stroke-width:0.9;stroke-linecap: round"
       id="path189" />
    <path
       style="fill:none;stroke:#000000;stroke-width:0.9;stroke-linecap:round"
       d="M 259.276 1253.29 L 259.276 1223.06"
       id="path191" />
    <path
       d="M 253.606299,1258.960630 A 5.669291,5.669291 -0.000000 0 0 259.275591,1253.291339"
       style="fill:none;stroke:#000000;stroke-width:0.9;stroke-linecap: round"
       id="path193" />
    <path
       style="fill:none;stroke:#000000;stroke-width:0.9;stroke-linecap:round"
       d="M 223.37 1258.96 L 253.606 1258.96"
       id="path195" />
    <path
       d="M 217.700787,1253.291339 A 5.669291,5.669291 -0.000000 0 0 223.370079,1258.960630"
       style="fill:none;stroke:#000000;stroke-width:0.9;stroke-linecap: round"
       id="path197" />
    <path
       style="fill:none;stroke:#000000;stroke-width:0.9;stroke-linecap:round"
       d="M 217.701 1223.06 L 217.701 1253.29"
       id="path199" />
    <path
       d="M 223.370079,1217.385827 A 5.669291,5.669291 -0.000000 0 0 217.700787,1223.055118"
       style="fill:none;stroke:#000000;stroke-width:0.9;stroke-linecap: round"
       id="path201" />
    <path
       style="fill:none;stroke:#000000;stroke-width:0.9;stroke-linecap:round"
       d="M 253.606 1217.39 L 223.37 1217.39"
       id="path203" />
    <path
       d="M 259.275591,1223.055118 A 5.669291,5.669291 -0.000000 0 0 253.606299,1217.385827"
       style="fill:none;stroke:#000000;stroke-width:0.9;stroke-linecap: round"
       id="path205" />
    <path
       style="fill:none;stroke:#000000;stroke-width:0.9;stroke-linecap:round"
       d="M 100.535 1381.8 L 130.772 1381.8"
       id="path207" />
    <path
       d="M 94.866142,1376.125984 A 5.669291,5.669291 -0.000000 0 0 100.535433,1381.795276"
       style="fill:none;stroke:#000000;stroke-width:0.9;stroke-linecap: round"
       id="path209" />
    <path
       style="fill:none;stroke:#000000;stroke-width:0.9;stroke-linecap:round"
       d="M 94.8661 1345.89 L 94.8661 1376.13"
       id="path211" />
    <path
       d="M 100.535433,1340.220472 A 5.669291,5.669291 -0.000000 0 0 94.866142,1345.889764"
       style="fill:none;stroke:#000000;stroke-width:0.9;stroke-linecap: round"
       id="path213" />
    <path
       style="fill:none;stroke:#000000;stroke-width:0.9;stroke-linecap:round"
       d="M 130.772 1340.22 L 100.535 1340.22"
       id="path215" />
    <path
       d="M 136.440945,1345.889764 A 5.669291,5.669291 -0.000000 0 0 130.771654,1340.220472"
       style="fill:none;stroke:#000000;stroke-width:0.9;stroke-linecap: round"
       id="path217" />
    <path
       style="fill:none;stroke:#000000;stroke-width:0.9;stroke-linecap:round"
       d="M 136.441 1376.13 L 136.441 1345.89"
       id="path219" />
    <path
       d="M 130.771654,1381.795276 A 5.669291,5.669291 -0.000000 0 0 136.440945,1376.125984"
       style="fill:none;stroke:#000000;stroke-width:0.9;stroke-linecap: round"
       id="path221" />
    <path
       style="fill:none;stroke:#000000;stroke-width:0.9;stroke-linecap:round"
       d="M 42.7087 1381.8 L 72.9449 1381.8"
       id="path223" />
    <path
       d="M 37.039370,1376.125984 A 5.669291,5.669291 -0.000000 0 0 42.708661,1381.795276"
       style="fill:none;stroke:#000000;stroke-width:0.9;stroke-linecap: round"
       id="path225" />
    <path
       style="fill:none;stroke:#000000;stroke-width:0.9;stroke-linecap:round"
       d="M 37.0394 1345.89 L 37.0394 1376.13"
       id="path227" />
    <path
       d="M 42.708661,1340.220472 A 5.669291,5.669291 -0.000000 0 0 37.039370,1345.889764"
       style="fill:none;stroke:#000000;stroke-width:0.9;stroke-linecap: round"
       id="path229" />
    <path
       style="fill:none;stroke:#000000;stroke-width:0.9;stroke-linecap:round"
       d="M 72.9449 1340.22 L 42.7087 1340.22"
       id="path231" />
    <path
       d="M 78.614173,1345.889764 A 5.669291,5.669291 -0.000000 0 0 72.944882,1340.220472"
       style="fill:none;stroke:#000000;stroke-width:0.9;stroke-linecap: round"
       id="path233" />
    <path
       style="fill:none;stroke:#000000;stroke-width:0.9;stroke-linecap:round"
       d="M 78.6142 1376.13 L 78.6142 1345.89"
       id="path235" />
    <path
       d="M 72.944882,1381.795276 A 5.669291,5.669291 -0.000000 0 0 78.614173,1376.125984"
       style="fill:none;stroke:#000000;stroke-width:0.9;stroke-linecap: round"
       id="path237" />
    <path
       style="fill:none;stroke:#000000;stroke-width:0.9;stroke-linecap:round"
       d="M -15.1181 1381.8 L 15.1181 1381.8"
       id="path239" />
    <path
       d="M -20.787402,1376.125984 A 5.669291,5.669291 -0.000000 0 0 -15.118110,1381.795276"
       style="fill:none;stroke:#000000;stroke-width:0.9;stroke-linecap: round"
       id="path241" />
    <path
       style="fill:none;stroke:#000000;stroke-width:0.9;stroke-linecap:round"
       d="M -20.7874 1345.89 L -20.7874 1376.13"
       id="path243" />
    <path
       d="M -15.118110,1340.220472 A 5.669291,5.669291 -0.000000 0 0 -20.787402,1345.889764"
       style="fill:none;stroke:#000000;stroke-width:0.9;stroke-linecap: round"
       id="path245" />
    <path
       style="fill:none;stroke:#000000;stroke-width:0.9;stroke-linecap:round"
       d="M 15.1181 1340.22 L -15.1181 1340.22"
       id="path247" />
    <path
       d="M 20.787402,1345.889764 A 5.669291,5.669291 -0.000000 0 0 15.118110,1340.220472"
       style="fill:none;stroke:#000000;stroke-width:0.9;stroke-linecap: round"
       id="path249" />
    <path
       style="fill:none;stroke:#000000;stroke-width:0.9;stroke-linecap:round"
       d="M 20.7874 1376.13 L 20.7874 1345.89"
       id="path251" />
    <path
       d="M 15.118110,1381.795276 A 5.669291,5.669291 -0.000000 0 0 20.787402,1376.125984"
       style="fill:none;stroke:#000000;stroke-width:0.9;stroke-linecap: round"
       id="path253" />
    <path
       style="fill:none;stroke:#000000;stroke-width:0.9;stroke-linecap:round"
       d="M -72.9449 1381.8 L -42.7087 1381.8"
       id="path255" />
    <path
       d="M -78.614173,1376.125984 A 5.669291,5.669291 -0.000000 0 0 -72.944882,1381.795276"
       style="fill:none;stroke:#000000;stroke-width:0.9;stroke-linecap: round"
       id="path257" />
    <path
       style="fill:none;stroke:#000000;stroke-width:0.9;stroke-linecap:round"
       d="M -78.6142 1345.89 L -78.6142 1376.13"
       id="path259" />
    <path
       d="M -72.944882,1340.220472 A 5.669291,5.669291 -0.000000 0 0 -78.614173,1345.889764"
       style="fill:none;stroke:#000000;stroke-width:0.9;stroke-linecap: round"
       id="path261" />
    <path
       style="fill:none;stroke:#000000;stroke-width:0.9;stroke-linecap:round"
       d="M -42.7087 1340.22 L -72.9449 1340.22"
       id="path263" />
    <path
       d="M -37.039370,1345.889764 A 5.669291,5.669291 -0.000000 0 0 -42.708661,1340.220472"
       style="fill:none;stroke:#000000;stroke-width:0.9;stroke-linecap: round"
       id="path265" />
    <path
       style="fill:none;stroke:#000000;stroke-width:0.9;stroke-linecap:round"
       d="M -37.0394 1376.13 L -37.0394 1345.89"
       id="path267" />
    <path
       d="M -42.708661,1381.795276 A 5.669291,5.669291 -0.000000 0 0 -37.039370,1376.125984"
       style="fill:none;stroke:#000000;stroke-width:0.9;stroke-linecap: round"
       id="path269" />
    <path
       style="fill:none;stroke:#000000;stroke-width:0.9;stroke-linecap:round"
       d="M -130.772 1381.8 L -100.535 1381.8"
       id="path271" />
    <path
       d="M -136.440945,1376.125984 A 5.669291,5.669291 -0.000000 0 0 -130.771654,1381.795276"
       style="fill:none;stroke:#000000;stroke-width:0.9;stroke-linecap: round"
       id="path273" />
    <path
       style="fill:none;stroke:#000000;stroke-width:0.9;stroke-linecap:round"
       d="M -136.441 1345.89 L -136.441 1376.13"
       id="path275" />
    <path
       d="M -130.771654,1340.220472 A 5.669291,5.669291 -0.000000 0 0 -136.440945,1345.889764"
       style="fill:none;stroke:#000000;stroke-width:0.9;stroke-linecap: round"
       id="path277" />
    <path
       style="fill:none;stroke:#000000;stroke-width:0.9;stroke-linecap:round"
       d="M -100.535 1340.22 L -130.772 1340.22"
       id="path279" />
    <path
       d="M -94.866142,1345.889764 A 5.669291,5.669291 -0.000000 0 0 -100.535433,1340.220472"
       style="fill:none;stroke:#000000;stroke-width:0.9;stroke-linecap: round"
       id="path281" />
    <path
       style="fill:none;stroke:#000000;stroke-width:0.9;stroke-linecap:round"
       d="M -94.8661 1376.13 L -94.8661 1345.89"
       id="path283" />
    <path
       d="M -100.535433,1381.795276 A 5.669291,5.669291 -0.000000 0 0 -94.866142,1376.125984"
       style="fill:none;stroke:#000000;stroke-width:0.9;stroke-linecap: round"
       id="path285" />
    <path
       d="M 253.606299,1366.677165 A 9.448819,9.448819 -0.000000 1 0 234.708661,1366.677165 9.448819,9.448819 -0.000000 1 0 253.606299,1366.677165 z"
       style="fill:none;stroke:#000000;stroke-width:0.9;stroke-linecap: round"
       id="path287" />
    <path
       d="M -174.236220,878.362205 A 9.448819,9.448819 -0.000000 1 0 -193.133858,878.362205 9.448819,9.448819 -0.000000 1 0 -174.236220,878.362205 z"
       style="fill:none;stroke:#000000;stroke-width:0.9;stroke-linecap: round"
       id="path289" />
    <path
       d="M -174.236220,1366.677165 A 9.448819,9.448819 -0.000000 1 0 -193.133858,1366.677165 9.448819,9.448819 -0.000000 1 0 -174.236220,1366.677165 z"
       style="fill:none;stroke:#000000;stroke-width:0.9;stroke-linecap: round"
       id="path291" />
    <path
       d="M -234.708661,878.362205 A 9.448819,9.448819 -0.000000 1 0 -253.606299,878.362205 9.448819,9.448819 -0.000000 1 0 -234.708661,878.362205 z"
       style="fill:none;stroke:#000000;stroke-width:0.9;stroke-linecap: round"
       id="path293" />
    <path
       style="fill:none;stroke:#000000;stroke-width:0.9;stroke-linecap:round"
       d="M -204.094 967.559 L -204.094 1277.48"
       id="path295" />
    <path
       d="M -154.960630,918.425197 A 49.133858,49.133858 -0.000000 0 0 -204.094488,967.559055"
       style="fill:none;stroke:#000000;stroke-width:0.9;stroke-linecap: round"
       id="path297" />
    <path
       style="fill:none;stroke:#000000;stroke-width:0.9;stroke-linecap:round"
       d="M 154.961 918.425 L -154.961 918.425"
       id="path299" />
    <path
       d="M 204.094488,967.559055 A 49.133858,49.133858 -0.000000 0 0 154.960630,918.425197"
       style="fill:none;stroke:#000000;stroke-width:0.9;stroke-linecap: round"
       id="path301" />
    <path
       style="fill:none;stroke:#000000;stroke-width:0.9;stroke-linecap:round"
       d="M 204.094 1277.48 L 204.094 967.559"
       id="path303" />
    <path
       d="M 154.960630,1326.614173 A 49.133858,49.133858 -0.000000 0 0 204.094488,1277.480315"
       style="fill:none;stroke:#000000;stroke-width:0.9;stroke-linecap: round"
       id="path305" />
    <path
       style="fill:none;stroke:#000000;stroke-width:0.9;stroke-linecap:round"
       d="M -154.961 1326.61 L 154.961 1326.61"
       id="path307" />
    <path
       d="M -204.094488,1277.480315 A 49.133858,49.133858 -0.000000 0 0 -154.960630,1326.614173"
       style="fill:none;stroke:#000000;stroke-width:0.9;stroke-linecap: round"
       id="path309" />
    <path
       style="fill:none;stroke:#000000;stroke-width:0.9;stroke-linecap:round"
       d="M -253.606 1027.65 L -223.37 1027.65"
       id="path311" />
    <path
       d="M -259.275591,1021.984252 A 5.669291,5.669291 -0.000000 0 0 -253.606299,1027.653543"
       style="fill:none;stroke:#000000;stroke-width:0.9;stroke-linecap: round"
       id="path313" />
    <path
       style="fill:none;stroke:#000000;stroke-width:0.9;stroke-linecap:round"
       d="M -259.276 991.748 L -259.276 1021.98"
       id="path315" />
    <path
       d="M -253.606299,986.078740 A 5.669291,5.669291 -0.000000 0 0 -259.275591,991.748031"
       style="fill:none;stroke:#000000;stroke-width:0.9;stroke-linecap: round"
       id="path317" />
    <path
       style="fill:none;stroke:#000000;stroke-width:0.9;stroke-linecap:round"
       d="M -223.37 986.079 L -253.606 986.079"
       id="path319" />
    <path
       d="M -217.700787,991.748031 A 5.669291,5.669291 -0.000000 0 0 -223.370079,986.078740"
       style="fill:none;stroke:#000000;stroke-width:0.9;stroke-linecap: round"
       id="path321" />
    <path
       style="fill:none;stroke:#000000;stroke-width:0.9;stroke-linecap:round"
       d="M -217.701 1021.98 L -217.701 991.748"
       id="path323" />
    <path
       d="M -223.370079,1027.653543 A 5.669291,5.669291 -0.000000 0 0 -217.700787,1021.984252"
       style="fill:none;stroke:#000000;stroke-width:0.9;stroke-linecap: round"
       id="path325" />
    <path
       style="fill:none;stroke:#000000;stroke-width:0.9;stroke-linecap:round"
       d="M -136.441 868.913 L -136.441 899.15"
       id="path327" />
    <path
       d="M -130.771654,863.244094 A 5.669291,5.669291 -0.000000 0 0 -136.440945,868.913386"
       style="fill:none;stroke:#000000;stroke-width:0.9;stroke-linecap: round"
       id="path329" />
    <path
       style="fill:none;stroke:#000000;stroke-width:0.9;stroke-linecap:round"
       d="M -100.535 863.244 L -130.772 863.244"
       id="path331" />
    <path
       d="M -94.866142,868.913386 A 5.669291,5.669291 -0.000000 0 0 -100.535433,863.244094"
       style="fill:none;stroke:#000000;stroke-width:0.9;stroke-linecap: round"
       id="path333" />
    <path
       style="fill:none;stroke:#000000;stroke-width:0.9;stroke-linecap:round"
       d="M -94.8661 899.15 L -94.8661 868.913"
       id="path335" />
    <path
       d="M -100.535433,904.818898 A 5.669291,5.669291 -0.000000 0 0 -94.866142,899.149606"
       style="fill:none;stroke:#000000;stroke-width:0.9;stroke-linecap: round"
       id="path337" />
    <path
       style="fill:none;stroke:#000000;stroke-width:0.9;stroke-linecap:round"
       d="M -130.772 904.819 L -100.535 904.819"
       id="path339" />
    <path
       d="M -136.440945,899.149606 A 5.669291,5.669291 -0.000000 0 0 -130.771654,904.818898"
       style="fill:none;stroke:#000000;stroke-width:0.9;stroke-linecap: round"
       id="path341" />
    <path
       style="fill:none;stroke:#000000;stroke-width:0.9;stroke-linecap:round"
       d="M -78.6142 868.913 L -78.6142 899.15"
       id="path343" />
    <path
       d="M -72.944882,863.244094 A 5.669291,5.669291 -0.000000 0 0 -78.614173,868.913386"
       style="fill:none;stroke:#000000;stroke-width:0.9;stroke-linecap: round"
       id="path345" />
    <path
       style="fill:none;stroke:#000000;stroke-width:0.9;stroke-linecap:round"
       d="M -42.7087 863.244 L -72.9449 863.244"
       id="path347" />
    <path
       d="M -37.039370,868.913386 A 5.669291,5.669291 -0.000000 0 0 -42.708661,863.244094"
       style="fill:none;stroke:#000000;stroke-width:0.9;stroke-linecap: round"
       id="path349" />
    <path
       style="fill:none;stroke:#000000;stroke-width:0.9;stroke-linecap:round"
       d="M -37.0394 899.15 L -37.0394 868.913"
       id="path351" />
    <path
       d="M -42.708661,904.818898 A 5.669291,5.669291 -0.000000 0 0 -37.039370,899.149606"
       style="fill:none;stroke:#000000;stroke-width:0.9;stroke-linecap: round"
       id="path353" />
    <path
       style="fill:none;stroke:#000000;stroke-width:0.9;stroke-linecap:round"
       d="M -72.9449 904.819 L -42.7087 904.819"
       id="path355" />
    <path
       d="M -78.614173,899.149606 A 5.669291,5.669291 -0.000000 0 0 -72.944882,904.818898"
       style="fill:none;stroke:#000000;stroke-width:0.9;stroke-linecap: round"
       id="path357" />
    <path
       style="fill:none;stroke:#000000;stroke-width:0.9;stroke-linecap:round"
       d="M -20.7874 868.913 L -20.7874 899.15"
       id="path359" />
    <path
       d="M -15.118110,863.244094 A 5.669291,5.669291 -0.000000 0 0 -20.787402,868.913386"
       style="fill:none;stroke:#000000;stroke-width:0.9;stroke-linecap: round"
       id="path361" />
    <path
       style="fill:none;stroke:#000000;stroke-width:0.9;stroke-linecap:round"
       d="M 15.1181 863.244 L -15.1181 863.244"
       id="path363" />
    <path
       d="M 20.787402,868.913386 A 5.669291,5.669291 -0.000000 0 0 15.118110,863.244094"
       style="fill:none;stroke:#000000;stroke-width:0.9;stroke-linecap: round"
       id="path365" />
    <path
       style="fill:none;stroke:#000000;stroke-width:0.9;stroke-linecap:round"
       d="M 20.7874 899.15 L 20.7874 868.913"
       id="path367" />
    <path
       d="M 15.118110,904.818898 A 5.669291,5.669291 -0.000000 0 0 20.787402,899.149606"
       style="fill:none;stroke:#000000;stroke-width:0.9;stroke-linecap: round"
       id="path369" />
    <path
       style="fill:none;stroke:#000000;stroke-width:0.9;stroke-linecap:round"
       d="M -15.1181 904.819 L 15.1181 904.819"
       id="path371" />
    <path
       d="M -20.787402,899.149606 A 5.669291,5.669291 -0.000000 0 0 -15.118110,904.818898"
       style="fill:none;stroke:#000000;stroke-width:0.9;stroke-linecap: round"
       id="path373" />
    <path
       style="fill:none;stroke:#000000;stroke-width:0.9;stroke-linecap:round"
       d="M -253.606 1085.48 L -223.37 1085.48"
       id="path375" />
    <path
       d="M -259.275591,1079.811024 A 5.669291,5.669291 -0.000000 0 0 -253.606299,1085.480315"
       style="fill:none;stroke:#000000;stroke-width:0.9;stroke-linecap: round"
       id="path377" />
    <path
       style="fill:none;stroke:#000000;stroke-width:0.9;stroke-linecap:round"
       d="M -259.276 1049.57 L -259.276 1079.81"
       id="path379" />
    <path
       d="M -253.606299,1043.905512 A 5.669291,5.669291 -0.000000 0 0 -259.275591,1049.574803"
       style="fill:none;stroke:#000000;stroke-width:0.9;stroke-linecap: round"
       id="path381" />
    <path
       style="fill:none;stroke:#000000;stroke-width:0.9;stroke-linecap:round"
       d="M -223.37 1043.91 L -253.606 1043.91"
       id="path383" />
    <path
       d="M -217.700787,1049.574803 A 5.669291,5.669291 -0.000000 0 0 -223.370079,1043.905512"
       style="fill:none;stroke:#000000;stroke-width:0.9;stroke-linecap: round"
       id="path385" />
    <path
       style="fill:none;stroke:#000000;stroke-width:0.9;stroke-linecap:round"
       d="M -217.701 1079.81 L -217.701 1049.57"
       id="path387" />
    <path
       d="M -223.370079,1085.480315 A 5.669291,5.669291 -0.000000 0 0 -217.700787,1079.811024"
       style="fill:none;stroke:#000000;stroke-width:0.9;stroke-linecap: round"
       id="path389" />
    <path
       style="fill:none;stroke:#000000;stroke-width:0.9;stroke-linecap:round"
       d="M -253.606 1143.31 L -223.37 1143.31"
       id="path391" />
    <path
       d="M -259.275591,1137.637795 A 5.669291,5.669291 -0.000000 0 0 -253.606299,1143.307087"
       style="fill:none;stroke:#000000;stroke-width:0.9;stroke-linecap: round"
       id="path393" />
    <path
       style="fill:none;stroke:#000000;stroke-width:0.9;stroke-linecap:round"
       d="M -259.276 1107.4 L -259.276 1137.64"
       id="path395" />
    <path
       d="M -253.606299,1101.732283 A 5.669291,5.669291 -0.000000 0 0 -259.275591,1107.401575"
       style="fill:none;stroke:#000000;stroke-width:0.9;stroke-linecap: round"
       id="path397" />
    <path
       style="fill:none;stroke:#000000;stroke-width:0.9;stroke-linecap:round"
       d="M -223.37 1101.73 L -253.606 1101.73"
       id="path399" />
    <path
       d="M -217.700787,1107.401575 A 5.669291,5.669291 -0.000000 0 0 -223.370079,1101.732283"
       style="fill:none;stroke:#000000;stroke-width:0.9;stroke-linecap: round"
       id="path401" />
    <path
       style="fill:none;stroke:#000000;stroke-width:0.9;stroke-linecap:round"
       d="M -217.701 1137.64 L -217.701 1107.4"
       id="path403" />
    <path
       d="M -223.370079,1143.307087 A 5.669291,5.669291 -0.000000 0 0 -217.700787,1137.637795"
       style="fill:none;stroke:#000000;stroke-width:0.9;stroke-linecap: round"
       id="path405" />
    <path
       style="fill:none;stroke:#000000;stroke-width:0.9;stroke-linecap:round"
       d="M -253.606 1201.13 L -223.37 1201.13"
       id="path407" />
    <path
       d="M -259.275591,1195.464567 A 5.669291,5.669291 -0.000000 0 0 -253.606299,1201.133858"
       style="fill:none;stroke:#000000;stroke-width:0.9;stroke-linecap: round"
       id="path409" />
    <path
       style="fill:none;stroke:#000000;stroke-width:0.9;stroke-linecap:round"
       d="M -259.276 1165.23 L -259.276 1195.46"
       id="path411" />
    <path
       d="M -253.606299,1159.559055 A 5.669291,5.669291 -0.000000 0 0 -259.275591,1165.228346"
       style="fill:none;stroke:#000000;stroke-width:0.9;stroke-linecap: round"
       id="path413" />
    <path
       style="fill:none;stroke:#000000;stroke-width:0.9;stroke-linecap:round"
       d="M -223.37 1159.56 L -253.606 1159.56"
       id="path415" />
    <path
       d="M -217.700787,1165.228346 A 5.669291,5.669291 -0.000000 0 0 -223.370079,1159.559055"
       style="fill:none;stroke:#000000;stroke-width:0.9;stroke-linecap: round"
       id="path417" />
    <path
       style="fill:none;stroke:#000000;stroke-width:0.9;stroke-linecap:round"
       d="M -217.701 1195.46 L -217.701 1165.23"
       id="path419" />
    <path
       d="M -223.370079,1201.133858 A 5.669291,5.669291 -0.000000 0 0 -217.700787,1195.464567"
       style="fill:none;stroke:#000000;stroke-width:0.9;stroke-linecap: round"
       id="path421" />
    <path
       style="fill:none;stroke:#000000;stroke-width:0.9;stroke-linecap:round"
       d="M -253.606 1258.96 L -223.37 1258.96"
       id="path423" />
    <path
       d="M -259.275591,1253.291339 A 5.669291,5.669291 -0.000000 0 0 -253.606299,1258.960630"
       style="fill:none;stroke:#000000;stroke-width:0.9;stroke-linecap: round"
       id="path425" />
    <path
       style="fill:none;stroke:#000000;stroke-width:0.9;stroke-linecap:round"
       d="M -259.276 1223.06 L -259.276 1253.29"
       id="path427" />
    <path
       d="M -253.606299,1217.385827 A 5.669291,5.669291 -0.000000 0 0 -259.275591,1223.055118"
       style="fill:none;stroke:#000000;stroke-width:0.9;stroke-linecap: round"
       id="path429" />
    <path
       style="fill:none;stroke:#000000;stroke-width:0.9;stroke-linecap:round"
       d="M -223.37 1217.39 L -253.606 1217.39"
       id="path431" />
    <path
       d="M -217.700787,1223.055118 A 5.669291,5.669291 -0.000000 0 0 -223.370079,1217.385827"
       style="fill:none;stroke:#000000;stroke-width:0.9;stroke-linecap: round"
       id="path433" />
    <path
       style="fill:none;stroke:#000000;stroke-width:0.9;stroke-linecap:round"
       d="M -217.701 1253.29 L -217.701 1223.06"
       id="path435" />
    <path
       d="M -223.370079,1258.960630 A 5.669291,5.669291 -0.000000 0 0 -217.700787,1253.291339"
       style="fill:none;stroke:#000000;stroke-width:0.9;stroke-linecap: round"
       id="path437" />
    <path
       style="fill:none;stroke:#000000;stroke-width:0.9;stroke-linecap:round"
       d="M 94.8661 868.913 L 94.8661 899.15"
       id="path439" />
    <path
       d="M 100.535433,863.244094 A 5.669291,5.669291 -0.000000 0 0 94.866142,868.913386"
       style="fill:none;stroke:#000000;stroke-width:0.9;stroke-linecap: round"
       id="path441" />
    <path
       style="fill:none;stroke:#000000;stroke-width:0.9;stroke-linecap:round"
       d="M 130.772 863.244 L 100.535 863.244"
       id="path443" />
    <path
       d="M 136.440945,868.913386 A 5.669291,5.669291 -0.000000 0 0 130.771654,863.244094"
       style="fill:none;stroke:#000000;stroke-width:0.9;stroke-linecap: round"
       id="path445" />
    <path
       style="fill:none;stroke:#000000;stroke-width:0.9;stroke-linecap:round"
       d="M 136.441 899.15 L 136.441 868.913"
       id="path447" />
    <path
       d="M 130.771654,904.818898 A 5.669291,5.669291 -0.000000 0 0 136.440945,899.149606"
       style="fill:none;stroke:#000000;stroke-width:0.9;stroke-linecap: round"
       id="path449" />
    <path
       style="fill:none;stroke:#000000;stroke-width:0.9;stroke-linecap:round"
       d="M 100.535 904.819 L 130.772 904.819"
       id="path451" />
    <path
       d="M 94.866142,899.149606 A 5.669291,5.669291 -0.000000 0 0 100.535433,904.818898"
       style="fill:none;stroke:#000000;stroke-width:0.9;stroke-linecap: round"
       id="path453" />
    <path
       style="fill:none;stroke:#000000;stroke-width:0.9;stroke-linecap:round"
       d="M 37.0394 868.913 L 37.0394 899.15"
       id="path455" />
    <path
       d="M 42.708661,863.244094 A 5.669291,5.669291 -0.000000 0 0 37.039370,868.913386"
       style="fill:none;stroke:#000000;stroke-width:0.9;stroke-linecap: round"
       id="path457" />
    <path
       style="fill:none;stroke:#000000;stroke-width:0.9;stroke-linecap:round"
       d="M 72.9449 863.244 L 42.7087 863.244"
       id="path459" />
    <path
       d="M 78.614173,868.913386 A 5.669291,5.669291 -0.000000 0 0 72.944882,863.244094"
       style="fill:none;stroke:#000000;stroke-width:0.9;stroke-linecap: round"
       id="path461" />
    <path
       style="fill:none;stroke:#000000;stroke-width:0.9;stroke-linecap:round"
       d="M 78.6142 899.15 L 78.6142 868.913"
       id="path463" />
    <path
       d="M 72.944882,904.818898 A 5.669291,5.669291 -0.000000 0 0 78.614173,899.149606"
       style="fill:none;stroke:#000000;stroke-width:0.9;stroke-linecap: round"
       id="path465" />
    <path
       style="fill:none;stroke:#000000;stroke-width:0.9;stroke-linecap:round"
       d="M 42.7087 904.819 L 72.9449 904.819"
       id="path467" />
    <path
       d="M 37.039370,899.149606 A 5.669291,5.669291 -0.000000 0 0 42.708661,904.818898"
       style="fill:none;stroke:#000000;stroke-width:0.9;stroke-linecap: round"
       id="path469" />
    <path
       d="M 217.209449,878.362205 A 6.047244,6.047244 -0.000000 1 0 205.114961,878.362205 6.047244,6.047244 -0.000000 1 0 217.209449,878.362205 z"
       style="fill:none;stroke:#000000;stroke-width:0.9;stroke-linecap: round"
       id="path471" />
    <path
       d="M -205.114961,1366.677165 A 6.047244,6.047244 -0.000000 1 0 -217.209449,1366.677165 6.047244,6.047244 -0.000000 1 0 -205.114961,1366.677165 z"
       style="fill:none;stroke:#000000;stroke-width:0.9;stroke-linecap: round"
       id="path473" />
  </g>
</svg>
