<?xml version="1.0" encoding="UTF-8" standalone="no"?>
<svg
   viewBox="0 0 793.7007874015749 1122.5196850393702"
   width="793.7007874015749"
   height="1122.5196850393702"
   version="1.1"
   id="svg121"
   sodipodi:docname="MFD-Layer1.DXF"
   xmlns:inkscape="http://www.inkscape.org/namespaces/inkscape"
   xmlns:sodipodi="http://sodipodi.sourceforge.net/DTD/sodipodi-0.dtd"
   xmlns="http://www.w3.org/2000/svg"
   xmlns:svg="http://www.w3.org/2000/svg">
  <sodipodi:namedview
     id="namedview123"
     pagecolor="#ffffff"
     bordercolor="#666666"
     borderopacity="1.0"
     inkscape:pageshadow="2"
     inkscape:pageopacity="0.0"
     inkscape:pagecheckerboard="0" />
  <desc
     id="desc2">MFD-Layer1.DXF - scale = 1.0, origin = (0.0, 0.0), method = manual</desc>
  <defs
     id="defs17">
    <marker
       id="DistanceX"
       orient="auto"
       refX="0.0"
       refY="0.0"
       style="overflow:visible">
      <path
         d="M 3,-3 L -3,3 M 0,-5 L  0,5"
         style="stroke:#000000; stroke-width:0.5"
         id="path4" />
    </marker>
    <pattern
       id="Hatch"
       patternUnits="userSpaceOnUse"
       width="8"
       height="8"
       x="0"
       y="0">
      <path
         d="M8 4 l-4,4"
         stroke="#000000"
         stroke-width="0.25"
         linecap="square"
         id="path7" />
      <path
         d="M6 2 l-4,4"
         stroke="#000000"
         stroke-width="0.25"
         linecap="square"
         id="path9" />
      <path
         d="M4 0 l-4,4"
         stroke="#000000"
         stroke-width="0.25"
         linecap="square"
         id="path11" />
    </pattern>
    <symbol
       id="*Model_Space" />
    <symbol
       id="*Paper_Space" />
    <symbol
       id="*Paper_Space0" />
  </defs>
  <g
     inkscape:groupmode="layer"
     inkscape:label="0"
     id="g119">
    <path
       style="fill:none;stroke:#000000;stroke-width:0.9;stroke-linecap:round"
       d="M 30.2362 778.205 L 30.2362 770.646"
       id="path19" />
    <path
       style="fill:none;stroke:#000000;stroke-width:0.9;stroke-linecap:round"
       d="M 22.6772 778.205 L 30.2362 778.205"
       id="path21" />
    <path
       style="fill:none;stroke:#000000;stroke-width:0.9;stroke-linecap:round"
       d="M 22.6772 846.236 L 22.6772 778.205"
       id="path23" />
    <path
       style="fill:none;stroke:#000000;stroke-width:0.9;stroke-linecap:round"
       d="M 22.6772 846.236 L -22.6772 846.236"
       id="path25" />
    <path
       style="fill:none;stroke:#000000;stroke-width:0.9;stroke-linecap:round"
       d="M -22.6772 846.236 L -22.6772 778.205"
       id="path27" />
    <path
       style="fill:none;stroke:#000000;stroke-width:0.9;stroke-linecap:round"
       d="M -30.2362 778.205 L -22.6772 778.205"
       id="path29" />
    <path
       style="fill:none;stroke:#000000;stroke-width:0.9;stroke-linecap:round"
       d="M -30.2362 770.646 L -30.2362 778.205"
       id="path31" />
    <path
       style="fill:none;stroke:#000000;stroke-width:0.9;stroke-linecap:round"
       d="M -30.2362 770.646 L -37.2457 770.646"
       id="path33" />
    <path
       d="M -37.245679,770.645669 A 37.795276,37.795276 -0.000000 0 0 -52.086191,773.681168"
       style="fill:none;stroke:#000000;stroke-width:0.9;stroke-linecap: round"
       id="path35" />
    <path
       style="fill:none;stroke:#000000;stroke-width:0.9;stroke-linecap:round"
       d="M -52.0862 773.681 L -238.8 853.398"
       id="path37" />
    <path
       d="M -247.713649,855.965609 A 37.795276,37.795276 -0.000000 0 0 -238.800085,853.397726"
       style="fill:none;stroke:#000000;stroke-width:0.9;stroke-linecap: round"
       id="path39" />
    <path
       d="M -247.713649,855.965609 A 22.677165,22.677165 -0.000000 0 0 -266.834646,878.362205"
       style="fill:none;stroke:#000000;stroke-width:0.9;stroke-linecap: round"
       id="path41" />
    <path
       style="fill:none;stroke:#000000;stroke-width:0.9;stroke-linecap:round"
       d="M -266.835 878.362 L -266.835 1366.68"
       id="path43" />
    <path
       d="M -266.834646,1366.677165 A 22.677165,22.677165 -0.000000 0 0 -244.157480,1389.354331"
       style="fill:none;stroke:#000000;stroke-width:0.9;stroke-linecap: round"
       id="path45" />
    <path
       style="fill:none;stroke:#000000;stroke-width:0.9;stroke-linecap:round"
       d="M -244.157 1389.35 L 244.157 1389.35"
       id="path47" />
    <path
       d="M 244.157480,1389.354331 A 22.677165,22.677165 -0.000000 0 0 266.834646,1366.677165"
       style="fill:none;stroke:#000000;stroke-width:0.9;stroke-linecap: round"
       id="path49" />
    <path
       style="fill:none;stroke:#000000;stroke-width:0.9;stroke-linecap:round"
       d="M 266.835 1366.68 L 266.835 878.362"
       id="path51" />
    <path
       d="M 266.834646,878.362205 A 22.677165,22.677165 -0.000000 0 0 247.713649,855.965609"
       style="fill:none;stroke:#000000;stroke-width:0.9;stroke-linecap: round"
       id="path53" />
    <path
       d="M 238.800085,853.397726 A 37.795276,37.795276 -0.000000 0 0 247.713649,855.965609"
       style="fill:none;stroke:#000000;stroke-width:0.9;stroke-linecap: round"
       id="path55" />
    <path
       style="fill:none;stroke:#000000;stroke-width:0.9;stroke-linecap:round"
       d="M 238.8 853.398 L 52.0862 773.681"
       id="path57" />
    <path
       d="M 52.086191,773.681168 A 37.795276,37.795276 -0.000000 0 0 37.245679,770.645669"
       style="fill:none;stroke:#000000;stroke-width:0.9;stroke-linecap: round"
       id="path59" />
    <path
       style="fill:none;stroke:#000000;stroke-width:0.9;stroke-linecap:round"
       d="M 37.2457 770.646 L 30.2362 770.646"
       id="path61" />
    <path
       style="fill:none;stroke:#000000;stroke-width:0.9;stroke-linecap:round"
       d="M -30.2362 1326.61 L -30.2362 1334.17"
       id="path63" />
    <path
       style="fill:none;stroke:#000000;stroke-width:0.9;stroke-linecap:round"
       d="M -154.961 1326.61 L -30.2362 1326.61"
       id="path65" />
    <path
       d="M -204.094488,1277.480315 A 49.133858,49.133858 -0.000000 0 0 -154.960630,1326.614173"
       style="fill:none;stroke:#000000;stroke-width:0.9;stroke-linecap: round"
       id="path67" />
    <path
       style="fill:none;stroke:#000000;stroke-width:0.9;stroke-linecap:round"
       d="M -204.094 967.559 L -204.094 1277.48"
       id="path69" />
    <path
       d="M -154.960630,918.425197 A 49.133858,49.133858 -0.000000 0 0 -204.094488,967.559055"
       style="fill:none;stroke:#000000;stroke-width:0.9;stroke-linecap: round"
       id="path71" />
    <path
       style="fill:none;stroke:#000000;stroke-width:0.9;stroke-linecap:round"
       d="M 154.961 918.425 L -154.961 918.425"
       id="path73" />
    <path
       d="M 204.094488,967.559055 A 49.133858,49.133858 -0.000000 0 0 154.960630,918.425197"
       style="fill:none;stroke:#000000;stroke-width:0.9;stroke-linecap: round"
       id="path75" />
    <path
       style="fill:none;stroke:#000000;stroke-width:0.9;stroke-linecap:round"
       d="M 204.094 1277.48 L 204.094 967.559"
       id="path77" />
    <path
       d="M 154.960630,1326.614173 A 49.133858,49.133858 -0.000000 0 0 204.094488,1277.480315"
       style="fill:none;stroke:#000000;stroke-width:0.9;stroke-linecap: round"
       id="path79" />
    <path
       style="fill:none;stroke:#000000;stroke-width:0.9;stroke-linecap:round"
       d="M 30.2362 1326.61 L 154.961 1326.61"
       id="path81" />
    <path
       style="fill:none;stroke:#000000;stroke-width:0.9;stroke-linecap:round"
       d="M 30.2362 1334.17 L 30.2362 1326.61"
       id="path83" />
    <path
       style="fill:none;stroke:#000000;stroke-width:0.9;stroke-linecap:round"
       d="M 22.6772 1334.17 L 30.2362 1334.17"
       id="path85" />
    <path
       style="fill:none;stroke:#000000;stroke-width:0.9;stroke-linecap:round"
       d="M 22.6772 1326.61 L 22.6772 1334.17"
       id="path87" />
    <path
       style="fill:none;stroke:#000000;stroke-width:0.9;stroke-linecap:round"
       d="M -22.6772 1326.61 L 22.6772 1326.61"
       id="path89" />
    <path
       style="fill:none;stroke:#000000;stroke-width:0.9;stroke-linecap:round"
       d="M -22.6772 1334.17 L -22.6772 1326.61"
       id="path91" />
    <path
       style="fill:none;stroke:#000000;stroke-width:0.9;stroke-linecap:round"
       d="M -30.2362 1334.17 L -22.6772 1334.17"
       id="path93" />
    <path
       d="M 253.606299,1366.677165 A 9.448819,9.448819 -0.000000 1 0 234.708661,1366.677165 9.448819,9.448819 -0.000000 1 0 253.606299,1366.677165 z"
       style="fill:none;stroke:#000000;stroke-width:0.9;stroke-linecap: round"
       id="path95" />
    <path
       d="M 193.133858,1366.677165 A 9.448819,9.448819 -0.000000 1 0 174.236220,1366.677165 9.448819,9.448819 -0.000000 1 0 193.133858,1366.677165 z"
       style="fill:none;stroke:#000000;stroke-width:0.9;stroke-linecap: round"
       id="path97" />
    <path
       d="M -205.114961,878.362205 A 6.047244,6.047244 -0.000000 1 0 -217.209449,878.362205 6.047244,6.047244 -0.000000 1 0 -205.114961,878.362205 z"
       style="fill:none;stroke:#000000;stroke-width:0.9;stroke-linecap: round"
       id="path99" />
    <path
       d="M 217.209449,1366.677165 A 6.047244,6.047244 -0.000000 1 0 205.114961,1366.677165 6.047244,6.047244 -0.000000 1 0 217.209449,1366.677165 z"
       style="fill:none;stroke:#000000;stroke-width:0.9;stroke-linecap: round"
       id="path101" />
    <path
       d="M -174.236220,878.362205 A 9.448819,9.448819 -0.000000 1 0 -193.133858,878.362205 9.448819,9.448819 -0.000000 1 0 -174.236220,878.362205 z"
       style="fill:none;stroke:#000000;stroke-width:0.9;stroke-linecap: round"
       id="path103" />
    <path
       d="M 217.209449,878.362205 A 6.047244,6.047244 -0.000000 1 0 205.114961,878.362205 6.047244,6.047244 -0.000000 1 0 217.209449,878.362205 z"
       style="fill:none;stroke:#000000;stroke-width:0.9;stroke-linecap: round"
       id="path105" />
    <path
       d="M 193.133858,878.362205 A 9.448819,9.448819 -0.000000 1 0 174.236220,878.362205 9.448819,9.448819 -0.000000 1 0 193.133858,878.362205 z"
       style="fill:none;stroke:#000000;stroke-width:0.9;stroke-linecap: round"
       id="path107" />
    <path
       d="M 253.606299,878.362205 A 9.448819,9.448819 -0.000000 1 0 234.708661,878.362205 9.448819,9.448819 -0.000000 1 0 253.606299,878.362205 z"
       style="fill:none;stroke:#000000;stroke-width:0.9;stroke-linecap: round"
       id="path109" />
    <path
       d="M -205.114961,1366.677165 A 6.047244,6.047244 -0.000000 1 0 -217.209449,1366.677165 6.047244,6.047244 -0.000000 1 0 -205.114961,1366.677165 z"
       style="fill:none;stroke:#000000;stroke-width:0.9;stroke-linecap: round"
       id="path111" />
    <path
       d="M -174.236220,1366.677165 A 9.448819,9.448819 -0.000000 1 0 -193.133858,1366.677165 9.448819,9.448819 -0.000000 1 0 -174.236220,1366.677165 z"
       style="fill:none;stroke:#000000;stroke-width:0.9;stroke-linecap: round"
       id="path113" />
    <path
       d="M -234.708661,1366.677165 A 9.448819,9.448819 -0.000000 1 0 -253.606299,1366.677165 9.448819,9.448819 -0.000000 1 0 -234.708661,1366.677165 z"
       style="fill:none;stroke:#000000;stroke-width:0.9;stroke-linecap: round"
       id="path115" />
    <path
       d="M -234.708661,878.362205 A 9.448819,9.448819 -0.000000 1 0 -253.606299,878.362205 9.448819,9.448819 -0.000000 1 0 -234.708661,878.362205 z"
       style="fill:none;stroke:#000000;stroke-width:0.9;stroke-linecap: round"
       id="path117" />
  </g>
</svg>
