<?xml version="1.0" encoding="UTF-8" standalone="no"?>
<svg
   viewBox="0 0 793.7007874015749 1122.5196850393702"
   width="793.7007874015749"
   height="1122.5196850393702"
   version="1.1"
   id="svg179"
   sodipodi:docname="MFD-Layer3.DXF"
   xmlns:inkscape="http://www.inkscape.org/namespaces/inkscape"
   xmlns:sodipodi="http://sodipodi.sourceforge.net/DTD/sodipodi-0.dtd"
   xmlns="http://www.w3.org/2000/svg"
   xmlns:svg="http://www.w3.org/2000/svg">
  <sodipodi:namedview
     id="namedview181"
     pagecolor="#ffffff"
     bordercolor="#666666"
     borderopacity="1.0"
     inkscape:pageshadow="2"
     inkscape:pageopacity="0.0"
     inkscape:pagecheckerboard="0" />
  <desc
     id="desc2">MFD-Layer3.DXF - scale = 1.0, origin = (0.0, 0.0), method = manual</desc>
  <defs
     id="defs17">
    <marker
       id="DistanceX"
       orient="auto"
       refX="0.0"
       refY="0.0"
       style="overflow:visible">
      <path
         d="M 3,-3 L -3,3 M 0,-5 L  0,5"
         style="stroke:#000000; stroke-width:0.5"
         id="path4" />
    </marker>
    <pattern
       id="Hatch"
       patternUnits="userSpaceOnUse"
       width="8"
       height="8"
       x="0"
       y="0">
      <path
         d="M8 4 l-4,4"
         stroke="#000000"
         stroke-width="0.25"
         linecap="square"
         id="path7" />
      <path
         d="M6 2 l-4,4"
         stroke="#000000"
         stroke-width="0.25"
         linecap="square"
         id="path9" />
      <path
         d="M4 0 l-4,4"
         stroke="#000000"
         stroke-width="0.25"
         linecap="square"
         id="path11" />
    </pattern>
    <symbol
       id="*Model_Space" />
    <symbol
       id="*Paper_Space" />
    <symbol
       id="*Paper_Space0" />
  </defs>
  <g
     inkscape:groupmode="layer"
     inkscape:label="0"
     id="g177">
    <path
       d="M -154.960630,918.425197 A 49.133858,49.133858 -0.000000 0 0 -204.094488,967.559055"
       style="fill:none;stroke:#000000;stroke-width:0.9;stroke-linecap: round"
       id="path19" />
    <path
       style="fill:none;stroke:#000000;stroke-width:0.9;stroke-linecap:round"
       d="M -204.094 967.559 L -204.094 1277.48"
       id="path21" />
    <path
       d="M -204.094488,1277.480315 A 49.133858,49.133858 -0.000000 0 0 -154.960630,1326.614173"
       style="fill:none;stroke:#000000;stroke-width:0.9;stroke-linecap: round"
       id="path23" />
    <path
       style="fill:none;stroke:#000000;stroke-width:0.9;stroke-linecap:round"
       d="M -154.961 1326.61 L 154.961 1326.61"
       id="path25" />
    <path
       d="M 154.960630,1326.614173 A 49.133858,49.133858 -0.000000 0 0 204.094488,1277.480315"
       style="fill:none;stroke:#000000;stroke-width:0.9;stroke-linecap: round"
       id="path27" />
    <path
       style="fill:none;stroke:#000000;stroke-width:0.9;stroke-linecap:round"
       d="M 204.094 1277.48 L 204.094 967.559"
       id="path29" />
    <path
       d="M 204.094488,967.559055 A 49.133858,49.133858 -0.000000 0 0 154.960630,918.425197"
       style="fill:none;stroke:#000000;stroke-width:0.9;stroke-linecap: round"
       id="path31" />
    <path
       style="fill:none;stroke:#000000;stroke-width:0.9;stroke-linecap:round"
       d="M 154.961 918.425 L -154.961 918.425"
       id="path33" />
    <path
       style="fill:none;stroke:#000000;stroke-width:0.9;stroke-linecap:round"
       d="M -222.501 1361.01 L -222.501 1376.13"
       id="path35" />
    <path
       d="M -216.831496,1355.338583 A 5.669291,5.669291 -0.000000 0 0 -222.500787,1361.007874"
       style="fill:none;stroke:#000000;stroke-width:0.9;stroke-linecap: round"
       id="path37" />
    <path
       style="fill:none;stroke:#000000;stroke-width:0.9;stroke-linecap:round"
       d="M -209.272 1355.34 L -216.831 1355.34"
       id="path39" />
    <path
       d="M -209.272441,1355.338583 A 5.669291,5.669291 -0.000000 0 0 -203.603150,1349.669291"
       style="fill:none;stroke:#000000;stroke-width:0.9;stroke-linecap: round"
       id="path41" />
    <path
       style="fill:none;stroke:#000000;stroke-width:0.9;stroke-linecap:round"
       d="M -203.603 1308.13 L -203.603 1349.67"
       id="path43" />
    <path
       d="M -203.603150,1308.127856 A 5.669291,5.669291 -0.000000 0 0 -204.335004,1305.341716"
       style="fill:none;stroke:#000000;stroke-width:0.9;stroke-linecap: round"
       id="path45" />
    <path
       d="M -211.653543,1277.480315 A 56.692913,56.692913 -0.000000 0 0 -204.335004,1305.341716"
       style="fill:none;stroke:#000000;stroke-width:0.9;stroke-linecap: round"
       id="path47" />
    <path
       style="fill:none;stroke:#000000;stroke-width:0.9;stroke-linecap:round"
       d="M -211.654 967.559 L -211.654 1277.48"
       id="path49" />
    <path
       d="M -154.960630,910.866142 A 56.692913,56.692913 -0.000000 0 0 -211.653543,967.559055"
       style="fill:none;stroke:#000000;stroke-width:0.9;stroke-linecap: round"
       id="path51" />
    <path
       style="fill:none;stroke:#000000;stroke-width:0.9;stroke-linecap:round"
       d="M 143.622 910.866 L -154.961 910.866"
       id="path53" />
    <path
       d="M 143.622047,910.866142 A 11.338583,11.338583 -0.000000 0 0 154.960630,899.527559"
       style="fill:none;stroke:#000000;stroke-width:0.9;stroke-linecap: round"
       id="path55" />
    <path
       style="fill:none;stroke:#000000;stroke-width:0.9;stroke-linecap:round"
       d="M 154.961 899.528 L 154.961 832.65"
       id="path57" />
    <path
       d="M 154.960630,832.649754 A 11.338583,11.338583 -0.000000 0 0 148.074201,822.221821"
       style="fill:none;stroke:#000000;stroke-width:0.9;stroke-linecap: round"
       id="path59" />
    <path
       style="fill:none;stroke:#000000;stroke-width:0.9;stroke-linecap:round"
       d="M 44.9764 778.205 L 148.074 822.222"
       id="path61" />
    <path
       style="fill:none;stroke:#000000;stroke-width:0.9;stroke-linecap:round"
       d="M 44.9764 778.205 L -44.9764 778.205"
       id="path63" />
    <path
       style="fill:none;stroke:#000000;stroke-width:0.9;stroke-linecap:round"
       d="M -44.9764 778.205 L -244.157 863.244"
       id="path65" />
    <path
       d="M -244.157480,863.244094 A 15.118110,15.118110 -0.000000 0 0 -259.275591,878.362205"
       style="fill:none;stroke:#000000;stroke-width:0.9;stroke-linecap: round"
       id="path67" />
    <path
       style="fill:none;stroke:#000000;stroke-width:0.9;stroke-linecap:round"
       d="M -259.276 878.362 L -259.276 1366.68"
       id="path69" />
    <path
       d="M -259.275591,1366.677165 A 15.118110,15.118110 -0.000000 0 0 -244.157480,1381.795276"
       style="fill:none;stroke:#000000;stroke-width:0.9;stroke-linecap: round"
       id="path71" />
    <path
       style="fill:none;stroke:#000000;stroke-width:0.9;stroke-linecap:round"
       d="M -228.17 1381.8 L -244.157 1381.8"
       id="path73" />
    <path
       d="M -228.170079,1381.795276 A 5.669291,5.669291 -0.000000 0 0 -222.500787,1376.125984"
       style="fill:none;stroke:#000000;stroke-width:0.9;stroke-linecap: round"
       id="path75" />
    <path
       style="fill:none;stroke:#000000;stroke-width:0.9;stroke-linecap:round"
       d="M -143.622 1334.17 L 143.622 1334.17"
       id="path77" />
    <path
       d="M -143.622047,1334.173228 A 11.338583,11.338583 -0.000000 0 0 -154.960630,1345.511811"
       style="fill:none;stroke:#000000;stroke-width:0.9;stroke-linecap: round"
       id="path79" />
    <path
       style="fill:none;stroke:#000000;stroke-width:0.9;stroke-linecap:round"
       d="M -154.961 1345.51 L -154.961 1370.46"
       id="path81" />
    <path
       d="M -154.960630,1370.456693 A 11.338583,11.338583 -0.000000 0 0 -143.622047,1381.795276"
       style="fill:none;stroke:#000000;stroke-width:0.9;stroke-linecap: round"
       id="path83" />
    <path
       style="fill:none;stroke:#000000;stroke-width:0.9;stroke-linecap:round"
       d="M 143.622 1381.8 L -143.622 1381.8"
       id="path85" />
    <path
       d="M 143.622047,1381.795276 A 11.338583,11.338583 -0.000000 0 0 154.960630,1370.456693"
       style="fill:none;stroke:#000000;stroke-width:0.9;stroke-linecap: round"
       id="path87" />
    <path
       style="fill:none;stroke:#000000;stroke-width:0.9;stroke-linecap:round"
       d="M 154.961 1345.51 L 154.961 1370.46"
       id="path89" />
    <path
       d="M 154.960630,1345.511811 A 11.338583,11.338583 -0.000000 0 0 143.622047,1334.173228"
       style="fill:none;stroke:#000000;stroke-width:0.9;stroke-linecap: round"
       id="path91" />
    <path
       d="M 193.133858,878.362205 A 9.448819,9.448819 -0.000000 1 0 174.236220,878.362205 9.448819,9.448819 -0.000000 1 0 193.133858,878.362205 z"
       style="fill:none;stroke:#000000;stroke-width:0.9;stroke-linecap: round"
       id="path93" />
    <path
       d="M 193.133858,1366.677165 A 9.448819,9.448819 -0.000000 1 0 174.236220,1366.677165 9.448819,9.448819 -0.000000 1 0 193.133858,1366.677165 z"
       style="fill:none;stroke:#000000;stroke-width:0.9;stroke-linecap: round"
       id="path95" />
    <path
       d="M -174.236220,1366.677165 A 9.448819,9.448819 -0.000000 1 0 -193.133858,1366.677165 9.448819,9.448819 -0.000000 1 0 -174.236220,1366.677165 z"
       style="fill:none;stroke:#000000;stroke-width:0.9;stroke-linecap: round"
       id="path97" />
    <path
       d="M 217.209449,1366.677165 A 6.047244,6.047244 -0.000000 1 0 205.114961,1366.677165 6.047244,6.047244 -0.000000 1 0 217.209449,1366.677165 z"
       style="fill:none;stroke:#000000;stroke-width:0.9;stroke-linecap: round"
       id="path99" />
    <path
       d="M -205.114961,1366.677165 A 6.047244,6.047244 -0.000000 1 0 -217.209449,1366.677165 6.047244,6.047244 -0.000000 1 0 -205.114961,1366.677165 z"
       style="fill:none;stroke:#000000;stroke-width:0.9;stroke-linecap: round"
       id="path101" />
    <path
       d="M 217.209449,878.362205 A 6.047244,6.047244 -0.000000 1 0 205.114961,878.362205 6.047244,6.047244 -0.000000 1 0 217.209449,878.362205 z"
       style="fill:none;stroke:#000000;stroke-width:0.9;stroke-linecap: round"
       id="path103" />
    <path
       style="fill:none;stroke:#000000;stroke-width:0.9;stroke-linecap:round"
       d="M 209.272 1355.34 L 216.831 1355.34"
       id="path105" />
    <path
       d="M 222.500787,1361.007874 A 5.669291,5.669291 -0.000000 0 0 216.831496,1355.338583"
       style="fill:none;stroke:#000000;stroke-width:0.9;stroke-linecap: round"
       id="path107" />
    <path
       style="fill:none;stroke:#000000;stroke-width:0.9;stroke-linecap:round"
       d="M 222.501 1361.01 L 222.501 1376.13"
       id="path109" />
    <path
       d="M 222.500787,1376.125984 A 5.669291,5.669291 -0.000000 0 0 228.170079,1381.795276"
       style="fill:none;stroke:#000000;stroke-width:0.9;stroke-linecap: round"
       id="path111" />
    <path
       style="fill:none;stroke:#000000;stroke-width:0.9;stroke-linecap:round"
       d="M 244.157 1381.8 L 228.17 1381.8"
       id="path113" />
    <path
       d="M 244.157480,1381.795276 A 15.118110,15.118110 -0.000000 0 0 259.275591,1366.677165"
       style="fill:none;stroke:#000000;stroke-width:0.9;stroke-linecap: round"
       id="path115" />
    <path
       style="fill:none;stroke:#000000;stroke-width:0.9;stroke-linecap:round"
       d="M 259.276 1366.68 L 259.276 878.362"
       id="path117" />
    <path
       d="M 259.275591,878.362205 A 15.118110,15.118110 -0.000000 0 0 244.157480,863.244094"
       style="fill:none;stroke:#000000;stroke-width:0.9;stroke-linecap: round"
       id="path119" />
    <path
       style="fill:none;stroke:#000000;stroke-width:0.9;stroke-linecap:round"
       d="M 230.782 857.533 L 244.157 863.244"
       id="path121" />
    <path
       d="M 230.781834,857.533430 A 5.669291,5.669291 -0.000000 0 0 222.886466,862.747396"
       style="fill:none;stroke:#000000;stroke-width:0.9;stroke-linecap: round"
       id="path123" />
    <path
       style="fill:none;stroke:#000000;stroke-width:0.9;stroke-linecap:round"
       d="M 222.886 862.747 L 222.886 884.399"
       id="path125" />
    <path
       d="M 217.217175,890.068054 A 5.669291,5.669291 -0.000000 0 0 222.886466,884.398762"
       style="fill:none;stroke:#000000;stroke-width:0.9;stroke-linecap: round"
       id="path127" />
    <path
       style="fill:none;stroke:#000000;stroke-width:0.9;stroke-linecap:round"
       d="M 217.217 890.068 L 207.768 890.068"
       id="path129" />
    <path
       d="M 207.768356,890.068054 A 5.669291,5.669291 -0.000000 0 0 202.099065,895.737345"
       style="fill:none;stroke:#000000;stroke-width:0.9;stroke-linecap: round"
       id="path131" />
    <path
       style="fill:none;stroke:#000000;stroke-width:0.9;stroke-linecap:round"
       d="M 202.099 895.737 L 202.099 934.387"
       id="path133" />
    <path
       d="M 202.099065,934.386949 A 5.669291,5.669291 -0.000000 0 0 202.967654,937.402595"
       style="fill:none;stroke:#000000;stroke-width:0.9;stroke-linecap: round"
       id="path135" />
    <path
       d="M 211.653543,967.559055 A 56.692913,56.692913 -0.000000 0 0 202.967654,937.402595"
       style="fill:none;stroke:#000000;stroke-width:0.9;stroke-linecap: round"
       id="path137" />
    <path
       style="fill:none;stroke:#000000;stroke-width:0.9;stroke-linecap:round"
       d="M 211.654 1277.48 L 211.654 967.559"
       id="path139" />
    <path
       d="M 204.335004,1305.341716 A 56.692913,56.692913 -0.000000 0 0 211.653543,1277.480315"
       style="fill:none;stroke:#000000;stroke-width:0.9;stroke-linecap: round"
       id="path141" />
    <path
       d="M 204.335004,1305.341716 A 5.669291,5.669291 -0.000000 0 0 203.603150,1308.127856"
       style="fill:none;stroke:#000000;stroke-width:0.9;stroke-linecap: round"
       id="path143" />
    <path
       style="fill:none;stroke:#000000;stroke-width:0.9;stroke-linecap:round"
       d="M 203.603 1308.13 L 203.603 1349.67"
       id="path145" />
    <path
       d="M 203.603150,1349.669291 A 5.669291,5.669291 -0.000000 0 0 209.272441,1355.338583"
       style="fill:none;stroke:#000000;stroke-width:0.9;stroke-linecap: round"
       id="path147" />
    <path
       style="fill:none;stroke:#000000;stroke-width:0.9;stroke-linecap:round"
       d="M -244.157 1389.35 L 244.157 1389.35"
       id="path149" />
    <path
       d="M -266.834646,1366.677165 A 22.677165,22.677165 -0.000000 0 0 -244.157480,1389.354331"
       style="fill:none;stroke:#000000;stroke-width:0.9;stroke-linecap: round"
       id="path151" />
    <path
       style="fill:none;stroke:#000000;stroke-width:0.9;stroke-linecap:round"
       d="M -266.835 878.362 L -266.835 1366.68"
       id="path153" />
    <path
       d="M -247.713649,855.965609 A 22.677165,22.677165 -0.000000 0 0 -266.834646,878.362205"
       style="fill:none;stroke:#000000;stroke-width:0.9;stroke-linecap: round"
       id="path155" />
    <path
       d="M -247.713649,855.965609 A 37.795276,37.795276 -0.000000 0 0 -238.800085,853.397726"
       style="fill:none;stroke:#000000;stroke-width:0.9;stroke-linecap: round"
       id="path157" />
    <path
       style="fill:none;stroke:#000000;stroke-width:0.9;stroke-linecap:round"
       d="M -52.0862 773.681 L -238.8 853.398"
       id="path159" />
    <path
       d="M -37.245679,770.645669 A 37.795276,37.795276 -0.000000 0 0 -52.086191,773.681168"
       style="fill:none;stroke:#000000;stroke-width:0.9;stroke-linecap: round"
       id="path161" />
    <path
       style="fill:none;stroke:#000000;stroke-width:0.9;stroke-linecap:round"
       d="M 37.2457 770.646 L -37.2457 770.646"
       id="path163" />
    <path
       d="M 52.086191,773.681168 A 37.795276,37.795276 -0.000000 0 0 37.245679,770.645669"
       style="fill:none;stroke:#000000;stroke-width:0.9;stroke-linecap: round"
       id="path165" />
    <path
       style="fill:none;stroke:#000000;stroke-width:0.9;stroke-linecap:round"
       d="M 238.8 853.398 L 52.0862 773.681"
       id="path167" />
    <path
       d="M 238.800085,853.397726 A 37.795276,37.795276 -0.000000 0 0 247.713649,855.965609"
       style="fill:none;stroke:#000000;stroke-width:0.9;stroke-linecap: round"
       id="path169" />
    <path
       d="M 266.834646,878.362205 A 22.677165,22.677165 -0.000000 0 0 247.713649,855.965609"
       style="fill:none;stroke:#000000;stroke-width:0.9;stroke-linecap: round"
       id="path171" />
    <path
       style="fill:none;stroke:#000000;stroke-width:0.9;stroke-linecap:round"
       d="M 266.835 1366.68 L 266.835 878.362"
       id="path173" />
    <path
       d="M 244.157480,1389.354331 A 22.677165,22.677165 -0.000000 0 0 266.834646,1366.677165"
       style="fill:none;stroke:#000000;stroke-width:0.9;stroke-linecap: round"
       id="path175" />
  </g>
</svg>
