<?xml version="1.0" encoding="UTF-8" standalone="no"?>
<svg
   viewBox="0 0 793.7007874015749 1122.5196850393702"
   width="793.7007874015749"
   height="1122.5196850393702"
   version="1.1"
   id="svg125"
   sodipodi:docname="MFD-Layer2.svg"
   inkscape:version="1.1.1 (3bf5ae0d25, 2021-09-20)"
   xmlns:inkscape="http://www.inkscape.org/namespaces/inkscape"
   xmlns:sodipodi="http://sodipodi.sourceforge.net/DTD/sodipodi-0.dtd"
   xmlns="http://www.w3.org/2000/svg"
   xmlns:svg="http://www.w3.org/2000/svg">
  <sodipodi:namedview
     id="namedview127"
     pagecolor="#ffffff"
     bordercolor="#666666"
     borderopacity="1.0"
     inkscape:pageshadow="2"
     inkscape:pageopacity="0.0"
     inkscape:pagecheckerboard="0"
     showgrid="false"
     inkscape:zoom="0.77771467"
     inkscape:cx="397.31795"
     inkscape:cy="663.48241"
     inkscape:window-width="3840"
     inkscape:window-height="2066"
     inkscape:window-x="1525"
     inkscape:window-y="-11"
     inkscape:window-maximized="1"
     inkscape:current-layer="g123" />
  <desc
     id="desc2">MFD-Layer2.DXF - scale = 1.0, origin = (0.0, 0.0), method = manual</desc>
  <defs
     id="defs17">
    <marker
       id="DistanceX"
       orient="auto"
       refX="0.0"
       refY="0.0"
       style="overflow:visible">
      <path
         d="M 3,-3 L -3,3 M 0,-5 L  0,5"
         style="stroke:#000000; stroke-width:0.5"
         id="path4" />
    </marker>
    <pattern
       id="Hatch"
       patternUnits="userSpaceOnUse"
       width="8"
       height="8"
       x="0"
       y="0">
      <path
         d="M8 4 l-4,4"
         stroke="#000000"
         stroke-width="0.25"
         linecap="square"
         id="path7" />
      <path
         d="M6 2 l-4,4"
         stroke="#000000"
         stroke-width="0.25"
         linecap="square"
         id="path9" />
      <path
         d="M4 0 l-4,4"
         stroke="#000000"
         stroke-width="0.25"
         linecap="square"
         id="path11" />
    </pattern>
    <symbol
       id="*Model_Space" />
    <symbol
       id="*Paper_Space" />
    <symbol
       id="*Paper_Space0" />
  </defs>
  <g
     inkscape:groupmode="layer"
     inkscape:label="0"
     id="g123">
    <path
       style="fill:none;stroke:#000000;stroke-width:0.9;stroke-linecap:round"
       d="m 485.37707,1276.4631 v 7.56"
       id="path19" />
    <path
       style="fill:none;stroke:#000000;stroke-width:0.9;stroke-linecap:round"
       d="m 360.65227,1276.4631 h 124.7248"
       id="path21" />
    <path
       d="m 311.51878,1227.3334 a 49.133858,49.133858 0 0 0 49.13386,49.1338"
       style="fill:none;stroke:#000000;stroke-width:0.9;stroke-linecap:round"
       id="path23" />
    <path
       style="fill:none;stroke:#000000;stroke-width:0.9;stroke-linecap:round"
       d="M 311.51927,917.41207 V 1227.3331"
       id="path25" />
    <path
       d="m 360.65264,868.27827 a 49.133858,49.133858 0 0 0 -49.13386,49.13386"
       style="fill:none;stroke:#000000;stroke-width:0.9;stroke-linecap:round"
       id="path27" />
    <path
       style="fill:none;stroke:#000000;stroke-width:0.9;stroke-linecap:round"
       d="m 670.57427,868.27807 h -309.922"
       id="path29" />
    <path
       d="M 719.70775,917.41213 A 49.133858,49.133858 0 0 0 670.5739,868.27827"
       style="fill:none;stroke:#000000;stroke-width:0.9;stroke-linecap:round"
       id="path31" />
    <path
       style="fill:none;stroke:#000000;stroke-width:0.9;stroke-linecap:round"
       d="M 719.70727,1227.3331 V 917.41207"
       id="path33" />
    <path
       d="m 670.5739,1276.4672 a 49.133858,49.133858 0 0 0 49.13385,-49.1338"
       style="fill:none;stroke:#000000;stroke-width:0.9;stroke-linecap:round"
       id="path35" />
    <path
       style="fill:none;stroke:#000000;stroke-width:0.9;stroke-linecap:round"
       d="m 545.84947,1276.4631 h 124.7248"
       id="path37" />
    <path
       style="fill:none;stroke:#000000;stroke-width:0.9;stroke-linecap:round"
       d="m 545.84947,1284.0231 v -7.56"
       id="path39" />
    <path
       style="fill:none;stroke:#000000;stroke-width:0.9;stroke-linecap:round"
       d="m 485.37707,1284.0231 h 60.4724"
       id="path41" />
    <path
       style="fill:none;stroke:#000000;stroke-width:0.9;stroke-linecap:round"
       d="m 549.62897,1287.8031 h -68.0314"
       id="path43" />
    <path
       style="fill:none;stroke:#000000;stroke-width:0.9;stroke-linecap:round"
       d="m 549.62897,1287.8031 26.1854,-3.78"
       id="path45" />
    <path
       style="fill:none;stroke:#000000;stroke-width:0.9;stroke-linecap:round"
       d="m 575.81437,1284.0231 h 94.7599"
       id="path47" />
    <path
       d="m 670.5739,1284.0263 a 56.692913,56.692913 0 0 0 56.69291,-56.6929"
       style="fill:none;stroke:#000000;stroke-width:0.9;stroke-linecap:round"
       id="path49" />
    <path
       style="fill:none;stroke:#000000;stroke-width:0.9;stroke-linecap:round"
       d="M 727.26727,1227.3331 V 917.41207"
       id="path51" />
    <path
       d="M 727.26681,917.41213 A 56.692913,56.692913 0 0 0 670.5739,860.71922"
       style="fill:none;stroke:#000000;stroke-width:0.9;stroke-linecap:round"
       id="path53" />
    <path
       style="fill:none;stroke:#000000;stroke-width:0.9;stroke-linecap:round"
       d="m 670.57427,860.71907 h -309.922"
       id="path55" />
    <path
       d="m 360.65264,860.71922 a 56.692913,56.692913 0 0 0 -56.69292,56.69291"
       style="fill:none;stroke:#000000;stroke-width:0.9;stroke-linecap:round"
       id="path57" />
    <path
       style="fill:none;stroke:#000000;stroke-width:0.9;stroke-linecap:round"
       d="M 303.95927,917.41207 V 1227.3331"
       id="path59" />
    <path
       d="m 303.95972,1227.3334 a 56.692913,56.692913 0 0 0 56.69292,56.6929"
       style="fill:none;stroke:#000000;stroke-width:0.9;stroke-linecap:round"
       id="path61" />
    <path
       style="fill:none;stroke:#000000;stroke-width:0.9;stroke-linecap:round"
       d="m 360.65227,1284.0231 h 94.7599"
       id="path63" />
    <path
       style="fill:none;stroke:#000000;stroke-width:0.9;stroke-linecap:round"
       d="m 481.59757,1287.8031 -26.1854,-3.78"
       id="path65" />
    <path
       style="fill:none;stroke:#000000;stroke-width:0.9;stroke-linecap:round"
       d="M -30.2362 770.646 L -30.2362 778.205"
       id="path67" />
    <path
       style="fill:none;stroke:#000000;stroke-width:0.9;stroke-linecap:round"
       d="M -30.2362 770.646 L -37.2457 770.646"
       id="path69" />
    <path
       d="M -37.245679,770.645669 A 37.795276,37.795276 -0.000000 0 0 -52.086191,773.681168"
       style="fill:none;stroke:#000000;stroke-width:0.9;stroke-linecap: round"
       id="path71" />
    <path
       style="fill:none;stroke:#000000;stroke-width:0.9;stroke-linecap:round"
       d="M -52.0862 773.681 L -238.8 853.398"
       id="path73" />
    <path
       d="M -247.713649,855.965609 A 37.795276,37.795276 -0.000000 0 0 -238.800085,853.397726"
       style="fill:none;stroke:#000000;stroke-width:0.9;stroke-linecap: round"
       id="path75" />
    <path
       d="M -247.713649,855.965609 A 22.677165,22.677165 -0.000000 0 0 -266.834646,878.362205"
       style="fill:none;stroke:#000000;stroke-width:0.9;stroke-linecap: round"
       id="path77" />
    <path
       style="fill:none;stroke:#000000;stroke-width:0.9;stroke-linecap:round"
       d="M -266.835 878.362 L -266.835 1366.68"
       id="path79" />
    <path
       d="M -266.834646,1366.677165 A 22.677165,22.677165 -0.000000 0 0 -244.157480,1389.354331"
       style="fill:none;stroke:#000000;stroke-width:0.9;stroke-linecap: round"
       id="path81" />
    <path
       style="fill:none;stroke:#000000;stroke-width:0.9;stroke-linecap:round"
       d="M -244.157 1389.35 L 244.157 1389.35"
       id="path83" />
    <path
       d="M 244.157480,1389.354331 A 22.677165,22.677165 -0.000000 0 0 266.834646,1366.677165"
       style="fill:none;stroke:#000000;stroke-width:0.9;stroke-linecap: round"
       id="path85" />
    <path
       style="fill:none;stroke:#000000;stroke-width:0.9;stroke-linecap:round"
       d="M 266.835 1366.68 L 266.835 878.362"
       id="path87" />
    <path
       d="M 266.834646,878.362205 A 22.677165,22.677165 -0.000000 0 0 247.713649,855.965609"
       style="fill:none;stroke:#000000;stroke-width:0.9;stroke-linecap: round"
       id="path89" />
    <path
       d="M 238.800085,853.397726 A 37.795276,37.795276 -0.000000 0 0 247.713649,855.965609"
       style="fill:none;stroke:#000000;stroke-width:0.9;stroke-linecap: round"
       id="path91" />
    <path
       style="fill:none;stroke:#000000;stroke-width:0.9;stroke-linecap:round"
       d="M 238.8 853.398 L 52.0862 773.681"
       id="path93" />
    <path
       d="M 52.086191,773.681168 A 37.795276,37.795276 -0.000000 0 0 37.245679,770.645669"
       style="fill:none;stroke:#000000;stroke-width:0.9;stroke-linecap: round"
       id="path95" />
    <path
       style="fill:none;stroke:#000000;stroke-width:0.9;stroke-linecap:round"
       d="M 37.2457 770.646 L 30.2362 770.646"
       id="path97" />
    <path
       style="fill:none;stroke:#000000;stroke-width:0.9;stroke-linecap:round"
       d="M 30.2362 778.205 L 30.2362 770.646"
       id="path99" />
    <path
       style="fill:none;stroke:#000000;stroke-width:0.9;stroke-linecap:round"
       d="M -30.2362 778.205 L 30.2362 778.205"
       id="path101" />
    <path
       style="fill:none;stroke:#000000;stroke-width:0.9;stroke-linecap:round"
       d="M -53.8289 781.984 L -244.157 863.244"
       id="path103" />
    <path
       style="fill:none;stroke:#000000;stroke-width:0.9;stroke-linecap:round"
       d="M -53.8289 781.984 L 53.8289 781.984"
       id="path105" />
    <path
       style="fill:none;stroke:#000000;stroke-width:0.9;stroke-linecap:round"
       d="M 244.157 863.244 L 53.8289 781.984"
       id="path107" />
    <path
       d="M 259.275591,878.362205 A 15.118110,15.118110 -0.000000 0 0 244.157480,863.244094"
       style="fill:none;stroke:#000000;stroke-width:0.9;stroke-linecap: round"
       id="path109" />
    <path
       style="fill:none;stroke:#000000;stroke-width:0.9;stroke-linecap:round"
       d="M 259.276 1366.68 L 259.276 878.362"
       id="path111" />
    <path
       d="M 244.157480,1381.795276 A 15.118110,15.118110 -0.000000 0 0 259.275591,1366.677165"
       style="fill:none;stroke:#000000;stroke-width:0.9;stroke-linecap: round"
       id="path113" />
    <path
       style="fill:none;stroke:#000000;stroke-width:0.9;stroke-linecap:round"
       d="M -244.157 1381.8 L 244.157 1381.8"
       id="path115" />
    <path
       d="M -259.275591,1366.677165 A 15.118110,15.118110 -0.000000 0 0 -244.157480,1381.795276"
       style="fill:none;stroke:#000000;stroke-width:0.9;stroke-linecap: round"
       id="path117" />
    <path
       style="fill:none;stroke:#000000;stroke-width:0.9;stroke-linecap:round"
       d="M -259.276 878.362 L -259.276 1366.68"
       id="path119" />
    <path
       d="M -244.157480,863.244094 A 15.118110,15.118110 -0.000000 0 0 -259.275591,878.362205"
       style="fill:none;stroke:#000000;stroke-width:0.9;stroke-linecap: round"
       id="path121" />
  </g>
</svg>
