<?xml version="1.0" encoding="UTF-8" standalone="no"?>
<svg
   viewBox="0 0 793.7007874015749 1122.5196850393702"
   width="793.7007874015749"
   height="1122.5196850393702"
   version="1.1"
   id="svg69"
   sodipodi:docname="UFC-Backplate.DXF"
   xmlns:inkscape="http://www.inkscape.org/namespaces/inkscape"
   xmlns:sodipodi="http://sodipodi.sourceforge.net/DTD/sodipodi-0.dtd"
   xmlns="http://www.w3.org/2000/svg"
   xmlns:svg="http://www.w3.org/2000/svg">
  <sodipodi:namedview
     id="namedview71"
     pagecolor="#ffffff"
     bordercolor="#666666"
     borderopacity="1.0"
     inkscape:pageshadow="2"
     inkscape:pageopacity="0.0"
     inkscape:pagecheckerboard="0" />
  <desc
     id="desc2">UFC-Backplate.DXF - scale = 1.0, origin = (0.0, 0.0), method = manual</desc>
  <defs
     id="defs17">
    <marker
       id="DistanceX"
       orient="auto"
       refX="0.0"
       refY="0.0"
       style="overflow:visible">
      <path
         d="M 3,-3 L -3,3 M 0,-5 L  0,5"
         style="stroke:#000000; stroke-width:0.5"
         id="path4" />
    </marker>
    <pattern
       id="Hatch"
       patternUnits="userSpaceOnUse"
       width="8"
       height="8"
       x="0"
       y="0">
      <path
         d="M8 4 l-4,4"
         stroke="#000000"
         stroke-width="0.25"
         linecap="square"
         id="path7" />
      <path
         d="M6 2 l-4,4"
         stroke="#000000"
         stroke-width="0.25"
         linecap="square"
         id="path9" />
      <path
         d="M4 0 l-4,4"
         stroke="#000000"
         stroke-width="0.25"
         linecap="square"
         id="path11" />
    </pattern>
    <symbol
       id="*Model_Space" />
    <symbol
       id="*Paper_Space" />
    <symbol
       id="*Paper_Space0" />
  </defs>
  <g
     inkscape:groupmode="layer"
     inkscape:label="0"
     id="g67">
    <path
       style="fill:none;stroke:#000000;stroke-width:0.9;stroke-linecap:round"
       d="M 221.102 1048.82 L 221.102 901.417"
       id="path19" />
    <path
       style="fill:none;stroke:#000000;stroke-width:0.9;stroke-linecap:round"
       d="M 221.102 901.417 L 73.7008 901.417"
       id="path21" />
    <path
       style="fill:none;stroke:#000000;stroke-width:0.9;stroke-linecap:round"
       d="M 73.7008 901.417 L 73.7008 912.756"
       id="path23" />
    <path
       style="fill:none;stroke:#000000;stroke-width:0.9;stroke-linecap:round"
       d="M 73.7008 912.756 L -73.7008 912.756"
       id="path25" />
    <path
       style="fill:none;stroke:#000000;stroke-width:0.9;stroke-linecap:round"
       d="M -73.7008 912.756 L -73.7008 901.417"
       id="path27" />
    <path
       style="fill:none;stroke:#000000;stroke-width:0.9;stroke-linecap:round"
       d="M -73.7008 901.417 L -221.102 901.417"
       id="path29" />
    <path
       style="fill:none;stroke:#000000;stroke-width:0.9;stroke-linecap:round"
       d="M -221.102 901.417 L -221.102 1048.82"
       id="path31" />
    <path
       style="fill:none;stroke:#000000;stroke-width:0.9;stroke-linecap:round"
       d="M -221.102 1048.82 L -209.764 1048.82"
       id="path33" />
    <path
       style="fill:none;stroke:#000000;stroke-width:0.9;stroke-linecap:round"
       d="M -209.764 1048.82 L -209.764 1196.22"
       id="path35" />
    <path
       style="fill:none;stroke:#000000;stroke-width:0.9;stroke-linecap:round"
       d="M -209.764 1196.22 L -221.102 1196.22"
       id="path37" />
    <path
       style="fill:none;stroke:#000000;stroke-width:0.9;stroke-linecap:round"
       d="M -221.102 1196.22 L -221.102 1343.62"
       id="path39" />
    <path
       style="fill:none;stroke:#000000;stroke-width:0.9;stroke-linecap:round"
       d="M -221.102 1343.62 L -73.7008 1343.62"
       id="path41" />
    <path
       style="fill:none;stroke:#000000;stroke-width:0.9;stroke-linecap:round"
       d="M -73.7008 1343.62 L -73.7008 1332.28"
       id="path43" />
    <path
       style="fill:none;stroke:#000000;stroke-width:0.9;stroke-linecap:round"
       d="M -73.7008 1332.28 L 73.7008 1332.28"
       id="path45" />
    <path
       style="fill:none;stroke:#000000;stroke-width:0.9;stroke-linecap:round"
       d="M 73.7008 1332.28 L 73.7008 1343.62"
       id="path47" />
    <path
       style="fill:none;stroke:#000000;stroke-width:0.9;stroke-linecap:round"
       d="M 73.7008 1343.62 L 221.102 1343.62"
       id="path49" />
    <path
       style="fill:none;stroke:#000000;stroke-width:0.9;stroke-linecap:round"
       d="M 221.102 1343.62 L 221.102 1196.22"
       id="path51" />
    <path
       style="fill:none;stroke:#000000;stroke-width:0.9;stroke-linecap:round"
       d="M 221.102 1196.22 L 209.764 1196.22"
       id="path53" />
    <path
       style="fill:none;stroke:#000000;stroke-width:0.9;stroke-linecap:round"
       d="M 209.764 1196.22 L 209.764 1048.82"
       id="path55" />
    <path
       style="fill:none;stroke:#000000;stroke-width:0.9;stroke-linecap:round"
       d="M 209.764 1048.82 L 221.102 1048.82"
       id="path57" />
    <path
       d="M -133.417323,980.787402 A 8.314961,8.314961 -0.000000 1 0 -150.047244,980.787402 8.314961,8.314961 -0.000000 1 0 -133.417323,980.787402 z"
       style="fill:none;stroke:#000000;stroke-width:0.9;stroke-linecap: round"
       id="path59" />
    <path
       d="M 150.047244,980.787402 A 8.314961,8.314961 -0.000000 1 0 133.417323,980.787402 8.314961,8.314961 -0.000000 1 0 150.047244,980.787402 z"
       style="fill:none;stroke:#000000;stroke-width:0.9;stroke-linecap: round"
       id="path61" />
    <path
       d="M 150.047244,1264.251969 A 8.314961,8.314961 -0.000000 1 0 133.417323,1264.251969 8.314961,8.314961 -0.000000 1 0 150.047244,1264.251969 z"
       style="fill:none;stroke:#000000;stroke-width:0.9;stroke-linecap: round"
       id="path63" />
    <path
       d="M -133.417323,1264.251969 A 8.314961,8.314961 -0.000000 1 0 -150.047244,1264.251969 8.314961,8.314961 -0.000000 1 0 -133.417323,1264.251969 z"
       style="fill:none;stroke:#000000;stroke-width:0.9;stroke-linecap: round"
       id="path65" />
  </g>
</svg>
