<?xml version="1.0" encoding="UTF-8" standalone="no"?>
<svg
   viewBox="0 0 793.7007874015749 1122.5196850393702"
   width="793.7007874015749"
   height="1122.5196850393702"
   version="1.1"
   id="svg105"
   sodipodi:docname="UFC-Faceplate.DXF"
   xmlns:inkscape="http://www.inkscape.org/namespaces/inkscape"
   xmlns:sodipodi="http://sodipodi.sourceforge.net/DTD/sodipodi-0.dtd"
   xmlns="http://www.w3.org/2000/svg"
   xmlns:svg="http://www.w3.org/2000/svg">
  <sodipodi:namedview
     id="namedview107"
     pagecolor="#ffffff"
     bordercolor="#666666"
     borderopacity="1.0"
     inkscape:pageshadow="2"
     inkscape:pageopacity="0.0"
     inkscape:pagecheckerboard="0" />
  <desc
     id="desc2">UFC-Faceplate.DXF - scale = 1.0, origin = (0.0, 0.0), method = manual</desc>
  <defs
     id="defs17">
    <marker
       id="DistanceX"
       orient="auto"
       refX="0.0"
       refY="0.0"
       style="overflow:visible">
      <path
         d="M 3,-3 L -3,3 M 0,-5 L  0,5"
         style="stroke:#000000; stroke-width:0.5"
         id="path4" />
    </marker>
    <pattern
       id="Hatch"
       patternUnits="userSpaceOnUse"
       width="8"
       height="8"
       x="0"
       y="0">
      <path
         d="M8 4 l-4,4"
         stroke="#000000"
         stroke-width="0.25"
         linecap="square"
         id="path7" />
      <path
         d="M6 2 l-4,4"
         stroke="#000000"
         stroke-width="0.25"
         linecap="square"
         id="path9" />
      <path
         d="M4 0 l-4,4"
         stroke="#000000"
         stroke-width="0.25"
         linecap="square"
         id="path11" />
    </pattern>
    <symbol
       id="*Model_Space" />
    <symbol
       id="*Paper_Space" />
    <symbol
       id="*Paper_Space0" />
  </defs>
  <g
     inkscape:groupmode="layer"
     inkscape:label="0"
     id="g103">
    <path
       d="M -146.336352,1165.727512 A 18.897638,18.897638 -0.000000 1 0 -184.131628,1165.727512 18.897638,18.897638 -0.000000 1 0 -146.336352,1165.727512 z"
       style="fill:none;stroke:#000000;stroke-width:0.9;stroke-linecap: round"
       id="path19" />
    <path
       d="M 184.825852,1223.327512 A 18.897638,18.897638 -0.000000 1 0 147.030577,1223.327512 18.897638,18.897638 -0.000000 1 0 184.825852,1223.327512 z"
       style="fill:none;stroke:#000000;stroke-width:0.9;stroke-linecap: round"
       id="path21" />
    <path
       d="M 184.825852,1165.727512 A 18.897638,18.897638 -0.000000 1 0 147.030577,1165.727512 18.897638,18.897638 -0.000000 1 0 184.825852,1165.727512 z"
       style="fill:none;stroke:#000000;stroke-width:0.9;stroke-linecap: round"
       id="path23" />
    <path
       d="M -146.336352,1223.327512 A 18.897638,18.897638 -0.000000 1 0 -184.131628,1223.327512 18.897638,18.897638 -0.000000 1 0 -146.336352,1223.327512 z"
       style="fill:none;stroke:#000000;stroke-width:0.9;stroke-linecap: round"
       id="path25" />
    <path
       d="M -133.417323,1264.251969 A 8.314961,8.314961 -0.000000 1 0 -150.047244,1264.251969 8.314961,8.314961 -0.000000 1 0 -133.417323,1264.251969 z"
       style="fill:none;stroke:#000000;stroke-width:0.9;stroke-linecap: round"
       id="path27" />
    <path
       d="M 150.047244,1264.251969 A 8.314961,8.314961 -0.000000 1 0 133.417323,1264.251969 8.314961,8.314961 -0.000000 1 0 150.047244,1264.251969 z"
       style="fill:none;stroke:#000000;stroke-width:0.9;stroke-linecap: round"
       id="path29" />
    <path
       style="fill:none;stroke:#000000;stroke-width:0.9;stroke-linecap:round"
       d="M -112.8 1273.72 L -112.8 1127.38"
       id="path31" />
    <path
       style="fill:none;stroke:#000000;stroke-width:0.9;stroke-linecap:round"
       d="M -112.8 1273.72 L 112.8 1273.72"
       id="path33" />
    <path
       style="fill:none;stroke:#000000;stroke-width:0.9;stroke-linecap:round"
       d="M 112.8 1273.72 L 112.8 1127.38"
       id="path35" />
    <path
       style="fill:none;stroke:#000000;stroke-width:0.9;stroke-linecap:round"
       d="M 192.057 1127.38 L 112.8 1127.38"
       id="path37" />
    <path
       style="fill:none;stroke:#000000;stroke-width:0.9;stroke-linecap:round"
       d="M 192.057 978.576 L 192.057 1127.38"
       id="path39" />
    <path
       style="fill:none;stroke:#000000;stroke-width:0.9;stroke-linecap:round"
       d="M 192.057 978.576 L 149.748 978.576"
       id="path41" />
    <path
       style="fill:none;stroke:#000000;stroke-width:0.9;stroke-linecap:round"
       d="M 133.717 978.576 L 112.8 978.576"
       id="path43" />
    <path
       style="fill:none;stroke:#000000;stroke-width:0.9;stroke-linecap:round"
       d="M 112.8 978.576 L 112.8 971.32"
       id="path45" />
    <path
       style="fill:none;stroke:#000000;stroke-width:0.9;stroke-linecap:round"
       d="M -112.8 971.32 L 112.8 971.32"
       id="path47" />
    <path
       style="fill:none;stroke:#000000;stroke-width:0.9;stroke-linecap:round"
       d="M -112.8 978.576 L -112.8 971.32"
       id="path49" />
    <path
       style="fill:none;stroke:#000000;stroke-width:0.9;stroke-linecap:round"
       d="M -112.8 978.576 L -133.717 978.576"
       id="path51" />
    <path
       style="fill:none;stroke:#000000;stroke-width:0.9;stroke-linecap:round"
       d="M -149.748 978.576 L -192.057 978.576"
       id="path53" />
    <path
       style="fill:none;stroke:#000000;stroke-width:0.9;stroke-linecap:round"
       d="M -192.057 978.576 L -192.057 1127.38"
       id="path55" />
    <path
       style="fill:none;stroke:#000000;stroke-width:0.9;stroke-linecap:round"
       d="M -112.8 1127.38 L -192.057 1127.38"
       id="path57" />
    <path
       style="fill:none;stroke:#000000;stroke-width:0.9;stroke-linecap:round"
       d="M 209.764 1048.82 L 221.102 1048.82"
       id="path59" />
    <path
       style="fill:none;stroke:#000000;stroke-width:0.9;stroke-linecap:round"
       d="M 209.764 1196.22 L 209.764 1048.82"
       id="path61" />
    <path
       style="fill:none;stroke:#000000;stroke-width:0.9;stroke-linecap:round"
       d="M 221.102 1196.22 L 209.764 1196.22"
       id="path63" />
    <path
       style="fill:none;stroke:#000000;stroke-width:0.9;stroke-linecap:round"
       d="M 221.102 1343.62 L 221.102 1196.22"
       id="path65" />
    <path
       style="fill:none;stroke:#000000;stroke-width:0.9;stroke-linecap:round"
       d="M 73.7008 1343.62 L 221.102 1343.62"
       id="path67" />
    <path
       style="fill:none;stroke:#000000;stroke-width:0.9;stroke-linecap:round"
       d="M 73.7008 1332.28 L 73.7008 1343.62"
       id="path69" />
    <path
       style="fill:none;stroke:#000000;stroke-width:0.9;stroke-linecap:round"
       d="M -73.7008 1332.28 L 73.7008 1332.28"
       id="path71" />
    <path
       style="fill:none;stroke:#000000;stroke-width:0.9;stroke-linecap:round"
       d="M -73.7008 1343.62 L -73.7008 1332.28"
       id="path73" />
    <path
       style="fill:none;stroke:#000000;stroke-width:0.9;stroke-linecap:round"
       d="M -221.102 1343.62 L -73.7008 1343.62"
       id="path75" />
    <path
       style="fill:none;stroke:#000000;stroke-width:0.9;stroke-linecap:round"
       d="M -221.102 1196.22 L -221.102 1343.62"
       id="path77" />
    <path
       style="fill:none;stroke:#000000;stroke-width:0.9;stroke-linecap:round"
       d="M -209.764 1196.22 L -221.102 1196.22"
       id="path79" />
    <path
       style="fill:none;stroke:#000000;stroke-width:0.9;stroke-linecap:round"
       d="M -209.764 1048.82 L -209.764 1196.22"
       id="path81" />
    <path
       style="fill:none;stroke:#000000;stroke-width:0.9;stroke-linecap:round"
       d="M -221.102 1048.82 L -209.764 1048.82"
       id="path83" />
    <path
       style="fill:none;stroke:#000000;stroke-width:0.9;stroke-linecap:round"
       d="M -221.102 901.417 L -221.102 1048.82"
       id="path85" />
    <path
       style="fill:none;stroke:#000000;stroke-width:0.9;stroke-linecap:round"
       d="M -73.7008 901.417 L -221.102 901.417"
       id="path87" />
    <path
       style="fill:none;stroke:#000000;stroke-width:0.9;stroke-linecap:round"
       d="M -73.7008 912.756 L -73.7008 901.417"
       id="path89" />
    <path
       style="fill:none;stroke:#000000;stroke-width:0.9;stroke-linecap:round"
       d="M 73.7008 912.756 L -73.7008 912.756"
       id="path91" />
    <path
       style="fill:none;stroke:#000000;stroke-width:0.9;stroke-linecap:round"
       d="M 73.7008 901.417 L 73.7008 912.756"
       id="path93" />
    <path
       style="fill:none;stroke:#000000;stroke-width:0.9;stroke-linecap:round"
       d="M 221.102 901.417 L 73.7008 901.417"
       id="path95" />
    <path
       style="fill:none;stroke:#000000;stroke-width:0.9;stroke-linecap:round"
       d="M 221.102 1048.82 L 221.102 901.417"
       id="path97" />
    <path
       d="M 149.747890,978.576378 A 8.314961,8.314961 -0.000000 0 0 133.716677,978.576378"
       style="fill:none;stroke:#000000;stroke-width:0.9;stroke-linecap: round"
       id="path99" />
    <path
       d="M -133.716677,978.576378 A 8.314961,8.314961 -0.000000 0 0 -149.747890,978.576378"
       style="fill:none;stroke:#000000;stroke-width:0.9;stroke-linecap: round"
       id="path101" />
  </g>
</svg>
