<?xml version="1.0" standalone="no"?>
 <!DOCTYPE svg PUBLIC "-//W3C//DTD SVG 1.1//EN" 
 "http://www.w3.org/Graphics/SVG/1.1/DTD/svg11.dtd"> 
<svg
  xmlns:svg="http://www.w3.org/2000/svg"
  xmlns="http://www.w3.org/2000/svg"
  xmlns:xlink="http://www.w3.org/1999/xlink"
  version="1.1"
  width="13.970000cm" height="93.939360cm" viewBox="0 0 55000 369840">
<title>SVG Picture created as MFDintbutton-brd.svg date 2021/11/02 17:52:16 </title>
  <desc>Picture generated by PCBNEW </desc>
<g style="fill:#000000; fill-opacity:1;stroke:#000000; stroke-opacity:1;
stroke-linecap:round; stroke-linejoin:round;"
 transform="translate(0 0) scale(1 1)">
</g>
<g style="fill:#000000; fill-opacity:0.0; 
stroke:#000000; stroke-width:-0.000393701; stroke-opacity:1; 
stroke-linecap:round; stroke-linejoin:round;">
</g>
<g style="fill:#C2C2C2; fill-opacity:0.0; 
stroke:#C2C2C2; stroke-width:-0.000393701; stroke-opacity:1; 
stroke-linecap:round; stroke-linejoin:round;">
</g>
<g style="fill:#C2C2C2; fill-opacity:0.0; 
stroke:#C2C2C2; stroke-width:59.0551; stroke-opacity:1; 
stroke-linecap:round; stroke-linejoin:round;">
<path d="M23494 331023
L30994 331023
" />
<path d="M30994 331023
L30994 338523
" />
<path d="M30994 338523
L23494 338523
" />
<path d="M23494 338523
L23494 331023
" />
<path d="M39750 339779
L47250 339779
" />
<path d="M47250 339779
L47250 347279
" />
<path d="M47250 347279
L39750 347279
" />
<path d="M39750 347279
L39750 339779
" />
<path d="M39750 331779
L47250 331779
" />
<path d="M47250 331779
L47250 339279
" />
<path d="M47250 339279
L39750 339279
" />
<path d="M39750 339279
L39750 331779
" />
<path d="M7250 339779
L14750 339779
" />
<path d="M14750 339779
L14750 347279
" />
<path d="M14750 347279
L7250 347279
" />
<path d="M7250 347279
L7250 339779
" />
<path d="M7250 331779
L14750 331779
" />
<path d="M14750 331779
L14750 339279
" />
<path d="M14750 339279
L7250 339279
" />
<path d="M7250 339279
L7250 331779
" />
<path d="M31494 355023
L38994 355023
" />
<path d="M38994 355023
L38994 362523
" />
<path d="M38994 362523
L31494 362523
" />
<path d="M31494 362523
L31494 355023
" />
<path d="M31494 347023
L38994 347023
" />
<path d="M38994 347023
L38994 354523
" />
<path d="M38994 354523
L31494 354523
" />
<path d="M31494 354523
L31494 347023
" />
<path d="M31494 339023
L38994 339023
" />
<path d="M38994 339023
L38994 346523
" />
<path d="M38994 346523
L31494 346523
" />
<path d="M31494 346523
L31494 339023
" />
<path d="M31494 331023
L38994 331023
" />
<path d="M38994 331023
L38994 338523
" />
<path d="M38994 338523
L31494 338523
" />
<path d="M31494 338523
L31494 331023
" />
<path d="M23494 355023
L30994 355023
" />
<path d="M30994 355023
L30994 362523
" />
<path d="M30994 362523
L23494 362523
" />
<path d="M23494 362523
L23494 355023
" />
<path d="M23494 347023
L30994 347023
" />
<path d="M30994 347023
L30994 354523
" />
<path d="M30994 354523
L23494 354523
" />
<path d="M23494 354523
L23494 347023
" />
<path d="M23494 339023
L30994 339023
" />
<path d="M30994 339023
L30994 346523
" />
<path d="M30994 346523
L23494 346523
" />
<path d="M23494 346523
L23494 339023
" />
<path d="M15494 355023
L22994 355023
" />
<path d="M22994 355023
L22994 362523
" />
<path d="M22994 362523
L15494 362523
" />
<path d="M15494 362523
L15494 355023
" />
<path d="M15494 347023
L22994 347023
" />
<path d="M22994 347023
L22994 354523
" />
<path d="M22994 354523
L15494 354523
" />
<path d="M15494 354523
L15494 347023
" />
<path d="M15494 339023
L22994 339023
" />
<path d="M22994 339023
L22994 346523
" />
<path d="M22994 346523
L15494 346523
" />
<path d="M15494 346523
L15494 339023
" />
<path d="M15494 331023
L22994 331023
" />
<path d="M22994 331023
L22994 338523
" />
<path d="M22994 338523
L15494 338523
" />
<path d="M15494 338523
L15494 331023
" />
<g >
</g>
<g >
</g>
<g >
</g>
<g >
</g>
<g >
</g>
<g >
</g>
<g >
</g>
<g >
</g>
<g >
</g>
<g >
</g>
<g >
</g>
<g >
</g>
<g >
</g>
<g >
</g>
<g >
</g>
<g >
</g>
<g >
</g>
<g >
</g>
<g >
</g>
<g >
</g>
<g >
</g>
<g >
</g>
<g >
</g>
<g >
</g>
<g >
</g>
<g >
</g>
<g >
</g>
<g >
</g>
<g >
</g>
<g >
</g>
<g >
</g>
<g >
</g>
<g >
</g>
<g >
</g>
<g >
</g>
<g >
</g>
</g>
<g style="fill:#000000; fill-opacity:0.0; 
stroke:#000000; stroke-width:59.0551; stroke-opacity:1; 
stroke-linecap:round; stroke-linejoin:round;">
</g>
<g style="fill:#C2C200; fill-opacity:0.0; 
stroke:#C2C200; stroke-width:59.0551; stroke-opacity:1; 
stroke-linecap:round; stroke-linejoin:round;">
</g>
<g style="fill:#C2C200; fill-opacity:0.0; 
stroke:#C2C200; stroke-width:19.685; stroke-opacity:1; 
stroke-linecap:round; stroke-linejoin:round;">
<path d="M5787 344214
L5787 347758
" />
<path d="M25472 367443
L29015 367443
" />
<path d="M48700 347758
L48700 344214
" />
<path d="M25472 324529
L29015 324529
" />
</g>
<g style="fill:#C2C200; fill-opacity:0.0; 
stroke:#C2C200; stroke-width:59.0551; stroke-opacity:1; 
stroke-linecap:round; stroke-linejoin:round;">
<path d="M11102 367443
L25472 367443
" />
<path d="M43385 367443
L29015 367443
" />
<path d="M48700 362128
L48700 347758
" />
<path d="M48700 329844
L48700 344214
" />
<path d="M5787 329844
L5787 344214
" />
<path d="M5787 362128
L5787 347758
" />
<path d="M43385 324529
L29015 324529
" />
<circle cx="12480.3" cy="360750" r="866.142" /> 
<circle cx="42007.9" cy="360750" r="866.142" /> 
<circle cx="42007.9" cy="331223" r="866.142" /> 
<circle cx="12480.3" cy="331223" r="866.142" /> 
<path d="M5787.4 362128 A5314.96 5314.96 0.0 0 0 11102.4 367443" />
<path d="M43385.8 367443 A5314.96 5314.96 0.0 0 0 48700.8 362128" />
<path d="M48700.8 329845 A5314.96 5314.96 0.0 0 0 43385.8 324530" />
<path d="M11102.4 324530 A5314.96 5314.96 0.0 0 0 5787.4 329845" />
<path d="M11102 324529
L25472 324529
" />
<g >
</g>
<g >
</g>
<g >
</g>
<g >
</g>
<g >
</g>
<g >
</g>
<g >
</g>
<g >
</g>
<g >
</g>
<g >
</g>
<g >
</g>
<g >
</g>
<g >
</g>
<g >
</g>
<g >
</g>
<g >
</g>
<g >
</g>
<g >
</g>
<g >
</g>
<g >
</g>
<g >
</g>
<g >
</g>
<g >
</g>
<g >
</g>
<g >
</g>
<g >
</g>
<g >
</g>
<g >
</g>
<g >
</g>
<g >
</g>
<g >
</g>
<g >
</g>
<g >
</g>
<g >
</g>
<g >
</g>
<g >
</g>
</g> 
</svg>
