%TF.GenerationSoftware,KiCad,Pcbnew,(5.1.9)-1*%
%TF.CreationDate,2021-07-06T15:30:50+10:00*%
%TF.ProjectId,MFD-panel2,4d46442d-7061-46e6-956c-322e6b696361,rev?*%
%TF.SameCoordinates,Original*%
%TF.FileFunction,Profile,NP*%
%FSLAX46Y46*%
G04 Gerber Fmt 4.6, Leading zero omitted, Abs format (unit mm)*
G04 Created by KiCad (PCBNEW (5.1.9)-1) date 2021-07-06 15:30:50*
%MOMM*%
%LPD*%
G01*
G04 APERTURE LIST*
%TA.AperFunction,Profile*%
%ADD10C,0.150000*%
%TD*%
%TA.AperFunction,Profile*%
%ADD11C,0.050000*%
%TD*%
G04 APERTURE END LIST*
D10*
X127100000Y-111600000D02*
X127100000Y-75100000D01*
X127100000Y-29600000D02*
X127100000Y-66100000D01*
X14100000Y-29600000D02*
X14100000Y-66100000D01*
X14100000Y-111600000D02*
X14100000Y-75100000D01*
D11*
X128068000Y-6000000D02*
G75*
G03*
X128068000Y-6000000I-1600000J0D01*
G01*
X16332000Y-6000000D02*
G75*
G03*
X16332000Y-6000000I-1600000J0D01*
G01*
X128068000Y-135200000D02*
G75*
G03*
X128068000Y-135200000I-1600000J0D01*
G01*
X16332000Y-135200000D02*
G75*
G03*
X16332000Y-135200000I-1600000J0D01*
G01*
D10*
X80000000Y20000000D02*
X132700000Y-2500000D01*
X80000000Y20000000D02*
X61200000Y20000000D01*
X61200000Y20000000D02*
X8500000Y-2500000D01*
X8500000Y-132700000D02*
X2500000Y-132700000D01*
X8500000Y-138700000D02*
X8500000Y-132700000D01*
X132700000Y-132700000D02*
X138700000Y-132700000D01*
X132700000Y-138700000D02*
X132700000Y-132700000D01*
X132700000Y-8500000D02*
X138700000Y-8500000D01*
X132700000Y-2500000D02*
X132700000Y-8500000D01*
X138700000Y-8500000D02*
X138700000Y-132700000D01*
X2500000Y-8500000D02*
X8500000Y-8500000D01*
X8500000Y-2500000D02*
X8500000Y-8500000D01*
D11*
X121700000Y-135200000D02*
G75*
G03*
X121700000Y-135200000I-2500000J0D01*
G01*
X24500000Y-135200000D02*
G75*
G03*
X24500000Y-135200000I-2500000J0D01*
G01*
X121700000Y-6000000D02*
G75*
G03*
X121700000Y-6000000I-2500000J0D01*
G01*
X24500000Y-6000000D02*
G75*
G03*
X24500000Y-6000000I-2500000J0D01*
G01*
D10*
X14100000Y-111600000D02*
G75*
G03*
X29600000Y-127100000I15500000J0D01*
G01*
X111600000Y-127100000D02*
G75*
G03*
X127100000Y-111600000I0J15500000D01*
G01*
X111600000Y-14100000D02*
G75*
G02*
X127100000Y-29600000I0J-15500000D01*
G01*
X14100000Y-29600000D02*
G75*
G02*
X29600000Y-14100000I15500000J0D01*
G01*
X29600000Y-127100000D02*
X111600000Y-127100000D01*
X29600000Y-14100000D02*
X111600000Y-14100000D01*
X8500000Y-138700000D02*
X132700000Y-138700000D01*
X2500000Y-8500000D02*
X2500000Y-132700000D01*
X100550000Y-33100000D02*
G75*
G03*
X100550000Y-33100000I-2200000J0D01*
G01*
X100550000Y-108100000D02*
G75*
G03*
X100550000Y-108100000I-2200000J0D01*
G01*
X45050000Y-33100000D02*
G75*
G03*
X45050000Y-33100000I-2200000J0D01*
G01*
X45050000Y-108100000D02*
G75*
G03*
X45050000Y-108100000I-2200000J0D01*
G01*
X69600000Y-111600000D02*
X69600000Y-75100000D01*
X69600000Y-29600000D02*
X69600000Y-66100000D01*
X71600000Y-111600000D02*
X71600000Y-75100000D01*
X71600000Y-29600000D02*
X71600000Y-66100000D01*
X71600000Y-66100000D02*
G75*
G02*
X69600000Y-66100000I-1000000J0D01*
G01*
X69600000Y-75100000D02*
G75*
G02*
X71600000Y-75100000I1000000J0D01*
G01*
X71600000Y-29600000D02*
G75*
G02*
X85100000Y-16100000I13500000J0D01*
G01*
X111600000Y-125100000D02*
X85100000Y-125100000D01*
X85100000Y-125100000D02*
G75*
G02*
X71600000Y-111600000I0J13500000D01*
G01*
X111600000Y-16100000D02*
X85100000Y-16100000D01*
X69600000Y-111600000D02*
G75*
G02*
X56100000Y-125100000I-13500000J0D01*
G01*
X56100000Y-16100000D02*
G75*
G02*
X69600000Y-29600000I0J-13500000D01*
G01*
X125100000Y-75100000D02*
G75*
G02*
X127100000Y-75100000I1000000J0D01*
G01*
X127100000Y-66100000D02*
G75*
G02*
X125100000Y-66100000I-1000000J0D01*
G01*
X16100000Y-66100000D02*
G75*
G02*
X14100000Y-66100000I-1000000J0D01*
G01*
X14100000Y-75100000D02*
G75*
G02*
X16100000Y-75100000I1000000J0D01*
G01*
X29600000Y-125100000D02*
X56100000Y-125100000D01*
X125100000Y-111600000D02*
X125100000Y-75100000D01*
X125100000Y-29600000D02*
X125100000Y-66100000D01*
X16100000Y-29600000D02*
X16100000Y-66100000D01*
X16100000Y-111600000D02*
X16100000Y-75100000D01*
X29600000Y-125100000D02*
G75*
G02*
X16100000Y-111600000I0J13500000D01*
G01*
X125100000Y-111600000D02*
G75*
G02*
X111600000Y-125100000I-13500000J0D01*
G01*
X111600000Y-16100000D02*
G75*
G02*
X125100000Y-29600000I0J-13500000D01*
G01*
X16100000Y-29600000D02*
G75*
G02*
X29600000Y-16100000I13500000J0D01*
G01*
X29600000Y-16100000D02*
X56100000Y-16100000D01*
M02*
