M48
; DRILL file {KiCad (5.1.9)-1} date 07/06/21 15:30:51
; FORMAT={-:-/ absolute / inch / decimal}
; #@! TF.CreationDate,2021-07-06T15:30:51+10:00
; #@! TF.GenerationSoftware,Kicad,Pcbnew,(5.1.9)-1
; #@! TF.FileFunction,NonPlated,1,2,NPTH
FMAT,2
INCH
T1C0.0197
T2C0.0669
T3C0.0787
T4C0.1575
%
G90
G05
T1
X0.565Y-2.6663
X0.565Y-2.6959
X0.565Y-2.7254
X0.565Y-2.7549
X0.565Y-2.7844
X0.565Y-2.814
X0.565Y-2.8435
X0.565Y-2.873
X0.565Y-2.9026
X0.624Y-2.6663
X0.624Y-2.6959
X0.624Y-2.7254
X0.624Y-2.7549
X0.624Y-2.7844
X0.624Y-2.814
X0.624Y-2.8435
X0.624Y-2.873
X0.624Y-2.9026
X2.75Y-2.6663
X2.75Y-2.6959
X2.75Y-2.7254
X2.75Y-2.7549
X2.75Y-2.7844
X2.75Y-2.814
X2.75Y-2.8435
X2.75Y-2.873
X2.75Y-2.9026
X2.8091Y-2.6663
X2.8091Y-2.6959
X2.8091Y-2.7254
X2.8091Y-2.7549
X2.8091Y-2.7844
X2.8091Y-2.814
X2.8091Y-2.8435
X2.8091Y-2.873
X2.8091Y-2.9026
X4.935Y-2.6565
X4.935Y-2.686
X4.935Y-2.7156
X4.935Y-2.7451
X4.935Y-2.7746
X4.935Y-2.8041
X4.935Y-2.8337
X4.935Y-2.8632
X4.935Y-2.8927
X4.9941Y-2.6565
X4.9941Y-2.686
X4.9941Y-2.7156
X4.9941Y-2.7451
X4.9941Y-2.7746
X4.9941Y-2.8041
X4.9941Y-2.8337
X4.9941Y-2.8632
X4.9941Y-2.8927
T2
X1.0917Y-1.6091
X1.0917Y-2.398
X1.0917Y-3.187
X1.0917Y-3.976
X1.4917Y-1.6091
X1.4917Y-2.398
X1.4917Y-3.187
X1.4917Y-3.976
X1.8791Y-1.6091
X1.8791Y-2.398
X1.8791Y-3.187
X1.8791Y-3.976
X2.2791Y-1.6091
X2.2791Y-2.398
X2.2791Y-3.187
X2.2791Y-3.976
T3
X0.5945Y-2.6024
X0.5945Y-2.9567
X2.7795Y-2.6024
X2.7795Y-2.9567
X4.9646Y-2.6024
X4.9646Y-2.9567
T4
X1.2917Y-1.6091
X1.2917Y-2.398
X1.2917Y-3.187
X1.2917Y-3.976
X2.0791Y-1.6091
X2.0791Y-2.398
X2.0791Y-3.187
X2.0791Y-3.976
T0
M30
