%TF.GenerationSoftware,KiCad,Pcbnew,(5.1.9)-1*%
%TF.CreationDate,2021-08-18T17:12:04+10:00*%
%TF.ProjectId,i2c-master,6932632d-6d61-4737-9465-722e6b696361,rev?*%
%TF.SameCoordinates,Original*%
%TF.FileFunction,Copper,L1,Top*%
%TF.FilePolarity,Positive*%
%FSLAX46Y46*%
G04 Gerber Fmt 4.6, Leading zero omitted, Abs format (unit mm)*
G04 Created by KiCad (PCBNEW (5.1.9)-1) date 2021-08-18 17:12:04*
%MOMM*%
%LPD*%
G01*
G04 APERTURE LIST*
%TA.AperFunction,SMDPad,CuDef*%
%ADD10R,1.000000X1.500000*%
%TD*%
%TA.AperFunction,ComponentPad*%
%ADD11O,1.700000X1.700000*%
%TD*%
%TA.AperFunction,ComponentPad*%
%ADD12R,1.700000X1.700000*%
%TD*%
%TA.AperFunction,ComponentPad*%
%ADD13O,1.905000X2.000000*%
%TD*%
%TA.AperFunction,ComponentPad*%
%ADD14R,1.905000X2.000000*%
%TD*%
%TA.AperFunction,ComponentPad*%
%ADD15R,3.500000X3.500000*%
%TD*%
%TA.AperFunction,ViaPad*%
%ADD16C,0.800000*%
%TD*%
%TA.AperFunction,ViaPad*%
%ADD17C,0.600000*%
%TD*%
%TA.AperFunction,Conductor*%
%ADD18C,0.250000*%
%TD*%
%TA.AperFunction,Conductor*%
%ADD19C,0.500000*%
%TD*%
%TA.AperFunction,Conductor*%
%ADD20C,0.254000*%
%TD*%
%TA.AperFunction,Conductor*%
%ADD21C,0.100000*%
%TD*%
G04 APERTURE END LIST*
%TO.P,J10,MP*%
%TO.N,N/C*%
%TA.AperFunction,SMDPad,CuDef*%
G36*
G01*
X48818000Y-63758000D02*
X48818000Y-61458000D01*
G75*
G02*
X49068000Y-61208000I250000J0D01*
G01*
X49568000Y-61208000D01*
G75*
G02*
X49818000Y-61458000I0J-250000D01*
G01*
X49818000Y-63758000D01*
G75*
G02*
X49568000Y-64008000I-250000J0D01*
G01*
X49068000Y-64008000D01*
G75*
G02*
X48818000Y-63758000I0J250000D01*
G01*
G37*
%TD.AperFunction*%
%TA.AperFunction,SMDPad,CuDef*%
G36*
G01*
X41368000Y-63758000D02*
X41368000Y-61458000D01*
G75*
G02*
X41618000Y-61208000I250000J0D01*
G01*
X42118000Y-61208000D01*
G75*
G02*
X42368000Y-61458000I0J-250000D01*
G01*
X42368000Y-63758000D01*
G75*
G02*
X42118000Y-64008000I-250000J0D01*
G01*
X41618000Y-64008000D01*
G75*
G02*
X41368000Y-63758000I0J250000D01*
G01*
G37*
%TD.AperFunction*%
%TO.P,J10,4*%
%TO.N,GND*%
%TA.AperFunction,SMDPad,CuDef*%
G36*
G01*
X47168000Y-66658000D02*
X47168000Y-65258000D01*
G75*
G02*
X47318000Y-65108000I150000J0D01*
G01*
X47618000Y-65108000D01*
G75*
G02*
X47768000Y-65258000I0J-150000D01*
G01*
X47768000Y-66658000D01*
G75*
G02*
X47618000Y-66808000I-150000J0D01*
G01*
X47318000Y-66808000D01*
G75*
G02*
X47168000Y-66658000I0J150000D01*
G01*
G37*
%TD.AperFunction*%
%TO.P,J10,3*%
%TO.N,IO2-SDA*%
%TA.AperFunction,SMDPad,CuDef*%
G36*
G01*
X45918000Y-66658000D02*
X45918000Y-65258000D01*
G75*
G02*
X46068000Y-65108000I150000J0D01*
G01*
X46368000Y-65108000D01*
G75*
G02*
X46518000Y-65258000I0J-150000D01*
G01*
X46518000Y-66658000D01*
G75*
G02*
X46368000Y-66808000I-150000J0D01*
G01*
X46068000Y-66808000D01*
G75*
G02*
X45918000Y-66658000I0J150000D01*
G01*
G37*
%TD.AperFunction*%
%TO.P,J10,2*%
%TO.N,!IO3-SCL*%
%TA.AperFunction,SMDPad,CuDef*%
G36*
G01*
X44668000Y-66658000D02*
X44668000Y-65258000D01*
G75*
G02*
X44818000Y-65108000I150000J0D01*
G01*
X45118000Y-65108000D01*
G75*
G02*
X45268000Y-65258000I0J-150000D01*
G01*
X45268000Y-66658000D01*
G75*
G02*
X45118000Y-66808000I-150000J0D01*
G01*
X44818000Y-66808000D01*
G75*
G02*
X44668000Y-66658000I0J150000D01*
G01*
G37*
%TD.AperFunction*%
%TO.P,J10,1*%
%TO.N,+5V*%
%TA.AperFunction,SMDPad,CuDef*%
G36*
G01*
X43418000Y-66658000D02*
X43418000Y-65258000D01*
G75*
G02*
X43568000Y-65108000I150000J0D01*
G01*
X43868000Y-65108000D01*
G75*
G02*
X44018000Y-65258000I0J-150000D01*
G01*
X44018000Y-66658000D01*
G75*
G02*
X43868000Y-66808000I-150000J0D01*
G01*
X43568000Y-66808000D01*
G75*
G02*
X43418000Y-66658000I0J150000D01*
G01*
G37*
%TD.AperFunction*%
%TD*%
%TO.P,J9,MP*%
%TO.N,N/C*%
%TA.AperFunction,SMDPad,CuDef*%
G36*
G01*
X48818000Y-56646000D02*
X48818000Y-54346000D01*
G75*
G02*
X49068000Y-54096000I250000J0D01*
G01*
X49568000Y-54096000D01*
G75*
G02*
X49818000Y-54346000I0J-250000D01*
G01*
X49818000Y-56646000D01*
G75*
G02*
X49568000Y-56896000I-250000J0D01*
G01*
X49068000Y-56896000D01*
G75*
G02*
X48818000Y-56646000I0J250000D01*
G01*
G37*
%TD.AperFunction*%
%TA.AperFunction,SMDPad,CuDef*%
G36*
G01*
X41368000Y-56646000D02*
X41368000Y-54346000D01*
G75*
G02*
X41618000Y-54096000I250000J0D01*
G01*
X42118000Y-54096000D01*
G75*
G02*
X42368000Y-54346000I0J-250000D01*
G01*
X42368000Y-56646000D01*
G75*
G02*
X42118000Y-56896000I-250000J0D01*
G01*
X41618000Y-56896000D01*
G75*
G02*
X41368000Y-56646000I0J250000D01*
G01*
G37*
%TD.AperFunction*%
%TO.P,J9,4*%
%TO.N,GND*%
%TA.AperFunction,SMDPad,CuDef*%
G36*
G01*
X47168000Y-59546000D02*
X47168000Y-58146000D01*
G75*
G02*
X47318000Y-57996000I150000J0D01*
G01*
X47618000Y-57996000D01*
G75*
G02*
X47768000Y-58146000I0J-150000D01*
G01*
X47768000Y-59546000D01*
G75*
G02*
X47618000Y-59696000I-150000J0D01*
G01*
X47318000Y-59696000D01*
G75*
G02*
X47168000Y-59546000I0J150000D01*
G01*
G37*
%TD.AperFunction*%
%TO.P,J9,3*%
%TO.N,IO2-SDA*%
%TA.AperFunction,SMDPad,CuDef*%
G36*
G01*
X45918000Y-59546000D02*
X45918000Y-58146000D01*
G75*
G02*
X46068000Y-57996000I150000J0D01*
G01*
X46368000Y-57996000D01*
G75*
G02*
X46518000Y-58146000I0J-150000D01*
G01*
X46518000Y-59546000D01*
G75*
G02*
X46368000Y-59696000I-150000J0D01*
G01*
X46068000Y-59696000D01*
G75*
G02*
X45918000Y-59546000I0J150000D01*
G01*
G37*
%TD.AperFunction*%
%TO.P,J9,2*%
%TO.N,!IO3-SCL*%
%TA.AperFunction,SMDPad,CuDef*%
G36*
G01*
X44668000Y-59546000D02*
X44668000Y-58146000D01*
G75*
G02*
X44818000Y-57996000I150000J0D01*
G01*
X45118000Y-57996000D01*
G75*
G02*
X45268000Y-58146000I0J-150000D01*
G01*
X45268000Y-59546000D01*
G75*
G02*
X45118000Y-59696000I-150000J0D01*
G01*
X44818000Y-59696000D01*
G75*
G02*
X44668000Y-59546000I0J150000D01*
G01*
G37*
%TD.AperFunction*%
%TO.P,J9,1*%
%TO.N,+5V*%
%TA.AperFunction,SMDPad,CuDef*%
G36*
G01*
X43418000Y-59546000D02*
X43418000Y-58146000D01*
G75*
G02*
X43568000Y-57996000I150000J0D01*
G01*
X43868000Y-57996000D01*
G75*
G02*
X44018000Y-58146000I0J-150000D01*
G01*
X44018000Y-59546000D01*
G75*
G02*
X43868000Y-59696000I-150000J0D01*
G01*
X43568000Y-59696000D01*
G75*
G02*
X43418000Y-59546000I0J150000D01*
G01*
G37*
%TD.AperFunction*%
%TD*%
%TO.P,J8,MP*%
%TO.N,N/C*%
%TA.AperFunction,SMDPad,CuDef*%
G36*
G01*
X48818000Y-49534000D02*
X48818000Y-47234000D01*
G75*
G02*
X49068000Y-46984000I250000J0D01*
G01*
X49568000Y-46984000D01*
G75*
G02*
X49818000Y-47234000I0J-250000D01*
G01*
X49818000Y-49534000D01*
G75*
G02*
X49568000Y-49784000I-250000J0D01*
G01*
X49068000Y-49784000D01*
G75*
G02*
X48818000Y-49534000I0J250000D01*
G01*
G37*
%TD.AperFunction*%
%TA.AperFunction,SMDPad,CuDef*%
G36*
G01*
X41368000Y-49534000D02*
X41368000Y-47234000D01*
G75*
G02*
X41618000Y-46984000I250000J0D01*
G01*
X42118000Y-46984000D01*
G75*
G02*
X42368000Y-47234000I0J-250000D01*
G01*
X42368000Y-49534000D01*
G75*
G02*
X42118000Y-49784000I-250000J0D01*
G01*
X41618000Y-49784000D01*
G75*
G02*
X41368000Y-49534000I0J250000D01*
G01*
G37*
%TD.AperFunction*%
%TO.P,J8,4*%
%TO.N,GND*%
%TA.AperFunction,SMDPad,CuDef*%
G36*
G01*
X47168000Y-52434000D02*
X47168000Y-51034000D01*
G75*
G02*
X47318000Y-50884000I150000J0D01*
G01*
X47618000Y-50884000D01*
G75*
G02*
X47768000Y-51034000I0J-150000D01*
G01*
X47768000Y-52434000D01*
G75*
G02*
X47618000Y-52584000I-150000J0D01*
G01*
X47318000Y-52584000D01*
G75*
G02*
X47168000Y-52434000I0J150000D01*
G01*
G37*
%TD.AperFunction*%
%TO.P,J8,3*%
%TO.N,IO2-SDA*%
%TA.AperFunction,SMDPad,CuDef*%
G36*
G01*
X45918000Y-52434000D02*
X45918000Y-51034000D01*
G75*
G02*
X46068000Y-50884000I150000J0D01*
G01*
X46368000Y-50884000D01*
G75*
G02*
X46518000Y-51034000I0J-150000D01*
G01*
X46518000Y-52434000D01*
G75*
G02*
X46368000Y-52584000I-150000J0D01*
G01*
X46068000Y-52584000D01*
G75*
G02*
X45918000Y-52434000I0J150000D01*
G01*
G37*
%TD.AperFunction*%
%TO.P,J8,2*%
%TO.N,!IO3-SCL*%
%TA.AperFunction,SMDPad,CuDef*%
G36*
G01*
X44668000Y-52434000D02*
X44668000Y-51034000D01*
G75*
G02*
X44818000Y-50884000I150000J0D01*
G01*
X45118000Y-50884000D01*
G75*
G02*
X45268000Y-51034000I0J-150000D01*
G01*
X45268000Y-52434000D01*
G75*
G02*
X45118000Y-52584000I-150000J0D01*
G01*
X44818000Y-52584000D01*
G75*
G02*
X44668000Y-52434000I0J150000D01*
G01*
G37*
%TD.AperFunction*%
%TO.P,J8,1*%
%TO.N,+5V*%
%TA.AperFunction,SMDPad,CuDef*%
G36*
G01*
X43418000Y-52434000D02*
X43418000Y-51034000D01*
G75*
G02*
X43568000Y-50884000I150000J0D01*
G01*
X43868000Y-50884000D01*
G75*
G02*
X44018000Y-51034000I0J-150000D01*
G01*
X44018000Y-52434000D01*
G75*
G02*
X43868000Y-52584000I-150000J0D01*
G01*
X43568000Y-52584000D01*
G75*
G02*
X43418000Y-52434000I0J150000D01*
G01*
G37*
%TD.AperFunction*%
%TD*%
%TO.P,J7,MP*%
%TO.N,N/C*%
%TA.AperFunction,SMDPad,CuDef*%
G36*
G01*
X48818000Y-42422000D02*
X48818000Y-40122000D01*
G75*
G02*
X49068000Y-39872000I250000J0D01*
G01*
X49568000Y-39872000D01*
G75*
G02*
X49818000Y-40122000I0J-250000D01*
G01*
X49818000Y-42422000D01*
G75*
G02*
X49568000Y-42672000I-250000J0D01*
G01*
X49068000Y-42672000D01*
G75*
G02*
X48818000Y-42422000I0J250000D01*
G01*
G37*
%TD.AperFunction*%
%TA.AperFunction,SMDPad,CuDef*%
G36*
G01*
X41368000Y-42422000D02*
X41368000Y-40122000D01*
G75*
G02*
X41618000Y-39872000I250000J0D01*
G01*
X42118000Y-39872000D01*
G75*
G02*
X42368000Y-40122000I0J-250000D01*
G01*
X42368000Y-42422000D01*
G75*
G02*
X42118000Y-42672000I-250000J0D01*
G01*
X41618000Y-42672000D01*
G75*
G02*
X41368000Y-42422000I0J250000D01*
G01*
G37*
%TD.AperFunction*%
%TO.P,J7,4*%
%TO.N,GND*%
%TA.AperFunction,SMDPad,CuDef*%
G36*
G01*
X47168000Y-45322000D02*
X47168000Y-43922000D01*
G75*
G02*
X47318000Y-43772000I150000J0D01*
G01*
X47618000Y-43772000D01*
G75*
G02*
X47768000Y-43922000I0J-150000D01*
G01*
X47768000Y-45322000D01*
G75*
G02*
X47618000Y-45472000I-150000J0D01*
G01*
X47318000Y-45472000D01*
G75*
G02*
X47168000Y-45322000I0J150000D01*
G01*
G37*
%TD.AperFunction*%
%TO.P,J7,3*%
%TO.N,IO2-SDA*%
%TA.AperFunction,SMDPad,CuDef*%
G36*
G01*
X45918000Y-45322000D02*
X45918000Y-43922000D01*
G75*
G02*
X46068000Y-43772000I150000J0D01*
G01*
X46368000Y-43772000D01*
G75*
G02*
X46518000Y-43922000I0J-150000D01*
G01*
X46518000Y-45322000D01*
G75*
G02*
X46368000Y-45472000I-150000J0D01*
G01*
X46068000Y-45472000D01*
G75*
G02*
X45918000Y-45322000I0J150000D01*
G01*
G37*
%TD.AperFunction*%
%TO.P,J7,2*%
%TO.N,!IO3-SCL*%
%TA.AperFunction,SMDPad,CuDef*%
G36*
G01*
X44668000Y-45322000D02*
X44668000Y-43922000D01*
G75*
G02*
X44818000Y-43772000I150000J0D01*
G01*
X45118000Y-43772000D01*
G75*
G02*
X45268000Y-43922000I0J-150000D01*
G01*
X45268000Y-45322000D01*
G75*
G02*
X45118000Y-45472000I-150000J0D01*
G01*
X44818000Y-45472000D01*
G75*
G02*
X44668000Y-45322000I0J150000D01*
G01*
G37*
%TD.AperFunction*%
%TO.P,J7,1*%
%TO.N,+5V*%
%TA.AperFunction,SMDPad,CuDef*%
G36*
G01*
X43418000Y-45322000D02*
X43418000Y-43922000D01*
G75*
G02*
X43568000Y-43772000I150000J0D01*
G01*
X43868000Y-43772000D01*
G75*
G02*
X44018000Y-43922000I0J-150000D01*
G01*
X44018000Y-45322000D01*
G75*
G02*
X43868000Y-45472000I-150000J0D01*
G01*
X43568000Y-45472000D01*
G75*
G02*
X43418000Y-45322000I0J150000D01*
G01*
G37*
%TD.AperFunction*%
%TD*%
%TO.P,J5,MP*%
%TO.N,N/C*%
%TA.AperFunction,SMDPad,CuDef*%
G36*
G01*
X37642000Y-63758000D02*
X37642000Y-61458000D01*
G75*
G02*
X37892000Y-61208000I250000J0D01*
G01*
X38392000Y-61208000D01*
G75*
G02*
X38642000Y-61458000I0J-250000D01*
G01*
X38642000Y-63758000D01*
G75*
G02*
X38392000Y-64008000I-250000J0D01*
G01*
X37892000Y-64008000D01*
G75*
G02*
X37642000Y-63758000I0J250000D01*
G01*
G37*
%TD.AperFunction*%
%TA.AperFunction,SMDPad,CuDef*%
G36*
G01*
X30192000Y-63758000D02*
X30192000Y-61458000D01*
G75*
G02*
X30442000Y-61208000I250000J0D01*
G01*
X30942000Y-61208000D01*
G75*
G02*
X31192000Y-61458000I0J-250000D01*
G01*
X31192000Y-63758000D01*
G75*
G02*
X30942000Y-64008000I-250000J0D01*
G01*
X30442000Y-64008000D01*
G75*
G02*
X30192000Y-63758000I0J250000D01*
G01*
G37*
%TD.AperFunction*%
%TO.P,J5,4*%
%TO.N,GND*%
%TA.AperFunction,SMDPad,CuDef*%
G36*
G01*
X35992000Y-66658000D02*
X35992000Y-65258000D01*
G75*
G02*
X36142000Y-65108000I150000J0D01*
G01*
X36442000Y-65108000D01*
G75*
G02*
X36592000Y-65258000I0J-150000D01*
G01*
X36592000Y-66658000D01*
G75*
G02*
X36442000Y-66808000I-150000J0D01*
G01*
X36142000Y-66808000D01*
G75*
G02*
X35992000Y-66658000I0J150000D01*
G01*
G37*
%TD.AperFunction*%
%TO.P,J5,3*%
%TO.N,IO2-SDA*%
%TA.AperFunction,SMDPad,CuDef*%
G36*
G01*
X34742000Y-66658000D02*
X34742000Y-65258000D01*
G75*
G02*
X34892000Y-65108000I150000J0D01*
G01*
X35192000Y-65108000D01*
G75*
G02*
X35342000Y-65258000I0J-150000D01*
G01*
X35342000Y-66658000D01*
G75*
G02*
X35192000Y-66808000I-150000J0D01*
G01*
X34892000Y-66808000D01*
G75*
G02*
X34742000Y-66658000I0J150000D01*
G01*
G37*
%TD.AperFunction*%
%TO.P,J5,2*%
%TO.N,!IO3-SCL*%
%TA.AperFunction,SMDPad,CuDef*%
G36*
G01*
X33492000Y-66658000D02*
X33492000Y-65258000D01*
G75*
G02*
X33642000Y-65108000I150000J0D01*
G01*
X33942000Y-65108000D01*
G75*
G02*
X34092000Y-65258000I0J-150000D01*
G01*
X34092000Y-66658000D01*
G75*
G02*
X33942000Y-66808000I-150000J0D01*
G01*
X33642000Y-66808000D01*
G75*
G02*
X33492000Y-66658000I0J150000D01*
G01*
G37*
%TD.AperFunction*%
%TO.P,J5,1*%
%TO.N,+5V*%
%TA.AperFunction,SMDPad,CuDef*%
G36*
G01*
X32242000Y-66658000D02*
X32242000Y-65258000D01*
G75*
G02*
X32392000Y-65108000I150000J0D01*
G01*
X32692000Y-65108000D01*
G75*
G02*
X32842000Y-65258000I0J-150000D01*
G01*
X32842000Y-66658000D01*
G75*
G02*
X32692000Y-66808000I-150000J0D01*
G01*
X32392000Y-66808000D01*
G75*
G02*
X32242000Y-66658000I0J150000D01*
G01*
G37*
%TD.AperFunction*%
%TD*%
%TO.P,J4,MP*%
%TO.N,N/C*%
%TA.AperFunction,SMDPad,CuDef*%
G36*
G01*
X37642000Y-56646000D02*
X37642000Y-54346000D01*
G75*
G02*
X37892000Y-54096000I250000J0D01*
G01*
X38392000Y-54096000D01*
G75*
G02*
X38642000Y-54346000I0J-250000D01*
G01*
X38642000Y-56646000D01*
G75*
G02*
X38392000Y-56896000I-250000J0D01*
G01*
X37892000Y-56896000D01*
G75*
G02*
X37642000Y-56646000I0J250000D01*
G01*
G37*
%TD.AperFunction*%
%TA.AperFunction,SMDPad,CuDef*%
G36*
G01*
X30192000Y-56646000D02*
X30192000Y-54346000D01*
G75*
G02*
X30442000Y-54096000I250000J0D01*
G01*
X30942000Y-54096000D01*
G75*
G02*
X31192000Y-54346000I0J-250000D01*
G01*
X31192000Y-56646000D01*
G75*
G02*
X30942000Y-56896000I-250000J0D01*
G01*
X30442000Y-56896000D01*
G75*
G02*
X30192000Y-56646000I0J250000D01*
G01*
G37*
%TD.AperFunction*%
%TO.P,J4,4*%
%TO.N,GND*%
%TA.AperFunction,SMDPad,CuDef*%
G36*
G01*
X35992000Y-59546000D02*
X35992000Y-58146000D01*
G75*
G02*
X36142000Y-57996000I150000J0D01*
G01*
X36442000Y-57996000D01*
G75*
G02*
X36592000Y-58146000I0J-150000D01*
G01*
X36592000Y-59546000D01*
G75*
G02*
X36442000Y-59696000I-150000J0D01*
G01*
X36142000Y-59696000D01*
G75*
G02*
X35992000Y-59546000I0J150000D01*
G01*
G37*
%TD.AperFunction*%
%TO.P,J4,3*%
%TO.N,IO2-SDA*%
%TA.AperFunction,SMDPad,CuDef*%
G36*
G01*
X34742000Y-59546000D02*
X34742000Y-58146000D01*
G75*
G02*
X34892000Y-57996000I150000J0D01*
G01*
X35192000Y-57996000D01*
G75*
G02*
X35342000Y-58146000I0J-150000D01*
G01*
X35342000Y-59546000D01*
G75*
G02*
X35192000Y-59696000I-150000J0D01*
G01*
X34892000Y-59696000D01*
G75*
G02*
X34742000Y-59546000I0J150000D01*
G01*
G37*
%TD.AperFunction*%
%TO.P,J4,2*%
%TO.N,!IO3-SCL*%
%TA.AperFunction,SMDPad,CuDef*%
G36*
G01*
X33492000Y-59546000D02*
X33492000Y-58146000D01*
G75*
G02*
X33642000Y-57996000I150000J0D01*
G01*
X33942000Y-57996000D01*
G75*
G02*
X34092000Y-58146000I0J-150000D01*
G01*
X34092000Y-59546000D01*
G75*
G02*
X33942000Y-59696000I-150000J0D01*
G01*
X33642000Y-59696000D01*
G75*
G02*
X33492000Y-59546000I0J150000D01*
G01*
G37*
%TD.AperFunction*%
%TO.P,J4,1*%
%TO.N,+5V*%
%TA.AperFunction,SMDPad,CuDef*%
G36*
G01*
X32242000Y-59546000D02*
X32242000Y-58146000D01*
G75*
G02*
X32392000Y-57996000I150000J0D01*
G01*
X32692000Y-57996000D01*
G75*
G02*
X32842000Y-58146000I0J-150000D01*
G01*
X32842000Y-59546000D01*
G75*
G02*
X32692000Y-59696000I-150000J0D01*
G01*
X32392000Y-59696000D01*
G75*
G02*
X32242000Y-59546000I0J150000D01*
G01*
G37*
%TD.AperFunction*%
%TD*%
%TO.P,J3,MP*%
%TO.N,N/C*%
%TA.AperFunction,SMDPad,CuDef*%
G36*
G01*
X37642000Y-49534000D02*
X37642000Y-47234000D01*
G75*
G02*
X37892000Y-46984000I250000J0D01*
G01*
X38392000Y-46984000D01*
G75*
G02*
X38642000Y-47234000I0J-250000D01*
G01*
X38642000Y-49534000D01*
G75*
G02*
X38392000Y-49784000I-250000J0D01*
G01*
X37892000Y-49784000D01*
G75*
G02*
X37642000Y-49534000I0J250000D01*
G01*
G37*
%TD.AperFunction*%
%TA.AperFunction,SMDPad,CuDef*%
G36*
G01*
X30192000Y-49534000D02*
X30192000Y-47234000D01*
G75*
G02*
X30442000Y-46984000I250000J0D01*
G01*
X30942000Y-46984000D01*
G75*
G02*
X31192000Y-47234000I0J-250000D01*
G01*
X31192000Y-49534000D01*
G75*
G02*
X30942000Y-49784000I-250000J0D01*
G01*
X30442000Y-49784000D01*
G75*
G02*
X30192000Y-49534000I0J250000D01*
G01*
G37*
%TD.AperFunction*%
%TO.P,J3,4*%
%TO.N,GND*%
%TA.AperFunction,SMDPad,CuDef*%
G36*
G01*
X35992000Y-52434000D02*
X35992000Y-51034000D01*
G75*
G02*
X36142000Y-50884000I150000J0D01*
G01*
X36442000Y-50884000D01*
G75*
G02*
X36592000Y-51034000I0J-150000D01*
G01*
X36592000Y-52434000D01*
G75*
G02*
X36442000Y-52584000I-150000J0D01*
G01*
X36142000Y-52584000D01*
G75*
G02*
X35992000Y-52434000I0J150000D01*
G01*
G37*
%TD.AperFunction*%
%TO.P,J3,3*%
%TO.N,IO2-SDA*%
%TA.AperFunction,SMDPad,CuDef*%
G36*
G01*
X34742000Y-52434000D02*
X34742000Y-51034000D01*
G75*
G02*
X34892000Y-50884000I150000J0D01*
G01*
X35192000Y-50884000D01*
G75*
G02*
X35342000Y-51034000I0J-150000D01*
G01*
X35342000Y-52434000D01*
G75*
G02*
X35192000Y-52584000I-150000J0D01*
G01*
X34892000Y-52584000D01*
G75*
G02*
X34742000Y-52434000I0J150000D01*
G01*
G37*
%TD.AperFunction*%
%TO.P,J3,2*%
%TO.N,!IO3-SCL*%
%TA.AperFunction,SMDPad,CuDef*%
G36*
G01*
X33492000Y-52434000D02*
X33492000Y-51034000D01*
G75*
G02*
X33642000Y-50884000I150000J0D01*
G01*
X33942000Y-50884000D01*
G75*
G02*
X34092000Y-51034000I0J-150000D01*
G01*
X34092000Y-52434000D01*
G75*
G02*
X33942000Y-52584000I-150000J0D01*
G01*
X33642000Y-52584000D01*
G75*
G02*
X33492000Y-52434000I0J150000D01*
G01*
G37*
%TD.AperFunction*%
%TO.P,J3,1*%
%TO.N,+5V*%
%TA.AperFunction,SMDPad,CuDef*%
G36*
G01*
X32242000Y-52434000D02*
X32242000Y-51034000D01*
G75*
G02*
X32392000Y-50884000I150000J0D01*
G01*
X32692000Y-50884000D01*
G75*
G02*
X32842000Y-51034000I0J-150000D01*
G01*
X32842000Y-52434000D01*
G75*
G02*
X32692000Y-52584000I-150000J0D01*
G01*
X32392000Y-52584000D01*
G75*
G02*
X32242000Y-52434000I0J150000D01*
G01*
G37*
%TD.AperFunction*%
%TD*%
%TO.P,J2,MP*%
%TO.N,N/C*%
%TA.AperFunction,SMDPad,CuDef*%
G36*
G01*
X37642000Y-42422000D02*
X37642000Y-40122000D01*
G75*
G02*
X37892000Y-39872000I250000J0D01*
G01*
X38392000Y-39872000D01*
G75*
G02*
X38642000Y-40122000I0J-250000D01*
G01*
X38642000Y-42422000D01*
G75*
G02*
X38392000Y-42672000I-250000J0D01*
G01*
X37892000Y-42672000D01*
G75*
G02*
X37642000Y-42422000I0J250000D01*
G01*
G37*
%TD.AperFunction*%
%TA.AperFunction,SMDPad,CuDef*%
G36*
G01*
X30192000Y-42422000D02*
X30192000Y-40122000D01*
G75*
G02*
X30442000Y-39872000I250000J0D01*
G01*
X30942000Y-39872000D01*
G75*
G02*
X31192000Y-40122000I0J-250000D01*
G01*
X31192000Y-42422000D01*
G75*
G02*
X30942000Y-42672000I-250000J0D01*
G01*
X30442000Y-42672000D01*
G75*
G02*
X30192000Y-42422000I0J250000D01*
G01*
G37*
%TD.AperFunction*%
%TO.P,J2,4*%
%TO.N,GND*%
%TA.AperFunction,SMDPad,CuDef*%
G36*
G01*
X35992000Y-45322000D02*
X35992000Y-43922000D01*
G75*
G02*
X36142000Y-43772000I150000J0D01*
G01*
X36442000Y-43772000D01*
G75*
G02*
X36592000Y-43922000I0J-150000D01*
G01*
X36592000Y-45322000D01*
G75*
G02*
X36442000Y-45472000I-150000J0D01*
G01*
X36142000Y-45472000D01*
G75*
G02*
X35992000Y-45322000I0J150000D01*
G01*
G37*
%TD.AperFunction*%
%TO.P,J2,3*%
%TO.N,IO2-SDA*%
%TA.AperFunction,SMDPad,CuDef*%
G36*
G01*
X34742000Y-45322000D02*
X34742000Y-43922000D01*
G75*
G02*
X34892000Y-43772000I150000J0D01*
G01*
X35192000Y-43772000D01*
G75*
G02*
X35342000Y-43922000I0J-150000D01*
G01*
X35342000Y-45322000D01*
G75*
G02*
X35192000Y-45472000I-150000J0D01*
G01*
X34892000Y-45472000D01*
G75*
G02*
X34742000Y-45322000I0J150000D01*
G01*
G37*
%TD.AperFunction*%
%TO.P,J2,2*%
%TO.N,!IO3-SCL*%
%TA.AperFunction,SMDPad,CuDef*%
G36*
G01*
X33492000Y-45322000D02*
X33492000Y-43922000D01*
G75*
G02*
X33642000Y-43772000I150000J0D01*
G01*
X33942000Y-43772000D01*
G75*
G02*
X34092000Y-43922000I0J-150000D01*
G01*
X34092000Y-45322000D01*
G75*
G02*
X33942000Y-45472000I-150000J0D01*
G01*
X33642000Y-45472000D01*
G75*
G02*
X33492000Y-45322000I0J150000D01*
G01*
G37*
%TD.AperFunction*%
%TO.P,J2,1*%
%TO.N,+5V*%
%TA.AperFunction,SMDPad,CuDef*%
G36*
G01*
X32242000Y-45322000D02*
X32242000Y-43922000D01*
G75*
G02*
X32392000Y-43772000I150000J0D01*
G01*
X32692000Y-43772000D01*
G75*
G02*
X32842000Y-43922000I0J-150000D01*
G01*
X32842000Y-45322000D01*
G75*
G02*
X32692000Y-45472000I-150000J0D01*
G01*
X32392000Y-45472000D01*
G75*
G02*
X32242000Y-45322000I0J150000D01*
G01*
G37*
%TD.AperFunction*%
%TD*%
D10*
%TO.P,5V,1*%
%TO.N,VCC*%
X64800000Y-43815000D03*
%TO.P,5V,2*%
%TO.N,+5V*%
X63500000Y-43815000D03*
%TO.P,5V,3*%
%TO.N,Net-(C1-Pad1)*%
X62200000Y-43815000D03*
%TD*%
%TO.P,C1,2*%
%TO.N,GND*%
%TA.AperFunction,SMDPad,CuDef*%
G36*
G01*
X63765000Y-49545002D02*
X63765000Y-48244998D01*
G75*
G02*
X64014998Y-47995000I249998J0D01*
G01*
X64840002Y-47995000D01*
G75*
G02*
X65090000Y-48244998I0J-249998D01*
G01*
X65090000Y-49545002D01*
G75*
G02*
X64840002Y-49795000I-249998J0D01*
G01*
X64014998Y-49795000D01*
G75*
G02*
X63765000Y-49545002I0J249998D01*
G01*
G37*
%TD.AperFunction*%
%TO.P,C1,1*%
%TO.N,Net-(C1-Pad1)*%
%TA.AperFunction,SMDPad,CuDef*%
G36*
G01*
X60640000Y-49545002D02*
X60640000Y-48244998D01*
G75*
G02*
X60889998Y-47995000I249998J0D01*
G01*
X61715002Y-47995000D01*
G75*
G02*
X61965000Y-48244998I0J-249998D01*
G01*
X61965000Y-49545002D01*
G75*
G02*
X61715002Y-49795000I-249998J0D01*
G01*
X60889998Y-49795000D01*
G75*
G02*
X60640000Y-49545002I0J249998D01*
G01*
G37*
%TD.AperFunction*%
%TD*%
D11*
%TO.P,J12,20*%
%TO.N,GND*%
X76835000Y-61595000D03*
%TO.P,J12,19*%
%TO.N,VCC*%
X74295000Y-61595000D03*
%TO.P,J12,18*%
%TO.N,IO21-A3*%
X76835000Y-59055000D03*
%TO.P,J12,17*%
%TO.N,IO8-A8*%
X74295000Y-59055000D03*
%TO.P,J12,16*%
%TO.N,IO20-A2*%
X76835000Y-56515000D03*
%TO.P,J12,15*%
%TO.N,IO7*%
X74295000Y-56515000D03*
%TO.P,J12,14*%
%TO.N,IO19-A1*%
X76835000Y-53975000D03*
%TO.P,J12,13*%
%TO.N,!IO6-A7*%
X74295000Y-53975000D03*
%TO.P,J12,12*%
%TO.N,IO18-A0*%
X76835000Y-51435000D03*
%TO.P,J12,11*%
%TO.N,!IO5*%
X74295000Y-51435000D03*
%TO.P,J12,10*%
%TO.N,IO16-MOSI*%
X76835000Y-48895000D03*
%TO.P,J12,9*%
%TO.N,IO4-A6*%
X74295000Y-48895000D03*
%TO.P,J12,8*%
%TO.N,IO15-SCK*%
X76835000Y-46355000D03*
%TO.P,J12,7*%
%TO.N,!IO3-SCL*%
X74295000Y-46355000D03*
%TO.P,J12,6*%
%TO.N,IO14-MISO*%
X76835000Y-43815000D03*
%TO.P,J12,5*%
%TO.N,IO2-SDA*%
X74295000Y-43815000D03*
%TO.P,J12,4*%
%TO.N,!IO10-A10*%
X76835000Y-41275000D03*
%TO.P,J12,3*%
%TO.N,IO1-TX*%
X74295000Y-41275000D03*
%TO.P,J12,2*%
%TO.N,!IO9-A9*%
X76835000Y-38735000D03*
D12*
%TO.P,J12,1*%
%TO.N,IO0-RX*%
X74295000Y-38735000D03*
%TD*%
D13*
%TO.P,U1,3*%
%TO.N,Net-(C1-Pad1)*%
X60960000Y-52070000D03*
%TO.P,U1,2*%
%TO.N,GND*%
X63500000Y-52070000D03*
D14*
%TO.P,U1,1*%
%TO.N,VIN*%
X66040000Y-52070000D03*
%TD*%
%TO.P,J11,3*%
%TO.N,GND*%
%TA.AperFunction,ComponentPad*%
G36*
G01*
X69075000Y-60630000D02*
X67325000Y-60630000D01*
G75*
G02*
X66450000Y-59755000I0J875000D01*
G01*
X66450000Y-58005000D01*
G75*
G02*
X67325000Y-57130000I875000J0D01*
G01*
X69075000Y-57130000D01*
G75*
G02*
X69950000Y-58005000I0J-875000D01*
G01*
X69950000Y-59755000D01*
G75*
G02*
X69075000Y-60630000I-875000J0D01*
G01*
G37*
%TD.AperFunction*%
%TO.P,J11,2*%
%TA.AperFunction,ComponentPad*%
G36*
G01*
X64500000Y-63380000D02*
X62500000Y-63380000D01*
G75*
G02*
X61750000Y-62630000I0J750000D01*
G01*
X61750000Y-61130000D01*
G75*
G02*
X62500000Y-60380000I750000J0D01*
G01*
X64500000Y-60380000D01*
G75*
G02*
X65250000Y-61130000I0J-750000D01*
G01*
X65250000Y-62630000D01*
G75*
G02*
X64500000Y-63380000I-750000J0D01*
G01*
G37*
%TD.AperFunction*%
D15*
%TO.P,J11,1*%
%TO.N,VIN*%
X63500000Y-55880000D03*
%TD*%
D11*
%TO.P,J6,12*%
%TO.N,!IO10-A10*%
X71120000Y-66040000D03*
%TO.P,J6,11*%
%TO.N,IO16-MOSI*%
X71120000Y-63500000D03*
%TO.P,J6,10*%
%TO.N,IO14-MISO*%
X71120000Y-60960000D03*
%TO.P,J6,9*%
%TO.N,IO15-SCK*%
X71120000Y-58420000D03*
%TO.P,J6,8*%
%TO.N,IO18-A0*%
X71120000Y-55880000D03*
%TO.P,J6,7*%
%TO.N,IO19-A1*%
X71120000Y-53340000D03*
%TO.P,J6,6*%
%TO.N,IO20-A2*%
X71120000Y-50800000D03*
%TO.P,J6,5*%
%TO.N,IO21-A3*%
X71120000Y-48260000D03*
%TO.P,J6,4*%
%TO.N,VCC*%
X71120000Y-45720000D03*
%TO.P,J6,3*%
%TO.N,RST*%
X71120000Y-43180000D03*
%TO.P,J6,2*%
%TO.N,GND*%
X71120000Y-40640000D03*
D12*
%TO.P,J6,1*%
%TO.N,VIN*%
X71120000Y-38100000D03*
%TD*%
D11*
%TO.P,J1,12*%
%TO.N,!IO9-A9*%
X55880000Y-66040000D03*
%TO.P,J1,11*%
%TO.N,IO8-A8*%
X55880000Y-63500000D03*
%TO.P,J1,10*%
%TO.N,IO7*%
X55880000Y-60960000D03*
%TO.P,J1,9*%
%TO.N,!IO6-A7*%
X55880000Y-58420000D03*
%TO.P,J1,8*%
%TO.N,!IO5*%
X55880000Y-55880000D03*
%TO.P,J1,7*%
%TO.N,IO4-A6*%
X55880000Y-53340000D03*
%TO.P,J1,6*%
%TO.N,!IO3-SCL*%
X55880000Y-50800000D03*
%TO.P,J1,5*%
%TO.N,IO2-SDA*%
X55880000Y-48260000D03*
%TO.P,J1,4*%
%TO.N,GND*%
X55880000Y-45720000D03*
%TO.P,J1,3*%
X55880000Y-43180000D03*
%TO.P,J1,2*%
%TO.N,IO0-RX*%
X55880000Y-40640000D03*
D12*
%TO.P,J1,1*%
%TO.N,IO1-TX*%
X55880000Y-38100000D03*
%TD*%
D16*
%TO.N,!IO5*%
X62230000Y-50757000D03*
%TO.N,IO4-A6*%
X68885100Y-49372600D03*
D17*
%TO.N,!IO3-SCL*%
X44978000Y-51734000D03*
X33802000Y-51734000D03*
%TO.N,IO2-SDA*%
X46228000Y-58846000D03*
X35052000Y-58846000D03*
D16*
%TO.N,GND*%
X68580000Y-66040000D03*
X68580000Y-38100000D03*
X53340000Y-60960000D03*
X53340000Y-38100000D03*
X53340000Y-55880000D03*
X53340000Y-66040000D03*
X53340000Y-48260000D03*
X53340000Y-43180000D03*
X62865000Y-48895000D03*
X64770000Y-45720000D03*
D17*
%TO.N,+5V*%
X43728000Y-44622000D03*
D16*
X63500000Y-42545000D03*
D17*
X32552000Y-44622000D03*
%TD*%
D18*
%TO.N,IO8-A8*%
X55880000Y-63500000D02*
X57055300Y-63500000D01*
X57055300Y-63500000D02*
X58249200Y-64693900D01*
X58249200Y-64693900D02*
X72858400Y-64693900D01*
X72858400Y-64693900D02*
X75470300Y-62082000D01*
X75470300Y-60230300D02*
X75470300Y-62082000D01*
X74295000Y-59055000D02*
X75470300Y-60230300D01*
%TO.N,IO7*%
X57055300Y-60960000D02*
X55880000Y-60960000D01*
X57988900Y-60026400D02*
X57055300Y-60960000D01*
X65367600Y-60026400D02*
X57988900Y-60026400D01*
X67481300Y-62140100D02*
X65367600Y-60026400D01*
X73119700Y-60630100D02*
X71609700Y-62140100D01*
X71609700Y-62140100D02*
X67481300Y-62140100D01*
X73119700Y-57690300D02*
X73119700Y-60630100D01*
X74295000Y-56515000D02*
X73119700Y-57690300D01*
%TO.N,!IO6-A7*%
X73119700Y-53975000D02*
X72536300Y-54558400D01*
X72536300Y-54558400D02*
X68791800Y-54558400D01*
X68791800Y-54558400D02*
X64930200Y-58420000D01*
X64930200Y-58420000D02*
X55880000Y-58420000D01*
X74295000Y-53975000D02*
X73119700Y-53975000D01*
%TO.N,!IO5*%
X73752300Y-51977700D02*
X74295000Y-51435000D01*
X67186900Y-50744600D02*
X68420000Y-51977700D01*
X62242400Y-50744600D02*
X67186900Y-50744600D01*
X68420000Y-51977700D02*
X73752300Y-51977700D01*
X62230000Y-50757000D02*
X62242400Y-50744600D01*
%TO.N,IO4-A6*%
X73738700Y-49451300D02*
X74295000Y-48895000D01*
X68963800Y-49451300D02*
X73738700Y-49451300D01*
X68885100Y-49372600D02*
X68963800Y-49451300D01*
%TO.N,!IO3-SCL*%
X75470300Y-43289300D02*
X74820600Y-42639600D01*
X74295000Y-46355000D02*
X75470300Y-45179700D01*
X74820600Y-42639600D02*
X73759400Y-42639600D01*
X73759400Y-42639600D02*
X73029800Y-41910000D01*
X75470300Y-45179700D02*
X75470300Y-43289300D01*
X60454500Y-41311200D02*
X57221100Y-44544600D01*
X68180200Y-41311200D02*
X60454500Y-41311200D01*
X73029800Y-41910000D02*
X68779000Y-41910000D01*
X68779000Y-41910000D02*
X68180200Y-41311200D01*
X33802000Y-65958000D02*
X33802000Y-51923000D01*
X44978000Y-65958000D02*
X44978000Y-44622000D01*
X33802000Y-51923000D02*
X33802000Y-44622000D01*
X44978000Y-44350232D02*
X44978000Y-44622000D01*
X57221100Y-44544600D02*
X51637410Y-44544600D01*
X44968000Y-43772000D02*
X45687000Y-43053000D01*
X44968000Y-44622000D02*
X44968000Y-43772000D01*
X50145810Y-43053000D02*
X51637410Y-44544600D01*
X45687000Y-43053000D02*
X50145810Y-43053000D01*
%TO.N,IO2-SDA*%
X73119700Y-43815000D02*
X74295000Y-43815000D01*
X72564100Y-44370600D02*
X73119700Y-43815000D01*
X64720300Y-41802900D02*
X67288000Y-44370600D01*
X67288000Y-44370600D02*
X72564100Y-44370600D01*
X62337100Y-41802900D02*
X64720300Y-41802900D01*
X55880000Y-48260000D02*
X62337100Y-41802900D01*
X35052000Y-52005768D02*
X35052000Y-58928000D01*
X35052000Y-44622000D02*
X35052000Y-52005768D01*
X46228000Y-44622000D02*
X46228000Y-65958000D01*
X35052000Y-58928000D02*
X35052000Y-65958000D01*
X46228000Y-44350232D02*
X46228000Y-44622000D01*
X55880000Y-48260000D02*
X54524178Y-48260000D01*
X52675168Y-50109010D02*
X54524178Y-48260000D01*
X46992990Y-50109010D02*
X52675168Y-50109010D01*
X46218000Y-50884000D02*
X46992990Y-50109010D01*
X46218000Y-51734000D02*
X46218000Y-50884000D01*
%TO.N,IO0-RX*%
X74295000Y-38735000D02*
X73119700Y-38735000D01*
X55880000Y-40640000D02*
X57055300Y-40640000D01*
X57055300Y-40640000D02*
X58230600Y-39464700D01*
X58230600Y-39464700D02*
X72390000Y-39464700D01*
X72390000Y-39464700D02*
X73119700Y-38735000D01*
%TO.N,IO1-TX*%
X66149700Y-36924600D02*
X64974300Y-38100000D01*
X73009400Y-36924600D02*
X66149700Y-36924600D01*
X73570200Y-37485400D02*
X73009400Y-36924600D01*
X75470300Y-37715700D02*
X75240000Y-37485400D01*
X75240000Y-37485400D02*
X73570200Y-37485400D01*
X75470300Y-40099700D02*
X75470300Y-37715700D01*
X64974300Y-38100000D02*
X55880000Y-38100000D01*
X74295000Y-41275000D02*
X75470300Y-40099700D01*
%TO.N,+5V*%
X63500000Y-42545000D02*
X63500000Y-43815000D01*
X32552000Y-44622000D02*
X32552000Y-65958000D01*
X43728000Y-65958000D02*
X43728000Y-44622000D01*
%TO.N,IO18-A0*%
X72295300Y-55880000D02*
X71120000Y-55880000D01*
X72878700Y-55296600D02*
X72295300Y-55880000D01*
X77194400Y-55296600D02*
X72878700Y-55296600D01*
X78010300Y-54480700D02*
X77194400Y-55296600D01*
X78010300Y-52610300D02*
X78010300Y-54480700D01*
X76835000Y-51435000D02*
X78010300Y-52610300D01*
%TO.N,IO19-A1*%
X75659700Y-52799700D02*
X76835000Y-53975000D01*
X72835600Y-52799700D02*
X75659700Y-52799700D01*
X72295300Y-53340000D02*
X72835600Y-52799700D01*
X71120000Y-53340000D02*
X72295300Y-53340000D01*
%TO.N,IO20-A2*%
X71120000Y-50800000D02*
X72295300Y-50800000D01*
X72295300Y-50800000D02*
X72850900Y-50244400D01*
X72850900Y-50244400D02*
X77363400Y-50244400D01*
X77363400Y-50244400D02*
X78468600Y-51349600D01*
X78468600Y-51349600D02*
X78468600Y-54881400D01*
X78468600Y-54881400D02*
X76835000Y-56515000D01*
%TO.N,IO21-A3*%
X72295300Y-48260000D02*
X71120000Y-48260000D01*
X72850900Y-47704400D02*
X72295300Y-48260000D01*
X77354100Y-47704400D02*
X72850900Y-47704400D01*
X78919000Y-49269300D02*
X77354100Y-47704400D01*
X78919000Y-56971000D02*
X78919000Y-49269300D01*
X76835000Y-59055000D02*
X78919000Y-56971000D01*
%TO.N,VCC*%
X64800000Y-43815000D02*
X66705000Y-45720000D01*
X66705000Y-45720000D02*
X71120000Y-45720000D01*
D19*
%TO.N,VIN*%
X66040000Y-52070000D02*
X66040000Y-53340000D01*
X66040000Y-53340000D02*
X63500000Y-55880000D01*
D18*
%TO.N,Net-(C1-Pad1)*%
X60960000Y-49237500D02*
X61302500Y-48895000D01*
X60960000Y-52070000D02*
X60960000Y-49237500D01*
X61302500Y-44712500D02*
X62200000Y-43815000D01*
X61302500Y-48895000D02*
X61302500Y-44712500D01*
%TD*%
D20*
%TO.N,GND*%
X78715001Y-47990499D02*
X78003559Y-47279058D01*
X78150990Y-47058411D01*
X78262932Y-46788158D01*
X78320000Y-46501260D01*
X78320000Y-46208740D01*
X78262932Y-45921842D01*
X78150990Y-45651589D01*
X77988475Y-45408368D01*
X77781632Y-45201525D01*
X77607240Y-45085000D01*
X77781632Y-44968475D01*
X77988475Y-44761632D01*
X78150990Y-44518411D01*
X78262932Y-44248158D01*
X78320000Y-43961260D01*
X78320000Y-43668740D01*
X78262932Y-43381842D01*
X78150990Y-43111589D01*
X77988475Y-42868368D01*
X77781632Y-42661525D01*
X77607240Y-42545000D01*
X77781632Y-42428475D01*
X77988475Y-42221632D01*
X78150990Y-41978411D01*
X78262932Y-41708158D01*
X78320000Y-41421260D01*
X78320000Y-41128740D01*
X78262932Y-40841842D01*
X78150990Y-40571589D01*
X77988475Y-40328368D01*
X77781632Y-40121525D01*
X77607240Y-40005000D01*
X77781632Y-39888475D01*
X77988475Y-39681632D01*
X78150990Y-39438411D01*
X78262932Y-39168158D01*
X78320000Y-38881260D01*
X78320000Y-38588740D01*
X78262932Y-38301842D01*
X78150990Y-38031589D01*
X77988475Y-37788368D01*
X77781632Y-37581525D01*
X77538411Y-37419010D01*
X77268158Y-37307068D01*
X77026724Y-37259043D01*
X77301038Y-36984729D01*
X77545631Y-36618669D01*
X77714110Y-36211925D01*
X77800000Y-35780128D01*
X77800000Y-35339872D01*
X77714110Y-34908075D01*
X77545631Y-34501331D01*
X77301038Y-34135271D01*
X76989729Y-33823962D01*
X76623669Y-33579369D01*
X76216925Y-33410890D01*
X75785128Y-33325000D01*
X75344872Y-33325000D01*
X74913075Y-33410890D01*
X74506331Y-33579369D01*
X74140271Y-33823962D01*
X73828962Y-34135271D01*
X73584369Y-34501331D01*
X73415890Y-34908075D01*
X73330000Y-35339872D01*
X73330000Y-35780128D01*
X73415890Y-36211925D01*
X73455490Y-36307529D01*
X73433676Y-36289626D01*
X73301647Y-36219054D01*
X73158386Y-36175597D01*
X73046733Y-36164600D01*
X73046722Y-36164600D01*
X73009400Y-36160924D01*
X72972078Y-36164600D01*
X66187033Y-36164600D01*
X66149700Y-36160923D01*
X66112367Y-36164600D01*
X66000714Y-36175597D01*
X65857453Y-36219054D01*
X65725424Y-36289626D01*
X65712893Y-36299910D01*
X65793346Y-36105679D01*
X65885000Y-35644902D01*
X65885000Y-35175098D01*
X65793346Y-34714321D01*
X65613560Y-34280279D01*
X65352550Y-33889651D01*
X65020349Y-33557450D01*
X64629721Y-33296440D01*
X64195679Y-33116654D01*
X63734902Y-33025000D01*
X63265098Y-33025000D01*
X62804321Y-33116654D01*
X62370279Y-33296440D01*
X61979651Y-33557450D01*
X61647450Y-33889651D01*
X61386440Y-34280279D01*
X61206654Y-34714321D01*
X61115000Y-35175098D01*
X61115000Y-35644902D01*
X61206654Y-36105679D01*
X61386440Y-36539721D01*
X61647450Y-36930349D01*
X61979651Y-37262550D01*
X62095563Y-37340000D01*
X57368072Y-37340000D01*
X57368072Y-37250000D01*
X57355812Y-37125518D01*
X57319502Y-37005820D01*
X57260537Y-36895506D01*
X57181185Y-36798815D01*
X57084494Y-36719463D01*
X56974180Y-36660498D01*
X56854482Y-36624188D01*
X56730000Y-36611928D01*
X55030000Y-36611928D01*
X54905518Y-36624188D01*
X54785820Y-36660498D01*
X54675506Y-36719463D01*
X54578815Y-36798815D01*
X54499463Y-36895506D01*
X54440498Y-37005820D01*
X54404188Y-37125518D01*
X54391928Y-37250000D01*
X54391928Y-38950000D01*
X54404188Y-39074482D01*
X54440498Y-39194180D01*
X54499463Y-39304494D01*
X54578815Y-39401185D01*
X54675506Y-39480537D01*
X54785820Y-39539502D01*
X54858380Y-39561513D01*
X54726525Y-39693368D01*
X54564010Y-39936589D01*
X54452068Y-40206842D01*
X54395000Y-40493740D01*
X54395000Y-40786260D01*
X54452068Y-41073158D01*
X54564010Y-41343411D01*
X54726525Y-41586632D01*
X54933368Y-41793475D01*
X55115534Y-41915195D01*
X54998645Y-41984822D01*
X54782412Y-42179731D01*
X54608359Y-42413080D01*
X54483175Y-42675901D01*
X54438524Y-42823110D01*
X54559845Y-43053000D01*
X55753000Y-43053000D01*
X55753000Y-43033000D01*
X56007000Y-43033000D01*
X56007000Y-43053000D01*
X57200155Y-43053000D01*
X57321476Y-42823110D01*
X57276825Y-42675901D01*
X57151641Y-42413080D01*
X56977588Y-42179731D01*
X56761355Y-41984822D01*
X56644466Y-41915195D01*
X56826632Y-41793475D01*
X57033475Y-41586632D01*
X57162796Y-41393089D01*
X57204286Y-41389003D01*
X57347547Y-41345546D01*
X57479576Y-41274974D01*
X57595301Y-41180001D01*
X57619104Y-41150997D01*
X58545402Y-40224700D01*
X69696241Y-40224700D01*
X69678524Y-40283110D01*
X69799845Y-40513000D01*
X70993000Y-40513000D01*
X70993000Y-40493000D01*
X71247000Y-40493000D01*
X71247000Y-40513000D01*
X72440155Y-40513000D01*
X72561476Y-40283110D01*
X72540303Y-40213304D01*
X72682247Y-40170246D01*
X72814276Y-40099674D01*
X72930001Y-40004701D01*
X72948989Y-39981564D01*
X72993815Y-40036185D01*
X73090506Y-40115537D01*
X73200820Y-40174502D01*
X73273380Y-40196513D01*
X73141525Y-40328368D01*
X72979010Y-40571589D01*
X72867068Y-40841842D01*
X72810000Y-41128740D01*
X72810000Y-41150000D01*
X72514014Y-41150000D01*
X72516825Y-41144099D01*
X72561476Y-40996890D01*
X72440155Y-40767000D01*
X71247000Y-40767000D01*
X71247000Y-40787000D01*
X70993000Y-40787000D01*
X70993000Y-40767000D01*
X69799845Y-40767000D01*
X69678524Y-40996890D01*
X69723175Y-41144099D01*
X69725986Y-41150000D01*
X69093802Y-41150000D01*
X68744003Y-40800202D01*
X68720201Y-40771199D01*
X68604476Y-40676226D01*
X68472447Y-40605654D01*
X68329186Y-40562197D01*
X68217533Y-40551200D01*
X68217522Y-40551200D01*
X68180200Y-40547524D01*
X68142878Y-40551200D01*
X60491822Y-40551200D01*
X60454499Y-40547524D01*
X60417176Y-40551200D01*
X60417167Y-40551200D01*
X60305514Y-40562197D01*
X60162253Y-40605654D01*
X60030223Y-40676226D01*
X59959005Y-40734674D01*
X59914499Y-40771199D01*
X59890701Y-40800197D01*
X57263627Y-43427272D01*
X57200155Y-43307000D01*
X56007000Y-43307000D01*
X56007000Y-43327000D01*
X55753000Y-43327000D01*
X55753000Y-43307000D01*
X54559845Y-43307000D01*
X54438524Y-43536890D01*
X54483175Y-43684099D01*
X54531045Y-43784600D01*
X51952212Y-43784600D01*
X50709614Y-42542003D01*
X50685811Y-42512999D01*
X50570086Y-42418026D01*
X50456072Y-42357083D01*
X50456072Y-40122000D01*
X50439008Y-39948746D01*
X50388472Y-39782150D01*
X50306405Y-39628614D01*
X50195962Y-39494038D01*
X50061386Y-39383595D01*
X49907850Y-39301528D01*
X49741254Y-39250992D01*
X49568000Y-39233928D01*
X49068000Y-39233928D01*
X48894746Y-39250992D01*
X48728150Y-39301528D01*
X48574614Y-39383595D01*
X48440038Y-39494038D01*
X48329595Y-39628614D01*
X48247528Y-39782150D01*
X48196992Y-39948746D01*
X48179928Y-40122000D01*
X48179928Y-42293000D01*
X45724333Y-42293000D01*
X45687000Y-42289323D01*
X45649667Y-42293000D01*
X45538014Y-42303997D01*
X45394753Y-42347454D01*
X45262724Y-42418026D01*
X45146999Y-42512999D01*
X45123201Y-42541998D01*
X44456998Y-43208201D01*
X44428000Y-43231999D01*
X44414582Y-43248349D01*
X44380171Y-43266742D01*
X44343000Y-43297247D01*
X44305829Y-43266742D01*
X44169582Y-43193916D01*
X44021745Y-43149071D01*
X43868000Y-43133928D01*
X43568000Y-43133928D01*
X43414255Y-43149071D01*
X43266418Y-43193916D01*
X43130171Y-43266742D01*
X43010749Y-43364749D01*
X42912742Y-43484171D01*
X42839916Y-43620418D01*
X42795071Y-43768255D01*
X42779928Y-43922000D01*
X42779928Y-45322000D01*
X42795071Y-45475745D01*
X42839916Y-45623582D01*
X42912742Y-45759829D01*
X42968001Y-45827162D01*
X42968001Y-46991494D01*
X42938472Y-46894150D01*
X42856405Y-46740614D01*
X42745962Y-46606038D01*
X42611386Y-46495595D01*
X42457850Y-46413528D01*
X42291254Y-46362992D01*
X42118000Y-46345928D01*
X41618000Y-46345928D01*
X41444746Y-46362992D01*
X41278150Y-46413528D01*
X41124614Y-46495595D01*
X40990038Y-46606038D01*
X40879595Y-46740614D01*
X40797528Y-46894150D01*
X40746992Y-47060746D01*
X40729928Y-47234000D01*
X40729928Y-49534000D01*
X40746992Y-49707254D01*
X40797528Y-49873850D01*
X40879595Y-50027386D01*
X40990038Y-50161962D01*
X41124614Y-50272405D01*
X41278150Y-50354472D01*
X41444746Y-50405008D01*
X41618000Y-50422072D01*
X42118000Y-50422072D01*
X42291254Y-50405008D01*
X42457850Y-50354472D01*
X42611386Y-50272405D01*
X42745962Y-50161962D01*
X42856405Y-50027386D01*
X42938472Y-49873850D01*
X42968001Y-49776506D01*
X42968001Y-50528838D01*
X42912742Y-50596171D01*
X42839916Y-50732418D01*
X42795071Y-50880255D01*
X42779928Y-51034000D01*
X42779928Y-52434000D01*
X42795071Y-52587745D01*
X42839916Y-52735582D01*
X42912742Y-52871829D01*
X42968001Y-52939162D01*
X42968001Y-54103493D01*
X42938472Y-54006150D01*
X42856405Y-53852614D01*
X42745962Y-53718038D01*
X42611386Y-53607595D01*
X42457850Y-53525528D01*
X42291254Y-53474992D01*
X42118000Y-53457928D01*
X41618000Y-53457928D01*
X41444746Y-53474992D01*
X41278150Y-53525528D01*
X41124614Y-53607595D01*
X40990038Y-53718038D01*
X40879595Y-53852614D01*
X40797528Y-54006150D01*
X40746992Y-54172746D01*
X40729928Y-54346000D01*
X40729928Y-56646000D01*
X40746992Y-56819254D01*
X40797528Y-56985850D01*
X40879595Y-57139386D01*
X40990038Y-57273962D01*
X41124614Y-57384405D01*
X41278150Y-57466472D01*
X41444746Y-57517008D01*
X41618000Y-57534072D01*
X42118000Y-57534072D01*
X42291254Y-57517008D01*
X42457850Y-57466472D01*
X42611386Y-57384405D01*
X42745962Y-57273962D01*
X42856405Y-57139386D01*
X42938472Y-56985850D01*
X42968000Y-56888507D01*
X42968000Y-57640838D01*
X42912742Y-57708171D01*
X42839916Y-57844418D01*
X42795071Y-57992255D01*
X42779928Y-58146000D01*
X42779928Y-59546000D01*
X42795071Y-59699745D01*
X42839916Y-59847582D01*
X42912742Y-59983829D01*
X42968000Y-60051161D01*
X42968000Y-61215492D01*
X42938472Y-61118150D01*
X42856405Y-60964614D01*
X42745962Y-60830038D01*
X42611386Y-60719595D01*
X42457850Y-60637528D01*
X42291254Y-60586992D01*
X42118000Y-60569928D01*
X41618000Y-60569928D01*
X41444746Y-60586992D01*
X41278150Y-60637528D01*
X41124614Y-60719595D01*
X40990038Y-60830038D01*
X40879595Y-60964614D01*
X40797528Y-61118150D01*
X40746992Y-61284746D01*
X40729928Y-61458000D01*
X40729928Y-63758000D01*
X40746992Y-63931254D01*
X40797528Y-64097850D01*
X40879595Y-64251386D01*
X40990038Y-64385962D01*
X41124614Y-64496405D01*
X41278150Y-64578472D01*
X41444746Y-64629008D01*
X41618000Y-64646072D01*
X42118000Y-64646072D01*
X42291254Y-64629008D01*
X42457850Y-64578472D01*
X42611386Y-64496405D01*
X42745962Y-64385962D01*
X42856405Y-64251386D01*
X42938472Y-64097850D01*
X42968000Y-64000508D01*
X42968000Y-64752839D01*
X42912742Y-64820171D01*
X42839916Y-64956418D01*
X42795071Y-65104255D01*
X42779928Y-65258000D01*
X42779928Y-66658000D01*
X42795071Y-66811745D01*
X42839916Y-66959582D01*
X42912742Y-67095829D01*
X43010749Y-67215251D01*
X43130171Y-67313258D01*
X43266418Y-67386084D01*
X43414255Y-67430929D01*
X43568000Y-67446072D01*
X43868000Y-67446072D01*
X44021745Y-67430929D01*
X44169582Y-67386084D01*
X44305829Y-67313258D01*
X44343000Y-67282753D01*
X44380171Y-67313258D01*
X44516418Y-67386084D01*
X44664255Y-67430929D01*
X44818000Y-67446072D01*
X45118000Y-67446072D01*
X45271745Y-67430929D01*
X45419582Y-67386084D01*
X45555829Y-67313258D01*
X45593000Y-67282753D01*
X45630171Y-67313258D01*
X45766418Y-67386084D01*
X45914255Y-67430929D01*
X46068000Y-67446072D01*
X46368000Y-67446072D01*
X46521745Y-67430929D01*
X46669582Y-67386084D01*
X46791825Y-67320744D01*
X46813506Y-67338537D01*
X46923820Y-67397502D01*
X47043518Y-67433812D01*
X47168000Y-67446072D01*
X47182250Y-67443000D01*
X47341000Y-67284250D01*
X47341000Y-66085000D01*
X47595000Y-66085000D01*
X47595000Y-67284250D01*
X47753750Y-67443000D01*
X47768000Y-67446072D01*
X47892482Y-67433812D01*
X48012180Y-67397502D01*
X48122494Y-67338537D01*
X48219185Y-67259185D01*
X48298537Y-67162494D01*
X48357502Y-67052180D01*
X48393812Y-66932482D01*
X48406072Y-66808000D01*
X48403000Y-66243750D01*
X48244250Y-66085000D01*
X47595000Y-66085000D01*
X47341000Y-66085000D01*
X47321000Y-66085000D01*
X47321000Y-65831000D01*
X47341000Y-65831000D01*
X47341000Y-64631750D01*
X47595000Y-64631750D01*
X47595000Y-65831000D01*
X48244250Y-65831000D01*
X48403000Y-65672250D01*
X48406072Y-65108000D01*
X48393812Y-64983518D01*
X48357502Y-64863820D01*
X48298537Y-64753506D01*
X48219185Y-64656815D01*
X48122494Y-64577463D01*
X48012180Y-64518498D01*
X47892482Y-64482188D01*
X47768000Y-64469928D01*
X47753750Y-64473000D01*
X47595000Y-64631750D01*
X47341000Y-64631750D01*
X47182250Y-64473000D01*
X47168000Y-64469928D01*
X47043518Y-64482188D01*
X46988000Y-64499029D01*
X46988000Y-61458000D01*
X48179928Y-61458000D01*
X48179928Y-63758000D01*
X48196992Y-63931254D01*
X48247528Y-64097850D01*
X48329595Y-64251386D01*
X48440038Y-64385962D01*
X48574614Y-64496405D01*
X48728150Y-64578472D01*
X48894746Y-64629008D01*
X49068000Y-64646072D01*
X49568000Y-64646072D01*
X49741254Y-64629008D01*
X49907850Y-64578472D01*
X50061386Y-64496405D01*
X50195962Y-64385962D01*
X50306405Y-64251386D01*
X50388472Y-64097850D01*
X50439008Y-63931254D01*
X50456072Y-63758000D01*
X50456072Y-61458000D01*
X50439008Y-61284746D01*
X50388472Y-61118150D01*
X50306405Y-60964614D01*
X50195962Y-60830038D01*
X50061386Y-60719595D01*
X49907850Y-60637528D01*
X49741254Y-60586992D01*
X49568000Y-60569928D01*
X49068000Y-60569928D01*
X48894746Y-60586992D01*
X48728150Y-60637528D01*
X48574614Y-60719595D01*
X48440038Y-60830038D01*
X48329595Y-60964614D01*
X48247528Y-61118150D01*
X48196992Y-61284746D01*
X48179928Y-61458000D01*
X46988000Y-61458000D01*
X46988000Y-60304971D01*
X47043518Y-60321812D01*
X47168000Y-60334072D01*
X47182250Y-60331000D01*
X47341000Y-60172250D01*
X47341000Y-58973000D01*
X47595000Y-58973000D01*
X47595000Y-60172250D01*
X47753750Y-60331000D01*
X47768000Y-60334072D01*
X47892482Y-60321812D01*
X48012180Y-60285502D01*
X48122494Y-60226537D01*
X48219185Y-60147185D01*
X48298537Y-60050494D01*
X48357502Y-59940180D01*
X48393812Y-59820482D01*
X48406072Y-59696000D01*
X48403000Y-59131750D01*
X48244250Y-58973000D01*
X47595000Y-58973000D01*
X47341000Y-58973000D01*
X47321000Y-58973000D01*
X47321000Y-58719000D01*
X47341000Y-58719000D01*
X47341000Y-57519750D01*
X47595000Y-57519750D01*
X47595000Y-58719000D01*
X48244250Y-58719000D01*
X48403000Y-58560250D01*
X48406072Y-57996000D01*
X48393812Y-57871518D01*
X48357502Y-57751820D01*
X48298537Y-57641506D01*
X48219185Y-57544815D01*
X48122494Y-57465463D01*
X48012180Y-57406498D01*
X47892482Y-57370188D01*
X47768000Y-57357928D01*
X47753750Y-57361000D01*
X47595000Y-57519750D01*
X47341000Y-57519750D01*
X47182250Y-57361000D01*
X47168000Y-57357928D01*
X47043518Y-57370188D01*
X46988000Y-57387029D01*
X46988000Y-54346000D01*
X48179928Y-54346000D01*
X48179928Y-56646000D01*
X48196992Y-56819254D01*
X48247528Y-56985850D01*
X48329595Y-57139386D01*
X48440038Y-57273962D01*
X48574614Y-57384405D01*
X48728150Y-57466472D01*
X48894746Y-57517008D01*
X49068000Y-57534072D01*
X49568000Y-57534072D01*
X49741254Y-57517008D01*
X49907850Y-57466472D01*
X50061386Y-57384405D01*
X50195962Y-57273962D01*
X50306405Y-57139386D01*
X50388472Y-56985850D01*
X50439008Y-56819254D01*
X50456072Y-56646000D01*
X50456072Y-54346000D01*
X50439008Y-54172746D01*
X50388472Y-54006150D01*
X50306405Y-53852614D01*
X50195962Y-53718038D01*
X50061386Y-53607595D01*
X49907850Y-53525528D01*
X49741254Y-53474992D01*
X49568000Y-53457928D01*
X49068000Y-53457928D01*
X48894746Y-53474992D01*
X48728150Y-53525528D01*
X48574614Y-53607595D01*
X48440038Y-53718038D01*
X48329595Y-53852614D01*
X48247528Y-54006150D01*
X48196992Y-54172746D01*
X48179928Y-54346000D01*
X46988000Y-54346000D01*
X46988000Y-53192971D01*
X47043518Y-53209812D01*
X47168000Y-53222072D01*
X47182250Y-53219000D01*
X47341000Y-53060250D01*
X47341000Y-51861000D01*
X47595000Y-51861000D01*
X47595000Y-53060250D01*
X47753750Y-53219000D01*
X47768000Y-53222072D01*
X47892482Y-53209812D01*
X48012180Y-53173502D01*
X48122494Y-53114537D01*
X48219185Y-53035185D01*
X48298537Y-52938494D01*
X48357502Y-52828180D01*
X48393812Y-52708482D01*
X48406072Y-52584000D01*
X48403000Y-52019750D01*
X48244250Y-51861000D01*
X47595000Y-51861000D01*
X47341000Y-51861000D01*
X47321000Y-51861000D01*
X47321000Y-51607000D01*
X47341000Y-51607000D01*
X47341000Y-51587000D01*
X47595000Y-51587000D01*
X47595000Y-51607000D01*
X48244250Y-51607000D01*
X48403000Y-51448250D01*
X48406072Y-50884000D01*
X48404596Y-50869010D01*
X52637846Y-50869010D01*
X52675168Y-50872686D01*
X52712490Y-50869010D01*
X52712501Y-50869010D01*
X52824154Y-50858013D01*
X52967415Y-50814556D01*
X53099444Y-50743984D01*
X53215169Y-50649011D01*
X53238972Y-50620007D01*
X54696814Y-49162166D01*
X54726525Y-49206632D01*
X54933368Y-49413475D01*
X55107760Y-49530000D01*
X54933368Y-49646525D01*
X54726525Y-49853368D01*
X54564010Y-50096589D01*
X54452068Y-50366842D01*
X54395000Y-50653740D01*
X54395000Y-50946260D01*
X54452068Y-51233158D01*
X54564010Y-51503411D01*
X54726525Y-51746632D01*
X54933368Y-51953475D01*
X55107760Y-52070000D01*
X54933368Y-52186525D01*
X54726525Y-52393368D01*
X54564010Y-52636589D01*
X54452068Y-52906842D01*
X54395000Y-53193740D01*
X54395000Y-53486260D01*
X54452068Y-53773158D01*
X54564010Y-54043411D01*
X54726525Y-54286632D01*
X54933368Y-54493475D01*
X55107760Y-54610000D01*
X54933368Y-54726525D01*
X54726525Y-54933368D01*
X54564010Y-55176589D01*
X54452068Y-55446842D01*
X54395000Y-55733740D01*
X54395000Y-56026260D01*
X54452068Y-56313158D01*
X54564010Y-56583411D01*
X54726525Y-56826632D01*
X54933368Y-57033475D01*
X55107760Y-57150000D01*
X54933368Y-57266525D01*
X54726525Y-57473368D01*
X54564010Y-57716589D01*
X54452068Y-57986842D01*
X54395000Y-58273740D01*
X54395000Y-58566260D01*
X54452068Y-58853158D01*
X54564010Y-59123411D01*
X54726525Y-59366632D01*
X54933368Y-59573475D01*
X55107760Y-59690000D01*
X54933368Y-59806525D01*
X54726525Y-60013368D01*
X54564010Y-60256589D01*
X54452068Y-60526842D01*
X54395000Y-60813740D01*
X54395000Y-61106260D01*
X54452068Y-61393158D01*
X54564010Y-61663411D01*
X54726525Y-61906632D01*
X54933368Y-62113475D01*
X55107760Y-62230000D01*
X54933368Y-62346525D01*
X54726525Y-62553368D01*
X54564010Y-62796589D01*
X54452068Y-63066842D01*
X54395000Y-63353740D01*
X54395000Y-63646260D01*
X54452068Y-63933158D01*
X54564010Y-64203411D01*
X54726525Y-64446632D01*
X54933368Y-64653475D01*
X55107760Y-64770000D01*
X54933368Y-64886525D01*
X54726525Y-65093368D01*
X54564010Y-65336589D01*
X54452068Y-65606842D01*
X54395000Y-65893740D01*
X54395000Y-66186260D01*
X54452068Y-66473158D01*
X54564010Y-66743411D01*
X54726525Y-66986632D01*
X54933368Y-67193475D01*
X55176589Y-67355990D01*
X55446842Y-67467932D01*
X55733740Y-67525000D01*
X56026260Y-67525000D01*
X56313158Y-67467932D01*
X56583411Y-67355990D01*
X56826632Y-67193475D01*
X57033475Y-66986632D01*
X57195990Y-66743411D01*
X57307932Y-66473158D01*
X57365000Y-66186260D01*
X57365000Y-65893740D01*
X57307932Y-65606842D01*
X57195990Y-65336589D01*
X57033475Y-65093368D01*
X56826632Y-64886525D01*
X56652240Y-64770000D01*
X56826632Y-64653475D01*
X56980303Y-64499804D01*
X57685401Y-65204903D01*
X57709199Y-65233901D01*
X57738197Y-65257699D01*
X57824924Y-65328874D01*
X57956953Y-65399446D01*
X58100214Y-65442903D01*
X58249200Y-65457577D01*
X58286533Y-65453900D01*
X69755418Y-65453900D01*
X69692068Y-65606842D01*
X69635000Y-65893740D01*
X69635000Y-66186260D01*
X69692068Y-66473158D01*
X69804010Y-66743411D01*
X69966525Y-66986632D01*
X70173368Y-67193475D01*
X70416589Y-67355990D01*
X70686842Y-67467932D01*
X70973740Y-67525000D01*
X71266260Y-67525000D01*
X71553158Y-67467932D01*
X71823411Y-67355990D01*
X72066632Y-67193475D01*
X72273475Y-66986632D01*
X72435990Y-66743411D01*
X72547932Y-66473158D01*
X72605000Y-66186260D01*
X72605000Y-65893740D01*
X72547932Y-65606842D01*
X72484582Y-65453900D01*
X72821078Y-65453900D01*
X72858400Y-65457576D01*
X72895722Y-65453900D01*
X72895733Y-65453900D01*
X73007386Y-65442903D01*
X73150647Y-65399446D01*
X73282676Y-65328874D01*
X73381284Y-65247949D01*
X73415890Y-65421925D01*
X73584369Y-65828669D01*
X73828962Y-66194729D01*
X74140271Y-66506038D01*
X74506331Y-66750631D01*
X74913075Y-66919110D01*
X75344872Y-67005000D01*
X75785128Y-67005000D01*
X76216925Y-66919110D01*
X76623669Y-66750631D01*
X76989729Y-66506038D01*
X77301038Y-66194729D01*
X77545631Y-65828669D01*
X77714110Y-65421925D01*
X77800000Y-64990128D01*
X77800000Y-64549872D01*
X77714110Y-64118075D01*
X77545631Y-63711331D01*
X77301038Y-63345271D01*
X76989729Y-63033962D01*
X76962002Y-63015435D01*
X76962002Y-62915815D01*
X77191891Y-63036481D01*
X77466252Y-62939157D01*
X77716355Y-62790178D01*
X77932588Y-62595269D01*
X78106641Y-62361920D01*
X78231825Y-62099099D01*
X78276476Y-61951890D01*
X78155155Y-61722000D01*
X76962000Y-61722000D01*
X76962000Y-61742000D01*
X76708000Y-61742000D01*
X76708000Y-61722000D01*
X76688000Y-61722000D01*
X76688000Y-61468000D01*
X76708000Y-61468000D01*
X76708000Y-61448000D01*
X76962000Y-61448000D01*
X76962000Y-61468000D01*
X78155155Y-61468000D01*
X78276476Y-61238110D01*
X78231825Y-61090901D01*
X78106641Y-60828080D01*
X77932588Y-60594731D01*
X77716355Y-60399822D01*
X77599466Y-60330195D01*
X77781632Y-60208475D01*
X77988475Y-60001632D01*
X78150990Y-59758411D01*
X78262932Y-59488158D01*
X78320000Y-59201260D01*
X78320000Y-58908740D01*
X78276209Y-58688592D01*
X78715000Y-58249801D01*
X78715000Y-67920000D01*
X30124000Y-67920000D01*
X30124000Y-64585100D01*
X30268746Y-64629008D01*
X30442000Y-64646072D01*
X30942000Y-64646072D01*
X31115254Y-64629008D01*
X31281850Y-64578472D01*
X31435386Y-64496405D01*
X31569962Y-64385962D01*
X31680405Y-64251386D01*
X31762472Y-64097850D01*
X31792001Y-64000506D01*
X31792001Y-64752838D01*
X31736742Y-64820171D01*
X31663916Y-64956418D01*
X31619071Y-65104255D01*
X31603928Y-65258000D01*
X31603928Y-66658000D01*
X31619071Y-66811745D01*
X31663916Y-66959582D01*
X31736742Y-67095829D01*
X31834749Y-67215251D01*
X31954171Y-67313258D01*
X32090418Y-67386084D01*
X32238255Y-67430929D01*
X32392000Y-67446072D01*
X32692000Y-67446072D01*
X32845745Y-67430929D01*
X32993582Y-67386084D01*
X33129829Y-67313258D01*
X33167000Y-67282753D01*
X33204171Y-67313258D01*
X33340418Y-67386084D01*
X33488255Y-67430929D01*
X33642000Y-67446072D01*
X33942000Y-67446072D01*
X34095745Y-67430929D01*
X34243582Y-67386084D01*
X34379829Y-67313258D01*
X34417000Y-67282753D01*
X34454171Y-67313258D01*
X34590418Y-67386084D01*
X34738255Y-67430929D01*
X34892000Y-67446072D01*
X35192000Y-67446072D01*
X35345745Y-67430929D01*
X35493582Y-67386084D01*
X35615825Y-67320744D01*
X35637506Y-67338537D01*
X35747820Y-67397502D01*
X35867518Y-67433812D01*
X35992000Y-67446072D01*
X36006250Y-67443000D01*
X36165000Y-67284250D01*
X36165000Y-66085000D01*
X36419000Y-66085000D01*
X36419000Y-67284250D01*
X36577750Y-67443000D01*
X36592000Y-67446072D01*
X36716482Y-67433812D01*
X36836180Y-67397502D01*
X36946494Y-67338537D01*
X37043185Y-67259185D01*
X37122537Y-67162494D01*
X37181502Y-67052180D01*
X37217812Y-66932482D01*
X37230072Y-66808000D01*
X37227000Y-66243750D01*
X37068250Y-66085000D01*
X36419000Y-66085000D01*
X36165000Y-66085000D01*
X36145000Y-66085000D01*
X36145000Y-65831000D01*
X36165000Y-65831000D01*
X36165000Y-64631750D01*
X36419000Y-64631750D01*
X36419000Y-65831000D01*
X37068250Y-65831000D01*
X37227000Y-65672250D01*
X37230072Y-65108000D01*
X37217812Y-64983518D01*
X37181502Y-64863820D01*
X37122537Y-64753506D01*
X37043185Y-64656815D01*
X36946494Y-64577463D01*
X36836180Y-64518498D01*
X36716482Y-64482188D01*
X36592000Y-64469928D01*
X36577750Y-64473000D01*
X36419000Y-64631750D01*
X36165000Y-64631750D01*
X36006250Y-64473000D01*
X35992000Y-64469928D01*
X35867518Y-64482188D01*
X35812000Y-64499029D01*
X35812000Y-61458000D01*
X37003928Y-61458000D01*
X37003928Y-63758000D01*
X37020992Y-63931254D01*
X37071528Y-64097850D01*
X37153595Y-64251386D01*
X37264038Y-64385962D01*
X37398614Y-64496405D01*
X37552150Y-64578472D01*
X37718746Y-64629008D01*
X37892000Y-64646072D01*
X38392000Y-64646072D01*
X38565254Y-64629008D01*
X38731850Y-64578472D01*
X38885386Y-64496405D01*
X39019962Y-64385962D01*
X39130405Y-64251386D01*
X39212472Y-64097850D01*
X39263008Y-63931254D01*
X39280072Y-63758000D01*
X39280072Y-61458000D01*
X39263008Y-61284746D01*
X39212472Y-61118150D01*
X39130405Y-60964614D01*
X39019962Y-60830038D01*
X38885386Y-60719595D01*
X38731850Y-60637528D01*
X38565254Y-60586992D01*
X38392000Y-60569928D01*
X37892000Y-60569928D01*
X37718746Y-60586992D01*
X37552150Y-60637528D01*
X37398614Y-60719595D01*
X37264038Y-60830038D01*
X37153595Y-60964614D01*
X37071528Y-61118150D01*
X37020992Y-61284746D01*
X37003928Y-61458000D01*
X35812000Y-61458000D01*
X35812000Y-60304971D01*
X35867518Y-60321812D01*
X35992000Y-60334072D01*
X36006250Y-60331000D01*
X36165000Y-60172250D01*
X36165000Y-58973000D01*
X36419000Y-58973000D01*
X36419000Y-60172250D01*
X36577750Y-60331000D01*
X36592000Y-60334072D01*
X36716482Y-60321812D01*
X36836180Y-60285502D01*
X36946494Y-60226537D01*
X37043185Y-60147185D01*
X37122537Y-60050494D01*
X37181502Y-59940180D01*
X37217812Y-59820482D01*
X37230072Y-59696000D01*
X37227000Y-59131750D01*
X37068250Y-58973000D01*
X36419000Y-58973000D01*
X36165000Y-58973000D01*
X36145000Y-58973000D01*
X36145000Y-58719000D01*
X36165000Y-58719000D01*
X36165000Y-57519750D01*
X36419000Y-57519750D01*
X36419000Y-58719000D01*
X37068250Y-58719000D01*
X37227000Y-58560250D01*
X37230072Y-57996000D01*
X37217812Y-57871518D01*
X37181502Y-57751820D01*
X37122537Y-57641506D01*
X37043185Y-57544815D01*
X36946494Y-57465463D01*
X36836180Y-57406498D01*
X36716482Y-57370188D01*
X36592000Y-57357928D01*
X36577750Y-57361000D01*
X36419000Y-57519750D01*
X36165000Y-57519750D01*
X36006250Y-57361000D01*
X35992000Y-57357928D01*
X35867518Y-57370188D01*
X35812000Y-57387029D01*
X35812000Y-54346000D01*
X37003928Y-54346000D01*
X37003928Y-56646000D01*
X37020992Y-56819254D01*
X37071528Y-56985850D01*
X37153595Y-57139386D01*
X37264038Y-57273962D01*
X37398614Y-57384405D01*
X37552150Y-57466472D01*
X37718746Y-57517008D01*
X37892000Y-57534072D01*
X38392000Y-57534072D01*
X38565254Y-57517008D01*
X38731850Y-57466472D01*
X38885386Y-57384405D01*
X39019962Y-57273962D01*
X39130405Y-57139386D01*
X39212472Y-56985850D01*
X39263008Y-56819254D01*
X39280072Y-56646000D01*
X39280072Y-54346000D01*
X39263008Y-54172746D01*
X39212472Y-54006150D01*
X39130405Y-53852614D01*
X39019962Y-53718038D01*
X38885386Y-53607595D01*
X38731850Y-53525528D01*
X38565254Y-53474992D01*
X38392000Y-53457928D01*
X37892000Y-53457928D01*
X37718746Y-53474992D01*
X37552150Y-53525528D01*
X37398614Y-53607595D01*
X37264038Y-53718038D01*
X37153595Y-53852614D01*
X37071528Y-54006150D01*
X37020992Y-54172746D01*
X37003928Y-54346000D01*
X35812000Y-54346000D01*
X35812000Y-53192971D01*
X35867518Y-53209812D01*
X35992000Y-53222072D01*
X36006250Y-53219000D01*
X36165000Y-53060250D01*
X36165000Y-51861000D01*
X36419000Y-51861000D01*
X36419000Y-53060250D01*
X36577750Y-53219000D01*
X36592000Y-53222072D01*
X36716482Y-53209812D01*
X36836180Y-53173502D01*
X36946494Y-53114537D01*
X37043185Y-53035185D01*
X37122537Y-52938494D01*
X37181502Y-52828180D01*
X37217812Y-52708482D01*
X37230072Y-52584000D01*
X37227000Y-52019750D01*
X37068250Y-51861000D01*
X36419000Y-51861000D01*
X36165000Y-51861000D01*
X36145000Y-51861000D01*
X36145000Y-51607000D01*
X36165000Y-51607000D01*
X36165000Y-50407750D01*
X36419000Y-50407750D01*
X36419000Y-51607000D01*
X37068250Y-51607000D01*
X37227000Y-51448250D01*
X37230072Y-50884000D01*
X37217812Y-50759518D01*
X37181502Y-50639820D01*
X37122537Y-50529506D01*
X37043185Y-50432815D01*
X36946494Y-50353463D01*
X36836180Y-50294498D01*
X36716482Y-50258188D01*
X36592000Y-50245928D01*
X36577750Y-50249000D01*
X36419000Y-50407750D01*
X36165000Y-50407750D01*
X36006250Y-50249000D01*
X35992000Y-50245928D01*
X35867518Y-50258188D01*
X35812000Y-50275029D01*
X35812000Y-47234000D01*
X37003928Y-47234000D01*
X37003928Y-49534000D01*
X37020992Y-49707254D01*
X37071528Y-49873850D01*
X37153595Y-50027386D01*
X37264038Y-50161962D01*
X37398614Y-50272405D01*
X37552150Y-50354472D01*
X37718746Y-50405008D01*
X37892000Y-50422072D01*
X38392000Y-50422072D01*
X38565254Y-50405008D01*
X38731850Y-50354472D01*
X38885386Y-50272405D01*
X39019962Y-50161962D01*
X39130405Y-50027386D01*
X39212472Y-49873850D01*
X39263008Y-49707254D01*
X39280072Y-49534000D01*
X39280072Y-47234000D01*
X39263008Y-47060746D01*
X39212472Y-46894150D01*
X39130405Y-46740614D01*
X39019962Y-46606038D01*
X38885386Y-46495595D01*
X38731850Y-46413528D01*
X38565254Y-46362992D01*
X38392000Y-46345928D01*
X37892000Y-46345928D01*
X37718746Y-46362992D01*
X37552150Y-46413528D01*
X37398614Y-46495595D01*
X37264038Y-46606038D01*
X37153595Y-46740614D01*
X37071528Y-46894150D01*
X37020992Y-47060746D01*
X37003928Y-47234000D01*
X35812000Y-47234000D01*
X35812000Y-46080971D01*
X35867518Y-46097812D01*
X35992000Y-46110072D01*
X36006250Y-46107000D01*
X36165000Y-45948250D01*
X36165000Y-44749000D01*
X36419000Y-44749000D01*
X36419000Y-45948250D01*
X36577750Y-46107000D01*
X36592000Y-46110072D01*
X36716482Y-46097812D01*
X36836180Y-46061502D01*
X36946494Y-46002537D01*
X37043185Y-45923185D01*
X37122537Y-45826494D01*
X37181502Y-45716180D01*
X37217812Y-45596482D01*
X37230072Y-45472000D01*
X37227000Y-44907750D01*
X37068250Y-44749000D01*
X36419000Y-44749000D01*
X36165000Y-44749000D01*
X36145000Y-44749000D01*
X36145000Y-44495000D01*
X36165000Y-44495000D01*
X36165000Y-43295750D01*
X36419000Y-43295750D01*
X36419000Y-44495000D01*
X37068250Y-44495000D01*
X37227000Y-44336250D01*
X37230072Y-43772000D01*
X37217812Y-43647518D01*
X37181502Y-43527820D01*
X37122537Y-43417506D01*
X37043185Y-43320815D01*
X36946494Y-43241463D01*
X36836180Y-43182498D01*
X36716482Y-43146188D01*
X36592000Y-43133928D01*
X36577750Y-43137000D01*
X36419000Y-43295750D01*
X36165000Y-43295750D01*
X36006250Y-43137000D01*
X35992000Y-43133928D01*
X35867518Y-43146188D01*
X35747820Y-43182498D01*
X35637506Y-43241463D01*
X35615825Y-43259256D01*
X35493582Y-43193916D01*
X35345745Y-43149071D01*
X35192000Y-43133928D01*
X34892000Y-43133928D01*
X34738255Y-43149071D01*
X34590418Y-43193916D01*
X34454171Y-43266742D01*
X34417000Y-43297247D01*
X34379829Y-43266742D01*
X34243582Y-43193916D01*
X34095745Y-43149071D01*
X33942000Y-43133928D01*
X33642000Y-43133928D01*
X33488255Y-43149071D01*
X33340418Y-43193916D01*
X33204171Y-43266742D01*
X33167000Y-43297247D01*
X33129829Y-43266742D01*
X32993582Y-43193916D01*
X32845745Y-43149071D01*
X32692000Y-43133928D01*
X32392000Y-43133928D01*
X32238255Y-43149071D01*
X32090418Y-43193916D01*
X31954171Y-43266742D01*
X31834749Y-43364749D01*
X31736742Y-43484171D01*
X31663916Y-43620418D01*
X31619071Y-43768255D01*
X31603928Y-43922000D01*
X31603928Y-45322000D01*
X31619071Y-45475745D01*
X31663916Y-45623582D01*
X31736742Y-45759829D01*
X31792000Y-45827161D01*
X31792000Y-46991492D01*
X31762472Y-46894150D01*
X31680405Y-46740614D01*
X31569962Y-46606038D01*
X31435386Y-46495595D01*
X31281850Y-46413528D01*
X31115254Y-46362992D01*
X30942000Y-46345928D01*
X30442000Y-46345928D01*
X30268746Y-46362992D01*
X30124000Y-46406900D01*
X30124000Y-43249100D01*
X30268746Y-43293008D01*
X30442000Y-43310072D01*
X30942000Y-43310072D01*
X31115254Y-43293008D01*
X31281850Y-43242472D01*
X31435386Y-43160405D01*
X31569962Y-43049962D01*
X31680405Y-42915386D01*
X31762472Y-42761850D01*
X31813008Y-42595254D01*
X31830072Y-42422000D01*
X31830072Y-40122000D01*
X37003928Y-40122000D01*
X37003928Y-42422000D01*
X37020992Y-42595254D01*
X37071528Y-42761850D01*
X37153595Y-42915386D01*
X37264038Y-43049962D01*
X37398614Y-43160405D01*
X37552150Y-43242472D01*
X37718746Y-43293008D01*
X37892000Y-43310072D01*
X38392000Y-43310072D01*
X38565254Y-43293008D01*
X38731850Y-43242472D01*
X38885386Y-43160405D01*
X39019962Y-43049962D01*
X39130405Y-42915386D01*
X39212472Y-42761850D01*
X39263008Y-42595254D01*
X39280072Y-42422000D01*
X39280072Y-40122000D01*
X40729928Y-40122000D01*
X40729928Y-42422000D01*
X40746992Y-42595254D01*
X40797528Y-42761850D01*
X40879595Y-42915386D01*
X40990038Y-43049962D01*
X41124614Y-43160405D01*
X41278150Y-43242472D01*
X41444746Y-43293008D01*
X41618000Y-43310072D01*
X42118000Y-43310072D01*
X42291254Y-43293008D01*
X42457850Y-43242472D01*
X42611386Y-43160405D01*
X42745962Y-43049962D01*
X42856405Y-42915386D01*
X42938472Y-42761850D01*
X42989008Y-42595254D01*
X43006072Y-42422000D01*
X43006072Y-40122000D01*
X42989008Y-39948746D01*
X42938472Y-39782150D01*
X42856405Y-39628614D01*
X42745962Y-39494038D01*
X42611386Y-39383595D01*
X42457850Y-39301528D01*
X42291254Y-39250992D01*
X42118000Y-39233928D01*
X41618000Y-39233928D01*
X41444746Y-39250992D01*
X41278150Y-39301528D01*
X41124614Y-39383595D01*
X40990038Y-39494038D01*
X40879595Y-39628614D01*
X40797528Y-39782150D01*
X40746992Y-39948746D01*
X40729928Y-40122000D01*
X39280072Y-40122000D01*
X39263008Y-39948746D01*
X39212472Y-39782150D01*
X39130405Y-39628614D01*
X39019962Y-39494038D01*
X38885386Y-39383595D01*
X38731850Y-39301528D01*
X38565254Y-39250992D01*
X38392000Y-39233928D01*
X37892000Y-39233928D01*
X37718746Y-39250992D01*
X37552150Y-39301528D01*
X37398614Y-39383595D01*
X37264038Y-39494038D01*
X37153595Y-39628614D01*
X37071528Y-39782150D01*
X37020992Y-39948746D01*
X37003928Y-40122000D01*
X31830072Y-40122000D01*
X31813008Y-39948746D01*
X31762472Y-39782150D01*
X31680405Y-39628614D01*
X31569962Y-39494038D01*
X31435386Y-39383595D01*
X31281850Y-39301528D01*
X31115254Y-39250992D01*
X30942000Y-39233928D01*
X30442000Y-39233928D01*
X30268746Y-39250992D01*
X30124000Y-39294900D01*
X30124000Y-35339872D01*
X31293000Y-35339872D01*
X31293000Y-35780128D01*
X31378890Y-36211925D01*
X31547369Y-36618669D01*
X31791962Y-36984729D01*
X32103271Y-37296038D01*
X32469331Y-37540631D01*
X32876075Y-37709110D01*
X33307872Y-37795000D01*
X33748128Y-37795000D01*
X34179925Y-37709110D01*
X34586669Y-37540631D01*
X34952729Y-37296038D01*
X35264038Y-36984729D01*
X35508631Y-36618669D01*
X35677110Y-36211925D01*
X35763000Y-35780128D01*
X35763000Y-35339872D01*
X35677110Y-34908075D01*
X35508631Y-34501331D01*
X35264038Y-34135271D01*
X34952729Y-33823962D01*
X34586669Y-33579369D01*
X34179925Y-33410890D01*
X33748128Y-33325000D01*
X33307872Y-33325000D01*
X32876075Y-33410890D01*
X32469331Y-33579369D01*
X32103271Y-33823962D01*
X31791962Y-34135271D01*
X31547369Y-34501331D01*
X31378890Y-34908075D01*
X31293000Y-35339872D01*
X30124000Y-35339872D01*
X30124000Y-32410000D01*
X78715001Y-32410000D01*
X78715001Y-47990499D01*
%TA.AperFunction,Conductor*%
D21*
G36*
X78715001Y-47990499D02*
G01*
X78003559Y-47279058D01*
X78150990Y-47058411D01*
X78262932Y-46788158D01*
X78320000Y-46501260D01*
X78320000Y-46208740D01*
X78262932Y-45921842D01*
X78150990Y-45651589D01*
X77988475Y-45408368D01*
X77781632Y-45201525D01*
X77607240Y-45085000D01*
X77781632Y-44968475D01*
X77988475Y-44761632D01*
X78150990Y-44518411D01*
X78262932Y-44248158D01*
X78320000Y-43961260D01*
X78320000Y-43668740D01*
X78262932Y-43381842D01*
X78150990Y-43111589D01*
X77988475Y-42868368D01*
X77781632Y-42661525D01*
X77607240Y-42545000D01*
X77781632Y-42428475D01*
X77988475Y-42221632D01*
X78150990Y-41978411D01*
X78262932Y-41708158D01*
X78320000Y-41421260D01*
X78320000Y-41128740D01*
X78262932Y-40841842D01*
X78150990Y-40571589D01*
X77988475Y-40328368D01*
X77781632Y-40121525D01*
X77607240Y-40005000D01*
X77781632Y-39888475D01*
X77988475Y-39681632D01*
X78150990Y-39438411D01*
X78262932Y-39168158D01*
X78320000Y-38881260D01*
X78320000Y-38588740D01*
X78262932Y-38301842D01*
X78150990Y-38031589D01*
X77988475Y-37788368D01*
X77781632Y-37581525D01*
X77538411Y-37419010D01*
X77268158Y-37307068D01*
X77026724Y-37259043D01*
X77301038Y-36984729D01*
X77545631Y-36618669D01*
X77714110Y-36211925D01*
X77800000Y-35780128D01*
X77800000Y-35339872D01*
X77714110Y-34908075D01*
X77545631Y-34501331D01*
X77301038Y-34135271D01*
X76989729Y-33823962D01*
X76623669Y-33579369D01*
X76216925Y-33410890D01*
X75785128Y-33325000D01*
X75344872Y-33325000D01*
X74913075Y-33410890D01*
X74506331Y-33579369D01*
X74140271Y-33823962D01*
X73828962Y-34135271D01*
X73584369Y-34501331D01*
X73415890Y-34908075D01*
X73330000Y-35339872D01*
X73330000Y-35780128D01*
X73415890Y-36211925D01*
X73455490Y-36307529D01*
X73433676Y-36289626D01*
X73301647Y-36219054D01*
X73158386Y-36175597D01*
X73046733Y-36164600D01*
X73046722Y-36164600D01*
X73009400Y-36160924D01*
X72972078Y-36164600D01*
X66187033Y-36164600D01*
X66149700Y-36160923D01*
X66112367Y-36164600D01*
X66000714Y-36175597D01*
X65857453Y-36219054D01*
X65725424Y-36289626D01*
X65712893Y-36299910D01*
X65793346Y-36105679D01*
X65885000Y-35644902D01*
X65885000Y-35175098D01*
X65793346Y-34714321D01*
X65613560Y-34280279D01*
X65352550Y-33889651D01*
X65020349Y-33557450D01*
X64629721Y-33296440D01*
X64195679Y-33116654D01*
X63734902Y-33025000D01*
X63265098Y-33025000D01*
X62804321Y-33116654D01*
X62370279Y-33296440D01*
X61979651Y-33557450D01*
X61647450Y-33889651D01*
X61386440Y-34280279D01*
X61206654Y-34714321D01*
X61115000Y-35175098D01*
X61115000Y-35644902D01*
X61206654Y-36105679D01*
X61386440Y-36539721D01*
X61647450Y-36930349D01*
X61979651Y-37262550D01*
X62095563Y-37340000D01*
X57368072Y-37340000D01*
X57368072Y-37250000D01*
X57355812Y-37125518D01*
X57319502Y-37005820D01*
X57260537Y-36895506D01*
X57181185Y-36798815D01*
X57084494Y-36719463D01*
X56974180Y-36660498D01*
X56854482Y-36624188D01*
X56730000Y-36611928D01*
X55030000Y-36611928D01*
X54905518Y-36624188D01*
X54785820Y-36660498D01*
X54675506Y-36719463D01*
X54578815Y-36798815D01*
X54499463Y-36895506D01*
X54440498Y-37005820D01*
X54404188Y-37125518D01*
X54391928Y-37250000D01*
X54391928Y-38950000D01*
X54404188Y-39074482D01*
X54440498Y-39194180D01*
X54499463Y-39304494D01*
X54578815Y-39401185D01*
X54675506Y-39480537D01*
X54785820Y-39539502D01*
X54858380Y-39561513D01*
X54726525Y-39693368D01*
X54564010Y-39936589D01*
X54452068Y-40206842D01*
X54395000Y-40493740D01*
X54395000Y-40786260D01*
X54452068Y-41073158D01*
X54564010Y-41343411D01*
X54726525Y-41586632D01*
X54933368Y-41793475D01*
X55115534Y-41915195D01*
X54998645Y-41984822D01*
X54782412Y-42179731D01*
X54608359Y-42413080D01*
X54483175Y-42675901D01*
X54438524Y-42823110D01*
X54559845Y-43053000D01*
X55753000Y-43053000D01*
X55753000Y-43033000D01*
X56007000Y-43033000D01*
X56007000Y-43053000D01*
X57200155Y-43053000D01*
X57321476Y-42823110D01*
X57276825Y-42675901D01*
X57151641Y-42413080D01*
X56977588Y-42179731D01*
X56761355Y-41984822D01*
X56644466Y-41915195D01*
X56826632Y-41793475D01*
X57033475Y-41586632D01*
X57162796Y-41393089D01*
X57204286Y-41389003D01*
X57347547Y-41345546D01*
X57479576Y-41274974D01*
X57595301Y-41180001D01*
X57619104Y-41150997D01*
X58545402Y-40224700D01*
X69696241Y-40224700D01*
X69678524Y-40283110D01*
X69799845Y-40513000D01*
X70993000Y-40513000D01*
X70993000Y-40493000D01*
X71247000Y-40493000D01*
X71247000Y-40513000D01*
X72440155Y-40513000D01*
X72561476Y-40283110D01*
X72540303Y-40213304D01*
X72682247Y-40170246D01*
X72814276Y-40099674D01*
X72930001Y-40004701D01*
X72948989Y-39981564D01*
X72993815Y-40036185D01*
X73090506Y-40115537D01*
X73200820Y-40174502D01*
X73273380Y-40196513D01*
X73141525Y-40328368D01*
X72979010Y-40571589D01*
X72867068Y-40841842D01*
X72810000Y-41128740D01*
X72810000Y-41150000D01*
X72514014Y-41150000D01*
X72516825Y-41144099D01*
X72561476Y-40996890D01*
X72440155Y-40767000D01*
X71247000Y-40767000D01*
X71247000Y-40787000D01*
X70993000Y-40787000D01*
X70993000Y-40767000D01*
X69799845Y-40767000D01*
X69678524Y-40996890D01*
X69723175Y-41144099D01*
X69725986Y-41150000D01*
X69093802Y-41150000D01*
X68744003Y-40800202D01*
X68720201Y-40771199D01*
X68604476Y-40676226D01*
X68472447Y-40605654D01*
X68329186Y-40562197D01*
X68217533Y-40551200D01*
X68217522Y-40551200D01*
X68180200Y-40547524D01*
X68142878Y-40551200D01*
X60491822Y-40551200D01*
X60454499Y-40547524D01*
X60417176Y-40551200D01*
X60417167Y-40551200D01*
X60305514Y-40562197D01*
X60162253Y-40605654D01*
X60030223Y-40676226D01*
X59959005Y-40734674D01*
X59914499Y-40771199D01*
X59890701Y-40800197D01*
X57263627Y-43427272D01*
X57200155Y-43307000D01*
X56007000Y-43307000D01*
X56007000Y-43327000D01*
X55753000Y-43327000D01*
X55753000Y-43307000D01*
X54559845Y-43307000D01*
X54438524Y-43536890D01*
X54483175Y-43684099D01*
X54531045Y-43784600D01*
X51952212Y-43784600D01*
X50709614Y-42542003D01*
X50685811Y-42512999D01*
X50570086Y-42418026D01*
X50456072Y-42357083D01*
X50456072Y-40122000D01*
X50439008Y-39948746D01*
X50388472Y-39782150D01*
X50306405Y-39628614D01*
X50195962Y-39494038D01*
X50061386Y-39383595D01*
X49907850Y-39301528D01*
X49741254Y-39250992D01*
X49568000Y-39233928D01*
X49068000Y-39233928D01*
X48894746Y-39250992D01*
X48728150Y-39301528D01*
X48574614Y-39383595D01*
X48440038Y-39494038D01*
X48329595Y-39628614D01*
X48247528Y-39782150D01*
X48196992Y-39948746D01*
X48179928Y-40122000D01*
X48179928Y-42293000D01*
X45724333Y-42293000D01*
X45687000Y-42289323D01*
X45649667Y-42293000D01*
X45538014Y-42303997D01*
X45394753Y-42347454D01*
X45262724Y-42418026D01*
X45146999Y-42512999D01*
X45123201Y-42541998D01*
X44456998Y-43208201D01*
X44428000Y-43231999D01*
X44414582Y-43248349D01*
X44380171Y-43266742D01*
X44343000Y-43297247D01*
X44305829Y-43266742D01*
X44169582Y-43193916D01*
X44021745Y-43149071D01*
X43868000Y-43133928D01*
X43568000Y-43133928D01*
X43414255Y-43149071D01*
X43266418Y-43193916D01*
X43130171Y-43266742D01*
X43010749Y-43364749D01*
X42912742Y-43484171D01*
X42839916Y-43620418D01*
X42795071Y-43768255D01*
X42779928Y-43922000D01*
X42779928Y-45322000D01*
X42795071Y-45475745D01*
X42839916Y-45623582D01*
X42912742Y-45759829D01*
X42968001Y-45827162D01*
X42968001Y-46991494D01*
X42938472Y-46894150D01*
X42856405Y-46740614D01*
X42745962Y-46606038D01*
X42611386Y-46495595D01*
X42457850Y-46413528D01*
X42291254Y-46362992D01*
X42118000Y-46345928D01*
X41618000Y-46345928D01*
X41444746Y-46362992D01*
X41278150Y-46413528D01*
X41124614Y-46495595D01*
X40990038Y-46606038D01*
X40879595Y-46740614D01*
X40797528Y-46894150D01*
X40746992Y-47060746D01*
X40729928Y-47234000D01*
X40729928Y-49534000D01*
X40746992Y-49707254D01*
X40797528Y-49873850D01*
X40879595Y-50027386D01*
X40990038Y-50161962D01*
X41124614Y-50272405D01*
X41278150Y-50354472D01*
X41444746Y-50405008D01*
X41618000Y-50422072D01*
X42118000Y-50422072D01*
X42291254Y-50405008D01*
X42457850Y-50354472D01*
X42611386Y-50272405D01*
X42745962Y-50161962D01*
X42856405Y-50027386D01*
X42938472Y-49873850D01*
X42968001Y-49776506D01*
X42968001Y-50528838D01*
X42912742Y-50596171D01*
X42839916Y-50732418D01*
X42795071Y-50880255D01*
X42779928Y-51034000D01*
X42779928Y-52434000D01*
X42795071Y-52587745D01*
X42839916Y-52735582D01*
X42912742Y-52871829D01*
X42968001Y-52939162D01*
X42968001Y-54103493D01*
X42938472Y-54006150D01*
X42856405Y-53852614D01*
X42745962Y-53718038D01*
X42611386Y-53607595D01*
X42457850Y-53525528D01*
X42291254Y-53474992D01*
X42118000Y-53457928D01*
X41618000Y-53457928D01*
X41444746Y-53474992D01*
X41278150Y-53525528D01*
X41124614Y-53607595D01*
X40990038Y-53718038D01*
X40879595Y-53852614D01*
X40797528Y-54006150D01*
X40746992Y-54172746D01*
X40729928Y-54346000D01*
X40729928Y-56646000D01*
X40746992Y-56819254D01*
X40797528Y-56985850D01*
X40879595Y-57139386D01*
X40990038Y-57273962D01*
X41124614Y-57384405D01*
X41278150Y-57466472D01*
X41444746Y-57517008D01*
X41618000Y-57534072D01*
X42118000Y-57534072D01*
X42291254Y-57517008D01*
X42457850Y-57466472D01*
X42611386Y-57384405D01*
X42745962Y-57273962D01*
X42856405Y-57139386D01*
X42938472Y-56985850D01*
X42968000Y-56888507D01*
X42968000Y-57640838D01*
X42912742Y-57708171D01*
X42839916Y-57844418D01*
X42795071Y-57992255D01*
X42779928Y-58146000D01*
X42779928Y-59546000D01*
X42795071Y-59699745D01*
X42839916Y-59847582D01*
X42912742Y-59983829D01*
X42968000Y-60051161D01*
X42968000Y-61215492D01*
X42938472Y-61118150D01*
X42856405Y-60964614D01*
X42745962Y-60830038D01*
X42611386Y-60719595D01*
X42457850Y-60637528D01*
X42291254Y-60586992D01*
X42118000Y-60569928D01*
X41618000Y-60569928D01*
X41444746Y-60586992D01*
X41278150Y-60637528D01*
X41124614Y-60719595D01*
X40990038Y-60830038D01*
X40879595Y-60964614D01*
X40797528Y-61118150D01*
X40746992Y-61284746D01*
X40729928Y-61458000D01*
X40729928Y-63758000D01*
X40746992Y-63931254D01*
X40797528Y-64097850D01*
X40879595Y-64251386D01*
X40990038Y-64385962D01*
X41124614Y-64496405D01*
X41278150Y-64578472D01*
X41444746Y-64629008D01*
X41618000Y-64646072D01*
X42118000Y-64646072D01*
X42291254Y-64629008D01*
X42457850Y-64578472D01*
X42611386Y-64496405D01*
X42745962Y-64385962D01*
X42856405Y-64251386D01*
X42938472Y-64097850D01*
X42968000Y-64000508D01*
X42968000Y-64752839D01*
X42912742Y-64820171D01*
X42839916Y-64956418D01*
X42795071Y-65104255D01*
X42779928Y-65258000D01*
X42779928Y-66658000D01*
X42795071Y-66811745D01*
X42839916Y-66959582D01*
X42912742Y-67095829D01*
X43010749Y-67215251D01*
X43130171Y-67313258D01*
X43266418Y-67386084D01*
X43414255Y-67430929D01*
X43568000Y-67446072D01*
X43868000Y-67446072D01*
X44021745Y-67430929D01*
X44169582Y-67386084D01*
X44305829Y-67313258D01*
X44343000Y-67282753D01*
X44380171Y-67313258D01*
X44516418Y-67386084D01*
X44664255Y-67430929D01*
X44818000Y-67446072D01*
X45118000Y-67446072D01*
X45271745Y-67430929D01*
X45419582Y-67386084D01*
X45555829Y-67313258D01*
X45593000Y-67282753D01*
X45630171Y-67313258D01*
X45766418Y-67386084D01*
X45914255Y-67430929D01*
X46068000Y-67446072D01*
X46368000Y-67446072D01*
X46521745Y-67430929D01*
X46669582Y-67386084D01*
X46791825Y-67320744D01*
X46813506Y-67338537D01*
X46923820Y-67397502D01*
X47043518Y-67433812D01*
X47168000Y-67446072D01*
X47182250Y-67443000D01*
X47341000Y-67284250D01*
X47341000Y-66085000D01*
X47595000Y-66085000D01*
X47595000Y-67284250D01*
X47753750Y-67443000D01*
X47768000Y-67446072D01*
X47892482Y-67433812D01*
X48012180Y-67397502D01*
X48122494Y-67338537D01*
X48219185Y-67259185D01*
X48298537Y-67162494D01*
X48357502Y-67052180D01*
X48393812Y-66932482D01*
X48406072Y-66808000D01*
X48403000Y-66243750D01*
X48244250Y-66085000D01*
X47595000Y-66085000D01*
X47341000Y-66085000D01*
X47321000Y-66085000D01*
X47321000Y-65831000D01*
X47341000Y-65831000D01*
X47341000Y-64631750D01*
X47595000Y-64631750D01*
X47595000Y-65831000D01*
X48244250Y-65831000D01*
X48403000Y-65672250D01*
X48406072Y-65108000D01*
X48393812Y-64983518D01*
X48357502Y-64863820D01*
X48298537Y-64753506D01*
X48219185Y-64656815D01*
X48122494Y-64577463D01*
X48012180Y-64518498D01*
X47892482Y-64482188D01*
X47768000Y-64469928D01*
X47753750Y-64473000D01*
X47595000Y-64631750D01*
X47341000Y-64631750D01*
X47182250Y-64473000D01*
X47168000Y-64469928D01*
X47043518Y-64482188D01*
X46988000Y-64499029D01*
X46988000Y-61458000D01*
X48179928Y-61458000D01*
X48179928Y-63758000D01*
X48196992Y-63931254D01*
X48247528Y-64097850D01*
X48329595Y-64251386D01*
X48440038Y-64385962D01*
X48574614Y-64496405D01*
X48728150Y-64578472D01*
X48894746Y-64629008D01*
X49068000Y-64646072D01*
X49568000Y-64646072D01*
X49741254Y-64629008D01*
X49907850Y-64578472D01*
X50061386Y-64496405D01*
X50195962Y-64385962D01*
X50306405Y-64251386D01*
X50388472Y-64097850D01*
X50439008Y-63931254D01*
X50456072Y-63758000D01*
X50456072Y-61458000D01*
X50439008Y-61284746D01*
X50388472Y-61118150D01*
X50306405Y-60964614D01*
X50195962Y-60830038D01*
X50061386Y-60719595D01*
X49907850Y-60637528D01*
X49741254Y-60586992D01*
X49568000Y-60569928D01*
X49068000Y-60569928D01*
X48894746Y-60586992D01*
X48728150Y-60637528D01*
X48574614Y-60719595D01*
X48440038Y-60830038D01*
X48329595Y-60964614D01*
X48247528Y-61118150D01*
X48196992Y-61284746D01*
X48179928Y-61458000D01*
X46988000Y-61458000D01*
X46988000Y-60304971D01*
X47043518Y-60321812D01*
X47168000Y-60334072D01*
X47182250Y-60331000D01*
X47341000Y-60172250D01*
X47341000Y-58973000D01*
X47595000Y-58973000D01*
X47595000Y-60172250D01*
X47753750Y-60331000D01*
X47768000Y-60334072D01*
X47892482Y-60321812D01*
X48012180Y-60285502D01*
X48122494Y-60226537D01*
X48219185Y-60147185D01*
X48298537Y-60050494D01*
X48357502Y-59940180D01*
X48393812Y-59820482D01*
X48406072Y-59696000D01*
X48403000Y-59131750D01*
X48244250Y-58973000D01*
X47595000Y-58973000D01*
X47341000Y-58973000D01*
X47321000Y-58973000D01*
X47321000Y-58719000D01*
X47341000Y-58719000D01*
X47341000Y-57519750D01*
X47595000Y-57519750D01*
X47595000Y-58719000D01*
X48244250Y-58719000D01*
X48403000Y-58560250D01*
X48406072Y-57996000D01*
X48393812Y-57871518D01*
X48357502Y-57751820D01*
X48298537Y-57641506D01*
X48219185Y-57544815D01*
X48122494Y-57465463D01*
X48012180Y-57406498D01*
X47892482Y-57370188D01*
X47768000Y-57357928D01*
X47753750Y-57361000D01*
X47595000Y-57519750D01*
X47341000Y-57519750D01*
X47182250Y-57361000D01*
X47168000Y-57357928D01*
X47043518Y-57370188D01*
X46988000Y-57387029D01*
X46988000Y-54346000D01*
X48179928Y-54346000D01*
X48179928Y-56646000D01*
X48196992Y-56819254D01*
X48247528Y-56985850D01*
X48329595Y-57139386D01*
X48440038Y-57273962D01*
X48574614Y-57384405D01*
X48728150Y-57466472D01*
X48894746Y-57517008D01*
X49068000Y-57534072D01*
X49568000Y-57534072D01*
X49741254Y-57517008D01*
X49907850Y-57466472D01*
X50061386Y-57384405D01*
X50195962Y-57273962D01*
X50306405Y-57139386D01*
X50388472Y-56985850D01*
X50439008Y-56819254D01*
X50456072Y-56646000D01*
X50456072Y-54346000D01*
X50439008Y-54172746D01*
X50388472Y-54006150D01*
X50306405Y-53852614D01*
X50195962Y-53718038D01*
X50061386Y-53607595D01*
X49907850Y-53525528D01*
X49741254Y-53474992D01*
X49568000Y-53457928D01*
X49068000Y-53457928D01*
X48894746Y-53474992D01*
X48728150Y-53525528D01*
X48574614Y-53607595D01*
X48440038Y-53718038D01*
X48329595Y-53852614D01*
X48247528Y-54006150D01*
X48196992Y-54172746D01*
X48179928Y-54346000D01*
X46988000Y-54346000D01*
X46988000Y-53192971D01*
X47043518Y-53209812D01*
X47168000Y-53222072D01*
X47182250Y-53219000D01*
X47341000Y-53060250D01*
X47341000Y-51861000D01*
X47595000Y-51861000D01*
X47595000Y-53060250D01*
X47753750Y-53219000D01*
X47768000Y-53222072D01*
X47892482Y-53209812D01*
X48012180Y-53173502D01*
X48122494Y-53114537D01*
X48219185Y-53035185D01*
X48298537Y-52938494D01*
X48357502Y-52828180D01*
X48393812Y-52708482D01*
X48406072Y-52584000D01*
X48403000Y-52019750D01*
X48244250Y-51861000D01*
X47595000Y-51861000D01*
X47341000Y-51861000D01*
X47321000Y-51861000D01*
X47321000Y-51607000D01*
X47341000Y-51607000D01*
X47341000Y-51587000D01*
X47595000Y-51587000D01*
X47595000Y-51607000D01*
X48244250Y-51607000D01*
X48403000Y-51448250D01*
X48406072Y-50884000D01*
X48404596Y-50869010D01*
X52637846Y-50869010D01*
X52675168Y-50872686D01*
X52712490Y-50869010D01*
X52712501Y-50869010D01*
X52824154Y-50858013D01*
X52967415Y-50814556D01*
X53099444Y-50743984D01*
X53215169Y-50649011D01*
X53238972Y-50620007D01*
X54696814Y-49162166D01*
X54726525Y-49206632D01*
X54933368Y-49413475D01*
X55107760Y-49530000D01*
X54933368Y-49646525D01*
X54726525Y-49853368D01*
X54564010Y-50096589D01*
X54452068Y-50366842D01*
X54395000Y-50653740D01*
X54395000Y-50946260D01*
X54452068Y-51233158D01*
X54564010Y-51503411D01*
X54726525Y-51746632D01*
X54933368Y-51953475D01*
X55107760Y-52070000D01*
X54933368Y-52186525D01*
X54726525Y-52393368D01*
X54564010Y-52636589D01*
X54452068Y-52906842D01*
X54395000Y-53193740D01*
X54395000Y-53486260D01*
X54452068Y-53773158D01*
X54564010Y-54043411D01*
X54726525Y-54286632D01*
X54933368Y-54493475D01*
X55107760Y-54610000D01*
X54933368Y-54726525D01*
X54726525Y-54933368D01*
X54564010Y-55176589D01*
X54452068Y-55446842D01*
X54395000Y-55733740D01*
X54395000Y-56026260D01*
X54452068Y-56313158D01*
X54564010Y-56583411D01*
X54726525Y-56826632D01*
X54933368Y-57033475D01*
X55107760Y-57150000D01*
X54933368Y-57266525D01*
X54726525Y-57473368D01*
X54564010Y-57716589D01*
X54452068Y-57986842D01*
X54395000Y-58273740D01*
X54395000Y-58566260D01*
X54452068Y-58853158D01*
X54564010Y-59123411D01*
X54726525Y-59366632D01*
X54933368Y-59573475D01*
X55107760Y-59690000D01*
X54933368Y-59806525D01*
X54726525Y-60013368D01*
X54564010Y-60256589D01*
X54452068Y-60526842D01*
X54395000Y-60813740D01*
X54395000Y-61106260D01*
X54452068Y-61393158D01*
X54564010Y-61663411D01*
X54726525Y-61906632D01*
X54933368Y-62113475D01*
X55107760Y-62230000D01*
X54933368Y-62346525D01*
X54726525Y-62553368D01*
X54564010Y-62796589D01*
X54452068Y-63066842D01*
X54395000Y-63353740D01*
X54395000Y-63646260D01*
X54452068Y-63933158D01*
X54564010Y-64203411D01*
X54726525Y-64446632D01*
X54933368Y-64653475D01*
X55107760Y-64770000D01*
X54933368Y-64886525D01*
X54726525Y-65093368D01*
X54564010Y-65336589D01*
X54452068Y-65606842D01*
X54395000Y-65893740D01*
X54395000Y-66186260D01*
X54452068Y-66473158D01*
X54564010Y-66743411D01*
X54726525Y-66986632D01*
X54933368Y-67193475D01*
X55176589Y-67355990D01*
X55446842Y-67467932D01*
X55733740Y-67525000D01*
X56026260Y-67525000D01*
X56313158Y-67467932D01*
X56583411Y-67355990D01*
X56826632Y-67193475D01*
X57033475Y-66986632D01*
X57195990Y-66743411D01*
X57307932Y-66473158D01*
X57365000Y-66186260D01*
X57365000Y-65893740D01*
X57307932Y-65606842D01*
X57195990Y-65336589D01*
X57033475Y-65093368D01*
X56826632Y-64886525D01*
X56652240Y-64770000D01*
X56826632Y-64653475D01*
X56980303Y-64499804D01*
X57685401Y-65204903D01*
X57709199Y-65233901D01*
X57738197Y-65257699D01*
X57824924Y-65328874D01*
X57956953Y-65399446D01*
X58100214Y-65442903D01*
X58249200Y-65457577D01*
X58286533Y-65453900D01*
X69755418Y-65453900D01*
X69692068Y-65606842D01*
X69635000Y-65893740D01*
X69635000Y-66186260D01*
X69692068Y-66473158D01*
X69804010Y-66743411D01*
X69966525Y-66986632D01*
X70173368Y-67193475D01*
X70416589Y-67355990D01*
X70686842Y-67467932D01*
X70973740Y-67525000D01*
X71266260Y-67525000D01*
X71553158Y-67467932D01*
X71823411Y-67355990D01*
X72066632Y-67193475D01*
X72273475Y-66986632D01*
X72435990Y-66743411D01*
X72547932Y-66473158D01*
X72605000Y-66186260D01*
X72605000Y-65893740D01*
X72547932Y-65606842D01*
X72484582Y-65453900D01*
X72821078Y-65453900D01*
X72858400Y-65457576D01*
X72895722Y-65453900D01*
X72895733Y-65453900D01*
X73007386Y-65442903D01*
X73150647Y-65399446D01*
X73282676Y-65328874D01*
X73381284Y-65247949D01*
X73415890Y-65421925D01*
X73584369Y-65828669D01*
X73828962Y-66194729D01*
X74140271Y-66506038D01*
X74506331Y-66750631D01*
X74913075Y-66919110D01*
X75344872Y-67005000D01*
X75785128Y-67005000D01*
X76216925Y-66919110D01*
X76623669Y-66750631D01*
X76989729Y-66506038D01*
X77301038Y-66194729D01*
X77545631Y-65828669D01*
X77714110Y-65421925D01*
X77800000Y-64990128D01*
X77800000Y-64549872D01*
X77714110Y-64118075D01*
X77545631Y-63711331D01*
X77301038Y-63345271D01*
X76989729Y-63033962D01*
X76962002Y-63015435D01*
X76962002Y-62915815D01*
X77191891Y-63036481D01*
X77466252Y-62939157D01*
X77716355Y-62790178D01*
X77932588Y-62595269D01*
X78106641Y-62361920D01*
X78231825Y-62099099D01*
X78276476Y-61951890D01*
X78155155Y-61722000D01*
X76962000Y-61722000D01*
X76962000Y-61742000D01*
X76708000Y-61742000D01*
X76708000Y-61722000D01*
X76688000Y-61722000D01*
X76688000Y-61468000D01*
X76708000Y-61468000D01*
X76708000Y-61448000D01*
X76962000Y-61448000D01*
X76962000Y-61468000D01*
X78155155Y-61468000D01*
X78276476Y-61238110D01*
X78231825Y-61090901D01*
X78106641Y-60828080D01*
X77932588Y-60594731D01*
X77716355Y-60399822D01*
X77599466Y-60330195D01*
X77781632Y-60208475D01*
X77988475Y-60001632D01*
X78150990Y-59758411D01*
X78262932Y-59488158D01*
X78320000Y-59201260D01*
X78320000Y-58908740D01*
X78276209Y-58688592D01*
X78715000Y-58249801D01*
X78715000Y-67920000D01*
X30124000Y-67920000D01*
X30124000Y-64585100D01*
X30268746Y-64629008D01*
X30442000Y-64646072D01*
X30942000Y-64646072D01*
X31115254Y-64629008D01*
X31281850Y-64578472D01*
X31435386Y-64496405D01*
X31569962Y-64385962D01*
X31680405Y-64251386D01*
X31762472Y-64097850D01*
X31792001Y-64000506D01*
X31792001Y-64752838D01*
X31736742Y-64820171D01*
X31663916Y-64956418D01*
X31619071Y-65104255D01*
X31603928Y-65258000D01*
X31603928Y-66658000D01*
X31619071Y-66811745D01*
X31663916Y-66959582D01*
X31736742Y-67095829D01*
X31834749Y-67215251D01*
X31954171Y-67313258D01*
X32090418Y-67386084D01*
X32238255Y-67430929D01*
X32392000Y-67446072D01*
X32692000Y-67446072D01*
X32845745Y-67430929D01*
X32993582Y-67386084D01*
X33129829Y-67313258D01*
X33167000Y-67282753D01*
X33204171Y-67313258D01*
X33340418Y-67386084D01*
X33488255Y-67430929D01*
X33642000Y-67446072D01*
X33942000Y-67446072D01*
X34095745Y-67430929D01*
X34243582Y-67386084D01*
X34379829Y-67313258D01*
X34417000Y-67282753D01*
X34454171Y-67313258D01*
X34590418Y-67386084D01*
X34738255Y-67430929D01*
X34892000Y-67446072D01*
X35192000Y-67446072D01*
X35345745Y-67430929D01*
X35493582Y-67386084D01*
X35615825Y-67320744D01*
X35637506Y-67338537D01*
X35747820Y-67397502D01*
X35867518Y-67433812D01*
X35992000Y-67446072D01*
X36006250Y-67443000D01*
X36165000Y-67284250D01*
X36165000Y-66085000D01*
X36419000Y-66085000D01*
X36419000Y-67284250D01*
X36577750Y-67443000D01*
X36592000Y-67446072D01*
X36716482Y-67433812D01*
X36836180Y-67397502D01*
X36946494Y-67338537D01*
X37043185Y-67259185D01*
X37122537Y-67162494D01*
X37181502Y-67052180D01*
X37217812Y-66932482D01*
X37230072Y-66808000D01*
X37227000Y-66243750D01*
X37068250Y-66085000D01*
X36419000Y-66085000D01*
X36165000Y-66085000D01*
X36145000Y-66085000D01*
X36145000Y-65831000D01*
X36165000Y-65831000D01*
X36165000Y-64631750D01*
X36419000Y-64631750D01*
X36419000Y-65831000D01*
X37068250Y-65831000D01*
X37227000Y-65672250D01*
X37230072Y-65108000D01*
X37217812Y-64983518D01*
X37181502Y-64863820D01*
X37122537Y-64753506D01*
X37043185Y-64656815D01*
X36946494Y-64577463D01*
X36836180Y-64518498D01*
X36716482Y-64482188D01*
X36592000Y-64469928D01*
X36577750Y-64473000D01*
X36419000Y-64631750D01*
X36165000Y-64631750D01*
X36006250Y-64473000D01*
X35992000Y-64469928D01*
X35867518Y-64482188D01*
X35812000Y-64499029D01*
X35812000Y-61458000D01*
X37003928Y-61458000D01*
X37003928Y-63758000D01*
X37020992Y-63931254D01*
X37071528Y-64097850D01*
X37153595Y-64251386D01*
X37264038Y-64385962D01*
X37398614Y-64496405D01*
X37552150Y-64578472D01*
X37718746Y-64629008D01*
X37892000Y-64646072D01*
X38392000Y-64646072D01*
X38565254Y-64629008D01*
X38731850Y-64578472D01*
X38885386Y-64496405D01*
X39019962Y-64385962D01*
X39130405Y-64251386D01*
X39212472Y-64097850D01*
X39263008Y-63931254D01*
X39280072Y-63758000D01*
X39280072Y-61458000D01*
X39263008Y-61284746D01*
X39212472Y-61118150D01*
X39130405Y-60964614D01*
X39019962Y-60830038D01*
X38885386Y-60719595D01*
X38731850Y-60637528D01*
X38565254Y-60586992D01*
X38392000Y-60569928D01*
X37892000Y-60569928D01*
X37718746Y-60586992D01*
X37552150Y-60637528D01*
X37398614Y-60719595D01*
X37264038Y-60830038D01*
X37153595Y-60964614D01*
X37071528Y-61118150D01*
X37020992Y-61284746D01*
X37003928Y-61458000D01*
X35812000Y-61458000D01*
X35812000Y-60304971D01*
X35867518Y-60321812D01*
X35992000Y-60334072D01*
X36006250Y-60331000D01*
X36165000Y-60172250D01*
X36165000Y-58973000D01*
X36419000Y-58973000D01*
X36419000Y-60172250D01*
X36577750Y-60331000D01*
X36592000Y-60334072D01*
X36716482Y-60321812D01*
X36836180Y-60285502D01*
X36946494Y-60226537D01*
X37043185Y-60147185D01*
X37122537Y-60050494D01*
X37181502Y-59940180D01*
X37217812Y-59820482D01*
X37230072Y-59696000D01*
X37227000Y-59131750D01*
X37068250Y-58973000D01*
X36419000Y-58973000D01*
X36165000Y-58973000D01*
X36145000Y-58973000D01*
X36145000Y-58719000D01*
X36165000Y-58719000D01*
X36165000Y-57519750D01*
X36419000Y-57519750D01*
X36419000Y-58719000D01*
X37068250Y-58719000D01*
X37227000Y-58560250D01*
X37230072Y-57996000D01*
X37217812Y-57871518D01*
X37181502Y-57751820D01*
X37122537Y-57641506D01*
X37043185Y-57544815D01*
X36946494Y-57465463D01*
X36836180Y-57406498D01*
X36716482Y-57370188D01*
X36592000Y-57357928D01*
X36577750Y-57361000D01*
X36419000Y-57519750D01*
X36165000Y-57519750D01*
X36006250Y-57361000D01*
X35992000Y-57357928D01*
X35867518Y-57370188D01*
X35812000Y-57387029D01*
X35812000Y-54346000D01*
X37003928Y-54346000D01*
X37003928Y-56646000D01*
X37020992Y-56819254D01*
X37071528Y-56985850D01*
X37153595Y-57139386D01*
X37264038Y-57273962D01*
X37398614Y-57384405D01*
X37552150Y-57466472D01*
X37718746Y-57517008D01*
X37892000Y-57534072D01*
X38392000Y-57534072D01*
X38565254Y-57517008D01*
X38731850Y-57466472D01*
X38885386Y-57384405D01*
X39019962Y-57273962D01*
X39130405Y-57139386D01*
X39212472Y-56985850D01*
X39263008Y-56819254D01*
X39280072Y-56646000D01*
X39280072Y-54346000D01*
X39263008Y-54172746D01*
X39212472Y-54006150D01*
X39130405Y-53852614D01*
X39019962Y-53718038D01*
X38885386Y-53607595D01*
X38731850Y-53525528D01*
X38565254Y-53474992D01*
X38392000Y-53457928D01*
X37892000Y-53457928D01*
X37718746Y-53474992D01*
X37552150Y-53525528D01*
X37398614Y-53607595D01*
X37264038Y-53718038D01*
X37153595Y-53852614D01*
X37071528Y-54006150D01*
X37020992Y-54172746D01*
X37003928Y-54346000D01*
X35812000Y-54346000D01*
X35812000Y-53192971D01*
X35867518Y-53209812D01*
X35992000Y-53222072D01*
X36006250Y-53219000D01*
X36165000Y-53060250D01*
X36165000Y-51861000D01*
X36419000Y-51861000D01*
X36419000Y-53060250D01*
X36577750Y-53219000D01*
X36592000Y-53222072D01*
X36716482Y-53209812D01*
X36836180Y-53173502D01*
X36946494Y-53114537D01*
X37043185Y-53035185D01*
X37122537Y-52938494D01*
X37181502Y-52828180D01*
X37217812Y-52708482D01*
X37230072Y-52584000D01*
X37227000Y-52019750D01*
X37068250Y-51861000D01*
X36419000Y-51861000D01*
X36165000Y-51861000D01*
X36145000Y-51861000D01*
X36145000Y-51607000D01*
X36165000Y-51607000D01*
X36165000Y-50407750D01*
X36419000Y-50407750D01*
X36419000Y-51607000D01*
X37068250Y-51607000D01*
X37227000Y-51448250D01*
X37230072Y-50884000D01*
X37217812Y-50759518D01*
X37181502Y-50639820D01*
X37122537Y-50529506D01*
X37043185Y-50432815D01*
X36946494Y-50353463D01*
X36836180Y-50294498D01*
X36716482Y-50258188D01*
X36592000Y-50245928D01*
X36577750Y-50249000D01*
X36419000Y-50407750D01*
X36165000Y-50407750D01*
X36006250Y-50249000D01*
X35992000Y-50245928D01*
X35867518Y-50258188D01*
X35812000Y-50275029D01*
X35812000Y-47234000D01*
X37003928Y-47234000D01*
X37003928Y-49534000D01*
X37020992Y-49707254D01*
X37071528Y-49873850D01*
X37153595Y-50027386D01*
X37264038Y-50161962D01*
X37398614Y-50272405D01*
X37552150Y-50354472D01*
X37718746Y-50405008D01*
X37892000Y-50422072D01*
X38392000Y-50422072D01*
X38565254Y-50405008D01*
X38731850Y-50354472D01*
X38885386Y-50272405D01*
X39019962Y-50161962D01*
X39130405Y-50027386D01*
X39212472Y-49873850D01*
X39263008Y-49707254D01*
X39280072Y-49534000D01*
X39280072Y-47234000D01*
X39263008Y-47060746D01*
X39212472Y-46894150D01*
X39130405Y-46740614D01*
X39019962Y-46606038D01*
X38885386Y-46495595D01*
X38731850Y-46413528D01*
X38565254Y-46362992D01*
X38392000Y-46345928D01*
X37892000Y-46345928D01*
X37718746Y-46362992D01*
X37552150Y-46413528D01*
X37398614Y-46495595D01*
X37264038Y-46606038D01*
X37153595Y-46740614D01*
X37071528Y-46894150D01*
X37020992Y-47060746D01*
X37003928Y-47234000D01*
X35812000Y-47234000D01*
X35812000Y-46080971D01*
X35867518Y-46097812D01*
X35992000Y-46110072D01*
X36006250Y-46107000D01*
X36165000Y-45948250D01*
X36165000Y-44749000D01*
X36419000Y-44749000D01*
X36419000Y-45948250D01*
X36577750Y-46107000D01*
X36592000Y-46110072D01*
X36716482Y-46097812D01*
X36836180Y-46061502D01*
X36946494Y-46002537D01*
X37043185Y-45923185D01*
X37122537Y-45826494D01*
X37181502Y-45716180D01*
X37217812Y-45596482D01*
X37230072Y-45472000D01*
X37227000Y-44907750D01*
X37068250Y-44749000D01*
X36419000Y-44749000D01*
X36165000Y-44749000D01*
X36145000Y-44749000D01*
X36145000Y-44495000D01*
X36165000Y-44495000D01*
X36165000Y-43295750D01*
X36419000Y-43295750D01*
X36419000Y-44495000D01*
X37068250Y-44495000D01*
X37227000Y-44336250D01*
X37230072Y-43772000D01*
X37217812Y-43647518D01*
X37181502Y-43527820D01*
X37122537Y-43417506D01*
X37043185Y-43320815D01*
X36946494Y-43241463D01*
X36836180Y-43182498D01*
X36716482Y-43146188D01*
X36592000Y-43133928D01*
X36577750Y-43137000D01*
X36419000Y-43295750D01*
X36165000Y-43295750D01*
X36006250Y-43137000D01*
X35992000Y-43133928D01*
X35867518Y-43146188D01*
X35747820Y-43182498D01*
X35637506Y-43241463D01*
X35615825Y-43259256D01*
X35493582Y-43193916D01*
X35345745Y-43149071D01*
X35192000Y-43133928D01*
X34892000Y-43133928D01*
X34738255Y-43149071D01*
X34590418Y-43193916D01*
X34454171Y-43266742D01*
X34417000Y-43297247D01*
X34379829Y-43266742D01*
X34243582Y-43193916D01*
X34095745Y-43149071D01*
X33942000Y-43133928D01*
X33642000Y-43133928D01*
X33488255Y-43149071D01*
X33340418Y-43193916D01*
X33204171Y-43266742D01*
X33167000Y-43297247D01*
X33129829Y-43266742D01*
X32993582Y-43193916D01*
X32845745Y-43149071D01*
X32692000Y-43133928D01*
X32392000Y-43133928D01*
X32238255Y-43149071D01*
X32090418Y-43193916D01*
X31954171Y-43266742D01*
X31834749Y-43364749D01*
X31736742Y-43484171D01*
X31663916Y-43620418D01*
X31619071Y-43768255D01*
X31603928Y-43922000D01*
X31603928Y-45322000D01*
X31619071Y-45475745D01*
X31663916Y-45623582D01*
X31736742Y-45759829D01*
X31792000Y-45827161D01*
X31792000Y-46991492D01*
X31762472Y-46894150D01*
X31680405Y-46740614D01*
X31569962Y-46606038D01*
X31435386Y-46495595D01*
X31281850Y-46413528D01*
X31115254Y-46362992D01*
X30942000Y-46345928D01*
X30442000Y-46345928D01*
X30268746Y-46362992D01*
X30124000Y-46406900D01*
X30124000Y-43249100D01*
X30268746Y-43293008D01*
X30442000Y-43310072D01*
X30942000Y-43310072D01*
X31115254Y-43293008D01*
X31281850Y-43242472D01*
X31435386Y-43160405D01*
X31569962Y-43049962D01*
X31680405Y-42915386D01*
X31762472Y-42761850D01*
X31813008Y-42595254D01*
X31830072Y-42422000D01*
X31830072Y-40122000D01*
X37003928Y-40122000D01*
X37003928Y-42422000D01*
X37020992Y-42595254D01*
X37071528Y-42761850D01*
X37153595Y-42915386D01*
X37264038Y-43049962D01*
X37398614Y-43160405D01*
X37552150Y-43242472D01*
X37718746Y-43293008D01*
X37892000Y-43310072D01*
X38392000Y-43310072D01*
X38565254Y-43293008D01*
X38731850Y-43242472D01*
X38885386Y-43160405D01*
X39019962Y-43049962D01*
X39130405Y-42915386D01*
X39212472Y-42761850D01*
X39263008Y-42595254D01*
X39280072Y-42422000D01*
X39280072Y-40122000D01*
X40729928Y-40122000D01*
X40729928Y-42422000D01*
X40746992Y-42595254D01*
X40797528Y-42761850D01*
X40879595Y-42915386D01*
X40990038Y-43049962D01*
X41124614Y-43160405D01*
X41278150Y-43242472D01*
X41444746Y-43293008D01*
X41618000Y-43310072D01*
X42118000Y-43310072D01*
X42291254Y-43293008D01*
X42457850Y-43242472D01*
X42611386Y-43160405D01*
X42745962Y-43049962D01*
X42856405Y-42915386D01*
X42938472Y-42761850D01*
X42989008Y-42595254D01*
X43006072Y-42422000D01*
X43006072Y-40122000D01*
X42989008Y-39948746D01*
X42938472Y-39782150D01*
X42856405Y-39628614D01*
X42745962Y-39494038D01*
X42611386Y-39383595D01*
X42457850Y-39301528D01*
X42291254Y-39250992D01*
X42118000Y-39233928D01*
X41618000Y-39233928D01*
X41444746Y-39250992D01*
X41278150Y-39301528D01*
X41124614Y-39383595D01*
X40990038Y-39494038D01*
X40879595Y-39628614D01*
X40797528Y-39782150D01*
X40746992Y-39948746D01*
X40729928Y-40122000D01*
X39280072Y-40122000D01*
X39263008Y-39948746D01*
X39212472Y-39782150D01*
X39130405Y-39628614D01*
X39019962Y-39494038D01*
X38885386Y-39383595D01*
X38731850Y-39301528D01*
X38565254Y-39250992D01*
X38392000Y-39233928D01*
X37892000Y-39233928D01*
X37718746Y-39250992D01*
X37552150Y-39301528D01*
X37398614Y-39383595D01*
X37264038Y-39494038D01*
X37153595Y-39628614D01*
X37071528Y-39782150D01*
X37020992Y-39948746D01*
X37003928Y-40122000D01*
X31830072Y-40122000D01*
X31813008Y-39948746D01*
X31762472Y-39782150D01*
X31680405Y-39628614D01*
X31569962Y-39494038D01*
X31435386Y-39383595D01*
X31281850Y-39301528D01*
X31115254Y-39250992D01*
X30942000Y-39233928D01*
X30442000Y-39233928D01*
X30268746Y-39250992D01*
X30124000Y-39294900D01*
X30124000Y-35339872D01*
X31293000Y-35339872D01*
X31293000Y-35780128D01*
X31378890Y-36211925D01*
X31547369Y-36618669D01*
X31791962Y-36984729D01*
X32103271Y-37296038D01*
X32469331Y-37540631D01*
X32876075Y-37709110D01*
X33307872Y-37795000D01*
X33748128Y-37795000D01*
X34179925Y-37709110D01*
X34586669Y-37540631D01*
X34952729Y-37296038D01*
X35264038Y-36984729D01*
X35508631Y-36618669D01*
X35677110Y-36211925D01*
X35763000Y-35780128D01*
X35763000Y-35339872D01*
X35677110Y-34908075D01*
X35508631Y-34501331D01*
X35264038Y-34135271D01*
X34952729Y-33823962D01*
X34586669Y-33579369D01*
X34179925Y-33410890D01*
X33748128Y-33325000D01*
X33307872Y-33325000D01*
X32876075Y-33410890D01*
X32469331Y-33579369D01*
X32103271Y-33823962D01*
X31791962Y-34135271D01*
X31547369Y-34501331D01*
X31378890Y-34908075D01*
X31293000Y-35339872D01*
X30124000Y-35339872D01*
X30124000Y-32410000D01*
X78715001Y-32410000D01*
X78715001Y-47990499D01*
G37*
%TD.AperFunction*%
D20*
X61115000Y-61594250D02*
X61273750Y-61753000D01*
X63373000Y-61753000D01*
X63373000Y-61733000D01*
X63627000Y-61733000D01*
X63627000Y-61753000D01*
X65726250Y-61753000D01*
X65872824Y-61606426D01*
X66917501Y-62651103D01*
X66941299Y-62680101D01*
X67057024Y-62775074D01*
X67189053Y-62845646D01*
X67332314Y-62889103D01*
X67443967Y-62900100D01*
X67443976Y-62900100D01*
X67481299Y-62903776D01*
X67518622Y-62900100D01*
X69761135Y-62900100D01*
X69692068Y-63066842D01*
X69635000Y-63353740D01*
X69635000Y-63646260D01*
X69692068Y-63933158D01*
X69692375Y-63933900D01*
X65560786Y-63933900D01*
X65604494Y-63910537D01*
X65701185Y-63831185D01*
X65780537Y-63734494D01*
X65839502Y-63624180D01*
X65875812Y-63504482D01*
X65888072Y-63380000D01*
X65885000Y-62165750D01*
X65726250Y-62007000D01*
X63627000Y-62007000D01*
X63627000Y-62027000D01*
X63373000Y-62027000D01*
X63373000Y-62007000D01*
X61273750Y-62007000D01*
X61115000Y-62165750D01*
X61111928Y-63380000D01*
X61124188Y-63504482D01*
X61160498Y-63624180D01*
X61219463Y-63734494D01*
X61298815Y-63831185D01*
X61395506Y-63910537D01*
X61439214Y-63933900D01*
X58564002Y-63933900D01*
X57619104Y-62989003D01*
X57595301Y-62959999D01*
X57479576Y-62865026D01*
X57347547Y-62794454D01*
X57204286Y-62750997D01*
X57162796Y-62746911D01*
X57033475Y-62553368D01*
X56826632Y-62346525D01*
X56652240Y-62230000D01*
X56826632Y-62113475D01*
X57033475Y-61906632D01*
X57162796Y-61713089D01*
X57204286Y-61709003D01*
X57347547Y-61665546D01*
X57479576Y-61594974D01*
X57595301Y-61500001D01*
X57619104Y-61470998D01*
X58303702Y-60786400D01*
X61112956Y-60786400D01*
X61115000Y-61594250D01*
%TA.AperFunction,Conductor*%
D21*
G36*
X61115000Y-61594250D02*
G01*
X61273750Y-61753000D01*
X63373000Y-61753000D01*
X63373000Y-61733000D01*
X63627000Y-61733000D01*
X63627000Y-61753000D01*
X65726250Y-61753000D01*
X65872824Y-61606426D01*
X66917501Y-62651103D01*
X66941299Y-62680101D01*
X67057024Y-62775074D01*
X67189053Y-62845646D01*
X67332314Y-62889103D01*
X67443967Y-62900100D01*
X67443976Y-62900100D01*
X67481299Y-62903776D01*
X67518622Y-62900100D01*
X69761135Y-62900100D01*
X69692068Y-63066842D01*
X69635000Y-63353740D01*
X69635000Y-63646260D01*
X69692068Y-63933158D01*
X69692375Y-63933900D01*
X65560786Y-63933900D01*
X65604494Y-63910537D01*
X65701185Y-63831185D01*
X65780537Y-63734494D01*
X65839502Y-63624180D01*
X65875812Y-63504482D01*
X65888072Y-63380000D01*
X65885000Y-62165750D01*
X65726250Y-62007000D01*
X63627000Y-62007000D01*
X63627000Y-62027000D01*
X63373000Y-62027000D01*
X63373000Y-62007000D01*
X61273750Y-62007000D01*
X61115000Y-62165750D01*
X61111928Y-63380000D01*
X61124188Y-63504482D01*
X61160498Y-63624180D01*
X61219463Y-63734494D01*
X61298815Y-63831185D01*
X61395506Y-63910537D01*
X61439214Y-63933900D01*
X58564002Y-63933900D01*
X57619104Y-62989003D01*
X57595301Y-62959999D01*
X57479576Y-62865026D01*
X57347547Y-62794454D01*
X57204286Y-62750997D01*
X57162796Y-62746911D01*
X57033475Y-62553368D01*
X56826632Y-62346525D01*
X56652240Y-62230000D01*
X56826632Y-62113475D01*
X57033475Y-61906632D01*
X57162796Y-61713089D01*
X57204286Y-61709003D01*
X57347547Y-61665546D01*
X57479576Y-61594974D01*
X57595301Y-61500001D01*
X57619104Y-61470998D01*
X58303702Y-60786400D01*
X61112956Y-60786400D01*
X61115000Y-61594250D01*
G37*
%TD.AperFunction*%
D20*
X69692068Y-55446842D02*
X69635000Y-55733740D01*
X69635000Y-56026260D01*
X69692068Y-56313158D01*
X69766276Y-56492313D01*
X68485750Y-56495000D01*
X68327000Y-56653750D01*
X68327000Y-58753000D01*
X68347000Y-58753000D01*
X68347000Y-59007000D01*
X68327000Y-59007000D01*
X68327000Y-61106250D01*
X68485750Y-61265000D01*
X69667069Y-61267478D01*
X69689471Y-61380100D01*
X67796102Y-61380100D01*
X67681490Y-61265488D01*
X67914250Y-61265000D01*
X68073000Y-61106250D01*
X68073000Y-59007000D01*
X65973750Y-59007000D01*
X65815000Y-59165750D01*
X65814488Y-59409983D01*
X65791876Y-59391426D01*
X65659847Y-59320854D01*
X65516586Y-59277397D01*
X65404933Y-59266400D01*
X65404922Y-59266400D01*
X65367600Y-59262724D01*
X65330278Y-59266400D01*
X58026225Y-59266400D01*
X57988900Y-59262724D01*
X57951575Y-59266400D01*
X57951567Y-59266400D01*
X57839914Y-59277397D01*
X57696653Y-59320854D01*
X57564624Y-59391426D01*
X57448899Y-59486399D01*
X57425101Y-59515397D01*
X56980303Y-59960196D01*
X56826632Y-59806525D01*
X56652240Y-59690000D01*
X56826632Y-59573475D01*
X57033475Y-59366632D01*
X57158178Y-59180000D01*
X64892878Y-59180000D01*
X64930200Y-59183676D01*
X64967522Y-59180000D01*
X64967533Y-59180000D01*
X65079186Y-59169003D01*
X65222447Y-59125546D01*
X65354476Y-59054974D01*
X65470201Y-58960001D01*
X65494004Y-58930997D01*
X65822876Y-58602126D01*
X65973750Y-58753000D01*
X68073000Y-58753000D01*
X68073000Y-56653750D01*
X67922126Y-56502876D01*
X69106602Y-55318400D01*
X69745270Y-55318400D01*
X69692068Y-55446842D01*
%TA.AperFunction,Conductor*%
D21*
G36*
X69692068Y-55446842D02*
G01*
X69635000Y-55733740D01*
X69635000Y-56026260D01*
X69692068Y-56313158D01*
X69766276Y-56492313D01*
X68485750Y-56495000D01*
X68327000Y-56653750D01*
X68327000Y-58753000D01*
X68347000Y-58753000D01*
X68347000Y-59007000D01*
X68327000Y-59007000D01*
X68327000Y-61106250D01*
X68485750Y-61265000D01*
X69667069Y-61267478D01*
X69689471Y-61380100D01*
X67796102Y-61380100D01*
X67681490Y-61265488D01*
X67914250Y-61265000D01*
X68073000Y-61106250D01*
X68073000Y-59007000D01*
X65973750Y-59007000D01*
X65815000Y-59165750D01*
X65814488Y-59409983D01*
X65791876Y-59391426D01*
X65659847Y-59320854D01*
X65516586Y-59277397D01*
X65404933Y-59266400D01*
X65404922Y-59266400D01*
X65367600Y-59262724D01*
X65330278Y-59266400D01*
X58026225Y-59266400D01*
X57988900Y-59262724D01*
X57951575Y-59266400D01*
X57951567Y-59266400D01*
X57839914Y-59277397D01*
X57696653Y-59320854D01*
X57564624Y-59391426D01*
X57448899Y-59486399D01*
X57425101Y-59515397D01*
X56980303Y-59960196D01*
X56826632Y-59806525D01*
X56652240Y-59690000D01*
X56826632Y-59573475D01*
X57033475Y-59366632D01*
X57158178Y-59180000D01*
X64892878Y-59180000D01*
X64930200Y-59183676D01*
X64967522Y-59180000D01*
X64967533Y-59180000D01*
X65079186Y-59169003D01*
X65222447Y-59125546D01*
X65354476Y-59054974D01*
X65470201Y-58960001D01*
X65494004Y-58930997D01*
X65822876Y-58602126D01*
X65973750Y-58753000D01*
X68073000Y-58753000D01*
X68073000Y-56653750D01*
X67922126Y-56502876D01*
X69106602Y-55318400D01*
X69745270Y-55318400D01*
X69692068Y-55446842D01*
G37*
%TD.AperFunction*%
D20*
X63627000Y-51943000D02*
X63647000Y-51943000D01*
X63647000Y-52197000D01*
X63627000Y-52197000D01*
X63627000Y-52217000D01*
X63373000Y-52217000D01*
X63373000Y-52197000D01*
X63353000Y-52197000D01*
X63353000Y-51943000D01*
X63373000Y-51943000D01*
X63373000Y-51923000D01*
X63627000Y-51923000D01*
X63627000Y-51943000D01*
%TA.AperFunction,Conductor*%
D21*
G36*
X63627000Y-51943000D02*
G01*
X63647000Y-51943000D01*
X63647000Y-52197000D01*
X63627000Y-52197000D01*
X63627000Y-52217000D01*
X63373000Y-52217000D01*
X63373000Y-52197000D01*
X63353000Y-52197000D01*
X63353000Y-51943000D01*
X63373000Y-51943000D01*
X63373000Y-51923000D01*
X63627000Y-51923000D01*
X63627000Y-51943000D01*
G37*
%TD.AperFunction*%
D20*
X64175518Y-45190812D02*
X64300000Y-45203072D01*
X65113271Y-45203072D01*
X66141201Y-46231003D01*
X66164999Y-46260001D01*
X66280724Y-46354974D01*
X66412753Y-46425546D01*
X66556014Y-46469003D01*
X66667667Y-46480000D01*
X66667677Y-46480000D01*
X66705000Y-46483676D01*
X66742323Y-46480000D01*
X69841822Y-46480000D01*
X69966525Y-46666632D01*
X70173368Y-46873475D01*
X70347760Y-46990000D01*
X70173368Y-47106525D01*
X69966525Y-47313368D01*
X69804010Y-47556589D01*
X69692068Y-47826842D01*
X69635000Y-48113740D01*
X69635000Y-48406260D01*
X69691698Y-48691300D01*
X69667511Y-48691300D01*
X69544874Y-48568663D01*
X69375356Y-48455395D01*
X69186998Y-48377374D01*
X68987039Y-48337600D01*
X68783161Y-48337600D01*
X68583202Y-48377374D01*
X68394844Y-48455395D01*
X68225326Y-48568663D01*
X68081163Y-48712826D01*
X67967895Y-48882344D01*
X67889874Y-49070702D01*
X67850100Y-49270661D01*
X67850100Y-49474539D01*
X67889874Y-49674498D01*
X67967895Y-49862856D01*
X68081163Y-50032374D01*
X68225326Y-50176537D01*
X68394844Y-50289805D01*
X68583202Y-50367826D01*
X68783161Y-50407600D01*
X68987039Y-50407600D01*
X69186998Y-50367826D01*
X69375356Y-50289805D01*
X69492847Y-50211300D01*
X69756495Y-50211300D01*
X69692068Y-50366842D01*
X69635000Y-50653740D01*
X69635000Y-50946260D01*
X69688993Y-51217700D01*
X68734802Y-51217700D01*
X67750704Y-50233603D01*
X67726901Y-50204599D01*
X67611176Y-50109626D01*
X67479147Y-50039054D01*
X67335886Y-49995597D01*
X67224233Y-49984600D01*
X67224222Y-49984600D01*
X67186900Y-49980924D01*
X67149578Y-49984600D01*
X65696059Y-49984600D01*
X65715812Y-49919482D01*
X65728072Y-49795000D01*
X65725000Y-49180750D01*
X65566250Y-49022000D01*
X64554500Y-49022000D01*
X64554500Y-49042000D01*
X64300500Y-49042000D01*
X64300500Y-49022000D01*
X63288750Y-49022000D01*
X63130000Y-49180750D01*
X63126928Y-49795000D01*
X63139188Y-49919482D01*
X63158941Y-49984600D01*
X62921311Y-49984600D01*
X62889774Y-49953063D01*
X62720256Y-49839795D01*
X62568241Y-49776828D01*
X62586008Y-49718256D01*
X62603072Y-49545002D01*
X62603072Y-48244998D01*
X62586008Y-48071744D01*
X62562729Y-47995000D01*
X63126928Y-47995000D01*
X63130000Y-48609250D01*
X63288750Y-48768000D01*
X64300500Y-48768000D01*
X64300500Y-47518750D01*
X64554500Y-47518750D01*
X64554500Y-48768000D01*
X65566250Y-48768000D01*
X65725000Y-48609250D01*
X65728072Y-47995000D01*
X65715812Y-47870518D01*
X65679502Y-47750820D01*
X65620537Y-47640506D01*
X65541185Y-47543815D01*
X65444494Y-47464463D01*
X65334180Y-47405498D01*
X65214482Y-47369188D01*
X65090000Y-47356928D01*
X64713250Y-47360000D01*
X64554500Y-47518750D01*
X64300500Y-47518750D01*
X64141750Y-47360000D01*
X63765000Y-47356928D01*
X63640518Y-47369188D01*
X63520820Y-47405498D01*
X63410506Y-47464463D01*
X63313815Y-47543815D01*
X63234463Y-47640506D01*
X63175498Y-47750820D01*
X63139188Y-47870518D01*
X63126928Y-47995000D01*
X62562729Y-47995000D01*
X62535472Y-47905148D01*
X62453405Y-47751613D01*
X62342962Y-47617038D01*
X62208387Y-47506595D01*
X62062500Y-47428616D01*
X62062500Y-45203072D01*
X62700000Y-45203072D01*
X62824482Y-45190812D01*
X62850000Y-45183071D01*
X62875518Y-45190812D01*
X63000000Y-45203072D01*
X64000000Y-45203072D01*
X64124482Y-45190812D01*
X64150000Y-45183071D01*
X64175518Y-45190812D01*
%TA.AperFunction,Conductor*%
D21*
G36*
X64175518Y-45190812D02*
G01*
X64300000Y-45203072D01*
X65113271Y-45203072D01*
X66141201Y-46231003D01*
X66164999Y-46260001D01*
X66280724Y-46354974D01*
X66412753Y-46425546D01*
X66556014Y-46469003D01*
X66667667Y-46480000D01*
X66667677Y-46480000D01*
X66705000Y-46483676D01*
X66742323Y-46480000D01*
X69841822Y-46480000D01*
X69966525Y-46666632D01*
X70173368Y-46873475D01*
X70347760Y-46990000D01*
X70173368Y-47106525D01*
X69966525Y-47313368D01*
X69804010Y-47556589D01*
X69692068Y-47826842D01*
X69635000Y-48113740D01*
X69635000Y-48406260D01*
X69691698Y-48691300D01*
X69667511Y-48691300D01*
X69544874Y-48568663D01*
X69375356Y-48455395D01*
X69186998Y-48377374D01*
X68987039Y-48337600D01*
X68783161Y-48337600D01*
X68583202Y-48377374D01*
X68394844Y-48455395D01*
X68225326Y-48568663D01*
X68081163Y-48712826D01*
X67967895Y-48882344D01*
X67889874Y-49070702D01*
X67850100Y-49270661D01*
X67850100Y-49474539D01*
X67889874Y-49674498D01*
X67967895Y-49862856D01*
X68081163Y-50032374D01*
X68225326Y-50176537D01*
X68394844Y-50289805D01*
X68583202Y-50367826D01*
X68783161Y-50407600D01*
X68987039Y-50407600D01*
X69186998Y-50367826D01*
X69375356Y-50289805D01*
X69492847Y-50211300D01*
X69756495Y-50211300D01*
X69692068Y-50366842D01*
X69635000Y-50653740D01*
X69635000Y-50946260D01*
X69688993Y-51217700D01*
X68734802Y-51217700D01*
X67750704Y-50233603D01*
X67726901Y-50204599D01*
X67611176Y-50109626D01*
X67479147Y-50039054D01*
X67335886Y-49995597D01*
X67224233Y-49984600D01*
X67224222Y-49984600D01*
X67186900Y-49980924D01*
X67149578Y-49984600D01*
X65696059Y-49984600D01*
X65715812Y-49919482D01*
X65728072Y-49795000D01*
X65725000Y-49180750D01*
X65566250Y-49022000D01*
X64554500Y-49022000D01*
X64554500Y-49042000D01*
X64300500Y-49042000D01*
X64300500Y-49022000D01*
X63288750Y-49022000D01*
X63130000Y-49180750D01*
X63126928Y-49795000D01*
X63139188Y-49919482D01*
X63158941Y-49984600D01*
X62921311Y-49984600D01*
X62889774Y-49953063D01*
X62720256Y-49839795D01*
X62568241Y-49776828D01*
X62586008Y-49718256D01*
X62603072Y-49545002D01*
X62603072Y-48244998D01*
X62586008Y-48071744D01*
X62562729Y-47995000D01*
X63126928Y-47995000D01*
X63130000Y-48609250D01*
X63288750Y-48768000D01*
X64300500Y-48768000D01*
X64300500Y-47518750D01*
X64554500Y-47518750D01*
X64554500Y-48768000D01*
X65566250Y-48768000D01*
X65725000Y-48609250D01*
X65728072Y-47995000D01*
X65715812Y-47870518D01*
X65679502Y-47750820D01*
X65620537Y-47640506D01*
X65541185Y-47543815D01*
X65444494Y-47464463D01*
X65334180Y-47405498D01*
X65214482Y-47369188D01*
X65090000Y-47356928D01*
X64713250Y-47360000D01*
X64554500Y-47518750D01*
X64300500Y-47518750D01*
X64141750Y-47360000D01*
X63765000Y-47356928D01*
X63640518Y-47369188D01*
X63520820Y-47405498D01*
X63410506Y-47464463D01*
X63313815Y-47543815D01*
X63234463Y-47640506D01*
X63175498Y-47750820D01*
X63139188Y-47870518D01*
X63126928Y-47995000D01*
X62562729Y-47995000D01*
X62535472Y-47905148D01*
X62453405Y-47751613D01*
X62342962Y-47617038D01*
X62208387Y-47506595D01*
X62062500Y-47428616D01*
X62062500Y-45203072D01*
X62700000Y-45203072D01*
X62824482Y-45190812D01*
X62850000Y-45183071D01*
X62875518Y-45190812D01*
X63000000Y-45203072D01*
X64000000Y-45203072D01*
X64124482Y-45190812D01*
X64150000Y-45183071D01*
X64175518Y-45190812D01*
G37*
%TD.AperFunction*%
D20*
X51073611Y-45055603D02*
X51097409Y-45084601D01*
X51126407Y-45108399D01*
X51213133Y-45179574D01*
X51285075Y-45218028D01*
X51345163Y-45250146D01*
X51488424Y-45293603D01*
X51600077Y-45304600D01*
X51600087Y-45304600D01*
X51637410Y-45308276D01*
X51674733Y-45304600D01*
X54456271Y-45304600D01*
X54438524Y-45363110D01*
X54559845Y-45593000D01*
X55753000Y-45593000D01*
X55753000Y-45573000D01*
X56007000Y-45573000D01*
X56007000Y-45593000D01*
X56027000Y-45593000D01*
X56027000Y-45847000D01*
X56007000Y-45847000D01*
X56007000Y-45867000D01*
X55753000Y-45867000D01*
X55753000Y-45847000D01*
X54559845Y-45847000D01*
X54438524Y-46076890D01*
X54483175Y-46224099D01*
X54608359Y-46486920D01*
X54782412Y-46720269D01*
X54998645Y-46915178D01*
X55115534Y-46984805D01*
X54933368Y-47106525D01*
X54726525Y-47313368D01*
X54601822Y-47500000D01*
X54561500Y-47500000D01*
X54524177Y-47496324D01*
X54486855Y-47500000D01*
X54486845Y-47500000D01*
X54375192Y-47510997D01*
X54267004Y-47543815D01*
X54231931Y-47554454D01*
X54099901Y-47625026D01*
X54016261Y-47693668D01*
X53984177Y-47719999D01*
X53960379Y-47748997D01*
X52360367Y-49349010D01*
X50456072Y-49349010D01*
X50456072Y-47234000D01*
X50439008Y-47060746D01*
X50388472Y-46894150D01*
X50306405Y-46740614D01*
X50195962Y-46606038D01*
X50061386Y-46495595D01*
X49907850Y-46413528D01*
X49741254Y-46362992D01*
X49568000Y-46345928D01*
X49068000Y-46345928D01*
X48894746Y-46362992D01*
X48728150Y-46413528D01*
X48574614Y-46495595D01*
X48440038Y-46606038D01*
X48329595Y-46740614D01*
X48247528Y-46894150D01*
X48196992Y-47060746D01*
X48179928Y-47234000D01*
X48179928Y-49349010D01*
X47030312Y-49349010D01*
X46992989Y-49345334D01*
X46988000Y-49345825D01*
X46988000Y-46080971D01*
X47043518Y-46097812D01*
X47168000Y-46110072D01*
X47182250Y-46107000D01*
X47341000Y-45948250D01*
X47341000Y-44749000D01*
X47595000Y-44749000D01*
X47595000Y-45948250D01*
X47753750Y-46107000D01*
X47768000Y-46110072D01*
X47892482Y-46097812D01*
X48012180Y-46061502D01*
X48122494Y-46002537D01*
X48219185Y-45923185D01*
X48298537Y-45826494D01*
X48357502Y-45716180D01*
X48393812Y-45596482D01*
X48406072Y-45472000D01*
X48403000Y-44907750D01*
X48244250Y-44749000D01*
X47595000Y-44749000D01*
X47341000Y-44749000D01*
X47321000Y-44749000D01*
X47321000Y-44495000D01*
X47341000Y-44495000D01*
X47341000Y-44475000D01*
X47595000Y-44475000D01*
X47595000Y-44495000D01*
X48244250Y-44495000D01*
X48403000Y-44336250D01*
X48405849Y-43813000D01*
X49831009Y-43813000D01*
X51073611Y-45055603D01*
%TA.AperFunction,Conductor*%
D21*
G36*
X51073611Y-45055603D02*
G01*
X51097409Y-45084601D01*
X51126407Y-45108399D01*
X51213133Y-45179574D01*
X51285075Y-45218028D01*
X51345163Y-45250146D01*
X51488424Y-45293603D01*
X51600077Y-45304600D01*
X51600087Y-45304600D01*
X51637410Y-45308276D01*
X51674733Y-45304600D01*
X54456271Y-45304600D01*
X54438524Y-45363110D01*
X54559845Y-45593000D01*
X55753000Y-45593000D01*
X55753000Y-45573000D01*
X56007000Y-45573000D01*
X56007000Y-45593000D01*
X56027000Y-45593000D01*
X56027000Y-45847000D01*
X56007000Y-45847000D01*
X56007000Y-45867000D01*
X55753000Y-45867000D01*
X55753000Y-45847000D01*
X54559845Y-45847000D01*
X54438524Y-46076890D01*
X54483175Y-46224099D01*
X54608359Y-46486920D01*
X54782412Y-46720269D01*
X54998645Y-46915178D01*
X55115534Y-46984805D01*
X54933368Y-47106525D01*
X54726525Y-47313368D01*
X54601822Y-47500000D01*
X54561500Y-47500000D01*
X54524177Y-47496324D01*
X54486855Y-47500000D01*
X54486845Y-47500000D01*
X54375192Y-47510997D01*
X54267004Y-47543815D01*
X54231931Y-47554454D01*
X54099901Y-47625026D01*
X54016261Y-47693668D01*
X53984177Y-47719999D01*
X53960379Y-47748997D01*
X52360367Y-49349010D01*
X50456072Y-49349010D01*
X50456072Y-47234000D01*
X50439008Y-47060746D01*
X50388472Y-46894150D01*
X50306405Y-46740614D01*
X50195962Y-46606038D01*
X50061386Y-46495595D01*
X49907850Y-46413528D01*
X49741254Y-46362992D01*
X49568000Y-46345928D01*
X49068000Y-46345928D01*
X48894746Y-46362992D01*
X48728150Y-46413528D01*
X48574614Y-46495595D01*
X48440038Y-46606038D01*
X48329595Y-46740614D01*
X48247528Y-46894150D01*
X48196992Y-47060746D01*
X48179928Y-47234000D01*
X48179928Y-49349010D01*
X47030312Y-49349010D01*
X46992989Y-49345334D01*
X46988000Y-49345825D01*
X46988000Y-46080971D01*
X47043518Y-46097812D01*
X47168000Y-46110072D01*
X47182250Y-46107000D01*
X47341000Y-45948250D01*
X47341000Y-44749000D01*
X47595000Y-44749000D01*
X47595000Y-45948250D01*
X47753750Y-46107000D01*
X47768000Y-46110072D01*
X47892482Y-46097812D01*
X48012180Y-46061502D01*
X48122494Y-46002537D01*
X48219185Y-45923185D01*
X48298537Y-45826494D01*
X48357502Y-45716180D01*
X48393812Y-45596482D01*
X48406072Y-45472000D01*
X48403000Y-44907750D01*
X48244250Y-44749000D01*
X47595000Y-44749000D01*
X47341000Y-44749000D01*
X47321000Y-44749000D01*
X47321000Y-44495000D01*
X47341000Y-44495000D01*
X47341000Y-44475000D01*
X47595000Y-44475000D01*
X47595000Y-44495000D01*
X48244250Y-44495000D01*
X48403000Y-44336250D01*
X48405849Y-43813000D01*
X49831009Y-43813000D01*
X51073611Y-45055603D01*
G37*
%TD.AperFunction*%
D20*
X69631928Y-38704700D02*
X65435465Y-38704700D01*
X65514301Y-38640001D01*
X65538104Y-38610997D01*
X66464502Y-37684600D01*
X69631928Y-37684600D01*
X69631928Y-38704700D01*
%TA.AperFunction,Conductor*%
D21*
G36*
X69631928Y-38704700D02*
G01*
X65435465Y-38704700D01*
X65514301Y-38640001D01*
X65538104Y-38610997D01*
X66464502Y-37684600D01*
X69631928Y-37684600D01*
X69631928Y-38704700D01*
G37*
%TD.AperFunction*%
%TD*%
M02*
