%TF.GenerationSoftware,KiCad,Pcbnew,(5.1.9)-1*%
%TF.CreationDate,2021-07-04T22:14:26+10:00*%
%TF.ProjectId,i2c-master,6932632d-6d61-4737-9465-722e6b696361,rev?*%
%TF.SameCoordinates,Original*%
%TF.FileFunction,Soldermask,Bot*%
%TF.FilePolarity,Negative*%
%FSLAX46Y46*%
G04 Gerber Fmt 4.6, Leading zero omitted, Abs format (unit mm)*
G04 Created by KiCad (PCBNEW (5.1.9)-1) date 2021-07-04 22:14:26*
%MOMM*%
%LPD*%
G01*
G04 APERTURE LIST*
%ADD10O,1.700000X1.700000*%
%ADD11R,1.700000X1.700000*%
%ADD12C,3.200000*%
%ADD13O,1.905000X2.000000*%
%ADD14R,1.905000X2.000000*%
%ADD15O,3.500000X3.500000*%
%ADD16R,3.500000X3.500000*%
G04 APERTURE END LIST*
D10*
%TO.C,J12*%
X76835000Y-61595000D03*
X74295000Y-61595000D03*
X76835000Y-59055000D03*
X74295000Y-59055000D03*
X76835000Y-56515000D03*
X74295000Y-56515000D03*
X76835000Y-53975000D03*
X74295000Y-53975000D03*
X76835000Y-51435000D03*
X74295000Y-51435000D03*
X76835000Y-48895000D03*
X74295000Y-48895000D03*
X76835000Y-46355000D03*
X74295000Y-46355000D03*
X76835000Y-43815000D03*
X74295000Y-43815000D03*
X76835000Y-41275000D03*
X74295000Y-41275000D03*
X76835000Y-38735000D03*
D11*
X74295000Y-38735000D03*
%TD*%
D12*
%TO.C,H4*%
X75565000Y-64770000D03*
%TD*%
%TO.C,H2*%
X75565000Y-35560000D03*
%TD*%
%TO.C,H1*%
X43180000Y-35560000D03*
%TD*%
D13*
%TO.C,U1*%
X60960000Y-52070000D03*
X63500000Y-52070000D03*
D14*
X66040000Y-52070000D03*
D15*
X63500000Y-35410000D03*
%TD*%
%TO.C,J11*%
G36*
G01*
X69075000Y-60630000D02*
X67325000Y-60630000D01*
G75*
G02*
X66450000Y-59755000I0J875000D01*
G01*
X66450000Y-58005000D01*
G75*
G02*
X67325000Y-57130000I875000J0D01*
G01*
X69075000Y-57130000D01*
G75*
G02*
X69950000Y-58005000I0J-875000D01*
G01*
X69950000Y-59755000D01*
G75*
G02*
X69075000Y-60630000I-875000J0D01*
G01*
G37*
G36*
G01*
X64500000Y-63380000D02*
X62500000Y-63380000D01*
G75*
G02*
X61750000Y-62630000I0J750000D01*
G01*
X61750000Y-61130000D01*
G75*
G02*
X62500000Y-60380000I750000J0D01*
G01*
X64500000Y-60380000D01*
G75*
G02*
X65250000Y-61130000I0J-750000D01*
G01*
X65250000Y-62630000D01*
G75*
G02*
X64500000Y-63380000I-750000J0D01*
G01*
G37*
D16*
X63500000Y-55880000D03*
%TD*%
D10*
%TO.C,J10*%
X41910000Y-63500000D03*
X41910000Y-60960000D03*
X41910000Y-58420000D03*
D11*
X41910000Y-55880000D03*
%TD*%
D10*
%TO.C,J9*%
X44450000Y-63500000D03*
X44450000Y-60960000D03*
X44450000Y-58420000D03*
D11*
X44450000Y-55880000D03*
%TD*%
D10*
%TO.C,J8*%
X41910000Y-48260000D03*
X41910000Y-45720000D03*
X41910000Y-43180000D03*
D11*
X41910000Y-40640000D03*
%TD*%
D10*
%TO.C,J7*%
X44450000Y-48260000D03*
X44450000Y-45720000D03*
X44450000Y-43180000D03*
D11*
X44450000Y-40640000D03*
%TD*%
D10*
%TO.C,J6*%
X71120000Y-66040000D03*
X71120000Y-63500000D03*
X71120000Y-60960000D03*
X71120000Y-58420000D03*
X71120000Y-55880000D03*
X71120000Y-53340000D03*
X71120000Y-50800000D03*
X71120000Y-48260000D03*
X71120000Y-45720000D03*
X71120000Y-43180000D03*
X71120000Y-40640000D03*
D11*
X71120000Y-38100000D03*
%TD*%
D10*
%TO.C,J5*%
X50800000Y-63500000D03*
X50800000Y-60960000D03*
X50800000Y-58420000D03*
D11*
X50800000Y-55880000D03*
%TD*%
D10*
%TO.C,J4*%
X48260000Y-63500000D03*
X48260000Y-60960000D03*
X48260000Y-58420000D03*
D11*
X48260000Y-55880000D03*
%TD*%
D10*
%TO.C,J3*%
X50800000Y-48260000D03*
X50800000Y-45720000D03*
X50800000Y-43180000D03*
D11*
X50800000Y-40640000D03*
%TD*%
D10*
%TO.C,J2*%
X48260000Y-48260000D03*
X48260000Y-45720000D03*
X48260000Y-43180000D03*
D11*
X48260000Y-40640000D03*
%TD*%
D10*
%TO.C,J1*%
X55880000Y-66040000D03*
X55880000Y-63500000D03*
X55880000Y-60960000D03*
X55880000Y-58420000D03*
X55880000Y-55880000D03*
X55880000Y-53340000D03*
X55880000Y-50800000D03*
X55880000Y-48260000D03*
X55880000Y-45720000D03*
X55880000Y-43180000D03*
X55880000Y-40640000D03*
D11*
X55880000Y-38100000D03*
%TD*%
M02*
