M48
; DRILL file {KiCad (5.1.9)-1} date 07/04/21 22:14:28
; FORMAT={-:-/ absolute / inch / decimal}
; #@! TF.CreationDate,2021-07-04T22:14:28+10:00
; #@! TF.GenerationSoftware,Kicad,Pcbnew,(5.1.9)-1
; #@! TF.FileFunction,Plated,1,2,PTH
FMAT,2
INCH
T1C0.0157
T2C0.0394
T3C0.0433
%
G90
G05
T1
X1.65Y-2.05
X1.65Y-2.6
X1.95Y-2.05
X2.1Y-1.5
X2.1Y-1.7
X2.1Y-1.9
X2.1Y-2.2
X2.1Y-2.4
X2.1Y-2.6
X2.45Y-1.9983
X2.475Y-1.925
X2.5Y-1.675
X2.55Y-1.8
X2.7Y-1.5
X2.7Y-2.6
X2.712Y-1.9438
T2
X1.65Y-1.6
X1.65Y-1.7
X1.65Y-1.8
X1.65Y-1.9
X1.65Y-2.2
X1.65Y-2.3
X1.65Y-2.4
X1.65Y-2.5
X1.75Y-1.6
X1.75Y-1.7
X1.75Y-1.8
X1.75Y-1.9
X1.75Y-2.2
X1.75Y-2.3
X1.75Y-2.4
X1.75Y-2.5
X1.9Y-1.6
X1.9Y-1.7
X1.9Y-1.8
X1.9Y-1.9
X1.9Y-2.2
X1.9Y-2.3
X1.9Y-2.4
X1.9Y-2.5
X2.0Y-1.6
X2.0Y-1.7
X2.0Y-1.8
X2.0Y-1.9
X2.0Y-2.2
X2.0Y-2.3
X2.0Y-2.4
X2.0Y-2.5
X2.2Y-1.5
X2.2Y-1.6
X2.2Y-1.7
X2.2Y-1.8
X2.2Y-1.9
X2.2Y-2.0
X2.2Y-2.1
X2.2Y-2.2
X2.2Y-2.3
X2.2Y-2.4
X2.2Y-2.5
X2.2Y-2.6
X2.8Y-1.5
X2.8Y-1.6
X2.8Y-1.7
X2.8Y-1.8
X2.8Y-1.9
X2.8Y-2.0
X2.8Y-2.1
X2.8Y-2.2
X2.8Y-2.3
X2.8Y-2.4
X2.8Y-2.5
X2.8Y-2.6
X2.925Y-1.525
X2.925Y-1.625
X2.925Y-1.725
X2.925Y-1.825
X2.925Y-1.925
X2.925Y-2.025
X2.925Y-2.125
X2.925Y-2.225
X2.925Y-2.325
X2.925Y-2.425
X3.025Y-1.525
X3.025Y-1.625
X3.025Y-1.725
X3.025Y-1.825
X3.025Y-1.925
X3.025Y-2.025
X3.025Y-2.125
X3.025Y-2.225
X3.025Y-2.325
X3.025Y-2.425
T3
X2.4Y-2.05
X2.5Y-2.05
X2.6Y-2.05
T2
G00X2.4606Y-2.2
M15
G01X2.5394Y-2.2
M16
G05
G00X2.4606Y-2.4362
M15
G01X2.5394Y-2.4362
M16
G05
G00X2.685Y-2.3575
M15
G01X2.685Y-2.2787
M16
G05
T0
M30
