%TF.GenerationSoftware,KiCad,Pcbnew,(5.1.9)-1*%
%TF.CreationDate,2021-07-04T22:14:26+10:00*%
%TF.ProjectId,i2c-master,6932632d-6d61-4737-9465-722e6b696361,rev?*%
%TF.SameCoordinates,Original*%
%TF.FileFunction,Copper,L1,Top*%
%TF.FilePolarity,Positive*%
%FSLAX46Y46*%
G04 Gerber Fmt 4.6, Leading zero omitted, Abs format (unit mm)*
G04 Created by KiCad (PCBNEW (5.1.9)-1) date 2021-07-04 22:14:26*
%MOMM*%
%LPD*%
G01*
G04 APERTURE LIST*
%TA.AperFunction,SMDPad,CuDef*%
%ADD10R,1.000000X1.500000*%
%TD*%
%TA.AperFunction,ComponentPad*%
%ADD11O,1.700000X1.700000*%
%TD*%
%TA.AperFunction,ComponentPad*%
%ADD12R,1.700000X1.700000*%
%TD*%
%TA.AperFunction,ComponentPad*%
%ADD13O,1.905000X2.000000*%
%TD*%
%TA.AperFunction,ComponentPad*%
%ADD14R,1.905000X2.000000*%
%TD*%
%TA.AperFunction,ComponentPad*%
%ADD15R,3.500000X3.500000*%
%TD*%
%TA.AperFunction,ViaPad*%
%ADD16C,0.800000*%
%TD*%
%TA.AperFunction,Conductor*%
%ADD17C,0.250000*%
%TD*%
%TA.AperFunction,Conductor*%
%ADD18C,0.500000*%
%TD*%
%TA.AperFunction,Conductor*%
%ADD19C,0.254000*%
%TD*%
%TA.AperFunction,Conductor*%
%ADD20C,0.100000*%
%TD*%
G04 APERTURE END LIST*
D10*
%TO.P,JP1,1*%
%TO.N,VCC*%
X64800000Y-43815000D03*
%TO.P,JP1,2*%
%TO.N,+5V*%
X63500000Y-43815000D03*
%TO.P,JP1,3*%
%TO.N,Net-(C1-Pad1)*%
X62200000Y-43815000D03*
%TD*%
%TO.P,C1,2*%
%TO.N,GND*%
%TA.AperFunction,SMDPad,CuDef*%
G36*
G01*
X63765000Y-49545001D02*
X63765000Y-48244999D01*
G75*
G02*
X64014999Y-47995000I249999J0D01*
G01*
X64840001Y-47995000D01*
G75*
G02*
X65090000Y-48244999I0J-249999D01*
G01*
X65090000Y-49545001D01*
G75*
G02*
X64840001Y-49795000I-249999J0D01*
G01*
X64014999Y-49795000D01*
G75*
G02*
X63765000Y-49545001I0J249999D01*
G01*
G37*
%TD.AperFunction*%
%TO.P,C1,1*%
%TO.N,Net-(C1-Pad1)*%
%TA.AperFunction,SMDPad,CuDef*%
G36*
G01*
X60640000Y-49545001D02*
X60640000Y-48244999D01*
G75*
G02*
X60889999Y-47995000I249999J0D01*
G01*
X61715001Y-47995000D01*
G75*
G02*
X61965000Y-48244999I0J-249999D01*
G01*
X61965000Y-49545001D01*
G75*
G02*
X61715001Y-49795000I-249999J0D01*
G01*
X60889999Y-49795000D01*
G75*
G02*
X60640000Y-49545001I0J249999D01*
G01*
G37*
%TD.AperFunction*%
%TD*%
D11*
%TO.P,J12,20*%
%TO.N,GND*%
X76835000Y-61595000D03*
%TO.P,J12,19*%
%TO.N,VCC*%
X74295000Y-61595000D03*
%TO.P,J12,18*%
%TO.N,IO21-A3*%
X76835000Y-59055000D03*
%TO.P,J12,17*%
%TO.N,IO8-A8*%
X74295000Y-59055000D03*
%TO.P,J12,16*%
%TO.N,IO20-A2*%
X76835000Y-56515000D03*
%TO.P,J12,15*%
%TO.N,IO7*%
X74295000Y-56515000D03*
%TO.P,J12,14*%
%TO.N,IO19-A1*%
X76835000Y-53975000D03*
%TO.P,J12,13*%
%TO.N,!IO6-A7*%
X74295000Y-53975000D03*
%TO.P,J12,12*%
%TO.N,IO18-A0*%
X76835000Y-51435000D03*
%TO.P,J12,11*%
%TO.N,!IO5*%
X74295000Y-51435000D03*
%TO.P,J12,10*%
%TO.N,IO16-MOSI*%
X76835000Y-48895000D03*
%TO.P,J12,9*%
%TO.N,IO4-A6*%
X74295000Y-48895000D03*
%TO.P,J12,8*%
%TO.N,IO15-SCK*%
X76835000Y-46355000D03*
%TO.P,J12,7*%
%TO.N,!IO3-SCL*%
X74295000Y-46355000D03*
%TO.P,J12,6*%
%TO.N,IO14-MISO*%
X76835000Y-43815000D03*
%TO.P,J12,5*%
%TO.N,IO2-SDA*%
X74295000Y-43815000D03*
%TO.P,J12,4*%
%TO.N,!IO10-A10*%
X76835000Y-41275000D03*
%TO.P,J12,3*%
%TO.N,IO1-TX*%
X74295000Y-41275000D03*
%TO.P,J12,2*%
%TO.N,!IO9-A9*%
X76835000Y-38735000D03*
D12*
%TO.P,J12,1*%
%TO.N,IO0-RX*%
X74295000Y-38735000D03*
%TD*%
D13*
%TO.P,U1,3*%
%TO.N,Net-(C1-Pad1)*%
X60960000Y-52070000D03*
%TO.P,U1,2*%
%TO.N,GND*%
X63500000Y-52070000D03*
D14*
%TO.P,U1,1*%
%TO.N,VIN*%
X66040000Y-52070000D03*
%TD*%
%TO.P,J11,3*%
%TO.N,GND*%
%TA.AperFunction,ComponentPad*%
G36*
G01*
X69075000Y-60630000D02*
X67325000Y-60630000D01*
G75*
G02*
X66450000Y-59755000I0J875000D01*
G01*
X66450000Y-58005000D01*
G75*
G02*
X67325000Y-57130000I875000J0D01*
G01*
X69075000Y-57130000D01*
G75*
G02*
X69950000Y-58005000I0J-875000D01*
G01*
X69950000Y-59755000D01*
G75*
G02*
X69075000Y-60630000I-875000J0D01*
G01*
G37*
%TD.AperFunction*%
%TO.P,J11,2*%
%TA.AperFunction,ComponentPad*%
G36*
G01*
X64500000Y-63380000D02*
X62500000Y-63380000D01*
G75*
G02*
X61750000Y-62630000I0J750000D01*
G01*
X61750000Y-61130000D01*
G75*
G02*
X62500000Y-60380000I750000J0D01*
G01*
X64500000Y-60380000D01*
G75*
G02*
X65250000Y-61130000I0J-750000D01*
G01*
X65250000Y-62630000D01*
G75*
G02*
X64500000Y-63380000I-750000J0D01*
G01*
G37*
%TD.AperFunction*%
D15*
%TO.P,J11,1*%
%TO.N,VIN*%
X63500000Y-55880000D03*
%TD*%
D11*
%TO.P,J10,4*%
%TO.N,GND*%
X41910000Y-63500000D03*
%TO.P,J10,3*%
%TO.N,IO2-SDA*%
X41910000Y-60960000D03*
%TO.P,J10,2*%
%TO.N,!IO3-SCL*%
X41910000Y-58420000D03*
D12*
%TO.P,J10,1*%
%TO.N,+5V*%
X41910000Y-55880000D03*
%TD*%
D11*
%TO.P,J9,4*%
%TO.N,GND*%
X44450000Y-63500000D03*
%TO.P,J9,3*%
%TO.N,IO2-SDA*%
X44450000Y-60960000D03*
%TO.P,J9,2*%
%TO.N,!IO3-SCL*%
X44450000Y-58420000D03*
D12*
%TO.P,J9,1*%
%TO.N,+5V*%
X44450000Y-55880000D03*
%TD*%
D11*
%TO.P,J8,4*%
%TO.N,GND*%
X41910000Y-48260000D03*
%TO.P,J8,3*%
%TO.N,IO2-SDA*%
X41910000Y-45720000D03*
%TO.P,J8,2*%
%TO.N,!IO3-SCL*%
X41910000Y-43180000D03*
D12*
%TO.P,J8,1*%
%TO.N,+5V*%
X41910000Y-40640000D03*
%TD*%
D11*
%TO.P,J7,4*%
%TO.N,GND*%
X44450000Y-48260000D03*
%TO.P,J7,3*%
%TO.N,IO2-SDA*%
X44450000Y-45720000D03*
%TO.P,J7,2*%
%TO.N,!IO3-SCL*%
X44450000Y-43180000D03*
D12*
%TO.P,J7,1*%
%TO.N,+5V*%
X44450000Y-40640000D03*
%TD*%
D11*
%TO.P,J6,12*%
%TO.N,!IO10-A10*%
X71120000Y-66040000D03*
%TO.P,J6,11*%
%TO.N,IO16-MOSI*%
X71120000Y-63500000D03*
%TO.P,J6,10*%
%TO.N,IO14-MISO*%
X71120000Y-60960000D03*
%TO.P,J6,9*%
%TO.N,IO15-SCK*%
X71120000Y-58420000D03*
%TO.P,J6,8*%
%TO.N,IO18-A0*%
X71120000Y-55880000D03*
%TO.P,J6,7*%
%TO.N,IO19-A1*%
X71120000Y-53340000D03*
%TO.P,J6,6*%
%TO.N,IO20-A2*%
X71120000Y-50800000D03*
%TO.P,J6,5*%
%TO.N,IO21-A3*%
X71120000Y-48260000D03*
%TO.P,J6,4*%
%TO.N,VCC*%
X71120000Y-45720000D03*
%TO.P,J6,3*%
%TO.N,RST*%
X71120000Y-43180000D03*
%TO.P,J6,2*%
%TO.N,GND*%
X71120000Y-40640000D03*
D12*
%TO.P,J6,1*%
%TO.N,VIN*%
X71120000Y-38100000D03*
%TD*%
D11*
%TO.P,J5,4*%
%TO.N,GND*%
X50800000Y-63500000D03*
%TO.P,J5,3*%
%TO.N,IO2-SDA*%
X50800000Y-60960000D03*
%TO.P,J5,2*%
%TO.N,!IO3-SCL*%
X50800000Y-58420000D03*
D12*
%TO.P,J5,1*%
%TO.N,+5V*%
X50800000Y-55880000D03*
%TD*%
D11*
%TO.P,J4,4*%
%TO.N,GND*%
X48260000Y-63500000D03*
%TO.P,J4,3*%
%TO.N,IO2-SDA*%
X48260000Y-60960000D03*
%TO.P,J4,2*%
%TO.N,!IO3-SCL*%
X48260000Y-58420000D03*
D12*
%TO.P,J4,1*%
%TO.N,+5V*%
X48260000Y-55880000D03*
%TD*%
D11*
%TO.P,J3,4*%
%TO.N,GND*%
X50800000Y-48260000D03*
%TO.P,J3,3*%
%TO.N,IO2-SDA*%
X50800000Y-45720000D03*
%TO.P,J3,2*%
%TO.N,!IO3-SCL*%
X50800000Y-43180000D03*
D12*
%TO.P,J3,1*%
%TO.N,+5V*%
X50800000Y-40640000D03*
%TD*%
D11*
%TO.P,J2,4*%
%TO.N,GND*%
X48260000Y-48260000D03*
%TO.P,J2,3*%
%TO.N,IO2-SDA*%
X48260000Y-45720000D03*
%TO.P,J2,2*%
%TO.N,!IO3-SCL*%
X48260000Y-43180000D03*
D12*
%TO.P,J2,1*%
%TO.N,+5V*%
X48260000Y-40640000D03*
%TD*%
D11*
%TO.P,J1,12*%
%TO.N,!IO9-A9*%
X55880000Y-66040000D03*
%TO.P,J1,11*%
%TO.N,IO8-A8*%
X55880000Y-63500000D03*
%TO.P,J1,10*%
%TO.N,IO7*%
X55880000Y-60960000D03*
%TO.P,J1,9*%
%TO.N,!IO6-A7*%
X55880000Y-58420000D03*
%TO.P,J1,8*%
%TO.N,!IO5*%
X55880000Y-55880000D03*
%TO.P,J1,7*%
%TO.N,IO4-A6*%
X55880000Y-53340000D03*
%TO.P,J1,6*%
%TO.N,!IO3-SCL*%
X55880000Y-50800000D03*
%TO.P,J1,5*%
%TO.N,IO2-SDA*%
X55880000Y-48260000D03*
%TO.P,J1,4*%
%TO.N,GND*%
X55880000Y-45720000D03*
%TO.P,J1,3*%
X55880000Y-43180000D03*
%TO.P,J1,2*%
%TO.N,IO0-RX*%
X55880000Y-40640000D03*
D12*
%TO.P,J1,1*%
%TO.N,IO1-TX*%
X55880000Y-38100000D03*
%TD*%
D16*
%TO.N,!IO5*%
X62230000Y-50757000D03*
%TO.N,IO4-A6*%
X68885100Y-49372600D03*
%TO.N,GND*%
X68580000Y-66040000D03*
X68580000Y-38100000D03*
X53340000Y-60960000D03*
X53340000Y-38100000D03*
X53340000Y-55880000D03*
X41910000Y-52070000D03*
X41910000Y-66040000D03*
X53340000Y-66040000D03*
X53340000Y-48260000D03*
X53340000Y-43180000D03*
X49530000Y-52070000D03*
X62865000Y-48895000D03*
X64770000Y-45720000D03*
%TO.N,+5V*%
X63500000Y-42545000D03*
%TD*%
D17*
%TO.N,IO8-A8*%
X55880000Y-63500000D02*
X57055300Y-63500000D01*
X57055300Y-63500000D02*
X58249200Y-64693900D01*
X58249200Y-64693900D02*
X72858400Y-64693900D01*
X72858400Y-64693900D02*
X75470300Y-62082000D01*
X75470300Y-60230300D02*
X75470300Y-62082000D01*
X74295000Y-59055000D02*
X75470300Y-60230300D01*
%TO.N,IO7*%
X57055300Y-60960000D02*
X55880000Y-60960000D01*
X57988900Y-60026400D02*
X57055300Y-60960000D01*
X65367600Y-60026400D02*
X57988900Y-60026400D01*
X67481300Y-62140100D02*
X65367600Y-60026400D01*
X73119700Y-60630100D02*
X71609700Y-62140100D01*
X71609700Y-62140100D02*
X67481300Y-62140100D01*
X73119700Y-57690300D02*
X73119700Y-60630100D01*
X74295000Y-56515000D02*
X73119700Y-57690300D01*
%TO.N,!IO6-A7*%
X73119700Y-53975000D02*
X72536300Y-54558400D01*
X72536300Y-54558400D02*
X68791800Y-54558400D01*
X68791800Y-54558400D02*
X64930200Y-58420000D01*
X64930200Y-58420000D02*
X55880000Y-58420000D01*
X74295000Y-53975000D02*
X73119700Y-53975000D01*
%TO.N,!IO5*%
X73752300Y-51977700D02*
X74295000Y-51435000D01*
X67186900Y-50744600D02*
X68420000Y-51977700D01*
X62242400Y-50744600D02*
X67186900Y-50744600D01*
X68420000Y-51977700D02*
X73752300Y-51977700D01*
X62230000Y-50757000D02*
X62242400Y-50744600D01*
%TO.N,IO4-A6*%
X73738700Y-49451300D02*
X74295000Y-48895000D01*
X68963800Y-49451300D02*
X73738700Y-49451300D01*
X68885100Y-49372600D02*
X68963800Y-49451300D01*
%TO.N,!IO3-SCL*%
X51975000Y-44544600D02*
X51975000Y-51975000D01*
X50800000Y-43180000D02*
X51975000Y-44355000D01*
X51975000Y-44355000D02*
X51975000Y-44544600D01*
X51975000Y-51975000D02*
X51975000Y-57245000D01*
X51975000Y-57245000D02*
X50800000Y-58420000D01*
X55880000Y-50800000D02*
X53150000Y-50800000D01*
X53150000Y-50800000D02*
X51975000Y-51975000D01*
X57221100Y-44544600D02*
X51975000Y-44544600D01*
X68779000Y-41910000D02*
X68180200Y-41311200D01*
X60454500Y-41311200D02*
X57221100Y-44544600D01*
X68180200Y-41311200D02*
X60454500Y-41311200D01*
X73029800Y-41910000D02*
X68779000Y-41910000D01*
X73759400Y-42639600D02*
X73029800Y-41910000D01*
X74820600Y-42639600D02*
X73759400Y-42639600D01*
X75470300Y-43289300D02*
X74820600Y-42639600D01*
X75470300Y-45179700D02*
X75470300Y-43289300D01*
X74295000Y-46355000D02*
X75470300Y-45179700D01*
%TO.N,IO2-SDA*%
X41910000Y-60960000D02*
X43085000Y-59785000D01*
X43085000Y-59785000D02*
X43085000Y-46895000D01*
X43085000Y-46895000D02*
X41910000Y-45720000D01*
X73119700Y-43815000D02*
X74295000Y-43815000D01*
X72564100Y-44370600D02*
X73119700Y-43815000D01*
X64720300Y-41802900D02*
X67288000Y-44370600D01*
X67288000Y-44370600D02*
X72564100Y-44370600D01*
X62337100Y-41802900D02*
X64720300Y-41802900D01*
X55880000Y-48260000D02*
X62337100Y-41802900D01*
%TO.N,IO0-RX*%
X74295000Y-38735000D02*
X73119700Y-38735000D01*
X55880000Y-40640000D02*
X57055300Y-40640000D01*
X57055300Y-40640000D02*
X58230600Y-39464700D01*
X58230600Y-39464700D02*
X72390000Y-39464700D01*
X72390000Y-39464700D02*
X73119700Y-38735000D01*
%TO.N,IO1-TX*%
X66149700Y-36924600D02*
X64974300Y-38100000D01*
X73009400Y-36924600D02*
X66149700Y-36924600D01*
X73570200Y-37485400D02*
X73009400Y-36924600D01*
X75470300Y-37715700D02*
X75240000Y-37485400D01*
X75240000Y-37485400D02*
X73570200Y-37485400D01*
X75470300Y-40099700D02*
X75470300Y-37715700D01*
X64974300Y-38100000D02*
X55880000Y-38100000D01*
X74295000Y-41275000D02*
X75470300Y-40099700D01*
%TO.N,+5V*%
X63500000Y-42545000D02*
X63500000Y-43815000D01*
X41910000Y-55880000D02*
X40735000Y-54705000D01*
X40735000Y-54705000D02*
X40735000Y-41815000D01*
X40735000Y-41815000D02*
X41910000Y-40640000D01*
%TO.N,IO18-A0*%
X72295300Y-55880000D02*
X71120000Y-55880000D01*
X72878700Y-55296600D02*
X72295300Y-55880000D01*
X77194400Y-55296600D02*
X72878700Y-55296600D01*
X78010300Y-54480700D02*
X77194400Y-55296600D01*
X78010300Y-52610300D02*
X78010300Y-54480700D01*
X76835000Y-51435000D02*
X78010300Y-52610300D01*
%TO.N,IO19-A1*%
X75659700Y-52799700D02*
X76835000Y-53975000D01*
X72835600Y-52799700D02*
X75659700Y-52799700D01*
X72295300Y-53340000D02*
X72835600Y-52799700D01*
X71120000Y-53340000D02*
X72295300Y-53340000D01*
%TO.N,IO20-A2*%
X71120000Y-50800000D02*
X72295300Y-50800000D01*
X72295300Y-50800000D02*
X72850900Y-50244400D01*
X72850900Y-50244400D02*
X77363400Y-50244400D01*
X77363400Y-50244400D02*
X78468600Y-51349600D01*
X78468600Y-51349600D02*
X78468600Y-54881400D01*
X78468600Y-54881400D02*
X76835000Y-56515000D01*
%TO.N,IO21-A3*%
X72295300Y-48260000D02*
X71120000Y-48260000D01*
X72850900Y-47704400D02*
X72295300Y-48260000D01*
X77354100Y-47704400D02*
X72850900Y-47704400D01*
X78919000Y-49269300D02*
X77354100Y-47704400D01*
X78919000Y-56971000D02*
X78919000Y-49269300D01*
X76835000Y-59055000D02*
X78919000Y-56971000D01*
%TO.N,VCC*%
X64800000Y-43815000D02*
X66705000Y-45720000D01*
X66705000Y-45720000D02*
X71120000Y-45720000D01*
D18*
%TO.N,VIN*%
X66040000Y-52070000D02*
X66040000Y-53340000D01*
X66040000Y-53340000D02*
X63500000Y-55880000D01*
D17*
%TO.N,Net-(C1-Pad1)*%
X60960000Y-49237500D02*
X61302500Y-48895000D01*
X60960000Y-52070000D02*
X60960000Y-49237500D01*
X61302500Y-44712500D02*
X62200000Y-43815000D01*
X61302500Y-48895000D02*
X61302500Y-44712500D01*
%TD*%
D19*
%TO.N,GND*%
X78715001Y-47990499D02*
X78003559Y-47279058D01*
X78150990Y-47058411D01*
X78262932Y-46788158D01*
X78320000Y-46501260D01*
X78320000Y-46208740D01*
X78262932Y-45921842D01*
X78150990Y-45651589D01*
X77988475Y-45408368D01*
X77781632Y-45201525D01*
X77607240Y-45085000D01*
X77781632Y-44968475D01*
X77988475Y-44761632D01*
X78150990Y-44518411D01*
X78262932Y-44248158D01*
X78320000Y-43961260D01*
X78320000Y-43668740D01*
X78262932Y-43381842D01*
X78150990Y-43111589D01*
X77988475Y-42868368D01*
X77781632Y-42661525D01*
X77607240Y-42545000D01*
X77781632Y-42428475D01*
X77988475Y-42221632D01*
X78150990Y-41978411D01*
X78262932Y-41708158D01*
X78320000Y-41421260D01*
X78320000Y-41128740D01*
X78262932Y-40841842D01*
X78150990Y-40571589D01*
X77988475Y-40328368D01*
X77781632Y-40121525D01*
X77607240Y-40005000D01*
X77781632Y-39888475D01*
X77988475Y-39681632D01*
X78150990Y-39438411D01*
X78262932Y-39168158D01*
X78320000Y-38881260D01*
X78320000Y-38588740D01*
X78262932Y-38301842D01*
X78150990Y-38031589D01*
X77988475Y-37788368D01*
X77781632Y-37581525D01*
X77538411Y-37419010D01*
X77268158Y-37307068D01*
X77026724Y-37259043D01*
X77301038Y-36984729D01*
X77545631Y-36618669D01*
X77714110Y-36211925D01*
X77800000Y-35780128D01*
X77800000Y-35339872D01*
X77714110Y-34908075D01*
X77545631Y-34501331D01*
X77301038Y-34135271D01*
X76989729Y-33823962D01*
X76623669Y-33579369D01*
X76216925Y-33410890D01*
X75785128Y-33325000D01*
X75344872Y-33325000D01*
X74913075Y-33410890D01*
X74506331Y-33579369D01*
X74140271Y-33823962D01*
X73828962Y-34135271D01*
X73584369Y-34501331D01*
X73415890Y-34908075D01*
X73330000Y-35339872D01*
X73330000Y-35780128D01*
X73415890Y-36211925D01*
X73455490Y-36307529D01*
X73433676Y-36289626D01*
X73301647Y-36219054D01*
X73158386Y-36175597D01*
X73046733Y-36164600D01*
X73046722Y-36164600D01*
X73009400Y-36160924D01*
X72972078Y-36164600D01*
X66187033Y-36164600D01*
X66149700Y-36160923D01*
X66112367Y-36164600D01*
X66000714Y-36175597D01*
X65857453Y-36219054D01*
X65725424Y-36289626D01*
X65712893Y-36299910D01*
X65793346Y-36105679D01*
X65885000Y-35644902D01*
X65885000Y-35175098D01*
X65793346Y-34714321D01*
X65613560Y-34280279D01*
X65352550Y-33889651D01*
X65020349Y-33557450D01*
X64629721Y-33296440D01*
X64195679Y-33116654D01*
X63734902Y-33025000D01*
X63265098Y-33025000D01*
X62804321Y-33116654D01*
X62370279Y-33296440D01*
X61979651Y-33557450D01*
X61647450Y-33889651D01*
X61386440Y-34280279D01*
X61206654Y-34714321D01*
X61115000Y-35175098D01*
X61115000Y-35644902D01*
X61206654Y-36105679D01*
X61386440Y-36539721D01*
X61647450Y-36930349D01*
X61979651Y-37262550D01*
X62095563Y-37340000D01*
X57368072Y-37340000D01*
X57368072Y-37250000D01*
X57355812Y-37125518D01*
X57319502Y-37005820D01*
X57260537Y-36895506D01*
X57181185Y-36798815D01*
X57084494Y-36719463D01*
X56974180Y-36660498D01*
X56854482Y-36624188D01*
X56730000Y-36611928D01*
X55030000Y-36611928D01*
X54905518Y-36624188D01*
X54785820Y-36660498D01*
X54675506Y-36719463D01*
X54578815Y-36798815D01*
X54499463Y-36895506D01*
X54440498Y-37005820D01*
X54404188Y-37125518D01*
X54391928Y-37250000D01*
X54391928Y-38950000D01*
X54404188Y-39074482D01*
X54440498Y-39194180D01*
X54499463Y-39304494D01*
X54578815Y-39401185D01*
X54675506Y-39480537D01*
X54785820Y-39539502D01*
X54858380Y-39561513D01*
X54726525Y-39693368D01*
X54564010Y-39936589D01*
X54452068Y-40206842D01*
X54395000Y-40493740D01*
X54395000Y-40786260D01*
X54452068Y-41073158D01*
X54564010Y-41343411D01*
X54726525Y-41586632D01*
X54933368Y-41793475D01*
X55115534Y-41915195D01*
X54998645Y-41984822D01*
X54782412Y-42179731D01*
X54608359Y-42413080D01*
X54483175Y-42675901D01*
X54438524Y-42823110D01*
X54559845Y-43053000D01*
X55753000Y-43053000D01*
X55753000Y-43033000D01*
X56007000Y-43033000D01*
X56007000Y-43053000D01*
X57200155Y-43053000D01*
X57321476Y-42823110D01*
X57276825Y-42675901D01*
X57151641Y-42413080D01*
X56977588Y-42179731D01*
X56761355Y-41984822D01*
X56644466Y-41915195D01*
X56826632Y-41793475D01*
X57033475Y-41586632D01*
X57162796Y-41393089D01*
X57204286Y-41389003D01*
X57347547Y-41345546D01*
X57479576Y-41274974D01*
X57595301Y-41180001D01*
X57619104Y-41150997D01*
X58545402Y-40224700D01*
X69696241Y-40224700D01*
X69678524Y-40283110D01*
X69799845Y-40513000D01*
X70993000Y-40513000D01*
X70993000Y-40493000D01*
X71247000Y-40493000D01*
X71247000Y-40513000D01*
X72440155Y-40513000D01*
X72561476Y-40283110D01*
X72540303Y-40213304D01*
X72682247Y-40170246D01*
X72814276Y-40099674D01*
X72930001Y-40004701D01*
X72948989Y-39981564D01*
X72993815Y-40036185D01*
X73090506Y-40115537D01*
X73200820Y-40174502D01*
X73273380Y-40196513D01*
X73141525Y-40328368D01*
X72979010Y-40571589D01*
X72867068Y-40841842D01*
X72810000Y-41128740D01*
X72810000Y-41150000D01*
X72514014Y-41150000D01*
X72516825Y-41144099D01*
X72561476Y-40996890D01*
X72440155Y-40767000D01*
X71247000Y-40767000D01*
X71247000Y-40787000D01*
X70993000Y-40787000D01*
X70993000Y-40767000D01*
X69799845Y-40767000D01*
X69678524Y-40996890D01*
X69723175Y-41144099D01*
X69725986Y-41150000D01*
X69093802Y-41150000D01*
X68744003Y-40800202D01*
X68720201Y-40771199D01*
X68604476Y-40676226D01*
X68472447Y-40605654D01*
X68329186Y-40562197D01*
X68217533Y-40551200D01*
X68217522Y-40551200D01*
X68180200Y-40547524D01*
X68142878Y-40551200D01*
X60491822Y-40551200D01*
X60454499Y-40547524D01*
X60417176Y-40551200D01*
X60417167Y-40551200D01*
X60305514Y-40562197D01*
X60162253Y-40605654D01*
X60030223Y-40676226D01*
X59959005Y-40734674D01*
X59914499Y-40771199D01*
X59890701Y-40800197D01*
X57263627Y-43427272D01*
X57200155Y-43307000D01*
X56007000Y-43307000D01*
X56007000Y-43327000D01*
X55753000Y-43327000D01*
X55753000Y-43307000D01*
X54559845Y-43307000D01*
X54438524Y-43536890D01*
X54483175Y-43684099D01*
X54531045Y-43784600D01*
X52479402Y-43784600D01*
X52241210Y-43546408D01*
X52285000Y-43326260D01*
X52285000Y-43033740D01*
X52227932Y-42746842D01*
X52115990Y-42476589D01*
X51953475Y-42233368D01*
X51821620Y-42101513D01*
X51894180Y-42079502D01*
X52004494Y-42020537D01*
X52101185Y-41941185D01*
X52180537Y-41844494D01*
X52239502Y-41734180D01*
X52275812Y-41614482D01*
X52288072Y-41490000D01*
X52288072Y-39790000D01*
X52275812Y-39665518D01*
X52239502Y-39545820D01*
X52180537Y-39435506D01*
X52101185Y-39338815D01*
X52004494Y-39259463D01*
X51894180Y-39200498D01*
X51774482Y-39164188D01*
X51650000Y-39151928D01*
X49950000Y-39151928D01*
X49825518Y-39164188D01*
X49705820Y-39200498D01*
X49595506Y-39259463D01*
X49530000Y-39313222D01*
X49464494Y-39259463D01*
X49354180Y-39200498D01*
X49234482Y-39164188D01*
X49110000Y-39151928D01*
X47410000Y-39151928D01*
X47285518Y-39164188D01*
X47165820Y-39200498D01*
X47055506Y-39259463D01*
X46958815Y-39338815D01*
X46879463Y-39435506D01*
X46820498Y-39545820D01*
X46784188Y-39665518D01*
X46771928Y-39790000D01*
X46771928Y-41490000D01*
X46784188Y-41614482D01*
X46820498Y-41734180D01*
X46879463Y-41844494D01*
X46958815Y-41941185D01*
X47055506Y-42020537D01*
X47165820Y-42079502D01*
X47238380Y-42101513D01*
X47106525Y-42233368D01*
X46944010Y-42476589D01*
X46832068Y-42746842D01*
X46775000Y-43033740D01*
X46775000Y-43326260D01*
X46832068Y-43613158D01*
X46944010Y-43883411D01*
X47106525Y-44126632D01*
X47313368Y-44333475D01*
X47487760Y-44450000D01*
X47313368Y-44566525D01*
X47106525Y-44773368D01*
X46944010Y-45016589D01*
X46832068Y-45286842D01*
X46775000Y-45573740D01*
X46775000Y-45866260D01*
X46832068Y-46153158D01*
X46944010Y-46423411D01*
X47106525Y-46666632D01*
X47313368Y-46873475D01*
X47495534Y-46995195D01*
X47378645Y-47064822D01*
X47162412Y-47259731D01*
X46988359Y-47493080D01*
X46863175Y-47755901D01*
X46818524Y-47903110D01*
X46939845Y-48133000D01*
X48133000Y-48133000D01*
X48133000Y-48113000D01*
X48387000Y-48113000D01*
X48387000Y-48133000D01*
X50673000Y-48133000D01*
X50673000Y-48113000D01*
X50927000Y-48113000D01*
X50927000Y-48133000D01*
X50947000Y-48133000D01*
X50947000Y-48387000D01*
X50927000Y-48387000D01*
X50927000Y-49580814D01*
X51156891Y-49701481D01*
X51215001Y-49680868D01*
X51215001Y-51937658D01*
X51215000Y-51937668D01*
X51215000Y-51937678D01*
X51211324Y-51975000D01*
X51215000Y-52012323D01*
X51215000Y-54391928D01*
X49950000Y-54391928D01*
X49825518Y-54404188D01*
X49705820Y-54440498D01*
X49595506Y-54499463D01*
X49530000Y-54553222D01*
X49464494Y-54499463D01*
X49354180Y-54440498D01*
X49234482Y-54404188D01*
X49110000Y-54391928D01*
X47410000Y-54391928D01*
X47285518Y-54404188D01*
X47165820Y-54440498D01*
X47055506Y-54499463D01*
X46958815Y-54578815D01*
X46879463Y-54675506D01*
X46820498Y-54785820D01*
X46784188Y-54905518D01*
X46771928Y-55030000D01*
X46771928Y-56730000D01*
X46784188Y-56854482D01*
X46820498Y-56974180D01*
X46879463Y-57084494D01*
X46958815Y-57181185D01*
X47055506Y-57260537D01*
X47165820Y-57319502D01*
X47238380Y-57341513D01*
X47106525Y-57473368D01*
X46944010Y-57716589D01*
X46832068Y-57986842D01*
X46775000Y-58273740D01*
X46775000Y-58566260D01*
X46832068Y-58853158D01*
X46944010Y-59123411D01*
X47106525Y-59366632D01*
X47313368Y-59573475D01*
X47487760Y-59690000D01*
X47313368Y-59806525D01*
X47106525Y-60013368D01*
X46944010Y-60256589D01*
X46832068Y-60526842D01*
X46775000Y-60813740D01*
X46775000Y-61106260D01*
X46832068Y-61393158D01*
X46944010Y-61663411D01*
X47106525Y-61906632D01*
X47313368Y-62113475D01*
X47495534Y-62235195D01*
X47378645Y-62304822D01*
X47162412Y-62499731D01*
X46988359Y-62733080D01*
X46863175Y-62995901D01*
X46818524Y-63143110D01*
X46939845Y-63373000D01*
X48133000Y-63373000D01*
X48133000Y-63353000D01*
X48387000Y-63353000D01*
X48387000Y-63373000D01*
X50673000Y-63373000D01*
X50673000Y-63353000D01*
X50927000Y-63353000D01*
X50927000Y-63373000D01*
X52120155Y-63373000D01*
X52241476Y-63143110D01*
X52196825Y-62995901D01*
X52071641Y-62733080D01*
X51897588Y-62499731D01*
X51681355Y-62304822D01*
X51564466Y-62235195D01*
X51746632Y-62113475D01*
X51953475Y-61906632D01*
X52115990Y-61663411D01*
X52227932Y-61393158D01*
X52285000Y-61106260D01*
X52285000Y-60813740D01*
X52227932Y-60526842D01*
X52115990Y-60256589D01*
X51953475Y-60013368D01*
X51746632Y-59806525D01*
X51572240Y-59690000D01*
X51746632Y-59573475D01*
X51953475Y-59366632D01*
X52115990Y-59123411D01*
X52227932Y-58853158D01*
X52285000Y-58566260D01*
X52285000Y-58273740D01*
X52241210Y-58053592D01*
X52486003Y-57808799D01*
X52515001Y-57785001D01*
X52556301Y-57734677D01*
X52609974Y-57669277D01*
X52680546Y-57537247D01*
X52688507Y-57511001D01*
X52724003Y-57393986D01*
X52735000Y-57282333D01*
X52735000Y-57282323D01*
X52738676Y-57245000D01*
X52735000Y-57207677D01*
X52735000Y-52289801D01*
X53464802Y-51560000D01*
X54601822Y-51560000D01*
X54726525Y-51746632D01*
X54933368Y-51953475D01*
X55107760Y-52070000D01*
X54933368Y-52186525D01*
X54726525Y-52393368D01*
X54564010Y-52636589D01*
X54452068Y-52906842D01*
X54395000Y-53193740D01*
X54395000Y-53486260D01*
X54452068Y-53773158D01*
X54564010Y-54043411D01*
X54726525Y-54286632D01*
X54933368Y-54493475D01*
X55107760Y-54610000D01*
X54933368Y-54726525D01*
X54726525Y-54933368D01*
X54564010Y-55176589D01*
X54452068Y-55446842D01*
X54395000Y-55733740D01*
X54395000Y-56026260D01*
X54452068Y-56313158D01*
X54564010Y-56583411D01*
X54726525Y-56826632D01*
X54933368Y-57033475D01*
X55107760Y-57150000D01*
X54933368Y-57266525D01*
X54726525Y-57473368D01*
X54564010Y-57716589D01*
X54452068Y-57986842D01*
X54395000Y-58273740D01*
X54395000Y-58566260D01*
X54452068Y-58853158D01*
X54564010Y-59123411D01*
X54726525Y-59366632D01*
X54933368Y-59573475D01*
X55107760Y-59690000D01*
X54933368Y-59806525D01*
X54726525Y-60013368D01*
X54564010Y-60256589D01*
X54452068Y-60526842D01*
X54395000Y-60813740D01*
X54395000Y-61106260D01*
X54452068Y-61393158D01*
X54564010Y-61663411D01*
X54726525Y-61906632D01*
X54933368Y-62113475D01*
X55107760Y-62230000D01*
X54933368Y-62346525D01*
X54726525Y-62553368D01*
X54564010Y-62796589D01*
X54452068Y-63066842D01*
X54395000Y-63353740D01*
X54395000Y-63646260D01*
X54452068Y-63933158D01*
X54564010Y-64203411D01*
X54726525Y-64446632D01*
X54933368Y-64653475D01*
X55107760Y-64770000D01*
X54933368Y-64886525D01*
X54726525Y-65093368D01*
X54564010Y-65336589D01*
X54452068Y-65606842D01*
X54395000Y-65893740D01*
X54395000Y-66186260D01*
X54452068Y-66473158D01*
X54564010Y-66743411D01*
X54726525Y-66986632D01*
X54933368Y-67193475D01*
X55176589Y-67355990D01*
X55446842Y-67467932D01*
X55733740Y-67525000D01*
X56026260Y-67525000D01*
X56313158Y-67467932D01*
X56583411Y-67355990D01*
X56826632Y-67193475D01*
X57033475Y-66986632D01*
X57195990Y-66743411D01*
X57307932Y-66473158D01*
X57365000Y-66186260D01*
X57365000Y-65893740D01*
X57307932Y-65606842D01*
X57195990Y-65336589D01*
X57033475Y-65093368D01*
X56826632Y-64886525D01*
X56652240Y-64770000D01*
X56826632Y-64653475D01*
X56980303Y-64499804D01*
X57685401Y-65204903D01*
X57709199Y-65233901D01*
X57738197Y-65257699D01*
X57824924Y-65328874D01*
X57956953Y-65399446D01*
X58100214Y-65442903D01*
X58249200Y-65457577D01*
X58286533Y-65453900D01*
X69755418Y-65453900D01*
X69692068Y-65606842D01*
X69635000Y-65893740D01*
X69635000Y-66186260D01*
X69692068Y-66473158D01*
X69804010Y-66743411D01*
X69966525Y-66986632D01*
X70173368Y-67193475D01*
X70416589Y-67355990D01*
X70686842Y-67467932D01*
X70973740Y-67525000D01*
X71266260Y-67525000D01*
X71553158Y-67467932D01*
X71823411Y-67355990D01*
X72066632Y-67193475D01*
X72273475Y-66986632D01*
X72435990Y-66743411D01*
X72547932Y-66473158D01*
X72605000Y-66186260D01*
X72605000Y-65893740D01*
X72547932Y-65606842D01*
X72484582Y-65453900D01*
X72821078Y-65453900D01*
X72858400Y-65457576D01*
X72895722Y-65453900D01*
X72895733Y-65453900D01*
X73007386Y-65442903D01*
X73150647Y-65399446D01*
X73282676Y-65328874D01*
X73381284Y-65247949D01*
X73415890Y-65421925D01*
X73584369Y-65828669D01*
X73828962Y-66194729D01*
X74140271Y-66506038D01*
X74506331Y-66750631D01*
X74913075Y-66919110D01*
X75344872Y-67005000D01*
X75785128Y-67005000D01*
X76216925Y-66919110D01*
X76623669Y-66750631D01*
X76989729Y-66506038D01*
X77301038Y-66194729D01*
X77545631Y-65828669D01*
X77714110Y-65421925D01*
X77800000Y-64990128D01*
X77800000Y-64549872D01*
X77714110Y-64118075D01*
X77545631Y-63711331D01*
X77301038Y-63345271D01*
X76989729Y-63033962D01*
X76962002Y-63015435D01*
X76962002Y-62915815D01*
X77191891Y-63036481D01*
X77466252Y-62939157D01*
X77716355Y-62790178D01*
X77932588Y-62595269D01*
X78106641Y-62361920D01*
X78231825Y-62099099D01*
X78276476Y-61951890D01*
X78155155Y-61722000D01*
X76962000Y-61722000D01*
X76962000Y-61742000D01*
X76708000Y-61742000D01*
X76708000Y-61722000D01*
X76688000Y-61722000D01*
X76688000Y-61468000D01*
X76708000Y-61468000D01*
X76708000Y-61448000D01*
X76962000Y-61448000D01*
X76962000Y-61468000D01*
X78155155Y-61468000D01*
X78276476Y-61238110D01*
X78231825Y-61090901D01*
X78106641Y-60828080D01*
X77932588Y-60594731D01*
X77716355Y-60399822D01*
X77599466Y-60330195D01*
X77781632Y-60208475D01*
X77988475Y-60001632D01*
X78150990Y-59758411D01*
X78262932Y-59488158D01*
X78320000Y-59201260D01*
X78320000Y-58908740D01*
X78276209Y-58688592D01*
X78715000Y-58249801D01*
X78715000Y-67920000D01*
X40030000Y-67920000D01*
X40030000Y-63856890D01*
X40468524Y-63856890D01*
X40513175Y-64004099D01*
X40638359Y-64266920D01*
X40812412Y-64500269D01*
X41028645Y-64695178D01*
X41278748Y-64844157D01*
X41553109Y-64941481D01*
X41783000Y-64820814D01*
X41783000Y-63627000D01*
X42037000Y-63627000D01*
X42037000Y-64820814D01*
X42266891Y-64941481D01*
X42541252Y-64844157D01*
X42791355Y-64695178D01*
X43007588Y-64500269D01*
X43180000Y-64269120D01*
X43352412Y-64500269D01*
X43568645Y-64695178D01*
X43818748Y-64844157D01*
X44093109Y-64941481D01*
X44323000Y-64820814D01*
X44323000Y-63627000D01*
X44577000Y-63627000D01*
X44577000Y-64820814D01*
X44806891Y-64941481D01*
X45081252Y-64844157D01*
X45331355Y-64695178D01*
X45547588Y-64500269D01*
X45721641Y-64266920D01*
X45846825Y-64004099D01*
X45891476Y-63856890D01*
X46818524Y-63856890D01*
X46863175Y-64004099D01*
X46988359Y-64266920D01*
X47162412Y-64500269D01*
X47378645Y-64695178D01*
X47628748Y-64844157D01*
X47903109Y-64941481D01*
X48133000Y-64820814D01*
X48133000Y-63627000D01*
X48387000Y-63627000D01*
X48387000Y-64820814D01*
X48616891Y-64941481D01*
X48891252Y-64844157D01*
X49141355Y-64695178D01*
X49357588Y-64500269D01*
X49530000Y-64269120D01*
X49702412Y-64500269D01*
X49918645Y-64695178D01*
X50168748Y-64844157D01*
X50443109Y-64941481D01*
X50673000Y-64820814D01*
X50673000Y-63627000D01*
X50927000Y-63627000D01*
X50927000Y-64820814D01*
X51156891Y-64941481D01*
X51431252Y-64844157D01*
X51681355Y-64695178D01*
X51897588Y-64500269D01*
X52071641Y-64266920D01*
X52196825Y-64004099D01*
X52241476Y-63856890D01*
X52120155Y-63627000D01*
X50927000Y-63627000D01*
X50673000Y-63627000D01*
X48387000Y-63627000D01*
X48133000Y-63627000D01*
X46939845Y-63627000D01*
X46818524Y-63856890D01*
X45891476Y-63856890D01*
X45770155Y-63627000D01*
X44577000Y-63627000D01*
X44323000Y-63627000D01*
X42037000Y-63627000D01*
X41783000Y-63627000D01*
X40589845Y-63627000D01*
X40468524Y-63856890D01*
X40030000Y-63856890D01*
X40030000Y-54998267D01*
X40100026Y-55129276D01*
X40115076Y-55147614D01*
X40194999Y-55245001D01*
X40224003Y-55268804D01*
X40421928Y-55466729D01*
X40421928Y-56730000D01*
X40434188Y-56854482D01*
X40470498Y-56974180D01*
X40529463Y-57084494D01*
X40608815Y-57181185D01*
X40705506Y-57260537D01*
X40815820Y-57319502D01*
X40888380Y-57341513D01*
X40756525Y-57473368D01*
X40594010Y-57716589D01*
X40482068Y-57986842D01*
X40425000Y-58273740D01*
X40425000Y-58566260D01*
X40482068Y-58853158D01*
X40594010Y-59123411D01*
X40756525Y-59366632D01*
X40963368Y-59573475D01*
X41137760Y-59690000D01*
X40963368Y-59806525D01*
X40756525Y-60013368D01*
X40594010Y-60256589D01*
X40482068Y-60526842D01*
X40425000Y-60813740D01*
X40425000Y-61106260D01*
X40482068Y-61393158D01*
X40594010Y-61663411D01*
X40756525Y-61906632D01*
X40963368Y-62113475D01*
X41145534Y-62235195D01*
X41028645Y-62304822D01*
X40812412Y-62499731D01*
X40638359Y-62733080D01*
X40513175Y-62995901D01*
X40468524Y-63143110D01*
X40589845Y-63373000D01*
X41783000Y-63373000D01*
X41783000Y-63353000D01*
X42037000Y-63353000D01*
X42037000Y-63373000D01*
X44323000Y-63373000D01*
X44323000Y-63353000D01*
X44577000Y-63353000D01*
X44577000Y-63373000D01*
X45770155Y-63373000D01*
X45891476Y-63143110D01*
X45846825Y-62995901D01*
X45721641Y-62733080D01*
X45547588Y-62499731D01*
X45331355Y-62304822D01*
X45214466Y-62235195D01*
X45396632Y-62113475D01*
X45603475Y-61906632D01*
X45765990Y-61663411D01*
X45877932Y-61393158D01*
X45935000Y-61106260D01*
X45935000Y-60813740D01*
X45877932Y-60526842D01*
X45765990Y-60256589D01*
X45603475Y-60013368D01*
X45396632Y-59806525D01*
X45222240Y-59690000D01*
X45396632Y-59573475D01*
X45603475Y-59366632D01*
X45765990Y-59123411D01*
X45877932Y-58853158D01*
X45935000Y-58566260D01*
X45935000Y-58273740D01*
X45877932Y-57986842D01*
X45765990Y-57716589D01*
X45603475Y-57473368D01*
X45471620Y-57341513D01*
X45544180Y-57319502D01*
X45654494Y-57260537D01*
X45751185Y-57181185D01*
X45830537Y-57084494D01*
X45889502Y-56974180D01*
X45925812Y-56854482D01*
X45938072Y-56730000D01*
X45938072Y-55030000D01*
X45925812Y-54905518D01*
X45889502Y-54785820D01*
X45830537Y-54675506D01*
X45751185Y-54578815D01*
X45654494Y-54499463D01*
X45544180Y-54440498D01*
X45424482Y-54404188D01*
X45300000Y-54391928D01*
X43845000Y-54391928D01*
X43845000Y-49613469D01*
X44093109Y-49701481D01*
X44323000Y-49580814D01*
X44323000Y-48387000D01*
X44577000Y-48387000D01*
X44577000Y-49580814D01*
X44806891Y-49701481D01*
X45081252Y-49604157D01*
X45331355Y-49455178D01*
X45547588Y-49260269D01*
X45721641Y-49026920D01*
X45846825Y-48764099D01*
X45891476Y-48616890D01*
X46818524Y-48616890D01*
X46863175Y-48764099D01*
X46988359Y-49026920D01*
X47162412Y-49260269D01*
X47378645Y-49455178D01*
X47628748Y-49604157D01*
X47903109Y-49701481D01*
X48133000Y-49580814D01*
X48133000Y-48387000D01*
X48387000Y-48387000D01*
X48387000Y-49580814D01*
X48616891Y-49701481D01*
X48891252Y-49604157D01*
X49141355Y-49455178D01*
X49357588Y-49260269D01*
X49530000Y-49029120D01*
X49702412Y-49260269D01*
X49918645Y-49455178D01*
X50168748Y-49604157D01*
X50443109Y-49701481D01*
X50673000Y-49580814D01*
X50673000Y-48387000D01*
X48387000Y-48387000D01*
X48133000Y-48387000D01*
X46939845Y-48387000D01*
X46818524Y-48616890D01*
X45891476Y-48616890D01*
X45770155Y-48387000D01*
X44577000Y-48387000D01*
X44323000Y-48387000D01*
X44303000Y-48387000D01*
X44303000Y-48133000D01*
X44323000Y-48133000D01*
X44323000Y-48113000D01*
X44577000Y-48113000D01*
X44577000Y-48133000D01*
X45770155Y-48133000D01*
X45891476Y-47903110D01*
X45846825Y-47755901D01*
X45721641Y-47493080D01*
X45547588Y-47259731D01*
X45331355Y-47064822D01*
X45214466Y-46995195D01*
X45396632Y-46873475D01*
X45603475Y-46666632D01*
X45765990Y-46423411D01*
X45877932Y-46153158D01*
X45935000Y-45866260D01*
X45935000Y-45573740D01*
X45877932Y-45286842D01*
X45765990Y-45016589D01*
X45603475Y-44773368D01*
X45396632Y-44566525D01*
X45222240Y-44450000D01*
X45396632Y-44333475D01*
X45603475Y-44126632D01*
X45765990Y-43883411D01*
X45877932Y-43613158D01*
X45935000Y-43326260D01*
X45935000Y-43033740D01*
X45877932Y-42746842D01*
X45765990Y-42476589D01*
X45603475Y-42233368D01*
X45471620Y-42101513D01*
X45544180Y-42079502D01*
X45654494Y-42020537D01*
X45751185Y-41941185D01*
X45830537Y-41844494D01*
X45889502Y-41734180D01*
X45925812Y-41614482D01*
X45938072Y-41490000D01*
X45938072Y-39790000D01*
X45925812Y-39665518D01*
X45889502Y-39545820D01*
X45830537Y-39435506D01*
X45751185Y-39338815D01*
X45654494Y-39259463D01*
X45544180Y-39200498D01*
X45424482Y-39164188D01*
X45300000Y-39151928D01*
X43600000Y-39151928D01*
X43475518Y-39164188D01*
X43355820Y-39200498D01*
X43245506Y-39259463D01*
X43180000Y-39313222D01*
X43114494Y-39259463D01*
X43004180Y-39200498D01*
X42884482Y-39164188D01*
X42760000Y-39151928D01*
X41060000Y-39151928D01*
X40935518Y-39164188D01*
X40815820Y-39200498D01*
X40705506Y-39259463D01*
X40608815Y-39338815D01*
X40529463Y-39435506D01*
X40470498Y-39545820D01*
X40434188Y-39665518D01*
X40421928Y-39790000D01*
X40421928Y-41053271D01*
X40223998Y-41251201D01*
X40195000Y-41274999D01*
X40171202Y-41303997D01*
X40171201Y-41303998D01*
X40100026Y-41390724D01*
X40030000Y-41521733D01*
X40030000Y-35339872D01*
X40945000Y-35339872D01*
X40945000Y-35780128D01*
X41030890Y-36211925D01*
X41199369Y-36618669D01*
X41443962Y-36984729D01*
X41755271Y-37296038D01*
X42121331Y-37540631D01*
X42528075Y-37709110D01*
X42959872Y-37795000D01*
X43400128Y-37795000D01*
X43831925Y-37709110D01*
X44238669Y-37540631D01*
X44604729Y-37296038D01*
X44916038Y-36984729D01*
X45160631Y-36618669D01*
X45329110Y-36211925D01*
X45415000Y-35780128D01*
X45415000Y-35339872D01*
X45329110Y-34908075D01*
X45160631Y-34501331D01*
X44916038Y-34135271D01*
X44604729Y-33823962D01*
X44238669Y-33579369D01*
X43831925Y-33410890D01*
X43400128Y-33325000D01*
X42959872Y-33325000D01*
X42528075Y-33410890D01*
X42121331Y-33579369D01*
X41755271Y-33823962D01*
X41443962Y-34135271D01*
X41199369Y-34501331D01*
X41030890Y-34908075D01*
X40945000Y-35339872D01*
X40030000Y-35339872D01*
X40030000Y-32410000D01*
X78715001Y-32410000D01*
X78715001Y-47990499D01*
%TA.AperFunction,Conductor*%
D20*
G36*
X78715001Y-47990499D02*
G01*
X78003559Y-47279058D01*
X78150990Y-47058411D01*
X78262932Y-46788158D01*
X78320000Y-46501260D01*
X78320000Y-46208740D01*
X78262932Y-45921842D01*
X78150990Y-45651589D01*
X77988475Y-45408368D01*
X77781632Y-45201525D01*
X77607240Y-45085000D01*
X77781632Y-44968475D01*
X77988475Y-44761632D01*
X78150990Y-44518411D01*
X78262932Y-44248158D01*
X78320000Y-43961260D01*
X78320000Y-43668740D01*
X78262932Y-43381842D01*
X78150990Y-43111589D01*
X77988475Y-42868368D01*
X77781632Y-42661525D01*
X77607240Y-42545000D01*
X77781632Y-42428475D01*
X77988475Y-42221632D01*
X78150990Y-41978411D01*
X78262932Y-41708158D01*
X78320000Y-41421260D01*
X78320000Y-41128740D01*
X78262932Y-40841842D01*
X78150990Y-40571589D01*
X77988475Y-40328368D01*
X77781632Y-40121525D01*
X77607240Y-40005000D01*
X77781632Y-39888475D01*
X77988475Y-39681632D01*
X78150990Y-39438411D01*
X78262932Y-39168158D01*
X78320000Y-38881260D01*
X78320000Y-38588740D01*
X78262932Y-38301842D01*
X78150990Y-38031589D01*
X77988475Y-37788368D01*
X77781632Y-37581525D01*
X77538411Y-37419010D01*
X77268158Y-37307068D01*
X77026724Y-37259043D01*
X77301038Y-36984729D01*
X77545631Y-36618669D01*
X77714110Y-36211925D01*
X77800000Y-35780128D01*
X77800000Y-35339872D01*
X77714110Y-34908075D01*
X77545631Y-34501331D01*
X77301038Y-34135271D01*
X76989729Y-33823962D01*
X76623669Y-33579369D01*
X76216925Y-33410890D01*
X75785128Y-33325000D01*
X75344872Y-33325000D01*
X74913075Y-33410890D01*
X74506331Y-33579369D01*
X74140271Y-33823962D01*
X73828962Y-34135271D01*
X73584369Y-34501331D01*
X73415890Y-34908075D01*
X73330000Y-35339872D01*
X73330000Y-35780128D01*
X73415890Y-36211925D01*
X73455490Y-36307529D01*
X73433676Y-36289626D01*
X73301647Y-36219054D01*
X73158386Y-36175597D01*
X73046733Y-36164600D01*
X73046722Y-36164600D01*
X73009400Y-36160924D01*
X72972078Y-36164600D01*
X66187033Y-36164600D01*
X66149700Y-36160923D01*
X66112367Y-36164600D01*
X66000714Y-36175597D01*
X65857453Y-36219054D01*
X65725424Y-36289626D01*
X65712893Y-36299910D01*
X65793346Y-36105679D01*
X65885000Y-35644902D01*
X65885000Y-35175098D01*
X65793346Y-34714321D01*
X65613560Y-34280279D01*
X65352550Y-33889651D01*
X65020349Y-33557450D01*
X64629721Y-33296440D01*
X64195679Y-33116654D01*
X63734902Y-33025000D01*
X63265098Y-33025000D01*
X62804321Y-33116654D01*
X62370279Y-33296440D01*
X61979651Y-33557450D01*
X61647450Y-33889651D01*
X61386440Y-34280279D01*
X61206654Y-34714321D01*
X61115000Y-35175098D01*
X61115000Y-35644902D01*
X61206654Y-36105679D01*
X61386440Y-36539721D01*
X61647450Y-36930349D01*
X61979651Y-37262550D01*
X62095563Y-37340000D01*
X57368072Y-37340000D01*
X57368072Y-37250000D01*
X57355812Y-37125518D01*
X57319502Y-37005820D01*
X57260537Y-36895506D01*
X57181185Y-36798815D01*
X57084494Y-36719463D01*
X56974180Y-36660498D01*
X56854482Y-36624188D01*
X56730000Y-36611928D01*
X55030000Y-36611928D01*
X54905518Y-36624188D01*
X54785820Y-36660498D01*
X54675506Y-36719463D01*
X54578815Y-36798815D01*
X54499463Y-36895506D01*
X54440498Y-37005820D01*
X54404188Y-37125518D01*
X54391928Y-37250000D01*
X54391928Y-38950000D01*
X54404188Y-39074482D01*
X54440498Y-39194180D01*
X54499463Y-39304494D01*
X54578815Y-39401185D01*
X54675506Y-39480537D01*
X54785820Y-39539502D01*
X54858380Y-39561513D01*
X54726525Y-39693368D01*
X54564010Y-39936589D01*
X54452068Y-40206842D01*
X54395000Y-40493740D01*
X54395000Y-40786260D01*
X54452068Y-41073158D01*
X54564010Y-41343411D01*
X54726525Y-41586632D01*
X54933368Y-41793475D01*
X55115534Y-41915195D01*
X54998645Y-41984822D01*
X54782412Y-42179731D01*
X54608359Y-42413080D01*
X54483175Y-42675901D01*
X54438524Y-42823110D01*
X54559845Y-43053000D01*
X55753000Y-43053000D01*
X55753000Y-43033000D01*
X56007000Y-43033000D01*
X56007000Y-43053000D01*
X57200155Y-43053000D01*
X57321476Y-42823110D01*
X57276825Y-42675901D01*
X57151641Y-42413080D01*
X56977588Y-42179731D01*
X56761355Y-41984822D01*
X56644466Y-41915195D01*
X56826632Y-41793475D01*
X57033475Y-41586632D01*
X57162796Y-41393089D01*
X57204286Y-41389003D01*
X57347547Y-41345546D01*
X57479576Y-41274974D01*
X57595301Y-41180001D01*
X57619104Y-41150997D01*
X58545402Y-40224700D01*
X69696241Y-40224700D01*
X69678524Y-40283110D01*
X69799845Y-40513000D01*
X70993000Y-40513000D01*
X70993000Y-40493000D01*
X71247000Y-40493000D01*
X71247000Y-40513000D01*
X72440155Y-40513000D01*
X72561476Y-40283110D01*
X72540303Y-40213304D01*
X72682247Y-40170246D01*
X72814276Y-40099674D01*
X72930001Y-40004701D01*
X72948989Y-39981564D01*
X72993815Y-40036185D01*
X73090506Y-40115537D01*
X73200820Y-40174502D01*
X73273380Y-40196513D01*
X73141525Y-40328368D01*
X72979010Y-40571589D01*
X72867068Y-40841842D01*
X72810000Y-41128740D01*
X72810000Y-41150000D01*
X72514014Y-41150000D01*
X72516825Y-41144099D01*
X72561476Y-40996890D01*
X72440155Y-40767000D01*
X71247000Y-40767000D01*
X71247000Y-40787000D01*
X70993000Y-40787000D01*
X70993000Y-40767000D01*
X69799845Y-40767000D01*
X69678524Y-40996890D01*
X69723175Y-41144099D01*
X69725986Y-41150000D01*
X69093802Y-41150000D01*
X68744003Y-40800202D01*
X68720201Y-40771199D01*
X68604476Y-40676226D01*
X68472447Y-40605654D01*
X68329186Y-40562197D01*
X68217533Y-40551200D01*
X68217522Y-40551200D01*
X68180200Y-40547524D01*
X68142878Y-40551200D01*
X60491822Y-40551200D01*
X60454499Y-40547524D01*
X60417176Y-40551200D01*
X60417167Y-40551200D01*
X60305514Y-40562197D01*
X60162253Y-40605654D01*
X60030223Y-40676226D01*
X59959005Y-40734674D01*
X59914499Y-40771199D01*
X59890701Y-40800197D01*
X57263627Y-43427272D01*
X57200155Y-43307000D01*
X56007000Y-43307000D01*
X56007000Y-43327000D01*
X55753000Y-43327000D01*
X55753000Y-43307000D01*
X54559845Y-43307000D01*
X54438524Y-43536890D01*
X54483175Y-43684099D01*
X54531045Y-43784600D01*
X52479402Y-43784600D01*
X52241210Y-43546408D01*
X52285000Y-43326260D01*
X52285000Y-43033740D01*
X52227932Y-42746842D01*
X52115990Y-42476589D01*
X51953475Y-42233368D01*
X51821620Y-42101513D01*
X51894180Y-42079502D01*
X52004494Y-42020537D01*
X52101185Y-41941185D01*
X52180537Y-41844494D01*
X52239502Y-41734180D01*
X52275812Y-41614482D01*
X52288072Y-41490000D01*
X52288072Y-39790000D01*
X52275812Y-39665518D01*
X52239502Y-39545820D01*
X52180537Y-39435506D01*
X52101185Y-39338815D01*
X52004494Y-39259463D01*
X51894180Y-39200498D01*
X51774482Y-39164188D01*
X51650000Y-39151928D01*
X49950000Y-39151928D01*
X49825518Y-39164188D01*
X49705820Y-39200498D01*
X49595506Y-39259463D01*
X49530000Y-39313222D01*
X49464494Y-39259463D01*
X49354180Y-39200498D01*
X49234482Y-39164188D01*
X49110000Y-39151928D01*
X47410000Y-39151928D01*
X47285518Y-39164188D01*
X47165820Y-39200498D01*
X47055506Y-39259463D01*
X46958815Y-39338815D01*
X46879463Y-39435506D01*
X46820498Y-39545820D01*
X46784188Y-39665518D01*
X46771928Y-39790000D01*
X46771928Y-41490000D01*
X46784188Y-41614482D01*
X46820498Y-41734180D01*
X46879463Y-41844494D01*
X46958815Y-41941185D01*
X47055506Y-42020537D01*
X47165820Y-42079502D01*
X47238380Y-42101513D01*
X47106525Y-42233368D01*
X46944010Y-42476589D01*
X46832068Y-42746842D01*
X46775000Y-43033740D01*
X46775000Y-43326260D01*
X46832068Y-43613158D01*
X46944010Y-43883411D01*
X47106525Y-44126632D01*
X47313368Y-44333475D01*
X47487760Y-44450000D01*
X47313368Y-44566525D01*
X47106525Y-44773368D01*
X46944010Y-45016589D01*
X46832068Y-45286842D01*
X46775000Y-45573740D01*
X46775000Y-45866260D01*
X46832068Y-46153158D01*
X46944010Y-46423411D01*
X47106525Y-46666632D01*
X47313368Y-46873475D01*
X47495534Y-46995195D01*
X47378645Y-47064822D01*
X47162412Y-47259731D01*
X46988359Y-47493080D01*
X46863175Y-47755901D01*
X46818524Y-47903110D01*
X46939845Y-48133000D01*
X48133000Y-48133000D01*
X48133000Y-48113000D01*
X48387000Y-48113000D01*
X48387000Y-48133000D01*
X50673000Y-48133000D01*
X50673000Y-48113000D01*
X50927000Y-48113000D01*
X50927000Y-48133000D01*
X50947000Y-48133000D01*
X50947000Y-48387000D01*
X50927000Y-48387000D01*
X50927000Y-49580814D01*
X51156891Y-49701481D01*
X51215001Y-49680868D01*
X51215001Y-51937658D01*
X51215000Y-51937668D01*
X51215000Y-51937678D01*
X51211324Y-51975000D01*
X51215000Y-52012323D01*
X51215000Y-54391928D01*
X49950000Y-54391928D01*
X49825518Y-54404188D01*
X49705820Y-54440498D01*
X49595506Y-54499463D01*
X49530000Y-54553222D01*
X49464494Y-54499463D01*
X49354180Y-54440498D01*
X49234482Y-54404188D01*
X49110000Y-54391928D01*
X47410000Y-54391928D01*
X47285518Y-54404188D01*
X47165820Y-54440498D01*
X47055506Y-54499463D01*
X46958815Y-54578815D01*
X46879463Y-54675506D01*
X46820498Y-54785820D01*
X46784188Y-54905518D01*
X46771928Y-55030000D01*
X46771928Y-56730000D01*
X46784188Y-56854482D01*
X46820498Y-56974180D01*
X46879463Y-57084494D01*
X46958815Y-57181185D01*
X47055506Y-57260537D01*
X47165820Y-57319502D01*
X47238380Y-57341513D01*
X47106525Y-57473368D01*
X46944010Y-57716589D01*
X46832068Y-57986842D01*
X46775000Y-58273740D01*
X46775000Y-58566260D01*
X46832068Y-58853158D01*
X46944010Y-59123411D01*
X47106525Y-59366632D01*
X47313368Y-59573475D01*
X47487760Y-59690000D01*
X47313368Y-59806525D01*
X47106525Y-60013368D01*
X46944010Y-60256589D01*
X46832068Y-60526842D01*
X46775000Y-60813740D01*
X46775000Y-61106260D01*
X46832068Y-61393158D01*
X46944010Y-61663411D01*
X47106525Y-61906632D01*
X47313368Y-62113475D01*
X47495534Y-62235195D01*
X47378645Y-62304822D01*
X47162412Y-62499731D01*
X46988359Y-62733080D01*
X46863175Y-62995901D01*
X46818524Y-63143110D01*
X46939845Y-63373000D01*
X48133000Y-63373000D01*
X48133000Y-63353000D01*
X48387000Y-63353000D01*
X48387000Y-63373000D01*
X50673000Y-63373000D01*
X50673000Y-63353000D01*
X50927000Y-63353000D01*
X50927000Y-63373000D01*
X52120155Y-63373000D01*
X52241476Y-63143110D01*
X52196825Y-62995901D01*
X52071641Y-62733080D01*
X51897588Y-62499731D01*
X51681355Y-62304822D01*
X51564466Y-62235195D01*
X51746632Y-62113475D01*
X51953475Y-61906632D01*
X52115990Y-61663411D01*
X52227932Y-61393158D01*
X52285000Y-61106260D01*
X52285000Y-60813740D01*
X52227932Y-60526842D01*
X52115990Y-60256589D01*
X51953475Y-60013368D01*
X51746632Y-59806525D01*
X51572240Y-59690000D01*
X51746632Y-59573475D01*
X51953475Y-59366632D01*
X52115990Y-59123411D01*
X52227932Y-58853158D01*
X52285000Y-58566260D01*
X52285000Y-58273740D01*
X52241210Y-58053592D01*
X52486003Y-57808799D01*
X52515001Y-57785001D01*
X52556301Y-57734677D01*
X52609974Y-57669277D01*
X52680546Y-57537247D01*
X52688507Y-57511001D01*
X52724003Y-57393986D01*
X52735000Y-57282333D01*
X52735000Y-57282323D01*
X52738676Y-57245000D01*
X52735000Y-57207677D01*
X52735000Y-52289801D01*
X53464802Y-51560000D01*
X54601822Y-51560000D01*
X54726525Y-51746632D01*
X54933368Y-51953475D01*
X55107760Y-52070000D01*
X54933368Y-52186525D01*
X54726525Y-52393368D01*
X54564010Y-52636589D01*
X54452068Y-52906842D01*
X54395000Y-53193740D01*
X54395000Y-53486260D01*
X54452068Y-53773158D01*
X54564010Y-54043411D01*
X54726525Y-54286632D01*
X54933368Y-54493475D01*
X55107760Y-54610000D01*
X54933368Y-54726525D01*
X54726525Y-54933368D01*
X54564010Y-55176589D01*
X54452068Y-55446842D01*
X54395000Y-55733740D01*
X54395000Y-56026260D01*
X54452068Y-56313158D01*
X54564010Y-56583411D01*
X54726525Y-56826632D01*
X54933368Y-57033475D01*
X55107760Y-57150000D01*
X54933368Y-57266525D01*
X54726525Y-57473368D01*
X54564010Y-57716589D01*
X54452068Y-57986842D01*
X54395000Y-58273740D01*
X54395000Y-58566260D01*
X54452068Y-58853158D01*
X54564010Y-59123411D01*
X54726525Y-59366632D01*
X54933368Y-59573475D01*
X55107760Y-59690000D01*
X54933368Y-59806525D01*
X54726525Y-60013368D01*
X54564010Y-60256589D01*
X54452068Y-60526842D01*
X54395000Y-60813740D01*
X54395000Y-61106260D01*
X54452068Y-61393158D01*
X54564010Y-61663411D01*
X54726525Y-61906632D01*
X54933368Y-62113475D01*
X55107760Y-62230000D01*
X54933368Y-62346525D01*
X54726525Y-62553368D01*
X54564010Y-62796589D01*
X54452068Y-63066842D01*
X54395000Y-63353740D01*
X54395000Y-63646260D01*
X54452068Y-63933158D01*
X54564010Y-64203411D01*
X54726525Y-64446632D01*
X54933368Y-64653475D01*
X55107760Y-64770000D01*
X54933368Y-64886525D01*
X54726525Y-65093368D01*
X54564010Y-65336589D01*
X54452068Y-65606842D01*
X54395000Y-65893740D01*
X54395000Y-66186260D01*
X54452068Y-66473158D01*
X54564010Y-66743411D01*
X54726525Y-66986632D01*
X54933368Y-67193475D01*
X55176589Y-67355990D01*
X55446842Y-67467932D01*
X55733740Y-67525000D01*
X56026260Y-67525000D01*
X56313158Y-67467932D01*
X56583411Y-67355990D01*
X56826632Y-67193475D01*
X57033475Y-66986632D01*
X57195990Y-66743411D01*
X57307932Y-66473158D01*
X57365000Y-66186260D01*
X57365000Y-65893740D01*
X57307932Y-65606842D01*
X57195990Y-65336589D01*
X57033475Y-65093368D01*
X56826632Y-64886525D01*
X56652240Y-64770000D01*
X56826632Y-64653475D01*
X56980303Y-64499804D01*
X57685401Y-65204903D01*
X57709199Y-65233901D01*
X57738197Y-65257699D01*
X57824924Y-65328874D01*
X57956953Y-65399446D01*
X58100214Y-65442903D01*
X58249200Y-65457577D01*
X58286533Y-65453900D01*
X69755418Y-65453900D01*
X69692068Y-65606842D01*
X69635000Y-65893740D01*
X69635000Y-66186260D01*
X69692068Y-66473158D01*
X69804010Y-66743411D01*
X69966525Y-66986632D01*
X70173368Y-67193475D01*
X70416589Y-67355990D01*
X70686842Y-67467932D01*
X70973740Y-67525000D01*
X71266260Y-67525000D01*
X71553158Y-67467932D01*
X71823411Y-67355990D01*
X72066632Y-67193475D01*
X72273475Y-66986632D01*
X72435990Y-66743411D01*
X72547932Y-66473158D01*
X72605000Y-66186260D01*
X72605000Y-65893740D01*
X72547932Y-65606842D01*
X72484582Y-65453900D01*
X72821078Y-65453900D01*
X72858400Y-65457576D01*
X72895722Y-65453900D01*
X72895733Y-65453900D01*
X73007386Y-65442903D01*
X73150647Y-65399446D01*
X73282676Y-65328874D01*
X73381284Y-65247949D01*
X73415890Y-65421925D01*
X73584369Y-65828669D01*
X73828962Y-66194729D01*
X74140271Y-66506038D01*
X74506331Y-66750631D01*
X74913075Y-66919110D01*
X75344872Y-67005000D01*
X75785128Y-67005000D01*
X76216925Y-66919110D01*
X76623669Y-66750631D01*
X76989729Y-66506038D01*
X77301038Y-66194729D01*
X77545631Y-65828669D01*
X77714110Y-65421925D01*
X77800000Y-64990128D01*
X77800000Y-64549872D01*
X77714110Y-64118075D01*
X77545631Y-63711331D01*
X77301038Y-63345271D01*
X76989729Y-63033962D01*
X76962002Y-63015435D01*
X76962002Y-62915815D01*
X77191891Y-63036481D01*
X77466252Y-62939157D01*
X77716355Y-62790178D01*
X77932588Y-62595269D01*
X78106641Y-62361920D01*
X78231825Y-62099099D01*
X78276476Y-61951890D01*
X78155155Y-61722000D01*
X76962000Y-61722000D01*
X76962000Y-61742000D01*
X76708000Y-61742000D01*
X76708000Y-61722000D01*
X76688000Y-61722000D01*
X76688000Y-61468000D01*
X76708000Y-61468000D01*
X76708000Y-61448000D01*
X76962000Y-61448000D01*
X76962000Y-61468000D01*
X78155155Y-61468000D01*
X78276476Y-61238110D01*
X78231825Y-61090901D01*
X78106641Y-60828080D01*
X77932588Y-60594731D01*
X77716355Y-60399822D01*
X77599466Y-60330195D01*
X77781632Y-60208475D01*
X77988475Y-60001632D01*
X78150990Y-59758411D01*
X78262932Y-59488158D01*
X78320000Y-59201260D01*
X78320000Y-58908740D01*
X78276209Y-58688592D01*
X78715000Y-58249801D01*
X78715000Y-67920000D01*
X40030000Y-67920000D01*
X40030000Y-63856890D01*
X40468524Y-63856890D01*
X40513175Y-64004099D01*
X40638359Y-64266920D01*
X40812412Y-64500269D01*
X41028645Y-64695178D01*
X41278748Y-64844157D01*
X41553109Y-64941481D01*
X41783000Y-64820814D01*
X41783000Y-63627000D01*
X42037000Y-63627000D01*
X42037000Y-64820814D01*
X42266891Y-64941481D01*
X42541252Y-64844157D01*
X42791355Y-64695178D01*
X43007588Y-64500269D01*
X43180000Y-64269120D01*
X43352412Y-64500269D01*
X43568645Y-64695178D01*
X43818748Y-64844157D01*
X44093109Y-64941481D01*
X44323000Y-64820814D01*
X44323000Y-63627000D01*
X44577000Y-63627000D01*
X44577000Y-64820814D01*
X44806891Y-64941481D01*
X45081252Y-64844157D01*
X45331355Y-64695178D01*
X45547588Y-64500269D01*
X45721641Y-64266920D01*
X45846825Y-64004099D01*
X45891476Y-63856890D01*
X46818524Y-63856890D01*
X46863175Y-64004099D01*
X46988359Y-64266920D01*
X47162412Y-64500269D01*
X47378645Y-64695178D01*
X47628748Y-64844157D01*
X47903109Y-64941481D01*
X48133000Y-64820814D01*
X48133000Y-63627000D01*
X48387000Y-63627000D01*
X48387000Y-64820814D01*
X48616891Y-64941481D01*
X48891252Y-64844157D01*
X49141355Y-64695178D01*
X49357588Y-64500269D01*
X49530000Y-64269120D01*
X49702412Y-64500269D01*
X49918645Y-64695178D01*
X50168748Y-64844157D01*
X50443109Y-64941481D01*
X50673000Y-64820814D01*
X50673000Y-63627000D01*
X50927000Y-63627000D01*
X50927000Y-64820814D01*
X51156891Y-64941481D01*
X51431252Y-64844157D01*
X51681355Y-64695178D01*
X51897588Y-64500269D01*
X52071641Y-64266920D01*
X52196825Y-64004099D01*
X52241476Y-63856890D01*
X52120155Y-63627000D01*
X50927000Y-63627000D01*
X50673000Y-63627000D01*
X48387000Y-63627000D01*
X48133000Y-63627000D01*
X46939845Y-63627000D01*
X46818524Y-63856890D01*
X45891476Y-63856890D01*
X45770155Y-63627000D01*
X44577000Y-63627000D01*
X44323000Y-63627000D01*
X42037000Y-63627000D01*
X41783000Y-63627000D01*
X40589845Y-63627000D01*
X40468524Y-63856890D01*
X40030000Y-63856890D01*
X40030000Y-54998267D01*
X40100026Y-55129276D01*
X40115076Y-55147614D01*
X40194999Y-55245001D01*
X40224003Y-55268804D01*
X40421928Y-55466729D01*
X40421928Y-56730000D01*
X40434188Y-56854482D01*
X40470498Y-56974180D01*
X40529463Y-57084494D01*
X40608815Y-57181185D01*
X40705506Y-57260537D01*
X40815820Y-57319502D01*
X40888380Y-57341513D01*
X40756525Y-57473368D01*
X40594010Y-57716589D01*
X40482068Y-57986842D01*
X40425000Y-58273740D01*
X40425000Y-58566260D01*
X40482068Y-58853158D01*
X40594010Y-59123411D01*
X40756525Y-59366632D01*
X40963368Y-59573475D01*
X41137760Y-59690000D01*
X40963368Y-59806525D01*
X40756525Y-60013368D01*
X40594010Y-60256589D01*
X40482068Y-60526842D01*
X40425000Y-60813740D01*
X40425000Y-61106260D01*
X40482068Y-61393158D01*
X40594010Y-61663411D01*
X40756525Y-61906632D01*
X40963368Y-62113475D01*
X41145534Y-62235195D01*
X41028645Y-62304822D01*
X40812412Y-62499731D01*
X40638359Y-62733080D01*
X40513175Y-62995901D01*
X40468524Y-63143110D01*
X40589845Y-63373000D01*
X41783000Y-63373000D01*
X41783000Y-63353000D01*
X42037000Y-63353000D01*
X42037000Y-63373000D01*
X44323000Y-63373000D01*
X44323000Y-63353000D01*
X44577000Y-63353000D01*
X44577000Y-63373000D01*
X45770155Y-63373000D01*
X45891476Y-63143110D01*
X45846825Y-62995901D01*
X45721641Y-62733080D01*
X45547588Y-62499731D01*
X45331355Y-62304822D01*
X45214466Y-62235195D01*
X45396632Y-62113475D01*
X45603475Y-61906632D01*
X45765990Y-61663411D01*
X45877932Y-61393158D01*
X45935000Y-61106260D01*
X45935000Y-60813740D01*
X45877932Y-60526842D01*
X45765990Y-60256589D01*
X45603475Y-60013368D01*
X45396632Y-59806525D01*
X45222240Y-59690000D01*
X45396632Y-59573475D01*
X45603475Y-59366632D01*
X45765990Y-59123411D01*
X45877932Y-58853158D01*
X45935000Y-58566260D01*
X45935000Y-58273740D01*
X45877932Y-57986842D01*
X45765990Y-57716589D01*
X45603475Y-57473368D01*
X45471620Y-57341513D01*
X45544180Y-57319502D01*
X45654494Y-57260537D01*
X45751185Y-57181185D01*
X45830537Y-57084494D01*
X45889502Y-56974180D01*
X45925812Y-56854482D01*
X45938072Y-56730000D01*
X45938072Y-55030000D01*
X45925812Y-54905518D01*
X45889502Y-54785820D01*
X45830537Y-54675506D01*
X45751185Y-54578815D01*
X45654494Y-54499463D01*
X45544180Y-54440498D01*
X45424482Y-54404188D01*
X45300000Y-54391928D01*
X43845000Y-54391928D01*
X43845000Y-49613469D01*
X44093109Y-49701481D01*
X44323000Y-49580814D01*
X44323000Y-48387000D01*
X44577000Y-48387000D01*
X44577000Y-49580814D01*
X44806891Y-49701481D01*
X45081252Y-49604157D01*
X45331355Y-49455178D01*
X45547588Y-49260269D01*
X45721641Y-49026920D01*
X45846825Y-48764099D01*
X45891476Y-48616890D01*
X46818524Y-48616890D01*
X46863175Y-48764099D01*
X46988359Y-49026920D01*
X47162412Y-49260269D01*
X47378645Y-49455178D01*
X47628748Y-49604157D01*
X47903109Y-49701481D01*
X48133000Y-49580814D01*
X48133000Y-48387000D01*
X48387000Y-48387000D01*
X48387000Y-49580814D01*
X48616891Y-49701481D01*
X48891252Y-49604157D01*
X49141355Y-49455178D01*
X49357588Y-49260269D01*
X49530000Y-49029120D01*
X49702412Y-49260269D01*
X49918645Y-49455178D01*
X50168748Y-49604157D01*
X50443109Y-49701481D01*
X50673000Y-49580814D01*
X50673000Y-48387000D01*
X48387000Y-48387000D01*
X48133000Y-48387000D01*
X46939845Y-48387000D01*
X46818524Y-48616890D01*
X45891476Y-48616890D01*
X45770155Y-48387000D01*
X44577000Y-48387000D01*
X44323000Y-48387000D01*
X44303000Y-48387000D01*
X44303000Y-48133000D01*
X44323000Y-48133000D01*
X44323000Y-48113000D01*
X44577000Y-48113000D01*
X44577000Y-48133000D01*
X45770155Y-48133000D01*
X45891476Y-47903110D01*
X45846825Y-47755901D01*
X45721641Y-47493080D01*
X45547588Y-47259731D01*
X45331355Y-47064822D01*
X45214466Y-46995195D01*
X45396632Y-46873475D01*
X45603475Y-46666632D01*
X45765990Y-46423411D01*
X45877932Y-46153158D01*
X45935000Y-45866260D01*
X45935000Y-45573740D01*
X45877932Y-45286842D01*
X45765990Y-45016589D01*
X45603475Y-44773368D01*
X45396632Y-44566525D01*
X45222240Y-44450000D01*
X45396632Y-44333475D01*
X45603475Y-44126632D01*
X45765990Y-43883411D01*
X45877932Y-43613158D01*
X45935000Y-43326260D01*
X45935000Y-43033740D01*
X45877932Y-42746842D01*
X45765990Y-42476589D01*
X45603475Y-42233368D01*
X45471620Y-42101513D01*
X45544180Y-42079502D01*
X45654494Y-42020537D01*
X45751185Y-41941185D01*
X45830537Y-41844494D01*
X45889502Y-41734180D01*
X45925812Y-41614482D01*
X45938072Y-41490000D01*
X45938072Y-39790000D01*
X45925812Y-39665518D01*
X45889502Y-39545820D01*
X45830537Y-39435506D01*
X45751185Y-39338815D01*
X45654494Y-39259463D01*
X45544180Y-39200498D01*
X45424482Y-39164188D01*
X45300000Y-39151928D01*
X43600000Y-39151928D01*
X43475518Y-39164188D01*
X43355820Y-39200498D01*
X43245506Y-39259463D01*
X43180000Y-39313222D01*
X43114494Y-39259463D01*
X43004180Y-39200498D01*
X42884482Y-39164188D01*
X42760000Y-39151928D01*
X41060000Y-39151928D01*
X40935518Y-39164188D01*
X40815820Y-39200498D01*
X40705506Y-39259463D01*
X40608815Y-39338815D01*
X40529463Y-39435506D01*
X40470498Y-39545820D01*
X40434188Y-39665518D01*
X40421928Y-39790000D01*
X40421928Y-41053271D01*
X40223998Y-41251201D01*
X40195000Y-41274999D01*
X40171202Y-41303997D01*
X40171201Y-41303998D01*
X40100026Y-41390724D01*
X40030000Y-41521733D01*
X40030000Y-35339872D01*
X40945000Y-35339872D01*
X40945000Y-35780128D01*
X41030890Y-36211925D01*
X41199369Y-36618669D01*
X41443962Y-36984729D01*
X41755271Y-37296038D01*
X42121331Y-37540631D01*
X42528075Y-37709110D01*
X42959872Y-37795000D01*
X43400128Y-37795000D01*
X43831925Y-37709110D01*
X44238669Y-37540631D01*
X44604729Y-37296038D01*
X44916038Y-36984729D01*
X45160631Y-36618669D01*
X45329110Y-36211925D01*
X45415000Y-35780128D01*
X45415000Y-35339872D01*
X45329110Y-34908075D01*
X45160631Y-34501331D01*
X44916038Y-34135271D01*
X44604729Y-33823962D01*
X44238669Y-33579369D01*
X43831925Y-33410890D01*
X43400128Y-33325000D01*
X42959872Y-33325000D01*
X42528075Y-33410890D01*
X42121331Y-33579369D01*
X41755271Y-33823962D01*
X41443962Y-34135271D01*
X41199369Y-34501331D01*
X41030890Y-34908075D01*
X40945000Y-35339872D01*
X40030000Y-35339872D01*
X40030000Y-32410000D01*
X78715001Y-32410000D01*
X78715001Y-47990499D01*
G37*
%TD.AperFunction*%
D19*
X61115000Y-61594250D02*
X61273750Y-61753000D01*
X63373000Y-61753000D01*
X63373000Y-61733000D01*
X63627000Y-61733000D01*
X63627000Y-61753000D01*
X65726250Y-61753000D01*
X65872824Y-61606426D01*
X66917501Y-62651103D01*
X66941299Y-62680101D01*
X67057024Y-62775074D01*
X67189053Y-62845646D01*
X67332314Y-62889103D01*
X67443967Y-62900100D01*
X67443976Y-62900100D01*
X67481299Y-62903776D01*
X67518622Y-62900100D01*
X69761135Y-62900100D01*
X69692068Y-63066842D01*
X69635000Y-63353740D01*
X69635000Y-63646260D01*
X69692068Y-63933158D01*
X69692375Y-63933900D01*
X65560786Y-63933900D01*
X65604494Y-63910537D01*
X65701185Y-63831185D01*
X65780537Y-63734494D01*
X65839502Y-63624180D01*
X65875812Y-63504482D01*
X65888072Y-63380000D01*
X65885000Y-62165750D01*
X65726250Y-62007000D01*
X63627000Y-62007000D01*
X63627000Y-62027000D01*
X63373000Y-62027000D01*
X63373000Y-62007000D01*
X61273750Y-62007000D01*
X61115000Y-62165750D01*
X61111928Y-63380000D01*
X61124188Y-63504482D01*
X61160498Y-63624180D01*
X61219463Y-63734494D01*
X61298815Y-63831185D01*
X61395506Y-63910537D01*
X61439214Y-63933900D01*
X58564002Y-63933900D01*
X57619104Y-62989003D01*
X57595301Y-62959999D01*
X57479576Y-62865026D01*
X57347547Y-62794454D01*
X57204286Y-62750997D01*
X57162796Y-62746911D01*
X57033475Y-62553368D01*
X56826632Y-62346525D01*
X56652240Y-62230000D01*
X56826632Y-62113475D01*
X57033475Y-61906632D01*
X57162796Y-61713089D01*
X57204286Y-61709003D01*
X57347547Y-61665546D01*
X57479576Y-61594974D01*
X57595301Y-61500001D01*
X57619104Y-61470998D01*
X58303702Y-60786400D01*
X61112956Y-60786400D01*
X61115000Y-61594250D01*
%TA.AperFunction,Conductor*%
D20*
G36*
X61115000Y-61594250D02*
G01*
X61273750Y-61753000D01*
X63373000Y-61753000D01*
X63373000Y-61733000D01*
X63627000Y-61733000D01*
X63627000Y-61753000D01*
X65726250Y-61753000D01*
X65872824Y-61606426D01*
X66917501Y-62651103D01*
X66941299Y-62680101D01*
X67057024Y-62775074D01*
X67189053Y-62845646D01*
X67332314Y-62889103D01*
X67443967Y-62900100D01*
X67443976Y-62900100D01*
X67481299Y-62903776D01*
X67518622Y-62900100D01*
X69761135Y-62900100D01*
X69692068Y-63066842D01*
X69635000Y-63353740D01*
X69635000Y-63646260D01*
X69692068Y-63933158D01*
X69692375Y-63933900D01*
X65560786Y-63933900D01*
X65604494Y-63910537D01*
X65701185Y-63831185D01*
X65780537Y-63734494D01*
X65839502Y-63624180D01*
X65875812Y-63504482D01*
X65888072Y-63380000D01*
X65885000Y-62165750D01*
X65726250Y-62007000D01*
X63627000Y-62007000D01*
X63627000Y-62027000D01*
X63373000Y-62027000D01*
X63373000Y-62007000D01*
X61273750Y-62007000D01*
X61115000Y-62165750D01*
X61111928Y-63380000D01*
X61124188Y-63504482D01*
X61160498Y-63624180D01*
X61219463Y-63734494D01*
X61298815Y-63831185D01*
X61395506Y-63910537D01*
X61439214Y-63933900D01*
X58564002Y-63933900D01*
X57619104Y-62989003D01*
X57595301Y-62959999D01*
X57479576Y-62865026D01*
X57347547Y-62794454D01*
X57204286Y-62750997D01*
X57162796Y-62746911D01*
X57033475Y-62553368D01*
X56826632Y-62346525D01*
X56652240Y-62230000D01*
X56826632Y-62113475D01*
X57033475Y-61906632D01*
X57162796Y-61713089D01*
X57204286Y-61709003D01*
X57347547Y-61665546D01*
X57479576Y-61594974D01*
X57595301Y-61500001D01*
X57619104Y-61470998D01*
X58303702Y-60786400D01*
X61112956Y-60786400D01*
X61115000Y-61594250D01*
G37*
%TD.AperFunction*%
D19*
X69692068Y-55446842D02*
X69635000Y-55733740D01*
X69635000Y-56026260D01*
X69692068Y-56313158D01*
X69766276Y-56492313D01*
X68485750Y-56495000D01*
X68327000Y-56653750D01*
X68327000Y-58753000D01*
X68347000Y-58753000D01*
X68347000Y-59007000D01*
X68327000Y-59007000D01*
X68327000Y-61106250D01*
X68485750Y-61265000D01*
X69667069Y-61267478D01*
X69689471Y-61380100D01*
X67796102Y-61380100D01*
X67681490Y-61265488D01*
X67914250Y-61265000D01*
X68073000Y-61106250D01*
X68073000Y-59007000D01*
X65973750Y-59007000D01*
X65815000Y-59165750D01*
X65814488Y-59409983D01*
X65791876Y-59391426D01*
X65659847Y-59320854D01*
X65516586Y-59277397D01*
X65404933Y-59266400D01*
X65404922Y-59266400D01*
X65367600Y-59262724D01*
X65330278Y-59266400D01*
X58026225Y-59266400D01*
X57988900Y-59262724D01*
X57951575Y-59266400D01*
X57951567Y-59266400D01*
X57839914Y-59277397D01*
X57696653Y-59320854D01*
X57564624Y-59391426D01*
X57448899Y-59486399D01*
X57425101Y-59515397D01*
X56980303Y-59960196D01*
X56826632Y-59806525D01*
X56652240Y-59690000D01*
X56826632Y-59573475D01*
X57033475Y-59366632D01*
X57158178Y-59180000D01*
X64892878Y-59180000D01*
X64930200Y-59183676D01*
X64967522Y-59180000D01*
X64967533Y-59180000D01*
X65079186Y-59169003D01*
X65222447Y-59125546D01*
X65354476Y-59054974D01*
X65470201Y-58960001D01*
X65494004Y-58930997D01*
X65822876Y-58602126D01*
X65973750Y-58753000D01*
X68073000Y-58753000D01*
X68073000Y-56653750D01*
X67922126Y-56502876D01*
X69106602Y-55318400D01*
X69745270Y-55318400D01*
X69692068Y-55446842D01*
%TA.AperFunction,Conductor*%
D20*
G36*
X69692068Y-55446842D02*
G01*
X69635000Y-55733740D01*
X69635000Y-56026260D01*
X69692068Y-56313158D01*
X69766276Y-56492313D01*
X68485750Y-56495000D01*
X68327000Y-56653750D01*
X68327000Y-58753000D01*
X68347000Y-58753000D01*
X68347000Y-59007000D01*
X68327000Y-59007000D01*
X68327000Y-61106250D01*
X68485750Y-61265000D01*
X69667069Y-61267478D01*
X69689471Y-61380100D01*
X67796102Y-61380100D01*
X67681490Y-61265488D01*
X67914250Y-61265000D01*
X68073000Y-61106250D01*
X68073000Y-59007000D01*
X65973750Y-59007000D01*
X65815000Y-59165750D01*
X65814488Y-59409983D01*
X65791876Y-59391426D01*
X65659847Y-59320854D01*
X65516586Y-59277397D01*
X65404933Y-59266400D01*
X65404922Y-59266400D01*
X65367600Y-59262724D01*
X65330278Y-59266400D01*
X58026225Y-59266400D01*
X57988900Y-59262724D01*
X57951575Y-59266400D01*
X57951567Y-59266400D01*
X57839914Y-59277397D01*
X57696653Y-59320854D01*
X57564624Y-59391426D01*
X57448899Y-59486399D01*
X57425101Y-59515397D01*
X56980303Y-59960196D01*
X56826632Y-59806525D01*
X56652240Y-59690000D01*
X56826632Y-59573475D01*
X57033475Y-59366632D01*
X57158178Y-59180000D01*
X64892878Y-59180000D01*
X64930200Y-59183676D01*
X64967522Y-59180000D01*
X64967533Y-59180000D01*
X65079186Y-59169003D01*
X65222447Y-59125546D01*
X65354476Y-59054974D01*
X65470201Y-58960001D01*
X65494004Y-58930997D01*
X65822876Y-58602126D01*
X65973750Y-58753000D01*
X68073000Y-58753000D01*
X68073000Y-56653750D01*
X67922126Y-56502876D01*
X69106602Y-55318400D01*
X69745270Y-55318400D01*
X69692068Y-55446842D01*
G37*
%TD.AperFunction*%
D19*
X42037000Y-48133000D02*
X42057000Y-48133000D01*
X42057000Y-48387000D01*
X42037000Y-48387000D01*
X42037000Y-49580814D01*
X42266891Y-49701481D01*
X42325001Y-49680868D01*
X42325000Y-54391928D01*
X41496729Y-54391928D01*
X41495000Y-54390199D01*
X41495000Y-49680868D01*
X41553109Y-49701481D01*
X41783000Y-49580814D01*
X41783000Y-48387000D01*
X41763000Y-48387000D01*
X41763000Y-48133000D01*
X41783000Y-48133000D01*
X41783000Y-48113000D01*
X42037000Y-48113000D01*
X42037000Y-48133000D01*
%TA.AperFunction,Conductor*%
D20*
G36*
X42037000Y-48133000D02*
G01*
X42057000Y-48133000D01*
X42057000Y-48387000D01*
X42037000Y-48387000D01*
X42037000Y-49580814D01*
X42266891Y-49701481D01*
X42325001Y-49680868D01*
X42325000Y-54391928D01*
X41496729Y-54391928D01*
X41495000Y-54390199D01*
X41495000Y-49680868D01*
X41553109Y-49701481D01*
X41783000Y-49580814D01*
X41783000Y-48387000D01*
X41763000Y-48387000D01*
X41763000Y-48133000D01*
X41783000Y-48133000D01*
X41783000Y-48113000D01*
X42037000Y-48113000D01*
X42037000Y-48133000D01*
G37*
%TD.AperFunction*%
D19*
X63627000Y-51943000D02*
X63647000Y-51943000D01*
X63647000Y-52197000D01*
X63627000Y-52197000D01*
X63627000Y-52217000D01*
X63373000Y-52217000D01*
X63373000Y-52197000D01*
X63353000Y-52197000D01*
X63353000Y-51943000D01*
X63373000Y-51943000D01*
X63373000Y-51923000D01*
X63627000Y-51923000D01*
X63627000Y-51943000D01*
%TA.AperFunction,Conductor*%
D20*
G36*
X63627000Y-51943000D02*
G01*
X63647000Y-51943000D01*
X63647000Y-52197000D01*
X63627000Y-52197000D01*
X63627000Y-52217000D01*
X63373000Y-52217000D01*
X63373000Y-52197000D01*
X63353000Y-52197000D01*
X63353000Y-51943000D01*
X63373000Y-51943000D01*
X63373000Y-51923000D01*
X63627000Y-51923000D01*
X63627000Y-51943000D01*
G37*
%TD.AperFunction*%
D19*
X64175518Y-45190812D02*
X64300000Y-45203072D01*
X65113271Y-45203072D01*
X66141200Y-46231002D01*
X66164999Y-46260001D01*
X66280724Y-46354974D01*
X66412753Y-46425546D01*
X66556014Y-46469003D01*
X66667667Y-46480000D01*
X66667677Y-46480000D01*
X66705000Y-46483676D01*
X66742323Y-46480000D01*
X69841822Y-46480000D01*
X69966525Y-46666632D01*
X70173368Y-46873475D01*
X70347760Y-46990000D01*
X70173368Y-47106525D01*
X69966525Y-47313368D01*
X69804010Y-47556589D01*
X69692068Y-47826842D01*
X69635000Y-48113740D01*
X69635000Y-48406260D01*
X69691698Y-48691300D01*
X69667511Y-48691300D01*
X69544874Y-48568663D01*
X69375356Y-48455395D01*
X69186998Y-48377374D01*
X68987039Y-48337600D01*
X68783161Y-48337600D01*
X68583202Y-48377374D01*
X68394844Y-48455395D01*
X68225326Y-48568663D01*
X68081163Y-48712826D01*
X67967895Y-48882344D01*
X67889874Y-49070702D01*
X67850100Y-49270661D01*
X67850100Y-49474539D01*
X67889874Y-49674498D01*
X67967895Y-49862856D01*
X68081163Y-50032374D01*
X68225326Y-50176537D01*
X68394844Y-50289805D01*
X68583202Y-50367826D01*
X68783161Y-50407600D01*
X68987039Y-50407600D01*
X69186998Y-50367826D01*
X69375356Y-50289805D01*
X69492847Y-50211300D01*
X69756495Y-50211300D01*
X69692068Y-50366842D01*
X69635000Y-50653740D01*
X69635000Y-50946260D01*
X69688993Y-51217700D01*
X68734802Y-51217700D01*
X67750704Y-50233603D01*
X67726901Y-50204599D01*
X67611176Y-50109626D01*
X67479147Y-50039054D01*
X67335886Y-49995597D01*
X67224233Y-49984600D01*
X67224222Y-49984600D01*
X67186900Y-49980924D01*
X67149578Y-49984600D01*
X65696059Y-49984600D01*
X65715812Y-49919482D01*
X65728072Y-49795000D01*
X65725000Y-49180750D01*
X65566250Y-49022000D01*
X64554500Y-49022000D01*
X64554500Y-49042000D01*
X64300500Y-49042000D01*
X64300500Y-49022000D01*
X63288750Y-49022000D01*
X63130000Y-49180750D01*
X63126928Y-49795000D01*
X63139188Y-49919482D01*
X63158941Y-49984600D01*
X62921311Y-49984600D01*
X62889774Y-49953063D01*
X62720256Y-49839795D01*
X62568240Y-49776828D01*
X62586008Y-49718255D01*
X62603072Y-49545001D01*
X62603072Y-48244999D01*
X62586008Y-48071745D01*
X62562728Y-47995000D01*
X63126928Y-47995000D01*
X63130000Y-48609250D01*
X63288750Y-48768000D01*
X64300500Y-48768000D01*
X64300500Y-47518750D01*
X64554500Y-47518750D01*
X64554500Y-48768000D01*
X65566250Y-48768000D01*
X65725000Y-48609250D01*
X65728072Y-47995000D01*
X65715812Y-47870518D01*
X65679502Y-47750820D01*
X65620537Y-47640506D01*
X65541185Y-47543815D01*
X65444494Y-47464463D01*
X65334180Y-47405498D01*
X65214482Y-47369188D01*
X65090000Y-47356928D01*
X64713250Y-47360000D01*
X64554500Y-47518750D01*
X64300500Y-47518750D01*
X64141750Y-47360000D01*
X63765000Y-47356928D01*
X63640518Y-47369188D01*
X63520820Y-47405498D01*
X63410506Y-47464463D01*
X63313815Y-47543815D01*
X63234463Y-47640506D01*
X63175498Y-47750820D01*
X63139188Y-47870518D01*
X63126928Y-47995000D01*
X62562728Y-47995000D01*
X62535472Y-47905149D01*
X62453405Y-47751613D01*
X62342962Y-47617038D01*
X62208387Y-47506595D01*
X62062500Y-47428616D01*
X62062500Y-45203072D01*
X62700000Y-45203072D01*
X62824482Y-45190812D01*
X62850000Y-45183071D01*
X62875518Y-45190812D01*
X63000000Y-45203072D01*
X64000000Y-45203072D01*
X64124482Y-45190812D01*
X64150000Y-45183071D01*
X64175518Y-45190812D01*
%TA.AperFunction,Conductor*%
D20*
G36*
X64175518Y-45190812D02*
G01*
X64300000Y-45203072D01*
X65113271Y-45203072D01*
X66141200Y-46231002D01*
X66164999Y-46260001D01*
X66280724Y-46354974D01*
X66412753Y-46425546D01*
X66556014Y-46469003D01*
X66667667Y-46480000D01*
X66667677Y-46480000D01*
X66705000Y-46483676D01*
X66742323Y-46480000D01*
X69841822Y-46480000D01*
X69966525Y-46666632D01*
X70173368Y-46873475D01*
X70347760Y-46990000D01*
X70173368Y-47106525D01*
X69966525Y-47313368D01*
X69804010Y-47556589D01*
X69692068Y-47826842D01*
X69635000Y-48113740D01*
X69635000Y-48406260D01*
X69691698Y-48691300D01*
X69667511Y-48691300D01*
X69544874Y-48568663D01*
X69375356Y-48455395D01*
X69186998Y-48377374D01*
X68987039Y-48337600D01*
X68783161Y-48337600D01*
X68583202Y-48377374D01*
X68394844Y-48455395D01*
X68225326Y-48568663D01*
X68081163Y-48712826D01*
X67967895Y-48882344D01*
X67889874Y-49070702D01*
X67850100Y-49270661D01*
X67850100Y-49474539D01*
X67889874Y-49674498D01*
X67967895Y-49862856D01*
X68081163Y-50032374D01*
X68225326Y-50176537D01*
X68394844Y-50289805D01*
X68583202Y-50367826D01*
X68783161Y-50407600D01*
X68987039Y-50407600D01*
X69186998Y-50367826D01*
X69375356Y-50289805D01*
X69492847Y-50211300D01*
X69756495Y-50211300D01*
X69692068Y-50366842D01*
X69635000Y-50653740D01*
X69635000Y-50946260D01*
X69688993Y-51217700D01*
X68734802Y-51217700D01*
X67750704Y-50233603D01*
X67726901Y-50204599D01*
X67611176Y-50109626D01*
X67479147Y-50039054D01*
X67335886Y-49995597D01*
X67224233Y-49984600D01*
X67224222Y-49984600D01*
X67186900Y-49980924D01*
X67149578Y-49984600D01*
X65696059Y-49984600D01*
X65715812Y-49919482D01*
X65728072Y-49795000D01*
X65725000Y-49180750D01*
X65566250Y-49022000D01*
X64554500Y-49022000D01*
X64554500Y-49042000D01*
X64300500Y-49042000D01*
X64300500Y-49022000D01*
X63288750Y-49022000D01*
X63130000Y-49180750D01*
X63126928Y-49795000D01*
X63139188Y-49919482D01*
X63158941Y-49984600D01*
X62921311Y-49984600D01*
X62889774Y-49953063D01*
X62720256Y-49839795D01*
X62568240Y-49776828D01*
X62586008Y-49718255D01*
X62603072Y-49545001D01*
X62603072Y-48244999D01*
X62586008Y-48071745D01*
X62562728Y-47995000D01*
X63126928Y-47995000D01*
X63130000Y-48609250D01*
X63288750Y-48768000D01*
X64300500Y-48768000D01*
X64300500Y-47518750D01*
X64554500Y-47518750D01*
X64554500Y-48768000D01*
X65566250Y-48768000D01*
X65725000Y-48609250D01*
X65728072Y-47995000D01*
X65715812Y-47870518D01*
X65679502Y-47750820D01*
X65620537Y-47640506D01*
X65541185Y-47543815D01*
X65444494Y-47464463D01*
X65334180Y-47405498D01*
X65214482Y-47369188D01*
X65090000Y-47356928D01*
X64713250Y-47360000D01*
X64554500Y-47518750D01*
X64300500Y-47518750D01*
X64141750Y-47360000D01*
X63765000Y-47356928D01*
X63640518Y-47369188D01*
X63520820Y-47405498D01*
X63410506Y-47464463D01*
X63313815Y-47543815D01*
X63234463Y-47640506D01*
X63175498Y-47750820D01*
X63139188Y-47870518D01*
X63126928Y-47995000D01*
X62562728Y-47995000D01*
X62535472Y-47905149D01*
X62453405Y-47751613D01*
X62342962Y-47617038D01*
X62208387Y-47506595D01*
X62062500Y-47428616D01*
X62062500Y-45203072D01*
X62700000Y-45203072D01*
X62824482Y-45190812D01*
X62850000Y-45183071D01*
X62875518Y-45190812D01*
X63000000Y-45203072D01*
X64000000Y-45203072D01*
X64124482Y-45190812D01*
X64150000Y-45183071D01*
X64175518Y-45190812D01*
G37*
%TD.AperFunction*%
D19*
X54438524Y-45363110D02*
X54559845Y-45593000D01*
X55753000Y-45593000D01*
X55753000Y-45573000D01*
X56007000Y-45573000D01*
X56007000Y-45593000D01*
X56027000Y-45593000D01*
X56027000Y-45847000D01*
X56007000Y-45847000D01*
X56007000Y-45867000D01*
X55753000Y-45867000D01*
X55753000Y-45847000D01*
X54559845Y-45847000D01*
X54438524Y-46076890D01*
X54483175Y-46224099D01*
X54608359Y-46486920D01*
X54782412Y-46720269D01*
X54998645Y-46915178D01*
X55115534Y-46984805D01*
X54933368Y-47106525D01*
X54726525Y-47313368D01*
X54564010Y-47556589D01*
X54452068Y-47826842D01*
X54395000Y-48113740D01*
X54395000Y-48406260D01*
X54452068Y-48693158D01*
X54564010Y-48963411D01*
X54726525Y-49206632D01*
X54933368Y-49413475D01*
X55107760Y-49530000D01*
X54933368Y-49646525D01*
X54726525Y-49853368D01*
X54601822Y-50040000D01*
X53187323Y-50040000D01*
X53150000Y-50036324D01*
X53112677Y-50040000D01*
X53112667Y-50040000D01*
X53001014Y-50050997D01*
X52857753Y-50094454D01*
X52735000Y-50160067D01*
X52735000Y-45304600D01*
X54456271Y-45304600D01*
X54438524Y-45363110D01*
%TA.AperFunction,Conductor*%
D20*
G36*
X54438524Y-45363110D02*
G01*
X54559845Y-45593000D01*
X55753000Y-45593000D01*
X55753000Y-45573000D01*
X56007000Y-45573000D01*
X56007000Y-45593000D01*
X56027000Y-45593000D01*
X56027000Y-45847000D01*
X56007000Y-45847000D01*
X56007000Y-45867000D01*
X55753000Y-45867000D01*
X55753000Y-45847000D01*
X54559845Y-45847000D01*
X54438524Y-46076890D01*
X54483175Y-46224099D01*
X54608359Y-46486920D01*
X54782412Y-46720269D01*
X54998645Y-46915178D01*
X55115534Y-46984805D01*
X54933368Y-47106525D01*
X54726525Y-47313368D01*
X54564010Y-47556589D01*
X54452068Y-47826842D01*
X54395000Y-48113740D01*
X54395000Y-48406260D01*
X54452068Y-48693158D01*
X54564010Y-48963411D01*
X54726525Y-49206632D01*
X54933368Y-49413475D01*
X55107760Y-49530000D01*
X54933368Y-49646525D01*
X54726525Y-49853368D01*
X54601822Y-50040000D01*
X53187323Y-50040000D01*
X53150000Y-50036324D01*
X53112677Y-50040000D01*
X53112667Y-50040000D01*
X53001014Y-50050997D01*
X52857753Y-50094454D01*
X52735000Y-50160067D01*
X52735000Y-45304600D01*
X54456271Y-45304600D01*
X54438524Y-45363110D01*
G37*
%TD.AperFunction*%
D19*
X69631928Y-38704700D02*
X65435465Y-38704700D01*
X65514301Y-38640001D01*
X65538104Y-38610997D01*
X66464502Y-37684600D01*
X69631928Y-37684600D01*
X69631928Y-38704700D01*
%TA.AperFunction,Conductor*%
D20*
G36*
X69631928Y-38704700D02*
G01*
X65435465Y-38704700D01*
X65514301Y-38640001D01*
X65538104Y-38610997D01*
X66464502Y-37684600D01*
X69631928Y-37684600D01*
X69631928Y-38704700D01*
G37*
%TD.AperFunction*%
%TD*%
M02*
