%TF.GenerationSoftware,KiCad,Pcbnew,(5.1.9)-1*%
%TF.CreationDate,2021-07-04T22:14:26+10:00*%
%TF.ProjectId,i2c-master,6932632d-6d61-4737-9465-722e6b696361,rev?*%
%TF.SameCoordinates,Original*%
%TF.FileFunction,Copper,L2,Bot*%
%TF.FilePolarity,Positive*%
%FSLAX46Y46*%
G04 Gerber Fmt 4.6, Leading zero omitted, Abs format (unit mm)*
G04 Created by KiCad (PCBNEW (5.1.9)-1) date 2021-07-04 22:14:26*
%MOMM*%
%LPD*%
G01*
G04 APERTURE LIST*
%TA.AperFunction,ComponentPad*%
%ADD10O,1.700000X1.700000*%
%TD*%
%TA.AperFunction,ComponentPad*%
%ADD11R,1.700000X1.700000*%
%TD*%
%TA.AperFunction,ComponentPad*%
%ADD12O,1.905000X2.000000*%
%TD*%
%TA.AperFunction,ComponentPad*%
%ADD13R,1.905000X2.000000*%
%TD*%
%TA.AperFunction,ComponentPad*%
%ADD14R,3.500000X3.500000*%
%TD*%
%TA.AperFunction,ViaPad*%
%ADD15C,0.800000*%
%TD*%
%TA.AperFunction,Conductor*%
%ADD16C,0.250000*%
%TD*%
%TA.AperFunction,Conductor*%
%ADD17C,0.254000*%
%TD*%
%TA.AperFunction,Conductor*%
%ADD18C,0.100000*%
%TD*%
G04 APERTURE END LIST*
D10*
%TO.P,J12,20*%
%TO.N,GND*%
X76835000Y-61595000D03*
%TO.P,J12,19*%
%TO.N,VCC*%
X74295000Y-61595000D03*
%TO.P,J12,18*%
%TO.N,IO21-A3*%
X76835000Y-59055000D03*
%TO.P,J12,17*%
%TO.N,IO8-A8*%
X74295000Y-59055000D03*
%TO.P,J12,16*%
%TO.N,IO20-A2*%
X76835000Y-56515000D03*
%TO.P,J12,15*%
%TO.N,IO7*%
X74295000Y-56515000D03*
%TO.P,J12,14*%
%TO.N,IO19-A1*%
X76835000Y-53975000D03*
%TO.P,J12,13*%
%TO.N,!IO6-A7*%
X74295000Y-53975000D03*
%TO.P,J12,12*%
%TO.N,IO18-A0*%
X76835000Y-51435000D03*
%TO.P,J12,11*%
%TO.N,!IO5*%
X74295000Y-51435000D03*
%TO.P,J12,10*%
%TO.N,IO16-MOSI*%
X76835000Y-48895000D03*
%TO.P,J12,9*%
%TO.N,IO4-A6*%
X74295000Y-48895000D03*
%TO.P,J12,8*%
%TO.N,IO15-SCK*%
X76835000Y-46355000D03*
%TO.P,J12,7*%
%TO.N,!IO3-SCL*%
X74295000Y-46355000D03*
%TO.P,J12,6*%
%TO.N,IO14-MISO*%
X76835000Y-43815000D03*
%TO.P,J12,5*%
%TO.N,IO2-SDA*%
X74295000Y-43815000D03*
%TO.P,J12,4*%
%TO.N,!IO10-A10*%
X76835000Y-41275000D03*
%TO.P,J12,3*%
%TO.N,IO1-TX*%
X74295000Y-41275000D03*
%TO.P,J12,2*%
%TO.N,!IO9-A9*%
X76835000Y-38735000D03*
D11*
%TO.P,J12,1*%
%TO.N,IO0-RX*%
X74295000Y-38735000D03*
%TD*%
D12*
%TO.P,U1,3*%
%TO.N,Net-(C1-Pad1)*%
X60960000Y-52070000D03*
%TO.P,U1,2*%
%TO.N,GND*%
X63500000Y-52070000D03*
D13*
%TO.P,U1,1*%
%TO.N,VIN*%
X66040000Y-52070000D03*
%TD*%
%TO.P,J11,3*%
%TO.N,GND*%
%TA.AperFunction,ComponentPad*%
G36*
G01*
X69075000Y-60630000D02*
X67325000Y-60630000D01*
G75*
G02*
X66450000Y-59755000I0J875000D01*
G01*
X66450000Y-58005000D01*
G75*
G02*
X67325000Y-57130000I875000J0D01*
G01*
X69075000Y-57130000D01*
G75*
G02*
X69950000Y-58005000I0J-875000D01*
G01*
X69950000Y-59755000D01*
G75*
G02*
X69075000Y-60630000I-875000J0D01*
G01*
G37*
%TD.AperFunction*%
%TO.P,J11,2*%
%TA.AperFunction,ComponentPad*%
G36*
G01*
X64500000Y-63380000D02*
X62500000Y-63380000D01*
G75*
G02*
X61750000Y-62630000I0J750000D01*
G01*
X61750000Y-61130000D01*
G75*
G02*
X62500000Y-60380000I750000J0D01*
G01*
X64500000Y-60380000D01*
G75*
G02*
X65250000Y-61130000I0J-750000D01*
G01*
X65250000Y-62630000D01*
G75*
G02*
X64500000Y-63380000I-750000J0D01*
G01*
G37*
%TD.AperFunction*%
D14*
%TO.P,J11,1*%
%TO.N,VIN*%
X63500000Y-55880000D03*
%TD*%
D10*
%TO.P,J10,4*%
%TO.N,GND*%
X41910000Y-63500000D03*
%TO.P,J10,3*%
%TO.N,IO2-SDA*%
X41910000Y-60960000D03*
%TO.P,J10,2*%
%TO.N,!IO3-SCL*%
X41910000Y-58420000D03*
D11*
%TO.P,J10,1*%
%TO.N,+5V*%
X41910000Y-55880000D03*
%TD*%
D10*
%TO.P,J9,4*%
%TO.N,GND*%
X44450000Y-63500000D03*
%TO.P,J9,3*%
%TO.N,IO2-SDA*%
X44450000Y-60960000D03*
%TO.P,J9,2*%
%TO.N,!IO3-SCL*%
X44450000Y-58420000D03*
D11*
%TO.P,J9,1*%
%TO.N,+5V*%
X44450000Y-55880000D03*
%TD*%
D10*
%TO.P,J8,4*%
%TO.N,GND*%
X41910000Y-48260000D03*
%TO.P,J8,3*%
%TO.N,IO2-SDA*%
X41910000Y-45720000D03*
%TO.P,J8,2*%
%TO.N,!IO3-SCL*%
X41910000Y-43180000D03*
D11*
%TO.P,J8,1*%
%TO.N,+5V*%
X41910000Y-40640000D03*
%TD*%
D10*
%TO.P,J7,4*%
%TO.N,GND*%
X44450000Y-48260000D03*
%TO.P,J7,3*%
%TO.N,IO2-SDA*%
X44450000Y-45720000D03*
%TO.P,J7,2*%
%TO.N,!IO3-SCL*%
X44450000Y-43180000D03*
D11*
%TO.P,J7,1*%
%TO.N,+5V*%
X44450000Y-40640000D03*
%TD*%
D10*
%TO.P,J6,12*%
%TO.N,!IO10-A10*%
X71120000Y-66040000D03*
%TO.P,J6,11*%
%TO.N,IO16-MOSI*%
X71120000Y-63500000D03*
%TO.P,J6,10*%
%TO.N,IO14-MISO*%
X71120000Y-60960000D03*
%TO.P,J6,9*%
%TO.N,IO15-SCK*%
X71120000Y-58420000D03*
%TO.P,J6,8*%
%TO.N,IO18-A0*%
X71120000Y-55880000D03*
%TO.P,J6,7*%
%TO.N,IO19-A1*%
X71120000Y-53340000D03*
%TO.P,J6,6*%
%TO.N,IO20-A2*%
X71120000Y-50800000D03*
%TO.P,J6,5*%
%TO.N,IO21-A3*%
X71120000Y-48260000D03*
%TO.P,J6,4*%
%TO.N,VCC*%
X71120000Y-45720000D03*
%TO.P,J6,3*%
%TO.N,RST*%
X71120000Y-43180000D03*
%TO.P,J6,2*%
%TO.N,GND*%
X71120000Y-40640000D03*
D11*
%TO.P,J6,1*%
%TO.N,VIN*%
X71120000Y-38100000D03*
%TD*%
D10*
%TO.P,J5,4*%
%TO.N,GND*%
X50800000Y-63500000D03*
%TO.P,J5,3*%
%TO.N,IO2-SDA*%
X50800000Y-60960000D03*
%TO.P,J5,2*%
%TO.N,!IO3-SCL*%
X50800000Y-58420000D03*
D11*
%TO.P,J5,1*%
%TO.N,+5V*%
X50800000Y-55880000D03*
%TD*%
D10*
%TO.P,J4,4*%
%TO.N,GND*%
X48260000Y-63500000D03*
%TO.P,J4,3*%
%TO.N,IO2-SDA*%
X48260000Y-60960000D03*
%TO.P,J4,2*%
%TO.N,!IO3-SCL*%
X48260000Y-58420000D03*
D11*
%TO.P,J4,1*%
%TO.N,+5V*%
X48260000Y-55880000D03*
%TD*%
D10*
%TO.P,J3,4*%
%TO.N,GND*%
X50800000Y-48260000D03*
%TO.P,J3,3*%
%TO.N,IO2-SDA*%
X50800000Y-45720000D03*
%TO.P,J3,2*%
%TO.N,!IO3-SCL*%
X50800000Y-43180000D03*
D11*
%TO.P,J3,1*%
%TO.N,+5V*%
X50800000Y-40640000D03*
%TD*%
D10*
%TO.P,J2,4*%
%TO.N,GND*%
X48260000Y-48260000D03*
%TO.P,J2,3*%
%TO.N,IO2-SDA*%
X48260000Y-45720000D03*
%TO.P,J2,2*%
%TO.N,!IO3-SCL*%
X48260000Y-43180000D03*
D11*
%TO.P,J2,1*%
%TO.N,+5V*%
X48260000Y-40640000D03*
%TD*%
D10*
%TO.P,J1,12*%
%TO.N,!IO9-A9*%
X55880000Y-66040000D03*
%TO.P,J1,11*%
%TO.N,IO8-A8*%
X55880000Y-63500000D03*
%TO.P,J1,10*%
%TO.N,IO7*%
X55880000Y-60960000D03*
%TO.P,J1,9*%
%TO.N,!IO6-A7*%
X55880000Y-58420000D03*
%TO.P,J1,8*%
%TO.N,!IO5*%
X55880000Y-55880000D03*
%TO.P,J1,7*%
%TO.N,IO4-A6*%
X55880000Y-53340000D03*
%TO.P,J1,6*%
%TO.N,!IO3-SCL*%
X55880000Y-50800000D03*
%TO.P,J1,5*%
%TO.N,IO2-SDA*%
X55880000Y-48260000D03*
%TO.P,J1,4*%
%TO.N,GND*%
X55880000Y-45720000D03*
%TO.P,J1,3*%
X55880000Y-43180000D03*
%TO.P,J1,2*%
%TO.N,IO0-RX*%
X55880000Y-40640000D03*
D11*
%TO.P,J1,1*%
%TO.N,IO1-TX*%
X55880000Y-38100000D03*
%TD*%
D15*
%TO.N,!IO5*%
X62230000Y-50757000D03*
%TO.N,IO4-A6*%
X68885100Y-49372600D03*
%TO.N,GND*%
X68580000Y-66040000D03*
X68580000Y-38100000D03*
X53340000Y-60960000D03*
X53340000Y-38100000D03*
X53340000Y-55880000D03*
X41910000Y-52070000D03*
X41910000Y-66040000D03*
X53340000Y-66040000D03*
X53340000Y-48260000D03*
X53340000Y-43180000D03*
X49530000Y-52070000D03*
X62865000Y-48895000D03*
X64770000Y-45720000D03*
%TO.N,+5V*%
X63500000Y-42545000D03*
%TD*%
D16*
%TO.N,!IO9-A9*%
X75659700Y-39910300D02*
X76835000Y-38735000D01*
X73514500Y-39910300D02*
X75659700Y-39910300D01*
X69457900Y-48919600D02*
X69457900Y-43135000D01*
X71493900Y-41930900D02*
X73514500Y-39910300D01*
X69305400Y-54043300D02*
X69305400Y-49978100D01*
X64185900Y-59162800D02*
X69305400Y-54043300D01*
X69457900Y-43135000D02*
X70662000Y-41930900D01*
X70662000Y-41930900D02*
X71493900Y-41930900D01*
X69305400Y-49978100D02*
X69610400Y-49673100D01*
X69610400Y-49673100D02*
X69610400Y-49072100D01*
X69610400Y-49072100D02*
X69457900Y-48919600D01*
X62757200Y-59162800D02*
X64185900Y-59162800D01*
X55880000Y-66040000D02*
X62757200Y-59162800D01*
%TO.N,!IO5*%
X62217600Y-50744600D02*
X62230000Y-50757000D01*
X58475700Y-50744600D02*
X62217600Y-50744600D01*
X57150300Y-52070000D02*
X58475700Y-50744600D01*
X55407100Y-52070000D02*
X57150300Y-52070000D01*
X54664500Y-52812600D02*
X55407100Y-52070000D01*
X54664500Y-54664500D02*
X54664500Y-52812600D01*
X55880000Y-55880000D02*
X54664500Y-54664500D01*
%TO.N,IO4-A6*%
X55880000Y-53340000D02*
X57055300Y-53340000D01*
X57055300Y-53340000D02*
X57110700Y-53395400D01*
X57110700Y-53395400D02*
X67140500Y-53395400D01*
X67140500Y-53395400D02*
X67897900Y-52638000D01*
X67897900Y-52638000D02*
X67897900Y-50359800D01*
X67897900Y-50359800D02*
X68885100Y-49372600D01*
%TO.N,!IO3-SCL*%
X44450000Y-43180000D02*
X41910000Y-43180000D01*
X48260000Y-43180000D02*
X44450000Y-43180000D01*
X44450000Y-58420000D02*
X48260000Y-58420000D01*
X41910000Y-58420000D02*
X44450000Y-58420000D01*
X48260000Y-58420000D02*
X50800000Y-58420000D01*
X50800000Y-43180000D02*
X48260000Y-43180000D01*
%TO.N,IO2-SDA*%
X44450000Y-45720000D02*
X48260000Y-45720000D01*
X41910000Y-45720000D02*
X44450000Y-45720000D01*
X44450000Y-60960000D02*
X41910000Y-60960000D01*
X48260000Y-60960000D02*
X44450000Y-60960000D01*
X50800000Y-60960000D02*
X48260000Y-60960000D01*
X48260000Y-45720000D02*
X50800000Y-45720000D01*
X50800000Y-45720000D02*
X53340000Y-45720000D01*
X53340000Y-45720000D02*
X55880000Y-48260000D01*
%TO.N,GND*%
X44450000Y-48260000D02*
X41910000Y-48260000D01*
X48260000Y-48260000D02*
X44450000Y-48260000D01*
X44450000Y-63500000D02*
X48260000Y-63500000D01*
X41910000Y-63500000D02*
X44450000Y-63500000D01*
X48260000Y-63500000D02*
X50800000Y-63500000D01*
X50800000Y-48260000D02*
X48260000Y-48260000D01*
%TO.N,+5V*%
X44450000Y-40640000D02*
X48260000Y-40640000D01*
X41910000Y-40640000D02*
X44450000Y-40640000D01*
X44450000Y-55880000D02*
X48260000Y-55880000D01*
X41910000Y-55880000D02*
X44450000Y-55880000D01*
X48260000Y-55880000D02*
X50800000Y-55880000D01*
X48260000Y-40640000D02*
X50800000Y-40640000D01*
X50800000Y-40640000D02*
X51975000Y-41815000D01*
X51975000Y-41815000D02*
X62770000Y-41815000D01*
X62770000Y-41815000D02*
X63500000Y-42545000D01*
%TO.N,!IO10-A10*%
X78010300Y-42450300D02*
X76835000Y-41275000D01*
X78010300Y-65072300D02*
X78010300Y-42450300D01*
X76343500Y-66739100D02*
X78010300Y-65072300D01*
X72994400Y-66739100D02*
X76343500Y-66739100D01*
X72295300Y-66040000D02*
X72994400Y-66739100D01*
X71120000Y-66040000D02*
X72295300Y-66040000D01*
%TO.N,IO16-MOSI*%
X72950700Y-62844600D02*
X72295300Y-63500000D01*
X72295300Y-63500000D02*
X71120000Y-63500000D01*
X74777600Y-62844600D02*
X72950700Y-62844600D01*
X75659700Y-61962500D02*
X74777600Y-62844600D01*
X75659700Y-50070300D02*
X75659700Y-61962500D01*
X76835000Y-48895000D02*
X75659700Y-50070300D01*
%TO.N,IO14-MISO*%
X69916000Y-62164000D02*
X71120000Y-60960000D01*
X70674600Y-67286300D02*
X69916000Y-66527700D01*
X78494500Y-65225000D02*
X76433200Y-67286300D01*
X78494500Y-41259000D02*
X78494500Y-65225000D01*
X77295600Y-40060100D02*
X78494500Y-41259000D01*
X76433200Y-67286300D02*
X70674600Y-67286300D01*
X76348500Y-40060100D02*
X77295600Y-40060100D01*
X75641800Y-40766800D02*
X76348500Y-40060100D01*
X75641800Y-42621800D02*
X75641800Y-40766800D01*
X69916000Y-66527700D02*
X69916000Y-62164000D01*
X76835000Y-43815000D02*
X75641800Y-42621800D01*
%TO.N,IO15-SCK*%
X71120000Y-58420000D02*
X71120000Y-57785000D01*
X69913200Y-56385900D02*
X71120000Y-57592700D01*
X69913200Y-50007200D02*
X69913200Y-56385900D01*
X71120000Y-57592700D02*
X71120000Y-58420000D01*
X70060700Y-49859700D02*
X69913200Y-50007200D01*
X70060700Y-48885500D02*
X70060700Y-49859700D01*
X69913200Y-48738000D02*
X70060700Y-48885500D01*
X69913200Y-45226700D02*
X69913200Y-48738000D01*
X70625800Y-44514100D02*
X69913200Y-45226700D01*
X71819100Y-44514100D02*
X70625800Y-44514100D01*
X72484700Y-45179700D02*
X71819100Y-44514100D01*
X75659700Y-45179700D02*
X72484700Y-45179700D01*
X76835000Y-46355000D02*
X75659700Y-45179700D01*
%TO.N,VCC*%
X73119700Y-60419700D02*
X74295000Y-61595000D01*
X73119700Y-47719700D02*
X73119700Y-60419700D01*
X71120000Y-45720000D02*
X73119700Y-47719700D01*
%TO.N,VIN*%
X66040000Y-52070000D02*
X66040000Y-43180000D01*
X66040000Y-43180000D02*
X71120000Y-38100000D01*
%TD*%
D17*
%TO.N,GND*%
X78715001Y-40404699D02*
X77989860Y-39679559D01*
X78150990Y-39438411D01*
X78262932Y-39168158D01*
X78320000Y-38881260D01*
X78320000Y-38588740D01*
X78262932Y-38301842D01*
X78150990Y-38031589D01*
X77988475Y-37788368D01*
X77781632Y-37581525D01*
X77538411Y-37419010D01*
X77268158Y-37307068D01*
X77026724Y-37259043D01*
X77301038Y-36984729D01*
X77545631Y-36618669D01*
X77714110Y-36211925D01*
X77800000Y-35780128D01*
X77800000Y-35339872D01*
X77714110Y-34908075D01*
X77545631Y-34501331D01*
X77301038Y-34135271D01*
X76989729Y-33823962D01*
X76623669Y-33579369D01*
X76216925Y-33410890D01*
X75785128Y-33325000D01*
X75344872Y-33325000D01*
X74913075Y-33410890D01*
X74506331Y-33579369D01*
X74140271Y-33823962D01*
X73828962Y-34135271D01*
X73584369Y-34501331D01*
X73415890Y-34908075D01*
X73330000Y-35339872D01*
X73330000Y-35780128D01*
X73415890Y-36211925D01*
X73584369Y-36618669D01*
X73828962Y-36984729D01*
X74091161Y-37246928D01*
X73445000Y-37246928D01*
X73320518Y-37259188D01*
X73200820Y-37295498D01*
X73090506Y-37354463D01*
X72993815Y-37433815D01*
X72914463Y-37530506D01*
X72855498Y-37640820D01*
X72819188Y-37760518D01*
X72806928Y-37885000D01*
X72806928Y-39543070D01*
X72419154Y-39930844D01*
X72391641Y-39873080D01*
X72217588Y-39639731D01*
X72133534Y-39563966D01*
X72214180Y-39539502D01*
X72324494Y-39480537D01*
X72421185Y-39401185D01*
X72500537Y-39304494D01*
X72559502Y-39194180D01*
X72595812Y-39074482D01*
X72608072Y-38950000D01*
X72608072Y-37250000D01*
X72595812Y-37125518D01*
X72559502Y-37005820D01*
X72500537Y-36895506D01*
X72421185Y-36798815D01*
X72324494Y-36719463D01*
X72214180Y-36660498D01*
X72094482Y-36624188D01*
X71970000Y-36611928D01*
X70270000Y-36611928D01*
X70145518Y-36624188D01*
X70025820Y-36660498D01*
X69915506Y-36719463D01*
X69818815Y-36798815D01*
X69739463Y-36895506D01*
X69680498Y-37005820D01*
X69644188Y-37125518D01*
X69631928Y-37250000D01*
X69631928Y-38513270D01*
X65528998Y-42616201D01*
X65500000Y-42639999D01*
X65476202Y-42668997D01*
X65476201Y-42668998D01*
X65405026Y-42755724D01*
X65334454Y-42887754D01*
X65290998Y-43031015D01*
X65276324Y-43180000D01*
X65280001Y-43217332D01*
X65280000Y-50431928D01*
X65087500Y-50431928D01*
X64963018Y-50444188D01*
X64843320Y-50480498D01*
X64733006Y-50539463D01*
X64636315Y-50618815D01*
X64556963Y-50715506D01*
X64507941Y-50807219D01*
X64366923Y-50694031D01*
X64091094Y-50550429D01*
X63872980Y-50479437D01*
X63627000Y-50599406D01*
X63627000Y-51943000D01*
X63647000Y-51943000D01*
X63647000Y-52197000D01*
X63627000Y-52197000D01*
X63627000Y-52217000D01*
X63373000Y-52217000D01*
X63373000Y-52197000D01*
X63353000Y-52197000D01*
X63353000Y-51943000D01*
X63373000Y-51943000D01*
X63373000Y-50599406D01*
X63241137Y-50535094D01*
X63225226Y-50455102D01*
X63147205Y-50266744D01*
X63033937Y-50097226D01*
X62889774Y-49953063D01*
X62720256Y-49839795D01*
X62531898Y-49761774D01*
X62331939Y-49722000D01*
X62128061Y-49722000D01*
X61928102Y-49761774D01*
X61739744Y-49839795D01*
X61570226Y-49953063D01*
X61538689Y-49984600D01*
X58513025Y-49984600D01*
X58475700Y-49980924D01*
X58438375Y-49984600D01*
X58438367Y-49984600D01*
X58326714Y-49995597D01*
X58183453Y-50039054D01*
X58051424Y-50109626D01*
X57935699Y-50204599D01*
X57911901Y-50233597D01*
X57365000Y-50780498D01*
X57365000Y-50653740D01*
X57307932Y-50366842D01*
X57195990Y-50096589D01*
X57033475Y-49853368D01*
X56826632Y-49646525D01*
X56652240Y-49530000D01*
X56826632Y-49413475D01*
X57033475Y-49206632D01*
X57195990Y-48963411D01*
X57307932Y-48693158D01*
X57365000Y-48406260D01*
X57365000Y-48113740D01*
X57307932Y-47826842D01*
X57195990Y-47556589D01*
X57033475Y-47313368D01*
X56826632Y-47106525D01*
X56644466Y-46984805D01*
X56761355Y-46915178D01*
X56977588Y-46720269D01*
X57151641Y-46486920D01*
X57276825Y-46224099D01*
X57321476Y-46076890D01*
X57200155Y-45847000D01*
X56007000Y-45847000D01*
X56007000Y-45867000D01*
X55753000Y-45867000D01*
X55753000Y-45847000D01*
X55733000Y-45847000D01*
X55733000Y-45593000D01*
X55753000Y-45593000D01*
X55753000Y-43307000D01*
X56007000Y-43307000D01*
X56007000Y-45593000D01*
X57200155Y-45593000D01*
X57321476Y-45363110D01*
X57276825Y-45215901D01*
X57151641Y-44953080D01*
X56977588Y-44719731D01*
X56761355Y-44524822D01*
X56635745Y-44450000D01*
X56761355Y-44375178D01*
X56977588Y-44180269D01*
X57151641Y-43946920D01*
X57276825Y-43684099D01*
X57321476Y-43536890D01*
X57200155Y-43307000D01*
X56007000Y-43307000D01*
X55753000Y-43307000D01*
X54559845Y-43307000D01*
X54438524Y-43536890D01*
X54483175Y-43684099D01*
X54608359Y-43946920D01*
X54782412Y-44180269D01*
X54998645Y-44375178D01*
X55124255Y-44450000D01*
X54998645Y-44524822D01*
X54782412Y-44719731D01*
X54608359Y-44953080D01*
X54483175Y-45215901D01*
X54438524Y-45363110D01*
X54559844Y-45592998D01*
X54395000Y-45592998D01*
X54395000Y-45700199D01*
X53903804Y-45209003D01*
X53880001Y-45179999D01*
X53764276Y-45085026D01*
X53632247Y-45014454D01*
X53488986Y-44970997D01*
X53377333Y-44960000D01*
X53377322Y-44960000D01*
X53340000Y-44956324D01*
X53302678Y-44960000D01*
X52078178Y-44960000D01*
X51953475Y-44773368D01*
X51746632Y-44566525D01*
X51572240Y-44450000D01*
X51746632Y-44333475D01*
X51953475Y-44126632D01*
X52115990Y-43883411D01*
X52227932Y-43613158D01*
X52285000Y-43326260D01*
X52285000Y-43033740D01*
X52227932Y-42746842D01*
X52156753Y-42575000D01*
X54531235Y-42575000D01*
X54483175Y-42675901D01*
X54438524Y-42823110D01*
X54559845Y-43053000D01*
X55753000Y-43053000D01*
X55753000Y-43033000D01*
X56007000Y-43033000D01*
X56007000Y-43053000D01*
X57200155Y-43053000D01*
X57321476Y-42823110D01*
X57276825Y-42675901D01*
X57228765Y-42575000D01*
X62455199Y-42575000D01*
X62465000Y-42584801D01*
X62465000Y-42646939D01*
X62504774Y-42846898D01*
X62582795Y-43035256D01*
X62696063Y-43204774D01*
X62840226Y-43348937D01*
X63009744Y-43462205D01*
X63198102Y-43540226D01*
X63398061Y-43580000D01*
X63601939Y-43580000D01*
X63801898Y-43540226D01*
X63990256Y-43462205D01*
X64159774Y-43348937D01*
X64303937Y-43204774D01*
X64417205Y-43035256D01*
X64495226Y-42846898D01*
X64535000Y-42646939D01*
X64535000Y-42443061D01*
X64495226Y-42243102D01*
X64417205Y-42054744D01*
X64303937Y-41885226D01*
X64159774Y-41741063D01*
X63990256Y-41627795D01*
X63801898Y-41549774D01*
X63601939Y-41510000D01*
X63539801Y-41510000D01*
X63333803Y-41304002D01*
X63310001Y-41274999D01*
X63194276Y-41180026D01*
X63062247Y-41109454D01*
X62918986Y-41065997D01*
X62807333Y-41055000D01*
X62807322Y-41055000D01*
X62770000Y-41051324D01*
X62732678Y-41055000D01*
X57311544Y-41055000D01*
X57365000Y-40786260D01*
X57365000Y-40493740D01*
X57307932Y-40206842D01*
X57195990Y-39936589D01*
X57033475Y-39693368D01*
X56901620Y-39561513D01*
X56974180Y-39539502D01*
X57084494Y-39480537D01*
X57181185Y-39401185D01*
X57260537Y-39304494D01*
X57319502Y-39194180D01*
X57355812Y-39074482D01*
X57368072Y-38950000D01*
X57368072Y-37250000D01*
X57355812Y-37125518D01*
X57319502Y-37005820D01*
X57260537Y-36895506D01*
X57181185Y-36798815D01*
X57084494Y-36719463D01*
X56974180Y-36660498D01*
X56854482Y-36624188D01*
X56730000Y-36611928D01*
X55030000Y-36611928D01*
X54905518Y-36624188D01*
X54785820Y-36660498D01*
X54675506Y-36719463D01*
X54578815Y-36798815D01*
X54499463Y-36895506D01*
X54440498Y-37005820D01*
X54404188Y-37125518D01*
X54391928Y-37250000D01*
X54391928Y-38950000D01*
X54404188Y-39074482D01*
X54440498Y-39194180D01*
X54499463Y-39304494D01*
X54578815Y-39401185D01*
X54675506Y-39480537D01*
X54785820Y-39539502D01*
X54858380Y-39561513D01*
X54726525Y-39693368D01*
X54564010Y-39936589D01*
X54452068Y-40206842D01*
X54395000Y-40493740D01*
X54395000Y-40786260D01*
X54448456Y-41055000D01*
X52289802Y-41055000D01*
X52288072Y-41053270D01*
X52288072Y-39790000D01*
X52275812Y-39665518D01*
X52239502Y-39545820D01*
X52180537Y-39435506D01*
X52101185Y-39338815D01*
X52004494Y-39259463D01*
X51894180Y-39200498D01*
X51774482Y-39164188D01*
X51650000Y-39151928D01*
X49950000Y-39151928D01*
X49825518Y-39164188D01*
X49705820Y-39200498D01*
X49595506Y-39259463D01*
X49530000Y-39313222D01*
X49464494Y-39259463D01*
X49354180Y-39200498D01*
X49234482Y-39164188D01*
X49110000Y-39151928D01*
X47410000Y-39151928D01*
X47285518Y-39164188D01*
X47165820Y-39200498D01*
X47055506Y-39259463D01*
X46958815Y-39338815D01*
X46879463Y-39435506D01*
X46820498Y-39545820D01*
X46784188Y-39665518D01*
X46771928Y-39790000D01*
X46771928Y-39880000D01*
X45938072Y-39880000D01*
X45938072Y-39790000D01*
X45925812Y-39665518D01*
X45889502Y-39545820D01*
X45830537Y-39435506D01*
X45751185Y-39338815D01*
X45654494Y-39259463D01*
X45544180Y-39200498D01*
X45424482Y-39164188D01*
X45300000Y-39151928D01*
X43600000Y-39151928D01*
X43475518Y-39164188D01*
X43355820Y-39200498D01*
X43245506Y-39259463D01*
X43180000Y-39313222D01*
X43114494Y-39259463D01*
X43004180Y-39200498D01*
X42884482Y-39164188D01*
X42760000Y-39151928D01*
X41060000Y-39151928D01*
X40935518Y-39164188D01*
X40815820Y-39200498D01*
X40705506Y-39259463D01*
X40608815Y-39338815D01*
X40529463Y-39435506D01*
X40470498Y-39545820D01*
X40434188Y-39665518D01*
X40421928Y-39790000D01*
X40421928Y-41490000D01*
X40434188Y-41614482D01*
X40470498Y-41734180D01*
X40529463Y-41844494D01*
X40608815Y-41941185D01*
X40705506Y-42020537D01*
X40815820Y-42079502D01*
X40888380Y-42101513D01*
X40756525Y-42233368D01*
X40594010Y-42476589D01*
X40482068Y-42746842D01*
X40425000Y-43033740D01*
X40425000Y-43326260D01*
X40482068Y-43613158D01*
X40594010Y-43883411D01*
X40756525Y-44126632D01*
X40963368Y-44333475D01*
X41137760Y-44450000D01*
X40963368Y-44566525D01*
X40756525Y-44773368D01*
X40594010Y-45016589D01*
X40482068Y-45286842D01*
X40425000Y-45573740D01*
X40425000Y-45866260D01*
X40482068Y-46153158D01*
X40594010Y-46423411D01*
X40756525Y-46666632D01*
X40963368Y-46873475D01*
X41145534Y-46995195D01*
X41028645Y-47064822D01*
X40812412Y-47259731D01*
X40638359Y-47493080D01*
X40513175Y-47755901D01*
X40468524Y-47903110D01*
X40589845Y-48133000D01*
X41783000Y-48133000D01*
X41783000Y-48113000D01*
X42037000Y-48113000D01*
X42037000Y-48133000D01*
X44323000Y-48133000D01*
X44323000Y-48113000D01*
X44577000Y-48113000D01*
X44577000Y-48133000D01*
X45770155Y-48133000D01*
X45891476Y-47903110D01*
X45846825Y-47755901D01*
X45721641Y-47493080D01*
X45547588Y-47259731D01*
X45331355Y-47064822D01*
X45214466Y-46995195D01*
X45396632Y-46873475D01*
X45603475Y-46666632D01*
X45728178Y-46480000D01*
X46981822Y-46480000D01*
X47106525Y-46666632D01*
X47313368Y-46873475D01*
X47495534Y-46995195D01*
X47378645Y-47064822D01*
X47162412Y-47259731D01*
X46988359Y-47493080D01*
X46863175Y-47755901D01*
X46818524Y-47903110D01*
X46939845Y-48133000D01*
X48133000Y-48133000D01*
X48133000Y-48113000D01*
X48387000Y-48113000D01*
X48387000Y-48133000D01*
X50673000Y-48133000D01*
X50673000Y-48113000D01*
X50927000Y-48113000D01*
X50927000Y-48133000D01*
X52120155Y-48133000D01*
X52241476Y-47903110D01*
X52196825Y-47755901D01*
X52071641Y-47493080D01*
X51897588Y-47259731D01*
X51681355Y-47064822D01*
X51564466Y-46995195D01*
X51746632Y-46873475D01*
X51953475Y-46666632D01*
X52078178Y-46480000D01*
X53025199Y-46480000D01*
X54438790Y-47893593D01*
X54395000Y-48113740D01*
X54395000Y-48406260D01*
X54452068Y-48693158D01*
X54564010Y-48963411D01*
X54726525Y-49206632D01*
X54933368Y-49413475D01*
X55107760Y-49530000D01*
X54933368Y-49646525D01*
X54726525Y-49853368D01*
X54564010Y-50096589D01*
X54452068Y-50366842D01*
X54395000Y-50653740D01*
X54395000Y-50946260D01*
X54452068Y-51233158D01*
X54564010Y-51503411D01*
X54698143Y-51704155D01*
X54153498Y-52248801D01*
X54124500Y-52272599D01*
X54100702Y-52301597D01*
X54100701Y-52301598D01*
X54029526Y-52388324D01*
X53958954Y-52520354D01*
X53940557Y-52581003D01*
X53915498Y-52663614D01*
X53907931Y-52740446D01*
X53900824Y-52812600D01*
X53904501Y-52849932D01*
X53904500Y-54627177D01*
X53900824Y-54664500D01*
X53904500Y-54701822D01*
X53904500Y-54701832D01*
X53915497Y-54813485D01*
X53958954Y-54956746D01*
X54029526Y-55088776D01*
X54064176Y-55130997D01*
X54124499Y-55204501D01*
X54153503Y-55228304D01*
X54438791Y-55513592D01*
X54395000Y-55733740D01*
X54395000Y-56026260D01*
X54452068Y-56313158D01*
X54564010Y-56583411D01*
X54726525Y-56826632D01*
X54933368Y-57033475D01*
X55107760Y-57150000D01*
X54933368Y-57266525D01*
X54726525Y-57473368D01*
X54564010Y-57716589D01*
X54452068Y-57986842D01*
X54395000Y-58273740D01*
X54395000Y-58566260D01*
X54452068Y-58853158D01*
X54564010Y-59123411D01*
X54726525Y-59366632D01*
X54933368Y-59573475D01*
X55107760Y-59690000D01*
X54933368Y-59806525D01*
X54726525Y-60013368D01*
X54564010Y-60256589D01*
X54452068Y-60526842D01*
X54395000Y-60813740D01*
X54395000Y-61106260D01*
X54452068Y-61393158D01*
X54564010Y-61663411D01*
X54726525Y-61906632D01*
X54933368Y-62113475D01*
X55107760Y-62230000D01*
X54933368Y-62346525D01*
X54726525Y-62553368D01*
X54564010Y-62796589D01*
X54452068Y-63066842D01*
X54395000Y-63353740D01*
X54395000Y-63646260D01*
X54452068Y-63933158D01*
X54564010Y-64203411D01*
X54726525Y-64446632D01*
X54933368Y-64653475D01*
X55107760Y-64770000D01*
X54933368Y-64886525D01*
X54726525Y-65093368D01*
X54564010Y-65336589D01*
X54452068Y-65606842D01*
X54395000Y-65893740D01*
X54395000Y-66186260D01*
X54452068Y-66473158D01*
X54564010Y-66743411D01*
X54726525Y-66986632D01*
X54933368Y-67193475D01*
X55176589Y-67355990D01*
X55446842Y-67467932D01*
X55733740Y-67525000D01*
X56026260Y-67525000D01*
X56313158Y-67467932D01*
X56583411Y-67355990D01*
X56826632Y-67193475D01*
X57033475Y-66986632D01*
X57195990Y-66743411D01*
X57307932Y-66473158D01*
X57365000Y-66186260D01*
X57365000Y-65893740D01*
X57321209Y-65673592D01*
X59614801Y-63380000D01*
X61111928Y-63380000D01*
X61124188Y-63504482D01*
X61160498Y-63624180D01*
X61219463Y-63734494D01*
X61298815Y-63831185D01*
X61395506Y-63910537D01*
X61505820Y-63969502D01*
X61625518Y-64005812D01*
X61750000Y-64018072D01*
X63214250Y-64015000D01*
X63373000Y-63856250D01*
X63373000Y-62007000D01*
X63627000Y-62007000D01*
X63627000Y-63856250D01*
X63785750Y-64015000D01*
X65250000Y-64018072D01*
X65374482Y-64005812D01*
X65494180Y-63969502D01*
X65604494Y-63910537D01*
X65701185Y-63831185D01*
X65780537Y-63734494D01*
X65839502Y-63624180D01*
X65875812Y-63504482D01*
X65888072Y-63380000D01*
X65885000Y-62165750D01*
X65726250Y-62007000D01*
X63627000Y-62007000D01*
X63373000Y-62007000D01*
X61273750Y-62007000D01*
X61115000Y-62165750D01*
X61111928Y-63380000D01*
X59614801Y-63380000D01*
X61257776Y-61737026D01*
X61273750Y-61753000D01*
X63373000Y-61753000D01*
X63373000Y-61733000D01*
X63627000Y-61733000D01*
X63627000Y-61753000D01*
X65726250Y-61753000D01*
X65885000Y-61594250D01*
X65886698Y-60923195D01*
X65919463Y-60984494D01*
X65998815Y-61081185D01*
X66095506Y-61160537D01*
X66205820Y-61219502D01*
X66325518Y-61255812D01*
X66450000Y-61268072D01*
X67914250Y-61265000D01*
X68073000Y-61106250D01*
X68073000Y-59007000D01*
X65973750Y-59007000D01*
X65815000Y-59165750D01*
X65813069Y-60086367D01*
X65780537Y-60025506D01*
X65701185Y-59928815D01*
X65604494Y-59849463D01*
X65494180Y-59790498D01*
X65374482Y-59754188D01*
X65250000Y-59741928D01*
X64676759Y-59743131D01*
X64725901Y-59702801D01*
X64749704Y-59673797D01*
X65822126Y-58601376D01*
X65973750Y-58753000D01*
X68073000Y-58753000D01*
X68073000Y-56653750D01*
X67921376Y-56502126D01*
X69153201Y-55270301D01*
X69153201Y-56348568D01*
X69149524Y-56385900D01*
X69153201Y-56423233D01*
X69160130Y-56493585D01*
X68485750Y-56495000D01*
X68327000Y-56653750D01*
X68327000Y-58753000D01*
X68347000Y-58753000D01*
X68347000Y-59007000D01*
X68327000Y-59007000D01*
X68327000Y-61106250D01*
X68485750Y-61265000D01*
X69667069Y-61267478D01*
X69678791Y-61326408D01*
X69404998Y-61600201D01*
X69376000Y-61623999D01*
X69352202Y-61652997D01*
X69352201Y-61652998D01*
X69281026Y-61739724D01*
X69210454Y-61871754D01*
X69186146Y-61951890D01*
X69166998Y-62015014D01*
X69160144Y-62084600D01*
X69152324Y-62164000D01*
X69156001Y-62201332D01*
X69156000Y-66490377D01*
X69152324Y-66527700D01*
X69156000Y-66565022D01*
X69156000Y-66565032D01*
X69166997Y-66676685D01*
X69201068Y-66789003D01*
X69210454Y-66819946D01*
X69281026Y-66951976D01*
X69309468Y-66986632D01*
X69375999Y-67067701D01*
X69405002Y-67091503D01*
X70110805Y-67797308D01*
X70134599Y-67826301D01*
X70163592Y-67850095D01*
X70163596Y-67850099D01*
X70234285Y-67908111D01*
X70248772Y-67920000D01*
X40030000Y-67920000D01*
X40030000Y-63856890D01*
X40468524Y-63856890D01*
X40513175Y-64004099D01*
X40638359Y-64266920D01*
X40812412Y-64500269D01*
X41028645Y-64695178D01*
X41278748Y-64844157D01*
X41553109Y-64941481D01*
X41783000Y-64820814D01*
X41783000Y-63627000D01*
X42037000Y-63627000D01*
X42037000Y-64820814D01*
X42266891Y-64941481D01*
X42541252Y-64844157D01*
X42791355Y-64695178D01*
X43007588Y-64500269D01*
X43180000Y-64269120D01*
X43352412Y-64500269D01*
X43568645Y-64695178D01*
X43818748Y-64844157D01*
X44093109Y-64941481D01*
X44323000Y-64820814D01*
X44323000Y-63627000D01*
X44577000Y-63627000D01*
X44577000Y-64820814D01*
X44806891Y-64941481D01*
X45081252Y-64844157D01*
X45331355Y-64695178D01*
X45547588Y-64500269D01*
X45721641Y-64266920D01*
X45846825Y-64004099D01*
X45891476Y-63856890D01*
X46818524Y-63856890D01*
X46863175Y-64004099D01*
X46988359Y-64266920D01*
X47162412Y-64500269D01*
X47378645Y-64695178D01*
X47628748Y-64844157D01*
X47903109Y-64941481D01*
X48133000Y-64820814D01*
X48133000Y-63627000D01*
X48387000Y-63627000D01*
X48387000Y-64820814D01*
X48616891Y-64941481D01*
X48891252Y-64844157D01*
X49141355Y-64695178D01*
X49357588Y-64500269D01*
X49530000Y-64269120D01*
X49702412Y-64500269D01*
X49918645Y-64695178D01*
X50168748Y-64844157D01*
X50443109Y-64941481D01*
X50673000Y-64820814D01*
X50673000Y-63627000D01*
X50927000Y-63627000D01*
X50927000Y-64820814D01*
X51156891Y-64941481D01*
X51431252Y-64844157D01*
X51681355Y-64695178D01*
X51897588Y-64500269D01*
X52071641Y-64266920D01*
X52196825Y-64004099D01*
X52241476Y-63856890D01*
X52120155Y-63627000D01*
X50927000Y-63627000D01*
X50673000Y-63627000D01*
X48387000Y-63627000D01*
X48133000Y-63627000D01*
X46939845Y-63627000D01*
X46818524Y-63856890D01*
X45891476Y-63856890D01*
X45770155Y-63627000D01*
X44577000Y-63627000D01*
X44323000Y-63627000D01*
X42037000Y-63627000D01*
X41783000Y-63627000D01*
X40589845Y-63627000D01*
X40468524Y-63856890D01*
X40030000Y-63856890D01*
X40030000Y-55030000D01*
X40421928Y-55030000D01*
X40421928Y-56730000D01*
X40434188Y-56854482D01*
X40470498Y-56974180D01*
X40529463Y-57084494D01*
X40608815Y-57181185D01*
X40705506Y-57260537D01*
X40815820Y-57319502D01*
X40888380Y-57341513D01*
X40756525Y-57473368D01*
X40594010Y-57716589D01*
X40482068Y-57986842D01*
X40425000Y-58273740D01*
X40425000Y-58566260D01*
X40482068Y-58853158D01*
X40594010Y-59123411D01*
X40756525Y-59366632D01*
X40963368Y-59573475D01*
X41137760Y-59690000D01*
X40963368Y-59806525D01*
X40756525Y-60013368D01*
X40594010Y-60256589D01*
X40482068Y-60526842D01*
X40425000Y-60813740D01*
X40425000Y-61106260D01*
X40482068Y-61393158D01*
X40594010Y-61663411D01*
X40756525Y-61906632D01*
X40963368Y-62113475D01*
X41145534Y-62235195D01*
X41028645Y-62304822D01*
X40812412Y-62499731D01*
X40638359Y-62733080D01*
X40513175Y-62995901D01*
X40468524Y-63143110D01*
X40589845Y-63373000D01*
X41783000Y-63373000D01*
X41783000Y-63353000D01*
X42037000Y-63353000D01*
X42037000Y-63373000D01*
X44323000Y-63373000D01*
X44323000Y-63353000D01*
X44577000Y-63353000D01*
X44577000Y-63373000D01*
X45770155Y-63373000D01*
X45891476Y-63143110D01*
X45846825Y-62995901D01*
X45721641Y-62733080D01*
X45547588Y-62499731D01*
X45331355Y-62304822D01*
X45214466Y-62235195D01*
X45396632Y-62113475D01*
X45603475Y-61906632D01*
X45728178Y-61720000D01*
X46981822Y-61720000D01*
X47106525Y-61906632D01*
X47313368Y-62113475D01*
X47495534Y-62235195D01*
X47378645Y-62304822D01*
X47162412Y-62499731D01*
X46988359Y-62733080D01*
X46863175Y-62995901D01*
X46818524Y-63143110D01*
X46939845Y-63373000D01*
X48133000Y-63373000D01*
X48133000Y-63353000D01*
X48387000Y-63353000D01*
X48387000Y-63373000D01*
X50673000Y-63373000D01*
X50673000Y-63353000D01*
X50927000Y-63353000D01*
X50927000Y-63373000D01*
X52120155Y-63373000D01*
X52241476Y-63143110D01*
X52196825Y-62995901D01*
X52071641Y-62733080D01*
X51897588Y-62499731D01*
X51681355Y-62304822D01*
X51564466Y-62235195D01*
X51746632Y-62113475D01*
X51953475Y-61906632D01*
X52115990Y-61663411D01*
X52227932Y-61393158D01*
X52285000Y-61106260D01*
X52285000Y-60813740D01*
X52227932Y-60526842D01*
X52115990Y-60256589D01*
X51953475Y-60013368D01*
X51746632Y-59806525D01*
X51572240Y-59690000D01*
X51746632Y-59573475D01*
X51953475Y-59366632D01*
X52115990Y-59123411D01*
X52227932Y-58853158D01*
X52285000Y-58566260D01*
X52285000Y-58273740D01*
X52227932Y-57986842D01*
X52115990Y-57716589D01*
X51953475Y-57473368D01*
X51821620Y-57341513D01*
X51894180Y-57319502D01*
X52004494Y-57260537D01*
X52101185Y-57181185D01*
X52180537Y-57084494D01*
X52239502Y-56974180D01*
X52275812Y-56854482D01*
X52288072Y-56730000D01*
X52288072Y-55030000D01*
X52275812Y-54905518D01*
X52239502Y-54785820D01*
X52180537Y-54675506D01*
X52101185Y-54578815D01*
X52004494Y-54499463D01*
X51894180Y-54440498D01*
X51774482Y-54404188D01*
X51650000Y-54391928D01*
X49950000Y-54391928D01*
X49825518Y-54404188D01*
X49705820Y-54440498D01*
X49595506Y-54499463D01*
X49530000Y-54553222D01*
X49464494Y-54499463D01*
X49354180Y-54440498D01*
X49234482Y-54404188D01*
X49110000Y-54391928D01*
X47410000Y-54391928D01*
X47285518Y-54404188D01*
X47165820Y-54440498D01*
X47055506Y-54499463D01*
X46958815Y-54578815D01*
X46879463Y-54675506D01*
X46820498Y-54785820D01*
X46784188Y-54905518D01*
X46771928Y-55030000D01*
X46771928Y-55120000D01*
X45938072Y-55120000D01*
X45938072Y-55030000D01*
X45925812Y-54905518D01*
X45889502Y-54785820D01*
X45830537Y-54675506D01*
X45751185Y-54578815D01*
X45654494Y-54499463D01*
X45544180Y-54440498D01*
X45424482Y-54404188D01*
X45300000Y-54391928D01*
X43600000Y-54391928D01*
X43475518Y-54404188D01*
X43355820Y-54440498D01*
X43245506Y-54499463D01*
X43180000Y-54553222D01*
X43114494Y-54499463D01*
X43004180Y-54440498D01*
X42884482Y-54404188D01*
X42760000Y-54391928D01*
X41060000Y-54391928D01*
X40935518Y-54404188D01*
X40815820Y-54440498D01*
X40705506Y-54499463D01*
X40608815Y-54578815D01*
X40529463Y-54675506D01*
X40470498Y-54785820D01*
X40434188Y-54905518D01*
X40421928Y-55030000D01*
X40030000Y-55030000D01*
X40030000Y-48616890D01*
X40468524Y-48616890D01*
X40513175Y-48764099D01*
X40638359Y-49026920D01*
X40812412Y-49260269D01*
X41028645Y-49455178D01*
X41278748Y-49604157D01*
X41553109Y-49701481D01*
X41783000Y-49580814D01*
X41783000Y-48387000D01*
X42037000Y-48387000D01*
X42037000Y-49580814D01*
X42266891Y-49701481D01*
X42541252Y-49604157D01*
X42791355Y-49455178D01*
X43007588Y-49260269D01*
X43180000Y-49029120D01*
X43352412Y-49260269D01*
X43568645Y-49455178D01*
X43818748Y-49604157D01*
X44093109Y-49701481D01*
X44323000Y-49580814D01*
X44323000Y-48387000D01*
X44577000Y-48387000D01*
X44577000Y-49580814D01*
X44806891Y-49701481D01*
X45081252Y-49604157D01*
X45331355Y-49455178D01*
X45547588Y-49260269D01*
X45721641Y-49026920D01*
X45846825Y-48764099D01*
X45891476Y-48616890D01*
X46818524Y-48616890D01*
X46863175Y-48764099D01*
X46988359Y-49026920D01*
X47162412Y-49260269D01*
X47378645Y-49455178D01*
X47628748Y-49604157D01*
X47903109Y-49701481D01*
X48133000Y-49580814D01*
X48133000Y-48387000D01*
X48387000Y-48387000D01*
X48387000Y-49580814D01*
X48616891Y-49701481D01*
X48891252Y-49604157D01*
X49141355Y-49455178D01*
X49357588Y-49260269D01*
X49530000Y-49029120D01*
X49702412Y-49260269D01*
X49918645Y-49455178D01*
X50168748Y-49604157D01*
X50443109Y-49701481D01*
X50673000Y-49580814D01*
X50673000Y-48387000D01*
X50927000Y-48387000D01*
X50927000Y-49580814D01*
X51156891Y-49701481D01*
X51431252Y-49604157D01*
X51681355Y-49455178D01*
X51897588Y-49260269D01*
X52071641Y-49026920D01*
X52196825Y-48764099D01*
X52241476Y-48616890D01*
X52120155Y-48387000D01*
X50927000Y-48387000D01*
X50673000Y-48387000D01*
X48387000Y-48387000D01*
X48133000Y-48387000D01*
X46939845Y-48387000D01*
X46818524Y-48616890D01*
X45891476Y-48616890D01*
X45770155Y-48387000D01*
X44577000Y-48387000D01*
X44323000Y-48387000D01*
X42037000Y-48387000D01*
X41783000Y-48387000D01*
X40589845Y-48387000D01*
X40468524Y-48616890D01*
X40030000Y-48616890D01*
X40030000Y-35339872D01*
X40945000Y-35339872D01*
X40945000Y-35780128D01*
X41030890Y-36211925D01*
X41199369Y-36618669D01*
X41443962Y-36984729D01*
X41755271Y-37296038D01*
X42121331Y-37540631D01*
X42528075Y-37709110D01*
X42959872Y-37795000D01*
X43400128Y-37795000D01*
X43831925Y-37709110D01*
X44238669Y-37540631D01*
X44604729Y-37296038D01*
X44916038Y-36984729D01*
X45160631Y-36618669D01*
X45329110Y-36211925D01*
X45415000Y-35780128D01*
X45415000Y-35339872D01*
X45382225Y-35175098D01*
X61115000Y-35175098D01*
X61115000Y-35644902D01*
X61206654Y-36105679D01*
X61386440Y-36539721D01*
X61647450Y-36930349D01*
X61979651Y-37262550D01*
X62370279Y-37523560D01*
X62804321Y-37703346D01*
X63265098Y-37795000D01*
X63734902Y-37795000D01*
X64195679Y-37703346D01*
X64629721Y-37523560D01*
X65020349Y-37262550D01*
X65352550Y-36930349D01*
X65613560Y-36539721D01*
X65793346Y-36105679D01*
X65885000Y-35644902D01*
X65885000Y-35175098D01*
X65793346Y-34714321D01*
X65613560Y-34280279D01*
X65352550Y-33889651D01*
X65020349Y-33557450D01*
X64629721Y-33296440D01*
X64195679Y-33116654D01*
X63734902Y-33025000D01*
X63265098Y-33025000D01*
X62804321Y-33116654D01*
X62370279Y-33296440D01*
X61979651Y-33557450D01*
X61647450Y-33889651D01*
X61386440Y-34280279D01*
X61206654Y-34714321D01*
X61115000Y-35175098D01*
X45382225Y-35175098D01*
X45329110Y-34908075D01*
X45160631Y-34501331D01*
X44916038Y-34135271D01*
X44604729Y-33823962D01*
X44238669Y-33579369D01*
X43831925Y-33410890D01*
X43400128Y-33325000D01*
X42959872Y-33325000D01*
X42528075Y-33410890D01*
X42121331Y-33579369D01*
X41755271Y-33823962D01*
X41443962Y-34135271D01*
X41199369Y-34501331D01*
X41030890Y-34908075D01*
X40945000Y-35339872D01*
X40030000Y-35339872D01*
X40030000Y-32410000D01*
X78715001Y-32410000D01*
X78715001Y-40404699D01*
%TA.AperFunction,Conductor*%
D18*
G36*
X78715001Y-40404699D02*
G01*
X77989860Y-39679559D01*
X78150990Y-39438411D01*
X78262932Y-39168158D01*
X78320000Y-38881260D01*
X78320000Y-38588740D01*
X78262932Y-38301842D01*
X78150990Y-38031589D01*
X77988475Y-37788368D01*
X77781632Y-37581525D01*
X77538411Y-37419010D01*
X77268158Y-37307068D01*
X77026724Y-37259043D01*
X77301038Y-36984729D01*
X77545631Y-36618669D01*
X77714110Y-36211925D01*
X77800000Y-35780128D01*
X77800000Y-35339872D01*
X77714110Y-34908075D01*
X77545631Y-34501331D01*
X77301038Y-34135271D01*
X76989729Y-33823962D01*
X76623669Y-33579369D01*
X76216925Y-33410890D01*
X75785128Y-33325000D01*
X75344872Y-33325000D01*
X74913075Y-33410890D01*
X74506331Y-33579369D01*
X74140271Y-33823962D01*
X73828962Y-34135271D01*
X73584369Y-34501331D01*
X73415890Y-34908075D01*
X73330000Y-35339872D01*
X73330000Y-35780128D01*
X73415890Y-36211925D01*
X73584369Y-36618669D01*
X73828962Y-36984729D01*
X74091161Y-37246928D01*
X73445000Y-37246928D01*
X73320518Y-37259188D01*
X73200820Y-37295498D01*
X73090506Y-37354463D01*
X72993815Y-37433815D01*
X72914463Y-37530506D01*
X72855498Y-37640820D01*
X72819188Y-37760518D01*
X72806928Y-37885000D01*
X72806928Y-39543070D01*
X72419154Y-39930844D01*
X72391641Y-39873080D01*
X72217588Y-39639731D01*
X72133534Y-39563966D01*
X72214180Y-39539502D01*
X72324494Y-39480537D01*
X72421185Y-39401185D01*
X72500537Y-39304494D01*
X72559502Y-39194180D01*
X72595812Y-39074482D01*
X72608072Y-38950000D01*
X72608072Y-37250000D01*
X72595812Y-37125518D01*
X72559502Y-37005820D01*
X72500537Y-36895506D01*
X72421185Y-36798815D01*
X72324494Y-36719463D01*
X72214180Y-36660498D01*
X72094482Y-36624188D01*
X71970000Y-36611928D01*
X70270000Y-36611928D01*
X70145518Y-36624188D01*
X70025820Y-36660498D01*
X69915506Y-36719463D01*
X69818815Y-36798815D01*
X69739463Y-36895506D01*
X69680498Y-37005820D01*
X69644188Y-37125518D01*
X69631928Y-37250000D01*
X69631928Y-38513270D01*
X65528998Y-42616201D01*
X65500000Y-42639999D01*
X65476202Y-42668997D01*
X65476201Y-42668998D01*
X65405026Y-42755724D01*
X65334454Y-42887754D01*
X65290998Y-43031015D01*
X65276324Y-43180000D01*
X65280001Y-43217332D01*
X65280000Y-50431928D01*
X65087500Y-50431928D01*
X64963018Y-50444188D01*
X64843320Y-50480498D01*
X64733006Y-50539463D01*
X64636315Y-50618815D01*
X64556963Y-50715506D01*
X64507941Y-50807219D01*
X64366923Y-50694031D01*
X64091094Y-50550429D01*
X63872980Y-50479437D01*
X63627000Y-50599406D01*
X63627000Y-51943000D01*
X63647000Y-51943000D01*
X63647000Y-52197000D01*
X63627000Y-52197000D01*
X63627000Y-52217000D01*
X63373000Y-52217000D01*
X63373000Y-52197000D01*
X63353000Y-52197000D01*
X63353000Y-51943000D01*
X63373000Y-51943000D01*
X63373000Y-50599406D01*
X63241137Y-50535094D01*
X63225226Y-50455102D01*
X63147205Y-50266744D01*
X63033937Y-50097226D01*
X62889774Y-49953063D01*
X62720256Y-49839795D01*
X62531898Y-49761774D01*
X62331939Y-49722000D01*
X62128061Y-49722000D01*
X61928102Y-49761774D01*
X61739744Y-49839795D01*
X61570226Y-49953063D01*
X61538689Y-49984600D01*
X58513025Y-49984600D01*
X58475700Y-49980924D01*
X58438375Y-49984600D01*
X58438367Y-49984600D01*
X58326714Y-49995597D01*
X58183453Y-50039054D01*
X58051424Y-50109626D01*
X57935699Y-50204599D01*
X57911901Y-50233597D01*
X57365000Y-50780498D01*
X57365000Y-50653740D01*
X57307932Y-50366842D01*
X57195990Y-50096589D01*
X57033475Y-49853368D01*
X56826632Y-49646525D01*
X56652240Y-49530000D01*
X56826632Y-49413475D01*
X57033475Y-49206632D01*
X57195990Y-48963411D01*
X57307932Y-48693158D01*
X57365000Y-48406260D01*
X57365000Y-48113740D01*
X57307932Y-47826842D01*
X57195990Y-47556589D01*
X57033475Y-47313368D01*
X56826632Y-47106525D01*
X56644466Y-46984805D01*
X56761355Y-46915178D01*
X56977588Y-46720269D01*
X57151641Y-46486920D01*
X57276825Y-46224099D01*
X57321476Y-46076890D01*
X57200155Y-45847000D01*
X56007000Y-45847000D01*
X56007000Y-45867000D01*
X55753000Y-45867000D01*
X55753000Y-45847000D01*
X55733000Y-45847000D01*
X55733000Y-45593000D01*
X55753000Y-45593000D01*
X55753000Y-43307000D01*
X56007000Y-43307000D01*
X56007000Y-45593000D01*
X57200155Y-45593000D01*
X57321476Y-45363110D01*
X57276825Y-45215901D01*
X57151641Y-44953080D01*
X56977588Y-44719731D01*
X56761355Y-44524822D01*
X56635745Y-44450000D01*
X56761355Y-44375178D01*
X56977588Y-44180269D01*
X57151641Y-43946920D01*
X57276825Y-43684099D01*
X57321476Y-43536890D01*
X57200155Y-43307000D01*
X56007000Y-43307000D01*
X55753000Y-43307000D01*
X54559845Y-43307000D01*
X54438524Y-43536890D01*
X54483175Y-43684099D01*
X54608359Y-43946920D01*
X54782412Y-44180269D01*
X54998645Y-44375178D01*
X55124255Y-44450000D01*
X54998645Y-44524822D01*
X54782412Y-44719731D01*
X54608359Y-44953080D01*
X54483175Y-45215901D01*
X54438524Y-45363110D01*
X54559844Y-45592998D01*
X54395000Y-45592998D01*
X54395000Y-45700199D01*
X53903804Y-45209003D01*
X53880001Y-45179999D01*
X53764276Y-45085026D01*
X53632247Y-45014454D01*
X53488986Y-44970997D01*
X53377333Y-44960000D01*
X53377322Y-44960000D01*
X53340000Y-44956324D01*
X53302678Y-44960000D01*
X52078178Y-44960000D01*
X51953475Y-44773368D01*
X51746632Y-44566525D01*
X51572240Y-44450000D01*
X51746632Y-44333475D01*
X51953475Y-44126632D01*
X52115990Y-43883411D01*
X52227932Y-43613158D01*
X52285000Y-43326260D01*
X52285000Y-43033740D01*
X52227932Y-42746842D01*
X52156753Y-42575000D01*
X54531235Y-42575000D01*
X54483175Y-42675901D01*
X54438524Y-42823110D01*
X54559845Y-43053000D01*
X55753000Y-43053000D01*
X55753000Y-43033000D01*
X56007000Y-43033000D01*
X56007000Y-43053000D01*
X57200155Y-43053000D01*
X57321476Y-42823110D01*
X57276825Y-42675901D01*
X57228765Y-42575000D01*
X62455199Y-42575000D01*
X62465000Y-42584801D01*
X62465000Y-42646939D01*
X62504774Y-42846898D01*
X62582795Y-43035256D01*
X62696063Y-43204774D01*
X62840226Y-43348937D01*
X63009744Y-43462205D01*
X63198102Y-43540226D01*
X63398061Y-43580000D01*
X63601939Y-43580000D01*
X63801898Y-43540226D01*
X63990256Y-43462205D01*
X64159774Y-43348937D01*
X64303937Y-43204774D01*
X64417205Y-43035256D01*
X64495226Y-42846898D01*
X64535000Y-42646939D01*
X64535000Y-42443061D01*
X64495226Y-42243102D01*
X64417205Y-42054744D01*
X64303937Y-41885226D01*
X64159774Y-41741063D01*
X63990256Y-41627795D01*
X63801898Y-41549774D01*
X63601939Y-41510000D01*
X63539801Y-41510000D01*
X63333803Y-41304002D01*
X63310001Y-41274999D01*
X63194276Y-41180026D01*
X63062247Y-41109454D01*
X62918986Y-41065997D01*
X62807333Y-41055000D01*
X62807322Y-41055000D01*
X62770000Y-41051324D01*
X62732678Y-41055000D01*
X57311544Y-41055000D01*
X57365000Y-40786260D01*
X57365000Y-40493740D01*
X57307932Y-40206842D01*
X57195990Y-39936589D01*
X57033475Y-39693368D01*
X56901620Y-39561513D01*
X56974180Y-39539502D01*
X57084494Y-39480537D01*
X57181185Y-39401185D01*
X57260537Y-39304494D01*
X57319502Y-39194180D01*
X57355812Y-39074482D01*
X57368072Y-38950000D01*
X57368072Y-37250000D01*
X57355812Y-37125518D01*
X57319502Y-37005820D01*
X57260537Y-36895506D01*
X57181185Y-36798815D01*
X57084494Y-36719463D01*
X56974180Y-36660498D01*
X56854482Y-36624188D01*
X56730000Y-36611928D01*
X55030000Y-36611928D01*
X54905518Y-36624188D01*
X54785820Y-36660498D01*
X54675506Y-36719463D01*
X54578815Y-36798815D01*
X54499463Y-36895506D01*
X54440498Y-37005820D01*
X54404188Y-37125518D01*
X54391928Y-37250000D01*
X54391928Y-38950000D01*
X54404188Y-39074482D01*
X54440498Y-39194180D01*
X54499463Y-39304494D01*
X54578815Y-39401185D01*
X54675506Y-39480537D01*
X54785820Y-39539502D01*
X54858380Y-39561513D01*
X54726525Y-39693368D01*
X54564010Y-39936589D01*
X54452068Y-40206842D01*
X54395000Y-40493740D01*
X54395000Y-40786260D01*
X54448456Y-41055000D01*
X52289802Y-41055000D01*
X52288072Y-41053270D01*
X52288072Y-39790000D01*
X52275812Y-39665518D01*
X52239502Y-39545820D01*
X52180537Y-39435506D01*
X52101185Y-39338815D01*
X52004494Y-39259463D01*
X51894180Y-39200498D01*
X51774482Y-39164188D01*
X51650000Y-39151928D01*
X49950000Y-39151928D01*
X49825518Y-39164188D01*
X49705820Y-39200498D01*
X49595506Y-39259463D01*
X49530000Y-39313222D01*
X49464494Y-39259463D01*
X49354180Y-39200498D01*
X49234482Y-39164188D01*
X49110000Y-39151928D01*
X47410000Y-39151928D01*
X47285518Y-39164188D01*
X47165820Y-39200498D01*
X47055506Y-39259463D01*
X46958815Y-39338815D01*
X46879463Y-39435506D01*
X46820498Y-39545820D01*
X46784188Y-39665518D01*
X46771928Y-39790000D01*
X46771928Y-39880000D01*
X45938072Y-39880000D01*
X45938072Y-39790000D01*
X45925812Y-39665518D01*
X45889502Y-39545820D01*
X45830537Y-39435506D01*
X45751185Y-39338815D01*
X45654494Y-39259463D01*
X45544180Y-39200498D01*
X45424482Y-39164188D01*
X45300000Y-39151928D01*
X43600000Y-39151928D01*
X43475518Y-39164188D01*
X43355820Y-39200498D01*
X43245506Y-39259463D01*
X43180000Y-39313222D01*
X43114494Y-39259463D01*
X43004180Y-39200498D01*
X42884482Y-39164188D01*
X42760000Y-39151928D01*
X41060000Y-39151928D01*
X40935518Y-39164188D01*
X40815820Y-39200498D01*
X40705506Y-39259463D01*
X40608815Y-39338815D01*
X40529463Y-39435506D01*
X40470498Y-39545820D01*
X40434188Y-39665518D01*
X40421928Y-39790000D01*
X40421928Y-41490000D01*
X40434188Y-41614482D01*
X40470498Y-41734180D01*
X40529463Y-41844494D01*
X40608815Y-41941185D01*
X40705506Y-42020537D01*
X40815820Y-42079502D01*
X40888380Y-42101513D01*
X40756525Y-42233368D01*
X40594010Y-42476589D01*
X40482068Y-42746842D01*
X40425000Y-43033740D01*
X40425000Y-43326260D01*
X40482068Y-43613158D01*
X40594010Y-43883411D01*
X40756525Y-44126632D01*
X40963368Y-44333475D01*
X41137760Y-44450000D01*
X40963368Y-44566525D01*
X40756525Y-44773368D01*
X40594010Y-45016589D01*
X40482068Y-45286842D01*
X40425000Y-45573740D01*
X40425000Y-45866260D01*
X40482068Y-46153158D01*
X40594010Y-46423411D01*
X40756525Y-46666632D01*
X40963368Y-46873475D01*
X41145534Y-46995195D01*
X41028645Y-47064822D01*
X40812412Y-47259731D01*
X40638359Y-47493080D01*
X40513175Y-47755901D01*
X40468524Y-47903110D01*
X40589845Y-48133000D01*
X41783000Y-48133000D01*
X41783000Y-48113000D01*
X42037000Y-48113000D01*
X42037000Y-48133000D01*
X44323000Y-48133000D01*
X44323000Y-48113000D01*
X44577000Y-48113000D01*
X44577000Y-48133000D01*
X45770155Y-48133000D01*
X45891476Y-47903110D01*
X45846825Y-47755901D01*
X45721641Y-47493080D01*
X45547588Y-47259731D01*
X45331355Y-47064822D01*
X45214466Y-46995195D01*
X45396632Y-46873475D01*
X45603475Y-46666632D01*
X45728178Y-46480000D01*
X46981822Y-46480000D01*
X47106525Y-46666632D01*
X47313368Y-46873475D01*
X47495534Y-46995195D01*
X47378645Y-47064822D01*
X47162412Y-47259731D01*
X46988359Y-47493080D01*
X46863175Y-47755901D01*
X46818524Y-47903110D01*
X46939845Y-48133000D01*
X48133000Y-48133000D01*
X48133000Y-48113000D01*
X48387000Y-48113000D01*
X48387000Y-48133000D01*
X50673000Y-48133000D01*
X50673000Y-48113000D01*
X50927000Y-48113000D01*
X50927000Y-48133000D01*
X52120155Y-48133000D01*
X52241476Y-47903110D01*
X52196825Y-47755901D01*
X52071641Y-47493080D01*
X51897588Y-47259731D01*
X51681355Y-47064822D01*
X51564466Y-46995195D01*
X51746632Y-46873475D01*
X51953475Y-46666632D01*
X52078178Y-46480000D01*
X53025199Y-46480000D01*
X54438790Y-47893593D01*
X54395000Y-48113740D01*
X54395000Y-48406260D01*
X54452068Y-48693158D01*
X54564010Y-48963411D01*
X54726525Y-49206632D01*
X54933368Y-49413475D01*
X55107760Y-49530000D01*
X54933368Y-49646525D01*
X54726525Y-49853368D01*
X54564010Y-50096589D01*
X54452068Y-50366842D01*
X54395000Y-50653740D01*
X54395000Y-50946260D01*
X54452068Y-51233158D01*
X54564010Y-51503411D01*
X54698143Y-51704155D01*
X54153498Y-52248801D01*
X54124500Y-52272599D01*
X54100702Y-52301597D01*
X54100701Y-52301598D01*
X54029526Y-52388324D01*
X53958954Y-52520354D01*
X53940557Y-52581003D01*
X53915498Y-52663614D01*
X53907931Y-52740446D01*
X53900824Y-52812600D01*
X53904501Y-52849932D01*
X53904500Y-54627177D01*
X53900824Y-54664500D01*
X53904500Y-54701822D01*
X53904500Y-54701832D01*
X53915497Y-54813485D01*
X53958954Y-54956746D01*
X54029526Y-55088776D01*
X54064176Y-55130997D01*
X54124499Y-55204501D01*
X54153503Y-55228304D01*
X54438791Y-55513592D01*
X54395000Y-55733740D01*
X54395000Y-56026260D01*
X54452068Y-56313158D01*
X54564010Y-56583411D01*
X54726525Y-56826632D01*
X54933368Y-57033475D01*
X55107760Y-57150000D01*
X54933368Y-57266525D01*
X54726525Y-57473368D01*
X54564010Y-57716589D01*
X54452068Y-57986842D01*
X54395000Y-58273740D01*
X54395000Y-58566260D01*
X54452068Y-58853158D01*
X54564010Y-59123411D01*
X54726525Y-59366632D01*
X54933368Y-59573475D01*
X55107760Y-59690000D01*
X54933368Y-59806525D01*
X54726525Y-60013368D01*
X54564010Y-60256589D01*
X54452068Y-60526842D01*
X54395000Y-60813740D01*
X54395000Y-61106260D01*
X54452068Y-61393158D01*
X54564010Y-61663411D01*
X54726525Y-61906632D01*
X54933368Y-62113475D01*
X55107760Y-62230000D01*
X54933368Y-62346525D01*
X54726525Y-62553368D01*
X54564010Y-62796589D01*
X54452068Y-63066842D01*
X54395000Y-63353740D01*
X54395000Y-63646260D01*
X54452068Y-63933158D01*
X54564010Y-64203411D01*
X54726525Y-64446632D01*
X54933368Y-64653475D01*
X55107760Y-64770000D01*
X54933368Y-64886525D01*
X54726525Y-65093368D01*
X54564010Y-65336589D01*
X54452068Y-65606842D01*
X54395000Y-65893740D01*
X54395000Y-66186260D01*
X54452068Y-66473158D01*
X54564010Y-66743411D01*
X54726525Y-66986632D01*
X54933368Y-67193475D01*
X55176589Y-67355990D01*
X55446842Y-67467932D01*
X55733740Y-67525000D01*
X56026260Y-67525000D01*
X56313158Y-67467932D01*
X56583411Y-67355990D01*
X56826632Y-67193475D01*
X57033475Y-66986632D01*
X57195990Y-66743411D01*
X57307932Y-66473158D01*
X57365000Y-66186260D01*
X57365000Y-65893740D01*
X57321209Y-65673592D01*
X59614801Y-63380000D01*
X61111928Y-63380000D01*
X61124188Y-63504482D01*
X61160498Y-63624180D01*
X61219463Y-63734494D01*
X61298815Y-63831185D01*
X61395506Y-63910537D01*
X61505820Y-63969502D01*
X61625518Y-64005812D01*
X61750000Y-64018072D01*
X63214250Y-64015000D01*
X63373000Y-63856250D01*
X63373000Y-62007000D01*
X63627000Y-62007000D01*
X63627000Y-63856250D01*
X63785750Y-64015000D01*
X65250000Y-64018072D01*
X65374482Y-64005812D01*
X65494180Y-63969502D01*
X65604494Y-63910537D01*
X65701185Y-63831185D01*
X65780537Y-63734494D01*
X65839502Y-63624180D01*
X65875812Y-63504482D01*
X65888072Y-63380000D01*
X65885000Y-62165750D01*
X65726250Y-62007000D01*
X63627000Y-62007000D01*
X63373000Y-62007000D01*
X61273750Y-62007000D01*
X61115000Y-62165750D01*
X61111928Y-63380000D01*
X59614801Y-63380000D01*
X61257776Y-61737026D01*
X61273750Y-61753000D01*
X63373000Y-61753000D01*
X63373000Y-61733000D01*
X63627000Y-61733000D01*
X63627000Y-61753000D01*
X65726250Y-61753000D01*
X65885000Y-61594250D01*
X65886698Y-60923195D01*
X65919463Y-60984494D01*
X65998815Y-61081185D01*
X66095506Y-61160537D01*
X66205820Y-61219502D01*
X66325518Y-61255812D01*
X66450000Y-61268072D01*
X67914250Y-61265000D01*
X68073000Y-61106250D01*
X68073000Y-59007000D01*
X65973750Y-59007000D01*
X65815000Y-59165750D01*
X65813069Y-60086367D01*
X65780537Y-60025506D01*
X65701185Y-59928815D01*
X65604494Y-59849463D01*
X65494180Y-59790498D01*
X65374482Y-59754188D01*
X65250000Y-59741928D01*
X64676759Y-59743131D01*
X64725901Y-59702801D01*
X64749704Y-59673797D01*
X65822126Y-58601376D01*
X65973750Y-58753000D01*
X68073000Y-58753000D01*
X68073000Y-56653750D01*
X67921376Y-56502126D01*
X69153201Y-55270301D01*
X69153201Y-56348568D01*
X69149524Y-56385900D01*
X69153201Y-56423233D01*
X69160130Y-56493585D01*
X68485750Y-56495000D01*
X68327000Y-56653750D01*
X68327000Y-58753000D01*
X68347000Y-58753000D01*
X68347000Y-59007000D01*
X68327000Y-59007000D01*
X68327000Y-61106250D01*
X68485750Y-61265000D01*
X69667069Y-61267478D01*
X69678791Y-61326408D01*
X69404998Y-61600201D01*
X69376000Y-61623999D01*
X69352202Y-61652997D01*
X69352201Y-61652998D01*
X69281026Y-61739724D01*
X69210454Y-61871754D01*
X69186146Y-61951890D01*
X69166998Y-62015014D01*
X69160144Y-62084600D01*
X69152324Y-62164000D01*
X69156001Y-62201332D01*
X69156000Y-66490377D01*
X69152324Y-66527700D01*
X69156000Y-66565022D01*
X69156000Y-66565032D01*
X69166997Y-66676685D01*
X69201068Y-66789003D01*
X69210454Y-66819946D01*
X69281026Y-66951976D01*
X69309468Y-66986632D01*
X69375999Y-67067701D01*
X69405002Y-67091503D01*
X70110805Y-67797308D01*
X70134599Y-67826301D01*
X70163592Y-67850095D01*
X70163596Y-67850099D01*
X70234285Y-67908111D01*
X70248772Y-67920000D01*
X40030000Y-67920000D01*
X40030000Y-63856890D01*
X40468524Y-63856890D01*
X40513175Y-64004099D01*
X40638359Y-64266920D01*
X40812412Y-64500269D01*
X41028645Y-64695178D01*
X41278748Y-64844157D01*
X41553109Y-64941481D01*
X41783000Y-64820814D01*
X41783000Y-63627000D01*
X42037000Y-63627000D01*
X42037000Y-64820814D01*
X42266891Y-64941481D01*
X42541252Y-64844157D01*
X42791355Y-64695178D01*
X43007588Y-64500269D01*
X43180000Y-64269120D01*
X43352412Y-64500269D01*
X43568645Y-64695178D01*
X43818748Y-64844157D01*
X44093109Y-64941481D01*
X44323000Y-64820814D01*
X44323000Y-63627000D01*
X44577000Y-63627000D01*
X44577000Y-64820814D01*
X44806891Y-64941481D01*
X45081252Y-64844157D01*
X45331355Y-64695178D01*
X45547588Y-64500269D01*
X45721641Y-64266920D01*
X45846825Y-64004099D01*
X45891476Y-63856890D01*
X46818524Y-63856890D01*
X46863175Y-64004099D01*
X46988359Y-64266920D01*
X47162412Y-64500269D01*
X47378645Y-64695178D01*
X47628748Y-64844157D01*
X47903109Y-64941481D01*
X48133000Y-64820814D01*
X48133000Y-63627000D01*
X48387000Y-63627000D01*
X48387000Y-64820814D01*
X48616891Y-64941481D01*
X48891252Y-64844157D01*
X49141355Y-64695178D01*
X49357588Y-64500269D01*
X49530000Y-64269120D01*
X49702412Y-64500269D01*
X49918645Y-64695178D01*
X50168748Y-64844157D01*
X50443109Y-64941481D01*
X50673000Y-64820814D01*
X50673000Y-63627000D01*
X50927000Y-63627000D01*
X50927000Y-64820814D01*
X51156891Y-64941481D01*
X51431252Y-64844157D01*
X51681355Y-64695178D01*
X51897588Y-64500269D01*
X52071641Y-64266920D01*
X52196825Y-64004099D01*
X52241476Y-63856890D01*
X52120155Y-63627000D01*
X50927000Y-63627000D01*
X50673000Y-63627000D01*
X48387000Y-63627000D01*
X48133000Y-63627000D01*
X46939845Y-63627000D01*
X46818524Y-63856890D01*
X45891476Y-63856890D01*
X45770155Y-63627000D01*
X44577000Y-63627000D01*
X44323000Y-63627000D01*
X42037000Y-63627000D01*
X41783000Y-63627000D01*
X40589845Y-63627000D01*
X40468524Y-63856890D01*
X40030000Y-63856890D01*
X40030000Y-55030000D01*
X40421928Y-55030000D01*
X40421928Y-56730000D01*
X40434188Y-56854482D01*
X40470498Y-56974180D01*
X40529463Y-57084494D01*
X40608815Y-57181185D01*
X40705506Y-57260537D01*
X40815820Y-57319502D01*
X40888380Y-57341513D01*
X40756525Y-57473368D01*
X40594010Y-57716589D01*
X40482068Y-57986842D01*
X40425000Y-58273740D01*
X40425000Y-58566260D01*
X40482068Y-58853158D01*
X40594010Y-59123411D01*
X40756525Y-59366632D01*
X40963368Y-59573475D01*
X41137760Y-59690000D01*
X40963368Y-59806525D01*
X40756525Y-60013368D01*
X40594010Y-60256589D01*
X40482068Y-60526842D01*
X40425000Y-60813740D01*
X40425000Y-61106260D01*
X40482068Y-61393158D01*
X40594010Y-61663411D01*
X40756525Y-61906632D01*
X40963368Y-62113475D01*
X41145534Y-62235195D01*
X41028645Y-62304822D01*
X40812412Y-62499731D01*
X40638359Y-62733080D01*
X40513175Y-62995901D01*
X40468524Y-63143110D01*
X40589845Y-63373000D01*
X41783000Y-63373000D01*
X41783000Y-63353000D01*
X42037000Y-63353000D01*
X42037000Y-63373000D01*
X44323000Y-63373000D01*
X44323000Y-63353000D01*
X44577000Y-63353000D01*
X44577000Y-63373000D01*
X45770155Y-63373000D01*
X45891476Y-63143110D01*
X45846825Y-62995901D01*
X45721641Y-62733080D01*
X45547588Y-62499731D01*
X45331355Y-62304822D01*
X45214466Y-62235195D01*
X45396632Y-62113475D01*
X45603475Y-61906632D01*
X45728178Y-61720000D01*
X46981822Y-61720000D01*
X47106525Y-61906632D01*
X47313368Y-62113475D01*
X47495534Y-62235195D01*
X47378645Y-62304822D01*
X47162412Y-62499731D01*
X46988359Y-62733080D01*
X46863175Y-62995901D01*
X46818524Y-63143110D01*
X46939845Y-63373000D01*
X48133000Y-63373000D01*
X48133000Y-63353000D01*
X48387000Y-63353000D01*
X48387000Y-63373000D01*
X50673000Y-63373000D01*
X50673000Y-63353000D01*
X50927000Y-63353000D01*
X50927000Y-63373000D01*
X52120155Y-63373000D01*
X52241476Y-63143110D01*
X52196825Y-62995901D01*
X52071641Y-62733080D01*
X51897588Y-62499731D01*
X51681355Y-62304822D01*
X51564466Y-62235195D01*
X51746632Y-62113475D01*
X51953475Y-61906632D01*
X52115990Y-61663411D01*
X52227932Y-61393158D01*
X52285000Y-61106260D01*
X52285000Y-60813740D01*
X52227932Y-60526842D01*
X52115990Y-60256589D01*
X51953475Y-60013368D01*
X51746632Y-59806525D01*
X51572240Y-59690000D01*
X51746632Y-59573475D01*
X51953475Y-59366632D01*
X52115990Y-59123411D01*
X52227932Y-58853158D01*
X52285000Y-58566260D01*
X52285000Y-58273740D01*
X52227932Y-57986842D01*
X52115990Y-57716589D01*
X51953475Y-57473368D01*
X51821620Y-57341513D01*
X51894180Y-57319502D01*
X52004494Y-57260537D01*
X52101185Y-57181185D01*
X52180537Y-57084494D01*
X52239502Y-56974180D01*
X52275812Y-56854482D01*
X52288072Y-56730000D01*
X52288072Y-55030000D01*
X52275812Y-54905518D01*
X52239502Y-54785820D01*
X52180537Y-54675506D01*
X52101185Y-54578815D01*
X52004494Y-54499463D01*
X51894180Y-54440498D01*
X51774482Y-54404188D01*
X51650000Y-54391928D01*
X49950000Y-54391928D01*
X49825518Y-54404188D01*
X49705820Y-54440498D01*
X49595506Y-54499463D01*
X49530000Y-54553222D01*
X49464494Y-54499463D01*
X49354180Y-54440498D01*
X49234482Y-54404188D01*
X49110000Y-54391928D01*
X47410000Y-54391928D01*
X47285518Y-54404188D01*
X47165820Y-54440498D01*
X47055506Y-54499463D01*
X46958815Y-54578815D01*
X46879463Y-54675506D01*
X46820498Y-54785820D01*
X46784188Y-54905518D01*
X46771928Y-55030000D01*
X46771928Y-55120000D01*
X45938072Y-55120000D01*
X45938072Y-55030000D01*
X45925812Y-54905518D01*
X45889502Y-54785820D01*
X45830537Y-54675506D01*
X45751185Y-54578815D01*
X45654494Y-54499463D01*
X45544180Y-54440498D01*
X45424482Y-54404188D01*
X45300000Y-54391928D01*
X43600000Y-54391928D01*
X43475518Y-54404188D01*
X43355820Y-54440498D01*
X43245506Y-54499463D01*
X43180000Y-54553222D01*
X43114494Y-54499463D01*
X43004180Y-54440498D01*
X42884482Y-54404188D01*
X42760000Y-54391928D01*
X41060000Y-54391928D01*
X40935518Y-54404188D01*
X40815820Y-54440498D01*
X40705506Y-54499463D01*
X40608815Y-54578815D01*
X40529463Y-54675506D01*
X40470498Y-54785820D01*
X40434188Y-54905518D01*
X40421928Y-55030000D01*
X40030000Y-55030000D01*
X40030000Y-48616890D01*
X40468524Y-48616890D01*
X40513175Y-48764099D01*
X40638359Y-49026920D01*
X40812412Y-49260269D01*
X41028645Y-49455178D01*
X41278748Y-49604157D01*
X41553109Y-49701481D01*
X41783000Y-49580814D01*
X41783000Y-48387000D01*
X42037000Y-48387000D01*
X42037000Y-49580814D01*
X42266891Y-49701481D01*
X42541252Y-49604157D01*
X42791355Y-49455178D01*
X43007588Y-49260269D01*
X43180000Y-49029120D01*
X43352412Y-49260269D01*
X43568645Y-49455178D01*
X43818748Y-49604157D01*
X44093109Y-49701481D01*
X44323000Y-49580814D01*
X44323000Y-48387000D01*
X44577000Y-48387000D01*
X44577000Y-49580814D01*
X44806891Y-49701481D01*
X45081252Y-49604157D01*
X45331355Y-49455178D01*
X45547588Y-49260269D01*
X45721641Y-49026920D01*
X45846825Y-48764099D01*
X45891476Y-48616890D01*
X46818524Y-48616890D01*
X46863175Y-48764099D01*
X46988359Y-49026920D01*
X47162412Y-49260269D01*
X47378645Y-49455178D01*
X47628748Y-49604157D01*
X47903109Y-49701481D01*
X48133000Y-49580814D01*
X48133000Y-48387000D01*
X48387000Y-48387000D01*
X48387000Y-49580814D01*
X48616891Y-49701481D01*
X48891252Y-49604157D01*
X49141355Y-49455178D01*
X49357588Y-49260269D01*
X49530000Y-49029120D01*
X49702412Y-49260269D01*
X49918645Y-49455178D01*
X50168748Y-49604157D01*
X50443109Y-49701481D01*
X50673000Y-49580814D01*
X50673000Y-48387000D01*
X50927000Y-48387000D01*
X50927000Y-49580814D01*
X51156891Y-49701481D01*
X51431252Y-49604157D01*
X51681355Y-49455178D01*
X51897588Y-49260269D01*
X52071641Y-49026920D01*
X52196825Y-48764099D01*
X52241476Y-48616890D01*
X52120155Y-48387000D01*
X50927000Y-48387000D01*
X50673000Y-48387000D01*
X48387000Y-48387000D01*
X48133000Y-48387000D01*
X46939845Y-48387000D01*
X46818524Y-48616890D01*
X45891476Y-48616890D01*
X45770155Y-48387000D01*
X44577000Y-48387000D01*
X44323000Y-48387000D01*
X42037000Y-48387000D01*
X41783000Y-48387000D01*
X40589845Y-48387000D01*
X40468524Y-48616890D01*
X40030000Y-48616890D01*
X40030000Y-35339872D01*
X40945000Y-35339872D01*
X40945000Y-35780128D01*
X41030890Y-36211925D01*
X41199369Y-36618669D01*
X41443962Y-36984729D01*
X41755271Y-37296038D01*
X42121331Y-37540631D01*
X42528075Y-37709110D01*
X42959872Y-37795000D01*
X43400128Y-37795000D01*
X43831925Y-37709110D01*
X44238669Y-37540631D01*
X44604729Y-37296038D01*
X44916038Y-36984729D01*
X45160631Y-36618669D01*
X45329110Y-36211925D01*
X45415000Y-35780128D01*
X45415000Y-35339872D01*
X45382225Y-35175098D01*
X61115000Y-35175098D01*
X61115000Y-35644902D01*
X61206654Y-36105679D01*
X61386440Y-36539721D01*
X61647450Y-36930349D01*
X61979651Y-37262550D01*
X62370279Y-37523560D01*
X62804321Y-37703346D01*
X63265098Y-37795000D01*
X63734902Y-37795000D01*
X64195679Y-37703346D01*
X64629721Y-37523560D01*
X65020349Y-37262550D01*
X65352550Y-36930349D01*
X65613560Y-36539721D01*
X65793346Y-36105679D01*
X65885000Y-35644902D01*
X65885000Y-35175098D01*
X65793346Y-34714321D01*
X65613560Y-34280279D01*
X65352550Y-33889651D01*
X65020349Y-33557450D01*
X64629721Y-33296440D01*
X64195679Y-33116654D01*
X63734902Y-33025000D01*
X63265098Y-33025000D01*
X62804321Y-33116654D01*
X62370279Y-33296440D01*
X61979651Y-33557450D01*
X61647450Y-33889651D01*
X61386440Y-34280279D01*
X61206654Y-34714321D01*
X61115000Y-35175098D01*
X45382225Y-35175098D01*
X45329110Y-34908075D01*
X45160631Y-34501331D01*
X44916038Y-34135271D01*
X44604729Y-33823962D01*
X44238669Y-33579369D01*
X43831925Y-33410890D01*
X43400128Y-33325000D01*
X42959872Y-33325000D01*
X42528075Y-33410890D01*
X42121331Y-33579369D01*
X41755271Y-33823962D01*
X41443962Y-34135271D01*
X41199369Y-34501331D01*
X41030890Y-34908075D01*
X40945000Y-35339872D01*
X40030000Y-35339872D01*
X40030000Y-32410000D01*
X78715001Y-32410000D01*
X78715001Y-40404699D01*
G37*
%TD.AperFunction*%
D17*
X76962000Y-61468000D02*
X76982000Y-61468000D01*
X76982000Y-61722000D01*
X76962000Y-61722000D01*
X76962000Y-61742000D01*
X76708000Y-61742000D01*
X76708000Y-61722000D01*
X76688000Y-61722000D01*
X76688000Y-61468000D01*
X76708000Y-61468000D01*
X76708000Y-61448000D01*
X76962000Y-61448000D01*
X76962000Y-61468000D01*
%TA.AperFunction,Conductor*%
D18*
G36*
X76962000Y-61468000D02*
G01*
X76982000Y-61468000D01*
X76982000Y-61722000D01*
X76962000Y-61722000D01*
X76962000Y-61742000D01*
X76708000Y-61742000D01*
X76708000Y-61722000D01*
X76688000Y-61722000D01*
X76688000Y-61468000D01*
X76708000Y-61468000D01*
X76708000Y-61448000D01*
X76962000Y-61448000D01*
X76962000Y-61468000D01*
G37*
%TD.AperFunction*%
D17*
X71247000Y-40513000D02*
X71267000Y-40513000D01*
X71267000Y-40767000D01*
X71247000Y-40767000D01*
X71247000Y-40787000D01*
X70993000Y-40787000D01*
X70993000Y-40767000D01*
X70973000Y-40767000D01*
X70973000Y-40513000D01*
X70993000Y-40513000D01*
X70993000Y-40493000D01*
X71247000Y-40493000D01*
X71247000Y-40513000D01*
%TA.AperFunction,Conductor*%
D18*
G36*
X71247000Y-40513000D02*
G01*
X71267000Y-40513000D01*
X71267000Y-40767000D01*
X71247000Y-40767000D01*
X71247000Y-40787000D01*
X70993000Y-40787000D01*
X70993000Y-40767000D01*
X70973000Y-40767000D01*
X70973000Y-40513000D01*
X70993000Y-40513000D01*
X70993000Y-40493000D01*
X71247000Y-40493000D01*
X71247000Y-40513000D01*
G37*
%TD.AperFunction*%
%TD*%
M02*
