%TF.GenerationSoftware,KiCad,Pcbnew,(5.1.9)-1*%
%TF.CreationDate,2021-08-18T17:12:04+10:00*%
%TF.ProjectId,i2c-master,6932632d-6d61-4737-9465-722e6b696361,rev?*%
%TF.SameCoordinates,Original*%
%TF.FileFunction,Paste,Top*%
%TF.FilePolarity,Positive*%
%FSLAX46Y46*%
G04 Gerber Fmt 4.6, Leading zero omitted, Abs format (unit mm)*
G04 Created by KiCad (PCBNEW (5.1.9)-1) date 2021-08-18 17:12:04*
%MOMM*%
%LPD*%
G01*
G04 APERTURE LIST*
G04 APERTURE END LIST*
%TO.C,J10*%
G36*
G01*
X48818000Y-63758000D02*
X48818000Y-61458000D01*
G75*
G02*
X49068000Y-61208000I250000J0D01*
G01*
X49568000Y-61208000D01*
G75*
G02*
X49818000Y-61458000I0J-250000D01*
G01*
X49818000Y-63758000D01*
G75*
G02*
X49568000Y-64008000I-250000J0D01*
G01*
X49068000Y-64008000D01*
G75*
G02*
X48818000Y-63758000I0J250000D01*
G01*
G37*
G36*
G01*
X41368000Y-63758000D02*
X41368000Y-61458000D01*
G75*
G02*
X41618000Y-61208000I250000J0D01*
G01*
X42118000Y-61208000D01*
G75*
G02*
X42368000Y-61458000I0J-250000D01*
G01*
X42368000Y-63758000D01*
G75*
G02*
X42118000Y-64008000I-250000J0D01*
G01*
X41618000Y-64008000D01*
G75*
G02*
X41368000Y-63758000I0J250000D01*
G01*
G37*
G36*
G01*
X47168000Y-66658000D02*
X47168000Y-65258000D01*
G75*
G02*
X47318000Y-65108000I150000J0D01*
G01*
X47618000Y-65108000D01*
G75*
G02*
X47768000Y-65258000I0J-150000D01*
G01*
X47768000Y-66658000D01*
G75*
G02*
X47618000Y-66808000I-150000J0D01*
G01*
X47318000Y-66808000D01*
G75*
G02*
X47168000Y-66658000I0J150000D01*
G01*
G37*
G36*
G01*
X45918000Y-66658000D02*
X45918000Y-65258000D01*
G75*
G02*
X46068000Y-65108000I150000J0D01*
G01*
X46368000Y-65108000D01*
G75*
G02*
X46518000Y-65258000I0J-150000D01*
G01*
X46518000Y-66658000D01*
G75*
G02*
X46368000Y-66808000I-150000J0D01*
G01*
X46068000Y-66808000D01*
G75*
G02*
X45918000Y-66658000I0J150000D01*
G01*
G37*
G36*
G01*
X44668000Y-66658000D02*
X44668000Y-65258000D01*
G75*
G02*
X44818000Y-65108000I150000J0D01*
G01*
X45118000Y-65108000D01*
G75*
G02*
X45268000Y-65258000I0J-150000D01*
G01*
X45268000Y-66658000D01*
G75*
G02*
X45118000Y-66808000I-150000J0D01*
G01*
X44818000Y-66808000D01*
G75*
G02*
X44668000Y-66658000I0J150000D01*
G01*
G37*
G36*
G01*
X43418000Y-66658000D02*
X43418000Y-65258000D01*
G75*
G02*
X43568000Y-65108000I150000J0D01*
G01*
X43868000Y-65108000D01*
G75*
G02*
X44018000Y-65258000I0J-150000D01*
G01*
X44018000Y-66658000D01*
G75*
G02*
X43868000Y-66808000I-150000J0D01*
G01*
X43568000Y-66808000D01*
G75*
G02*
X43418000Y-66658000I0J150000D01*
G01*
G37*
%TD*%
%TO.C,J9*%
G36*
G01*
X48818000Y-56646000D02*
X48818000Y-54346000D01*
G75*
G02*
X49068000Y-54096000I250000J0D01*
G01*
X49568000Y-54096000D01*
G75*
G02*
X49818000Y-54346000I0J-250000D01*
G01*
X49818000Y-56646000D01*
G75*
G02*
X49568000Y-56896000I-250000J0D01*
G01*
X49068000Y-56896000D01*
G75*
G02*
X48818000Y-56646000I0J250000D01*
G01*
G37*
G36*
G01*
X41368000Y-56646000D02*
X41368000Y-54346000D01*
G75*
G02*
X41618000Y-54096000I250000J0D01*
G01*
X42118000Y-54096000D01*
G75*
G02*
X42368000Y-54346000I0J-250000D01*
G01*
X42368000Y-56646000D01*
G75*
G02*
X42118000Y-56896000I-250000J0D01*
G01*
X41618000Y-56896000D01*
G75*
G02*
X41368000Y-56646000I0J250000D01*
G01*
G37*
G36*
G01*
X47168000Y-59546000D02*
X47168000Y-58146000D01*
G75*
G02*
X47318000Y-57996000I150000J0D01*
G01*
X47618000Y-57996000D01*
G75*
G02*
X47768000Y-58146000I0J-150000D01*
G01*
X47768000Y-59546000D01*
G75*
G02*
X47618000Y-59696000I-150000J0D01*
G01*
X47318000Y-59696000D01*
G75*
G02*
X47168000Y-59546000I0J150000D01*
G01*
G37*
G36*
G01*
X45918000Y-59546000D02*
X45918000Y-58146000D01*
G75*
G02*
X46068000Y-57996000I150000J0D01*
G01*
X46368000Y-57996000D01*
G75*
G02*
X46518000Y-58146000I0J-150000D01*
G01*
X46518000Y-59546000D01*
G75*
G02*
X46368000Y-59696000I-150000J0D01*
G01*
X46068000Y-59696000D01*
G75*
G02*
X45918000Y-59546000I0J150000D01*
G01*
G37*
G36*
G01*
X44668000Y-59546000D02*
X44668000Y-58146000D01*
G75*
G02*
X44818000Y-57996000I150000J0D01*
G01*
X45118000Y-57996000D01*
G75*
G02*
X45268000Y-58146000I0J-150000D01*
G01*
X45268000Y-59546000D01*
G75*
G02*
X45118000Y-59696000I-150000J0D01*
G01*
X44818000Y-59696000D01*
G75*
G02*
X44668000Y-59546000I0J150000D01*
G01*
G37*
G36*
G01*
X43418000Y-59546000D02*
X43418000Y-58146000D01*
G75*
G02*
X43568000Y-57996000I150000J0D01*
G01*
X43868000Y-57996000D01*
G75*
G02*
X44018000Y-58146000I0J-150000D01*
G01*
X44018000Y-59546000D01*
G75*
G02*
X43868000Y-59696000I-150000J0D01*
G01*
X43568000Y-59696000D01*
G75*
G02*
X43418000Y-59546000I0J150000D01*
G01*
G37*
%TD*%
%TO.C,J8*%
G36*
G01*
X48818000Y-49534000D02*
X48818000Y-47234000D01*
G75*
G02*
X49068000Y-46984000I250000J0D01*
G01*
X49568000Y-46984000D01*
G75*
G02*
X49818000Y-47234000I0J-250000D01*
G01*
X49818000Y-49534000D01*
G75*
G02*
X49568000Y-49784000I-250000J0D01*
G01*
X49068000Y-49784000D01*
G75*
G02*
X48818000Y-49534000I0J250000D01*
G01*
G37*
G36*
G01*
X41368000Y-49534000D02*
X41368000Y-47234000D01*
G75*
G02*
X41618000Y-46984000I250000J0D01*
G01*
X42118000Y-46984000D01*
G75*
G02*
X42368000Y-47234000I0J-250000D01*
G01*
X42368000Y-49534000D01*
G75*
G02*
X42118000Y-49784000I-250000J0D01*
G01*
X41618000Y-49784000D01*
G75*
G02*
X41368000Y-49534000I0J250000D01*
G01*
G37*
G36*
G01*
X47168000Y-52434000D02*
X47168000Y-51034000D01*
G75*
G02*
X47318000Y-50884000I150000J0D01*
G01*
X47618000Y-50884000D01*
G75*
G02*
X47768000Y-51034000I0J-150000D01*
G01*
X47768000Y-52434000D01*
G75*
G02*
X47618000Y-52584000I-150000J0D01*
G01*
X47318000Y-52584000D01*
G75*
G02*
X47168000Y-52434000I0J150000D01*
G01*
G37*
G36*
G01*
X45918000Y-52434000D02*
X45918000Y-51034000D01*
G75*
G02*
X46068000Y-50884000I150000J0D01*
G01*
X46368000Y-50884000D01*
G75*
G02*
X46518000Y-51034000I0J-150000D01*
G01*
X46518000Y-52434000D01*
G75*
G02*
X46368000Y-52584000I-150000J0D01*
G01*
X46068000Y-52584000D01*
G75*
G02*
X45918000Y-52434000I0J150000D01*
G01*
G37*
G36*
G01*
X44668000Y-52434000D02*
X44668000Y-51034000D01*
G75*
G02*
X44818000Y-50884000I150000J0D01*
G01*
X45118000Y-50884000D01*
G75*
G02*
X45268000Y-51034000I0J-150000D01*
G01*
X45268000Y-52434000D01*
G75*
G02*
X45118000Y-52584000I-150000J0D01*
G01*
X44818000Y-52584000D01*
G75*
G02*
X44668000Y-52434000I0J150000D01*
G01*
G37*
G36*
G01*
X43418000Y-52434000D02*
X43418000Y-51034000D01*
G75*
G02*
X43568000Y-50884000I150000J0D01*
G01*
X43868000Y-50884000D01*
G75*
G02*
X44018000Y-51034000I0J-150000D01*
G01*
X44018000Y-52434000D01*
G75*
G02*
X43868000Y-52584000I-150000J0D01*
G01*
X43568000Y-52584000D01*
G75*
G02*
X43418000Y-52434000I0J150000D01*
G01*
G37*
%TD*%
%TO.C,J7*%
G36*
G01*
X48818000Y-42422000D02*
X48818000Y-40122000D01*
G75*
G02*
X49068000Y-39872000I250000J0D01*
G01*
X49568000Y-39872000D01*
G75*
G02*
X49818000Y-40122000I0J-250000D01*
G01*
X49818000Y-42422000D01*
G75*
G02*
X49568000Y-42672000I-250000J0D01*
G01*
X49068000Y-42672000D01*
G75*
G02*
X48818000Y-42422000I0J250000D01*
G01*
G37*
G36*
G01*
X41368000Y-42422000D02*
X41368000Y-40122000D01*
G75*
G02*
X41618000Y-39872000I250000J0D01*
G01*
X42118000Y-39872000D01*
G75*
G02*
X42368000Y-40122000I0J-250000D01*
G01*
X42368000Y-42422000D01*
G75*
G02*
X42118000Y-42672000I-250000J0D01*
G01*
X41618000Y-42672000D01*
G75*
G02*
X41368000Y-42422000I0J250000D01*
G01*
G37*
G36*
G01*
X47168000Y-45322000D02*
X47168000Y-43922000D01*
G75*
G02*
X47318000Y-43772000I150000J0D01*
G01*
X47618000Y-43772000D01*
G75*
G02*
X47768000Y-43922000I0J-150000D01*
G01*
X47768000Y-45322000D01*
G75*
G02*
X47618000Y-45472000I-150000J0D01*
G01*
X47318000Y-45472000D01*
G75*
G02*
X47168000Y-45322000I0J150000D01*
G01*
G37*
G36*
G01*
X45918000Y-45322000D02*
X45918000Y-43922000D01*
G75*
G02*
X46068000Y-43772000I150000J0D01*
G01*
X46368000Y-43772000D01*
G75*
G02*
X46518000Y-43922000I0J-150000D01*
G01*
X46518000Y-45322000D01*
G75*
G02*
X46368000Y-45472000I-150000J0D01*
G01*
X46068000Y-45472000D01*
G75*
G02*
X45918000Y-45322000I0J150000D01*
G01*
G37*
G36*
G01*
X44668000Y-45322000D02*
X44668000Y-43922000D01*
G75*
G02*
X44818000Y-43772000I150000J0D01*
G01*
X45118000Y-43772000D01*
G75*
G02*
X45268000Y-43922000I0J-150000D01*
G01*
X45268000Y-45322000D01*
G75*
G02*
X45118000Y-45472000I-150000J0D01*
G01*
X44818000Y-45472000D01*
G75*
G02*
X44668000Y-45322000I0J150000D01*
G01*
G37*
G36*
G01*
X43418000Y-45322000D02*
X43418000Y-43922000D01*
G75*
G02*
X43568000Y-43772000I150000J0D01*
G01*
X43868000Y-43772000D01*
G75*
G02*
X44018000Y-43922000I0J-150000D01*
G01*
X44018000Y-45322000D01*
G75*
G02*
X43868000Y-45472000I-150000J0D01*
G01*
X43568000Y-45472000D01*
G75*
G02*
X43418000Y-45322000I0J150000D01*
G01*
G37*
%TD*%
%TO.C,J5*%
G36*
G01*
X37642000Y-63758000D02*
X37642000Y-61458000D01*
G75*
G02*
X37892000Y-61208000I250000J0D01*
G01*
X38392000Y-61208000D01*
G75*
G02*
X38642000Y-61458000I0J-250000D01*
G01*
X38642000Y-63758000D01*
G75*
G02*
X38392000Y-64008000I-250000J0D01*
G01*
X37892000Y-64008000D01*
G75*
G02*
X37642000Y-63758000I0J250000D01*
G01*
G37*
G36*
G01*
X30192000Y-63758000D02*
X30192000Y-61458000D01*
G75*
G02*
X30442000Y-61208000I250000J0D01*
G01*
X30942000Y-61208000D01*
G75*
G02*
X31192000Y-61458000I0J-250000D01*
G01*
X31192000Y-63758000D01*
G75*
G02*
X30942000Y-64008000I-250000J0D01*
G01*
X30442000Y-64008000D01*
G75*
G02*
X30192000Y-63758000I0J250000D01*
G01*
G37*
G36*
G01*
X35992000Y-66658000D02*
X35992000Y-65258000D01*
G75*
G02*
X36142000Y-65108000I150000J0D01*
G01*
X36442000Y-65108000D01*
G75*
G02*
X36592000Y-65258000I0J-150000D01*
G01*
X36592000Y-66658000D01*
G75*
G02*
X36442000Y-66808000I-150000J0D01*
G01*
X36142000Y-66808000D01*
G75*
G02*
X35992000Y-66658000I0J150000D01*
G01*
G37*
G36*
G01*
X34742000Y-66658000D02*
X34742000Y-65258000D01*
G75*
G02*
X34892000Y-65108000I150000J0D01*
G01*
X35192000Y-65108000D01*
G75*
G02*
X35342000Y-65258000I0J-150000D01*
G01*
X35342000Y-66658000D01*
G75*
G02*
X35192000Y-66808000I-150000J0D01*
G01*
X34892000Y-66808000D01*
G75*
G02*
X34742000Y-66658000I0J150000D01*
G01*
G37*
G36*
G01*
X33492000Y-66658000D02*
X33492000Y-65258000D01*
G75*
G02*
X33642000Y-65108000I150000J0D01*
G01*
X33942000Y-65108000D01*
G75*
G02*
X34092000Y-65258000I0J-150000D01*
G01*
X34092000Y-66658000D01*
G75*
G02*
X33942000Y-66808000I-150000J0D01*
G01*
X33642000Y-66808000D01*
G75*
G02*
X33492000Y-66658000I0J150000D01*
G01*
G37*
G36*
G01*
X32242000Y-66658000D02*
X32242000Y-65258000D01*
G75*
G02*
X32392000Y-65108000I150000J0D01*
G01*
X32692000Y-65108000D01*
G75*
G02*
X32842000Y-65258000I0J-150000D01*
G01*
X32842000Y-66658000D01*
G75*
G02*
X32692000Y-66808000I-150000J0D01*
G01*
X32392000Y-66808000D01*
G75*
G02*
X32242000Y-66658000I0J150000D01*
G01*
G37*
%TD*%
%TO.C,J4*%
G36*
G01*
X37642000Y-56646000D02*
X37642000Y-54346000D01*
G75*
G02*
X37892000Y-54096000I250000J0D01*
G01*
X38392000Y-54096000D01*
G75*
G02*
X38642000Y-54346000I0J-250000D01*
G01*
X38642000Y-56646000D01*
G75*
G02*
X38392000Y-56896000I-250000J0D01*
G01*
X37892000Y-56896000D01*
G75*
G02*
X37642000Y-56646000I0J250000D01*
G01*
G37*
G36*
G01*
X30192000Y-56646000D02*
X30192000Y-54346000D01*
G75*
G02*
X30442000Y-54096000I250000J0D01*
G01*
X30942000Y-54096000D01*
G75*
G02*
X31192000Y-54346000I0J-250000D01*
G01*
X31192000Y-56646000D01*
G75*
G02*
X30942000Y-56896000I-250000J0D01*
G01*
X30442000Y-56896000D01*
G75*
G02*
X30192000Y-56646000I0J250000D01*
G01*
G37*
G36*
G01*
X35992000Y-59546000D02*
X35992000Y-58146000D01*
G75*
G02*
X36142000Y-57996000I150000J0D01*
G01*
X36442000Y-57996000D01*
G75*
G02*
X36592000Y-58146000I0J-150000D01*
G01*
X36592000Y-59546000D01*
G75*
G02*
X36442000Y-59696000I-150000J0D01*
G01*
X36142000Y-59696000D01*
G75*
G02*
X35992000Y-59546000I0J150000D01*
G01*
G37*
G36*
G01*
X34742000Y-59546000D02*
X34742000Y-58146000D01*
G75*
G02*
X34892000Y-57996000I150000J0D01*
G01*
X35192000Y-57996000D01*
G75*
G02*
X35342000Y-58146000I0J-150000D01*
G01*
X35342000Y-59546000D01*
G75*
G02*
X35192000Y-59696000I-150000J0D01*
G01*
X34892000Y-59696000D01*
G75*
G02*
X34742000Y-59546000I0J150000D01*
G01*
G37*
G36*
G01*
X33492000Y-59546000D02*
X33492000Y-58146000D01*
G75*
G02*
X33642000Y-57996000I150000J0D01*
G01*
X33942000Y-57996000D01*
G75*
G02*
X34092000Y-58146000I0J-150000D01*
G01*
X34092000Y-59546000D01*
G75*
G02*
X33942000Y-59696000I-150000J0D01*
G01*
X33642000Y-59696000D01*
G75*
G02*
X33492000Y-59546000I0J150000D01*
G01*
G37*
G36*
G01*
X32242000Y-59546000D02*
X32242000Y-58146000D01*
G75*
G02*
X32392000Y-57996000I150000J0D01*
G01*
X32692000Y-57996000D01*
G75*
G02*
X32842000Y-58146000I0J-150000D01*
G01*
X32842000Y-59546000D01*
G75*
G02*
X32692000Y-59696000I-150000J0D01*
G01*
X32392000Y-59696000D01*
G75*
G02*
X32242000Y-59546000I0J150000D01*
G01*
G37*
%TD*%
%TO.C,J3*%
G36*
G01*
X37642000Y-49534000D02*
X37642000Y-47234000D01*
G75*
G02*
X37892000Y-46984000I250000J0D01*
G01*
X38392000Y-46984000D01*
G75*
G02*
X38642000Y-47234000I0J-250000D01*
G01*
X38642000Y-49534000D01*
G75*
G02*
X38392000Y-49784000I-250000J0D01*
G01*
X37892000Y-49784000D01*
G75*
G02*
X37642000Y-49534000I0J250000D01*
G01*
G37*
G36*
G01*
X30192000Y-49534000D02*
X30192000Y-47234000D01*
G75*
G02*
X30442000Y-46984000I250000J0D01*
G01*
X30942000Y-46984000D01*
G75*
G02*
X31192000Y-47234000I0J-250000D01*
G01*
X31192000Y-49534000D01*
G75*
G02*
X30942000Y-49784000I-250000J0D01*
G01*
X30442000Y-49784000D01*
G75*
G02*
X30192000Y-49534000I0J250000D01*
G01*
G37*
G36*
G01*
X35992000Y-52434000D02*
X35992000Y-51034000D01*
G75*
G02*
X36142000Y-50884000I150000J0D01*
G01*
X36442000Y-50884000D01*
G75*
G02*
X36592000Y-51034000I0J-150000D01*
G01*
X36592000Y-52434000D01*
G75*
G02*
X36442000Y-52584000I-150000J0D01*
G01*
X36142000Y-52584000D01*
G75*
G02*
X35992000Y-52434000I0J150000D01*
G01*
G37*
G36*
G01*
X34742000Y-52434000D02*
X34742000Y-51034000D01*
G75*
G02*
X34892000Y-50884000I150000J0D01*
G01*
X35192000Y-50884000D01*
G75*
G02*
X35342000Y-51034000I0J-150000D01*
G01*
X35342000Y-52434000D01*
G75*
G02*
X35192000Y-52584000I-150000J0D01*
G01*
X34892000Y-52584000D01*
G75*
G02*
X34742000Y-52434000I0J150000D01*
G01*
G37*
G36*
G01*
X33492000Y-52434000D02*
X33492000Y-51034000D01*
G75*
G02*
X33642000Y-50884000I150000J0D01*
G01*
X33942000Y-50884000D01*
G75*
G02*
X34092000Y-51034000I0J-150000D01*
G01*
X34092000Y-52434000D01*
G75*
G02*
X33942000Y-52584000I-150000J0D01*
G01*
X33642000Y-52584000D01*
G75*
G02*
X33492000Y-52434000I0J150000D01*
G01*
G37*
G36*
G01*
X32242000Y-52434000D02*
X32242000Y-51034000D01*
G75*
G02*
X32392000Y-50884000I150000J0D01*
G01*
X32692000Y-50884000D01*
G75*
G02*
X32842000Y-51034000I0J-150000D01*
G01*
X32842000Y-52434000D01*
G75*
G02*
X32692000Y-52584000I-150000J0D01*
G01*
X32392000Y-52584000D01*
G75*
G02*
X32242000Y-52434000I0J150000D01*
G01*
G37*
%TD*%
%TO.C,J2*%
G36*
G01*
X37642000Y-42422000D02*
X37642000Y-40122000D01*
G75*
G02*
X37892000Y-39872000I250000J0D01*
G01*
X38392000Y-39872000D01*
G75*
G02*
X38642000Y-40122000I0J-250000D01*
G01*
X38642000Y-42422000D01*
G75*
G02*
X38392000Y-42672000I-250000J0D01*
G01*
X37892000Y-42672000D01*
G75*
G02*
X37642000Y-42422000I0J250000D01*
G01*
G37*
G36*
G01*
X30192000Y-42422000D02*
X30192000Y-40122000D01*
G75*
G02*
X30442000Y-39872000I250000J0D01*
G01*
X30942000Y-39872000D01*
G75*
G02*
X31192000Y-40122000I0J-250000D01*
G01*
X31192000Y-42422000D01*
G75*
G02*
X30942000Y-42672000I-250000J0D01*
G01*
X30442000Y-42672000D01*
G75*
G02*
X30192000Y-42422000I0J250000D01*
G01*
G37*
G36*
G01*
X35992000Y-45322000D02*
X35992000Y-43922000D01*
G75*
G02*
X36142000Y-43772000I150000J0D01*
G01*
X36442000Y-43772000D01*
G75*
G02*
X36592000Y-43922000I0J-150000D01*
G01*
X36592000Y-45322000D01*
G75*
G02*
X36442000Y-45472000I-150000J0D01*
G01*
X36142000Y-45472000D01*
G75*
G02*
X35992000Y-45322000I0J150000D01*
G01*
G37*
G36*
G01*
X34742000Y-45322000D02*
X34742000Y-43922000D01*
G75*
G02*
X34892000Y-43772000I150000J0D01*
G01*
X35192000Y-43772000D01*
G75*
G02*
X35342000Y-43922000I0J-150000D01*
G01*
X35342000Y-45322000D01*
G75*
G02*
X35192000Y-45472000I-150000J0D01*
G01*
X34892000Y-45472000D01*
G75*
G02*
X34742000Y-45322000I0J150000D01*
G01*
G37*
G36*
G01*
X33492000Y-45322000D02*
X33492000Y-43922000D01*
G75*
G02*
X33642000Y-43772000I150000J0D01*
G01*
X33942000Y-43772000D01*
G75*
G02*
X34092000Y-43922000I0J-150000D01*
G01*
X34092000Y-45322000D01*
G75*
G02*
X33942000Y-45472000I-150000J0D01*
G01*
X33642000Y-45472000D01*
G75*
G02*
X33492000Y-45322000I0J150000D01*
G01*
G37*
G36*
G01*
X32242000Y-45322000D02*
X32242000Y-43922000D01*
G75*
G02*
X32392000Y-43772000I150000J0D01*
G01*
X32692000Y-43772000D01*
G75*
G02*
X32842000Y-43922000I0J-150000D01*
G01*
X32842000Y-45322000D01*
G75*
G02*
X32692000Y-45472000I-150000J0D01*
G01*
X32392000Y-45472000D01*
G75*
G02*
X32242000Y-45322000I0J150000D01*
G01*
G37*
%TD*%
%TO.C,C1*%
G36*
G01*
X63765000Y-49545002D02*
X63765000Y-48244998D01*
G75*
G02*
X64014998Y-47995000I249998J0D01*
G01*
X64840002Y-47995000D01*
G75*
G02*
X65090000Y-48244998I0J-249998D01*
G01*
X65090000Y-49545002D01*
G75*
G02*
X64840002Y-49795000I-249998J0D01*
G01*
X64014998Y-49795000D01*
G75*
G02*
X63765000Y-49545002I0J249998D01*
G01*
G37*
G36*
G01*
X60640000Y-49545002D02*
X60640000Y-48244998D01*
G75*
G02*
X60889998Y-47995000I249998J0D01*
G01*
X61715002Y-47995000D01*
G75*
G02*
X61965000Y-48244998I0J-249998D01*
G01*
X61965000Y-49545002D01*
G75*
G02*
X61715002Y-49795000I-249998J0D01*
G01*
X60889998Y-49795000D01*
G75*
G02*
X60640000Y-49545002I0J249998D01*
G01*
G37*
%TD*%
M02*
