%TF.GenerationSoftware,KiCad,Pcbnew,(5.1.9)-1*%
%TF.CreationDate,2021-08-18T17:12:04+10:00*%
%TF.ProjectId,i2c-master,6932632d-6d61-4737-9465-722e6b696361,rev?*%
%TF.SameCoordinates,Original*%
%TF.FileFunction,Legend,Top*%
%TF.FilePolarity,Positive*%
%FSLAX46Y46*%
G04 Gerber Fmt 4.6, Leading zero omitted, Abs format (unit mm)*
G04 Created by KiCad (PCBNEW (5.1.9)-1) date 2021-08-18 17:12:04*
%MOMM*%
%LPD*%
G01*
G04 APERTURE LIST*
%ADD10C,0.150000*%
%ADD11C,0.120000*%
G04 APERTURE END LIST*
D10*
X59192857Y-66332142D02*
X59192857Y-65432142D01*
X59621428Y-65732142D02*
X59621428Y-66332142D01*
X59621428Y-65817857D02*
X59664285Y-65775000D01*
X59750000Y-65732142D01*
X59878571Y-65732142D01*
X59964285Y-65775000D01*
X60007142Y-65860714D01*
X60007142Y-66332142D01*
X60435714Y-65732142D02*
X60435714Y-66632142D01*
X60435714Y-65775000D02*
X60521428Y-65732142D01*
X60692857Y-65732142D01*
X60778571Y-65775000D01*
X60821428Y-65817857D01*
X60864285Y-65903571D01*
X60864285Y-66160714D01*
X60821428Y-66246428D01*
X60778571Y-66289285D01*
X60692857Y-66332142D01*
X60521428Y-66332142D01*
X60435714Y-66289285D01*
X61635714Y-65732142D02*
X61635714Y-66332142D01*
X61250000Y-65732142D02*
X61250000Y-66203571D01*
X61292857Y-66289285D01*
X61378571Y-66332142D01*
X61507142Y-66332142D01*
X61592857Y-66289285D01*
X61635714Y-66246428D01*
X61935714Y-65732142D02*
X62278571Y-65732142D01*
X62064285Y-65432142D02*
X62064285Y-66203571D01*
X62107142Y-66289285D01*
X62192857Y-66332142D01*
X62278571Y-66332142D01*
X63135714Y-65432142D02*
X63435714Y-66332142D01*
X63735714Y-65432142D01*
X64164285Y-66332142D02*
X64078571Y-66289285D01*
X64035714Y-66246428D01*
X63992857Y-66160714D01*
X63992857Y-65903571D01*
X64035714Y-65817857D01*
X64078571Y-65775000D01*
X64164285Y-65732142D01*
X64292857Y-65732142D01*
X64378571Y-65775000D01*
X64421428Y-65817857D01*
X64464285Y-65903571D01*
X64464285Y-66160714D01*
X64421428Y-66246428D01*
X64378571Y-66289285D01*
X64292857Y-66332142D01*
X64164285Y-66332142D01*
X64978571Y-66332142D02*
X64892857Y-66289285D01*
X64850000Y-66203571D01*
X64850000Y-65432142D01*
X65192857Y-65732142D02*
X65535714Y-65732142D01*
X65321428Y-65432142D02*
X65321428Y-66203571D01*
X65364285Y-66289285D01*
X65450000Y-66332142D01*
X65535714Y-66332142D01*
X66221428Y-66332142D02*
X66221428Y-65860714D01*
X66178571Y-65775000D01*
X66092857Y-65732142D01*
X65921428Y-65732142D01*
X65835714Y-65775000D01*
X66221428Y-66289285D02*
X66135714Y-66332142D01*
X65921428Y-66332142D01*
X65835714Y-66289285D01*
X65792857Y-66203571D01*
X65792857Y-66117857D01*
X65835714Y-66032142D01*
X65921428Y-65989285D01*
X66135714Y-65989285D01*
X66221428Y-65946428D01*
X67035714Y-65732142D02*
X67035714Y-66460714D01*
X66992857Y-66546428D01*
X66950000Y-66589285D01*
X66864285Y-66632142D01*
X66735714Y-66632142D01*
X66650000Y-66589285D01*
X67035714Y-66289285D02*
X66950000Y-66332142D01*
X66778571Y-66332142D01*
X66692857Y-66289285D01*
X66650000Y-66246428D01*
X66607142Y-66160714D01*
X66607142Y-65903571D01*
X66650000Y-65817857D01*
X66692857Y-65775000D01*
X66778571Y-65732142D01*
X66950000Y-65732142D01*
X67035714Y-65775000D01*
X67807142Y-66289285D02*
X67721428Y-66332142D01*
X67550000Y-66332142D01*
X67464285Y-66289285D01*
X67421428Y-66203571D01*
X67421428Y-65860714D01*
X67464285Y-65775000D01*
X67550000Y-65732142D01*
X67721428Y-65732142D01*
X67807142Y-65775000D01*
X67850000Y-65860714D01*
X67850000Y-65946428D01*
X67421428Y-66032142D01*
X61400000Y-66932142D02*
X62000000Y-66932142D01*
X61614285Y-67832142D01*
X62342857Y-67489285D02*
X63028571Y-67489285D01*
X63371428Y-66932142D02*
X63928571Y-66932142D01*
X63628571Y-67275000D01*
X63757142Y-67275000D01*
X63842857Y-67317857D01*
X63885714Y-67360714D01*
X63928571Y-67446428D01*
X63928571Y-67660714D01*
X63885714Y-67746428D01*
X63842857Y-67789285D01*
X63757142Y-67832142D01*
X63500000Y-67832142D01*
X63414285Y-67789285D01*
X63371428Y-67746428D01*
X64742857Y-66932142D02*
X64314285Y-66932142D01*
X64271428Y-67360714D01*
X64314285Y-67317857D01*
X64400000Y-67275000D01*
X64614285Y-67275000D01*
X64700000Y-67317857D01*
X64742857Y-67360714D01*
X64785714Y-67446428D01*
X64785714Y-67660714D01*
X64742857Y-67746428D01*
X64700000Y-67789285D01*
X64614285Y-67832142D01*
X64400000Y-67832142D01*
X64314285Y-67789285D01*
X64271428Y-67746428D01*
X65042857Y-66932142D02*
X65342857Y-67832142D01*
X65642857Y-66932142D01*
X47325595Y-33917380D02*
X47325595Y-32917380D01*
X47754166Y-33012619D02*
X47801785Y-32965000D01*
X47897023Y-32917380D01*
X48135119Y-32917380D01*
X48230357Y-32965000D01*
X48277976Y-33012619D01*
X48325595Y-33107857D01*
X48325595Y-33203095D01*
X48277976Y-33345952D01*
X47706547Y-33917380D01*
X48325595Y-33917380D01*
X49325595Y-33822142D02*
X49277976Y-33869761D01*
X49135119Y-33917380D01*
X49039880Y-33917380D01*
X48897023Y-33869761D01*
X48801785Y-33774523D01*
X48754166Y-33679285D01*
X48706547Y-33488809D01*
X48706547Y-33345952D01*
X48754166Y-33155476D01*
X48801785Y-33060238D01*
X48897023Y-32965000D01*
X49039880Y-32917380D01*
X49135119Y-32917380D01*
X49277976Y-32965000D01*
X49325595Y-33012619D01*
X50516071Y-33917380D02*
X50516071Y-32917380D01*
X50849404Y-33631666D01*
X51182738Y-32917380D01*
X51182738Y-33917380D01*
X52087500Y-33917380D02*
X52087500Y-33393571D01*
X52039880Y-33298333D01*
X51944642Y-33250714D01*
X51754166Y-33250714D01*
X51658928Y-33298333D01*
X52087500Y-33869761D02*
X51992261Y-33917380D01*
X51754166Y-33917380D01*
X51658928Y-33869761D01*
X51611309Y-33774523D01*
X51611309Y-33679285D01*
X51658928Y-33584047D01*
X51754166Y-33536428D01*
X51992261Y-33536428D01*
X52087500Y-33488809D01*
X52516071Y-33869761D02*
X52611309Y-33917380D01*
X52801785Y-33917380D01*
X52897023Y-33869761D01*
X52944642Y-33774523D01*
X52944642Y-33726904D01*
X52897023Y-33631666D01*
X52801785Y-33584047D01*
X52658928Y-33584047D01*
X52563690Y-33536428D01*
X52516071Y-33441190D01*
X52516071Y-33393571D01*
X52563690Y-33298333D01*
X52658928Y-33250714D01*
X52801785Y-33250714D01*
X52897023Y-33298333D01*
X53230357Y-33250714D02*
X53611309Y-33250714D01*
X53373214Y-32917380D02*
X53373214Y-33774523D01*
X53420833Y-33869761D01*
X53516071Y-33917380D01*
X53611309Y-33917380D01*
X54325595Y-33869761D02*
X54230357Y-33917380D01*
X54039880Y-33917380D01*
X53944642Y-33869761D01*
X53897023Y-33774523D01*
X53897023Y-33393571D01*
X53944642Y-33298333D01*
X54039880Y-33250714D01*
X54230357Y-33250714D01*
X54325595Y-33298333D01*
X54373214Y-33393571D01*
X54373214Y-33488809D01*
X53897023Y-33584047D01*
X54801785Y-33917380D02*
X54801785Y-33250714D01*
X54801785Y-33441190D02*
X54849404Y-33345952D01*
X54897023Y-33298333D01*
X54992261Y-33250714D01*
X55087500Y-33250714D01*
X47325595Y-34567380D02*
X47325595Y-35376904D01*
X47373214Y-35472142D01*
X47420833Y-35519761D01*
X47516071Y-35567380D01*
X47706547Y-35567380D01*
X47801785Y-35519761D01*
X47849404Y-35472142D01*
X47897023Y-35376904D01*
X47897023Y-34567380D01*
X48325595Y-35519761D02*
X48420833Y-35567380D01*
X48611309Y-35567380D01*
X48706547Y-35519761D01*
X48754166Y-35424523D01*
X48754166Y-35376904D01*
X48706547Y-35281666D01*
X48611309Y-35234047D01*
X48468452Y-35234047D01*
X48373214Y-35186428D01*
X48325595Y-35091190D01*
X48325595Y-35043571D01*
X48373214Y-34948333D01*
X48468452Y-34900714D01*
X48611309Y-34900714D01*
X48706547Y-34948333D01*
X49563690Y-35519761D02*
X49468452Y-35567380D01*
X49277976Y-35567380D01*
X49182738Y-35519761D01*
X49135119Y-35424523D01*
X49135119Y-35043571D01*
X49182738Y-34948333D01*
X49277976Y-34900714D01*
X49468452Y-34900714D01*
X49563690Y-34948333D01*
X49611309Y-35043571D01*
X49611309Y-35138809D01*
X49135119Y-35234047D01*
X50706547Y-34900714D02*
X50897023Y-35567380D01*
X51087500Y-35091190D01*
X51277976Y-35567380D01*
X51468452Y-34900714D01*
X52563690Y-34519761D02*
X51706547Y-35805476D01*
X53658928Y-35567380D02*
X53658928Y-34567380D01*
X54039880Y-34567380D01*
X54135119Y-34615000D01*
X54182738Y-34662619D01*
X54230357Y-34757857D01*
X54230357Y-34900714D01*
X54182738Y-34995952D01*
X54135119Y-35043571D01*
X54039880Y-35091190D01*
X53658928Y-35091190D01*
X54658928Y-35567380D02*
X54658928Y-34900714D01*
X54658928Y-35091190D02*
X54706547Y-34995952D01*
X54754166Y-34948333D01*
X54849404Y-34900714D01*
X54944642Y-34900714D01*
X55420833Y-35567380D02*
X55325595Y-35519761D01*
X55277976Y-35472142D01*
X55230357Y-35376904D01*
X55230357Y-35091190D01*
X55277976Y-34995952D01*
X55325595Y-34948333D01*
X55420833Y-34900714D01*
X55563690Y-34900714D01*
X55658928Y-34948333D01*
X55706547Y-34995952D01*
X55754166Y-35091190D01*
X55754166Y-35376904D01*
X55706547Y-35472142D01*
X55658928Y-35519761D01*
X55563690Y-35567380D01*
X55420833Y-35567380D01*
X56944642Y-35567380D02*
X56944642Y-34567380D01*
X57277976Y-35281666D01*
X57611309Y-34567380D01*
X57611309Y-35567380D01*
X58087500Y-35567380D02*
X58087500Y-34900714D01*
X58087500Y-34567380D02*
X58039880Y-34615000D01*
X58087500Y-34662619D01*
X58135119Y-34615000D01*
X58087500Y-34567380D01*
X58087500Y-34662619D01*
X58992261Y-35519761D02*
X58897023Y-35567380D01*
X58706547Y-35567380D01*
X58611309Y-35519761D01*
X58563690Y-35472142D01*
X58516071Y-35376904D01*
X58516071Y-35091190D01*
X58563690Y-34995952D01*
X58611309Y-34948333D01*
X58706547Y-34900714D01*
X58897023Y-34900714D01*
X58992261Y-34948333D01*
X59420833Y-35567380D02*
X59420833Y-34900714D01*
X59420833Y-35091190D02*
X59468452Y-34995952D01*
X59516071Y-34948333D01*
X59611309Y-34900714D01*
X59706547Y-34900714D01*
X60182738Y-35567380D02*
X60087500Y-35519761D01*
X60039880Y-35472142D01*
X59992261Y-35376904D01*
X59992261Y-35091190D01*
X60039880Y-34995952D01*
X60087500Y-34948333D01*
X60182738Y-34900714D01*
X60325595Y-34900714D01*
X60420833Y-34948333D01*
X60468452Y-34995952D01*
X60516071Y-35091190D01*
X60516071Y-35376904D01*
X60468452Y-35472142D01*
X60420833Y-35519761D01*
X60325595Y-35567380D01*
X60182738Y-35567380D01*
X65603809Y-33107380D02*
X65603809Y-33916904D01*
X65651428Y-34012142D01*
X65699047Y-34059761D01*
X65794285Y-34107380D01*
X65984761Y-34107380D01*
X66080000Y-34059761D01*
X66127619Y-34012142D01*
X66175238Y-33916904D01*
X66175238Y-33107380D01*
X66603809Y-34059761D02*
X66746666Y-34107380D01*
X66984761Y-34107380D01*
X67080000Y-34059761D01*
X67127619Y-34012142D01*
X67175238Y-33916904D01*
X67175238Y-33821666D01*
X67127619Y-33726428D01*
X67080000Y-33678809D01*
X66984761Y-33631190D01*
X66794285Y-33583571D01*
X66699047Y-33535952D01*
X66651428Y-33488333D01*
X66603809Y-33393095D01*
X66603809Y-33297857D01*
X66651428Y-33202619D01*
X66699047Y-33155000D01*
X66794285Y-33107380D01*
X67032380Y-33107380D01*
X67175238Y-33155000D01*
X67937142Y-33583571D02*
X68080000Y-33631190D01*
X68127619Y-33678809D01*
X68175238Y-33774047D01*
X68175238Y-33916904D01*
X68127619Y-34012142D01*
X68080000Y-34059761D01*
X67984761Y-34107380D01*
X67603809Y-34107380D01*
X67603809Y-33107380D01*
X67937142Y-33107380D01*
X68032380Y-33155000D01*
X68080000Y-33202619D01*
X68127619Y-33297857D01*
X68127619Y-33393095D01*
X68080000Y-33488333D01*
X68032380Y-33535952D01*
X67937142Y-33583571D01*
X67603809Y-33583571D01*
X69746666Y-34059761D02*
X69651428Y-34107380D01*
X69460952Y-34107380D01*
X69365714Y-34059761D01*
X69318095Y-33964523D01*
X69318095Y-33583571D01*
X69365714Y-33488333D01*
X69460952Y-33440714D01*
X69651428Y-33440714D01*
X69746666Y-33488333D01*
X69794285Y-33583571D01*
X69794285Y-33678809D01*
X69318095Y-33774047D01*
X70222857Y-33440714D02*
X70222857Y-34107380D01*
X70222857Y-33535952D02*
X70270476Y-33488333D01*
X70365714Y-33440714D01*
X70508571Y-33440714D01*
X70603809Y-33488333D01*
X70651428Y-33583571D01*
X70651428Y-34107380D01*
X71556190Y-34107380D02*
X71556190Y-33107380D01*
X71556190Y-34059761D02*
X71460952Y-34107380D01*
X71270476Y-34107380D01*
X71175238Y-34059761D01*
X71127619Y-34012142D01*
X71080000Y-33916904D01*
X71080000Y-33631190D01*
X71127619Y-33535952D01*
X71175238Y-33488333D01*
X71270476Y-33440714D01*
X71460952Y-33440714D01*
X71556190Y-33488333D01*
D11*
%TO.C,J10*%
X41358000Y-64268000D02*
X41358000Y-65868000D01*
X41358000Y-65868000D02*
X43158000Y-65868000D01*
X43158000Y-65868000D02*
X43158000Y-66808000D01*
X49828000Y-64268000D02*
X49828000Y-65868000D01*
X49828000Y-65868000D02*
X48028000Y-65868000D01*
X42628000Y-61398000D02*
X48558000Y-61398000D01*
%TO.C,J9*%
X41358000Y-57156000D02*
X41358000Y-58756000D01*
X41358000Y-58756000D02*
X43158000Y-58756000D01*
X43158000Y-58756000D02*
X43158000Y-59696000D01*
X49828000Y-57156000D02*
X49828000Y-58756000D01*
X49828000Y-58756000D02*
X48028000Y-58756000D01*
X42628000Y-54286000D02*
X48558000Y-54286000D01*
%TO.C,J8*%
X41358000Y-50044000D02*
X41358000Y-51644000D01*
X41358000Y-51644000D02*
X43158000Y-51644000D01*
X43158000Y-51644000D02*
X43158000Y-52584000D01*
X49828000Y-50044000D02*
X49828000Y-51644000D01*
X49828000Y-51644000D02*
X48028000Y-51644000D01*
X42628000Y-47174000D02*
X48558000Y-47174000D01*
%TO.C,J7*%
X41358000Y-42932000D02*
X41358000Y-44532000D01*
X41358000Y-44532000D02*
X43158000Y-44532000D01*
X43158000Y-44532000D02*
X43158000Y-45472000D01*
X49828000Y-42932000D02*
X49828000Y-44532000D01*
X49828000Y-44532000D02*
X48028000Y-44532000D01*
X42628000Y-40062000D02*
X48558000Y-40062000D01*
%TO.C,J5*%
X30182000Y-64268000D02*
X30182000Y-65868000D01*
X30182000Y-65868000D02*
X31982000Y-65868000D01*
X31982000Y-65868000D02*
X31982000Y-66808000D01*
X38652000Y-64268000D02*
X38652000Y-65868000D01*
X38652000Y-65868000D02*
X36852000Y-65868000D01*
X31452000Y-61398000D02*
X37382000Y-61398000D01*
%TO.C,J4*%
X30182000Y-57156000D02*
X30182000Y-58756000D01*
X30182000Y-58756000D02*
X31982000Y-58756000D01*
X31982000Y-58756000D02*
X31982000Y-59696000D01*
X38652000Y-57156000D02*
X38652000Y-58756000D01*
X38652000Y-58756000D02*
X36852000Y-58756000D01*
X31452000Y-54286000D02*
X37382000Y-54286000D01*
%TO.C,J3*%
X30182000Y-50044000D02*
X30182000Y-51644000D01*
X30182000Y-51644000D02*
X31982000Y-51644000D01*
X31982000Y-51644000D02*
X31982000Y-52584000D01*
X38652000Y-50044000D02*
X38652000Y-51644000D01*
X38652000Y-51644000D02*
X36852000Y-51644000D01*
X31452000Y-47174000D02*
X37382000Y-47174000D01*
%TO.C,J2*%
X30182000Y-42932000D02*
X30182000Y-44532000D01*
X30182000Y-44532000D02*
X31982000Y-44532000D01*
X31982000Y-44532000D02*
X31982000Y-45472000D01*
X38652000Y-42932000D02*
X38652000Y-44532000D01*
X38652000Y-44532000D02*
X36852000Y-44532000D01*
X31452000Y-40062000D02*
X37382000Y-40062000D01*
%TO.C,5V*%
X65550000Y-42815000D02*
X65550000Y-44815000D01*
X61450000Y-42815000D02*
X65550000Y-42815000D01*
X61450000Y-44815000D02*
X61450000Y-42815000D01*
X65550000Y-44815000D02*
X61450000Y-44815000D01*
%TO.C,C1*%
X62153748Y-47985000D02*
X63576252Y-47985000D01*
X62153748Y-49805000D02*
X63576252Y-49805000D01*
%TO.C,J12*%
X78275000Y-37405000D02*
X78275000Y-62925000D01*
X78275000Y-62925000D02*
X80935000Y-62925000D01*
X80935000Y-62925000D02*
X80935000Y-37405000D01*
X80935000Y-37405000D02*
X78275000Y-37405000D01*
X80935000Y-38355000D02*
X86935000Y-38355000D01*
X86935000Y-38355000D02*
X86935000Y-39115000D01*
X86935000Y-39115000D02*
X80935000Y-39115000D01*
X80935000Y-38415000D02*
X86935000Y-38415000D01*
X80935000Y-38535000D02*
X86935000Y-38535000D01*
X80935000Y-38655000D02*
X86935000Y-38655000D01*
X80935000Y-38775000D02*
X86935000Y-38775000D01*
X80935000Y-38895000D02*
X86935000Y-38895000D01*
X80935000Y-39015000D02*
X86935000Y-39015000D01*
X77877929Y-38355000D02*
X78275000Y-38355000D01*
X77877929Y-39115000D02*
X78275000Y-39115000D01*
X75405000Y-38355000D02*
X75792071Y-38355000D01*
X75405000Y-39115000D02*
X75792071Y-39115000D01*
X78275000Y-40005000D02*
X80935000Y-40005000D01*
X80935000Y-40895000D02*
X86935000Y-40895000D01*
X86935000Y-40895000D02*
X86935000Y-41655000D01*
X86935000Y-41655000D02*
X80935000Y-41655000D01*
X77877929Y-40895000D02*
X78275000Y-40895000D01*
X77877929Y-41655000D02*
X78275000Y-41655000D01*
X75337929Y-40895000D02*
X75792071Y-40895000D01*
X75337929Y-41655000D02*
X75792071Y-41655000D01*
X78275000Y-42545000D02*
X80935000Y-42545000D01*
X80935000Y-43435000D02*
X86935000Y-43435000D01*
X86935000Y-43435000D02*
X86935000Y-44195000D01*
X86935000Y-44195000D02*
X80935000Y-44195000D01*
X77877929Y-43435000D02*
X78275000Y-43435000D01*
X77877929Y-44195000D02*
X78275000Y-44195000D01*
X75337929Y-43435000D02*
X75792071Y-43435000D01*
X75337929Y-44195000D02*
X75792071Y-44195000D01*
X78275000Y-45085000D02*
X80935000Y-45085000D01*
X80935000Y-45975000D02*
X86935000Y-45975000D01*
X86935000Y-45975000D02*
X86935000Y-46735000D01*
X86935000Y-46735000D02*
X80935000Y-46735000D01*
X77877929Y-45975000D02*
X78275000Y-45975000D01*
X77877929Y-46735000D02*
X78275000Y-46735000D01*
X75337929Y-45975000D02*
X75792071Y-45975000D01*
X75337929Y-46735000D02*
X75792071Y-46735000D01*
X78275000Y-47625000D02*
X80935000Y-47625000D01*
X80935000Y-48515000D02*
X86935000Y-48515000D01*
X86935000Y-48515000D02*
X86935000Y-49275000D01*
X86935000Y-49275000D02*
X80935000Y-49275000D01*
X77877929Y-48515000D02*
X78275000Y-48515000D01*
X77877929Y-49275000D02*
X78275000Y-49275000D01*
X75337929Y-48515000D02*
X75792071Y-48515000D01*
X75337929Y-49275000D02*
X75792071Y-49275000D01*
X78275000Y-50165000D02*
X80935000Y-50165000D01*
X80935000Y-51055000D02*
X86935000Y-51055000D01*
X86935000Y-51055000D02*
X86935000Y-51815000D01*
X86935000Y-51815000D02*
X80935000Y-51815000D01*
X77877929Y-51055000D02*
X78275000Y-51055000D01*
X77877929Y-51815000D02*
X78275000Y-51815000D01*
X75337929Y-51055000D02*
X75792071Y-51055000D01*
X75337929Y-51815000D02*
X75792071Y-51815000D01*
X78275000Y-52705000D02*
X80935000Y-52705000D01*
X80935000Y-53595000D02*
X86935000Y-53595000D01*
X86935000Y-53595000D02*
X86935000Y-54355000D01*
X86935000Y-54355000D02*
X80935000Y-54355000D01*
X77877929Y-53595000D02*
X78275000Y-53595000D01*
X77877929Y-54355000D02*
X78275000Y-54355000D01*
X75337929Y-53595000D02*
X75792071Y-53595000D01*
X75337929Y-54355000D02*
X75792071Y-54355000D01*
X78275000Y-55245000D02*
X80935000Y-55245000D01*
X80935000Y-56135000D02*
X86935000Y-56135000D01*
X86935000Y-56135000D02*
X86935000Y-56895000D01*
X86935000Y-56895000D02*
X80935000Y-56895000D01*
X77877929Y-56135000D02*
X78275000Y-56135000D01*
X77877929Y-56895000D02*
X78275000Y-56895000D01*
X75337929Y-56135000D02*
X75792071Y-56135000D01*
X75337929Y-56895000D02*
X75792071Y-56895000D01*
X78275000Y-57785000D02*
X80935000Y-57785000D01*
X80935000Y-58675000D02*
X86935000Y-58675000D01*
X86935000Y-58675000D02*
X86935000Y-59435000D01*
X86935000Y-59435000D02*
X80935000Y-59435000D01*
X77877929Y-58675000D02*
X78275000Y-58675000D01*
X77877929Y-59435000D02*
X78275000Y-59435000D01*
X75337929Y-58675000D02*
X75792071Y-58675000D01*
X75337929Y-59435000D02*
X75792071Y-59435000D01*
X78275000Y-60325000D02*
X80935000Y-60325000D01*
X80935000Y-61215000D02*
X86935000Y-61215000D01*
X86935000Y-61215000D02*
X86935000Y-61975000D01*
X86935000Y-61975000D02*
X80935000Y-61975000D01*
X77877929Y-61215000D02*
X78275000Y-61215000D01*
X77877929Y-61975000D02*
X78275000Y-61975000D01*
X75337929Y-61215000D02*
X75792071Y-61215000D01*
X75337929Y-61975000D02*
X75792071Y-61975000D01*
X73025000Y-38735000D02*
X73025000Y-37465000D01*
X73025000Y-37465000D02*
X74295000Y-37465000D01*
%TO.C,J11*%
X59750000Y-54780000D02*
X58700000Y-54780000D01*
X58700000Y-55830000D02*
X58700000Y-54780000D01*
X68100000Y-60880000D02*
X68100000Y-69680000D01*
X68100000Y-69680000D02*
X58900000Y-69680000D01*
X65400000Y-54980000D02*
X68100000Y-54980000D01*
X68100000Y-54980000D02*
X68100000Y-56880000D01*
X58900000Y-69680000D02*
X58900000Y-54980000D01*
X58900000Y-54980000D02*
X61500000Y-54980000D01*
%TO.C,J6*%
X69790000Y-39370000D02*
X72450000Y-39370000D01*
X69790000Y-39370000D02*
X69790000Y-67370000D01*
X69790000Y-67370000D02*
X72450000Y-67370000D01*
X72450000Y-39370000D02*
X72450000Y-67370000D01*
X72450000Y-36770000D02*
X72450000Y-38100000D01*
X71120000Y-36770000D02*
X72450000Y-36770000D01*
%TO.C,J1*%
X54550000Y-39370000D02*
X57210000Y-39370000D01*
X54550000Y-39370000D02*
X54550000Y-67370000D01*
X54550000Y-67370000D02*
X57210000Y-67370000D01*
X57210000Y-39370000D02*
X57210000Y-67370000D01*
X57210000Y-36770000D02*
X57210000Y-38100000D01*
X55880000Y-36770000D02*
X57210000Y-36770000D01*
%TO.C,5V*%
D10*
X63309523Y-45067380D02*
X62833333Y-45067380D01*
X62785714Y-45543571D01*
X62833333Y-45495952D01*
X62928571Y-45448333D01*
X63166666Y-45448333D01*
X63261904Y-45495952D01*
X63309523Y-45543571D01*
X63357142Y-45638809D01*
X63357142Y-45876904D01*
X63309523Y-45972142D01*
X63261904Y-46019761D01*
X63166666Y-46067380D01*
X62928571Y-46067380D01*
X62833333Y-46019761D01*
X62785714Y-45972142D01*
X63642857Y-45067380D02*
X63976190Y-46067380D01*
X64309523Y-45067380D01*
X66052380Y-45076904D02*
X66861904Y-45076904D01*
X66957142Y-45029285D01*
X67004761Y-44981666D01*
X67052380Y-44886428D01*
X67052380Y-44695952D01*
X67004761Y-44600714D01*
X66957142Y-44553095D01*
X66861904Y-44505476D01*
X66052380Y-44505476D01*
X67004761Y-44076904D02*
X67052380Y-43934047D01*
X67052380Y-43695952D01*
X67004761Y-43600714D01*
X66957142Y-43553095D01*
X66861904Y-43505476D01*
X66766666Y-43505476D01*
X66671428Y-43553095D01*
X66623809Y-43600714D01*
X66576190Y-43695952D01*
X66528571Y-43886428D01*
X66480952Y-43981666D01*
X66433333Y-44029285D01*
X66338095Y-44076904D01*
X66242857Y-44076904D01*
X66147619Y-44029285D01*
X66100000Y-43981666D01*
X66052380Y-43886428D01*
X66052380Y-43648333D01*
X66100000Y-43505476D01*
X66528571Y-42743571D02*
X66576190Y-42600714D01*
X66623809Y-42553095D01*
X66719047Y-42505476D01*
X66861904Y-42505476D01*
X66957142Y-42553095D01*
X67004761Y-42600714D01*
X67052380Y-42695952D01*
X67052380Y-43076904D01*
X66052380Y-43076904D01*
X66052380Y-42743571D01*
X66100000Y-42648333D01*
X66147619Y-42600714D01*
X66242857Y-42553095D01*
X66338095Y-42553095D01*
X66433333Y-42600714D01*
X66480952Y-42648333D01*
X66528571Y-42743571D01*
X66528571Y-43076904D01*
X60328571Y-44886428D02*
X60328571Y-44553095D01*
X60852380Y-44410238D02*
X60852380Y-44886428D01*
X59852380Y-44886428D01*
X59852380Y-44410238D01*
X59852380Y-44076904D02*
X60852380Y-43410238D01*
X59852380Y-43410238D02*
X60852380Y-44076904D01*
X59852380Y-43172142D02*
X59852380Y-42600714D01*
X60852380Y-42886428D02*
X59852380Y-42886428D01*
%TO.C,C1*%
X63222142Y-49061666D02*
X63269761Y-49109285D01*
X63317380Y-49252142D01*
X63317380Y-49347380D01*
X63269761Y-49490238D01*
X63174523Y-49585476D01*
X63079285Y-49633095D01*
X62888809Y-49680714D01*
X62745952Y-49680714D01*
X62555476Y-49633095D01*
X62460238Y-49585476D01*
X62365000Y-49490238D01*
X62317380Y-49347380D01*
X62317380Y-49252142D01*
X62365000Y-49109285D01*
X62412619Y-49061666D01*
X63317380Y-48109285D02*
X63317380Y-48680714D01*
X63317380Y-48395000D02*
X62317380Y-48395000D01*
X62460238Y-48490238D01*
X62555476Y-48585476D01*
X62603095Y-48680714D01*
%TO.C,J12*%
X80470476Y-35917380D02*
X80470476Y-36631666D01*
X80422857Y-36774523D01*
X80327619Y-36869761D01*
X80184761Y-36917380D01*
X80089523Y-36917380D01*
X81470476Y-36917380D02*
X80899047Y-36917380D01*
X81184761Y-36917380D02*
X81184761Y-35917380D01*
X81089523Y-36060238D01*
X80994285Y-36155476D01*
X80899047Y-36203095D01*
X81851428Y-36012619D02*
X81899047Y-35965000D01*
X81994285Y-35917380D01*
X82232380Y-35917380D01*
X82327619Y-35965000D01*
X82375238Y-36012619D01*
X82422857Y-36107857D01*
X82422857Y-36203095D01*
X82375238Y-36345952D01*
X81803809Y-36917380D01*
X82422857Y-36917380D01*
%TO.C,J11*%
X62690476Y-57872380D02*
X62690476Y-58586666D01*
X62642857Y-58729523D01*
X62547619Y-58824761D01*
X62404761Y-58872380D01*
X62309523Y-58872380D01*
X63690476Y-58872380D02*
X63119047Y-58872380D01*
X63404761Y-58872380D02*
X63404761Y-57872380D01*
X63309523Y-58015238D01*
X63214285Y-58110476D01*
X63119047Y-58158095D01*
X64642857Y-58872380D02*
X64071428Y-58872380D01*
X64357142Y-58872380D02*
X64357142Y-57872380D01*
X64261904Y-58015238D01*
X64166666Y-58110476D01*
X64071428Y-58158095D01*
%TD*%
M02*
