<?xml version="1.0" encoding="UTF-8" standalone="no"?>
<!-- Created with Inkscape (http://www.inkscape.org/) -->

<svg
   width="600mm"
   height="400mm"
   viewBox="0 0 600 400"
   version="1.1"
   id="svg5"
   inkscape:version="1.1.1 (3bf5ae0d25, 2021-09-20)"
   sodipodi:docname="MFD-Layout.svg"
   xmlns:inkscape="http://www.inkscape.org/namespaces/inkscape"
   xmlns:sodipodi="http://sodipodi.sourceforge.net/DTD/sodipodi-0.dtd"
   xmlns="http://www.w3.org/2000/svg"
   xmlns:svg="http://www.w3.org/2000/svg">
  <sodipodi:namedview
     id="namedview7"
     pagecolor="#ffffff"
     bordercolor="#666666"
     borderopacity="1.0"
     inkscape:pageshadow="2"
     inkscape:pageopacity="0.0"
     inkscape:pagecheckerboard="true"
     inkscape:document-units="mm"
     showgrid="false"
     width="600mm"
     inkscape:zoom="0.5499273"
     inkscape:cx="634.62934"
     inkscape:cy="83.64742"
     inkscape:window-width="3840"
     inkscape:window-height="2066"
     inkscape:window-x="1525"
     inkscape:window-y="-11"
     inkscape:window-maximized="1"
     inkscape:current-layer="layer1"
     showborder="true" />
  <defs
     id="defs2">
    <marker
       id="DistanceX"
       orient="auto"
       refX="0"
       refY="0"
       style="overflow:visible">
      <path
         d="M 3,-3 -3,3 M 0,-5 V 5"
         style="stroke:#000000;stroke-width:0.5"
         id="path11" />
    </marker>
    <pattern
       id="Hatch"
       patternUnits="userSpaceOnUse"
       width="8"
       height="8"
       x="0"
       y="0">
      <path
         d="M8 4 l-4,4"
         stroke="#000000"
         stroke-width="0.25"
         linecap="square"
         id="path14" />
      <path
         d="M6 2 l-4,4"
         stroke="#000000"
         stroke-width="0.25"
         linecap="square"
         id="path16" />
      <path
         d="M4 0 l-4,4"
         stroke="#000000"
         stroke-width="0.25"
         linecap="square"
         id="path18" />
    </pattern>
    <symbol
       id="*Model_Space" />
    <symbol
       id="*Paper_Space" />
    <symbol
       id="*Paper_Space0" />
    <inkscape:path-effect
       effect="fill_between_many"
       method="originald"
       linkedpaths="#g126,0,1"
       id="path-effect478"
       is_visible="true"
       lpeversion="0"
       join="true"
       close="true"
       autoreverse="true"
       applied="false" />
    <marker
       id="DistanceX-7"
       orient="auto"
       refX="0"
       refY="0"
       style="overflow:visible">
      <path
         d="M 3,-3 -3,3 M 0,-5 V 5"
         style="stroke:#000000;stroke-width:0.5"
         id="path2567" />
    </marker>
    <pattern
       id="Hatch-6"
       patternUnits="userSpaceOnUse"
       width="8"
       height="8"
       x="0"
       y="0">
      <path
         d="M8 4 l-4,4"
         stroke="#000000"
         stroke-width="0.25"
         linecap="square"
         id="path2570" />
      <path
         d="M6 2 l-4,4"
         stroke="#000000"
         stroke-width="0.25"
         linecap="square"
         id="path2572" />
      <path
         d="M4 0 l-4,4"
         stroke="#000000"
         stroke-width="0.25"
         linecap="square"
         id="path2574" />
    </pattern>
    <symbol
       id="*Model_Space-5" />
    <symbol
       id="*Paper_Space-8" />
    <symbol
       id="*Paper_Space0-4" />
    <marker
       id="DistanceX-3"
       orient="auto"
       refX="0"
       refY="0"
       style="overflow:visible">
      <path
         d="M 3,-3 -3,3 M 0,-5 V 5"
         style="stroke:#000000;stroke-width:0.5"
         id="path3787" />
    </marker>
    <pattern
       id="Hatch-8"
       patternUnits="userSpaceOnUse"
       width="8"
       height="8"
       x="0"
       y="0">
      <path
         d="M8 4 l-4,4"
         stroke="#000000"
         stroke-width="0.25"
         linecap="square"
         id="path3790" />
      <path
         d="M6 2 l-4,4"
         stroke="#000000"
         stroke-width="0.25"
         linecap="square"
         id="path3792" />
      <path
         d="M4 0 l-4,4"
         stroke="#000000"
         stroke-width="0.25"
         linecap="square"
         id="path3794" />
    </pattern>
    <symbol
       id="*Model_Space-3" />
    <symbol
       id="*Paper_Space-7" />
    <symbol
       id="*Paper_Space0-2" />
    <marker
       id="DistanceX-4"
       orient="auto"
       refX="0"
       refY="0"
       style="overflow:visible">
      <path
         d="M 3,-3 -3,3 M 0,-5 V 5"
         style="stroke:#000000;stroke-width:0.5"
         id="path4449" />
    </marker>
    <pattern
       id="Hatch-86"
       patternUnits="userSpaceOnUse"
       width="8"
       height="8"
       x="0"
       y="0">
      <path
         d="M8 4 l-4,4"
         stroke="#000000"
         stroke-width="0.25"
         linecap="square"
         id="path4452" />
      <path
         d="M6 2 l-4,4"
         stroke="#000000"
         stroke-width="0.25"
         linecap="square"
         id="path4454" />
      <path
         d="M4 0 l-4,4"
         stroke="#000000"
         stroke-width="0.25"
         linecap="square"
         id="path4456" />
    </pattern>
    <symbol
       id="*Model_Space-9" />
    <symbol
       id="*Paper_Space-0" />
    <symbol
       id="*Paper_Space0-1" />
    <marker
       id="DistanceX-2"
       orient="auto"
       refX="0"
       refY="0"
       style="overflow:visible">
      <path
         d="M 3,-3 -3,3 M 0,-5 V 5"
         style="stroke:#000000;stroke-width:0.5"
         id="path5402" />
    </marker>
    <pattern
       id="Hatch-85"
       patternUnits="userSpaceOnUse"
       width="8"
       height="8"
       x="0"
       y="0">
      <path
         d="M8 4 l-4,4"
         stroke="#000000"
         stroke-width="0.25"
         linecap="square"
         id="path5405" />
      <path
         d="M6 2 l-4,4"
         stroke="#000000"
         stroke-width="0.25"
         linecap="square"
         id="path5407" />
      <path
         d="M4 0 l-4,4"
         stroke="#000000"
         stroke-width="0.25"
         linecap="square"
         id="path5409" />
    </pattern>
    <symbol
       id="*Model_Space-6" />
    <symbol
       id="*Paper_Space-87" />
    <symbol
       id="*Paper_Space0-42" />
    <marker
       id="DistanceX-5"
       orient="auto"
       refX="0.0"
       refY="0.0"
       style="overflow:visible">
      <path
         d="M 3,-3 L -3,3 M 0,-5 L  0,5"
         style="stroke:#000000; stroke-width:0.5"
         id="path908" />
    </marker>
    <pattern
       id="Hatch-3"
       patternUnits="userSpaceOnUse"
       width="8"
       height="8"
       x="0"
       y="0">
      <path
         d="M8 4 l-4,4"
         stroke="#000000"
         stroke-width="0.25"
         linecap="square"
         id="path911" />
      <path
         d="M6 2 l-4,4"
         stroke="#000000"
         stroke-width="0.25"
         linecap="square"
         id="path913" />
      <path
         d="M4 0 l-4,4"
         stroke="#000000"
         stroke-width="0.25"
         linecap="square"
         id="path915" />
    </pattern>
    <symbol
       id="*Model_Space-99" />
    <symbol
       id="*Paper_Space-1" />
    <symbol
       id="*Paper_Space0-8" />
    <marker
       id="DistanceX-6"
       orient="auto"
       refX="0.0"
       refY="0.0"
       style="overflow:visible">
      <path
         d="M 3,-3 L -3,3 M 0,-5 L  0,5"
         style="stroke:#000000; stroke-width:0.5"
         id="path1025" />
    </marker>
    <pattern
       id="Hatch-0"
       patternUnits="userSpaceOnUse"
       width="8"
       height="8"
       x="0"
       y="0">
      <path
         d="M8 4 l-4,4"
         stroke="#000000"
         stroke-width="0.25"
         linecap="square"
         id="path1028" />
      <path
         d="M6 2 l-4,4"
         stroke="#000000"
         stroke-width="0.25"
         linecap="square"
         id="path1030" />
      <path
         d="M4 0 l-4,4"
         stroke="#000000"
         stroke-width="0.25"
         linecap="square"
         id="path1032" />
    </pattern>
    <symbol
       id="*Model_Space-0" />
    <symbol
       id="*Paper_Space-08" />
    <symbol
       id="*Paper_Space0-3" />
    <marker
       id="DistanceX-1"
       orient="auto"
       refX="0.0"
       refY="0.0"
       style="overflow:visible">
      <path
         d="M 3,-3 L -3,3 M 0,-5 L  0,5"
         style="stroke:#000000; stroke-width:0.5"
         id="path1160" />
    </marker>
    <pattern
       id="Hatch-2"
       patternUnits="userSpaceOnUse"
       width="8"
       height="8"
       x="0"
       y="0">
      <path
         d="M8 4 l-4,4"
         stroke="#000000"
         stroke-width="0.25"
         linecap="square"
         id="path1163" />
      <path
         d="M6 2 l-4,4"
         stroke="#000000"
         stroke-width="0.25"
         linecap="square"
         id="path1165" />
      <path
         d="M4 0 l-4,4"
         stroke="#000000"
         stroke-width="0.25"
         linecap="square"
         id="path1167" />
    </pattern>
    <symbol
       id="*Model_Space-64" />
    <symbol
       id="*Paper_Space-6" />
    <symbol
       id="*Paper_Space0-16" />
    <marker
       id="DistanceX-27"
       orient="auto"
       refX="0.0"
       refY="0.0"
       style="overflow:visible">
      <path
         d="M 3,-3 L -3,3 M 0,-5 L  0,5"
         style="stroke:#000000; stroke-width:0.5"
         id="path1259" />
    </marker>
    <pattern
       id="Hatch-03"
       patternUnits="userSpaceOnUse"
       width="8"
       height="8"
       x="0"
       y="0">
      <path
         d="M8 4 l-4,4"
         stroke="#000000"
         stroke-width="0.25"
         linecap="square"
         id="path1262" />
      <path
         d="M6 2 l-4,4"
         stroke="#000000"
         stroke-width="0.25"
         linecap="square"
         id="path1264" />
      <path
         d="M4 0 l-4,4"
         stroke="#000000"
         stroke-width="0.25"
         linecap="square"
         id="path1266" />
    </pattern>
    <symbol
       id="*Model_Space-1" />
    <symbol
       id="*Paper_Space-18" />
    <symbol
       id="*Paper_Space0-6" />
  </defs>
  <g
     inkscape:label="Layer 1"
     inkscape:groupmode="layer"
     id="layer1"
     style="display:inline">
    <path
       inkscape:original-d="M 0,0"
       inkscape:path-effect="#path-effect478"
       d="M 0,0"
       id="path480" />
    <path
       style="fill:#a0a0a0;stroke:none;stroke-width:0.0850516"
       d="m 186.85825,182.88748 c -0.43379,-0.0719 -1.33264,-0.38894 -1.78758,-0.63057 -1.42693,-0.75785 -2.4458,-2.03415 -2.94669,-3.69119 -0.14829,-0.4906 -0.15522,-3.02325 -0.17942,-65.57474 -0.017,-43.93901 0.003,-65.280156 0.0617,-65.728837 0.18238,-1.39484 0.70179,-2.448768 1.70876,-3.467248 0.87743,-0.887465 1.78311,-1.335918 3.44091,-1.703792 0.65489,-0.145325 1.34381,-0.323429 1.53093,-0.395787 0.18711,-0.07236 11.59252,-4.934805 25.34536,-10.805439 13.75283,-5.870634 25.23479,-10.746779 25.51546,-10.835878 1.01848,-0.323319 1.63877,-0.414345 3.16817,-0.464928 l 1.55219,-0.05134 v 1.032679 1.032679 h 8.12242 8.12242 V 20.57041 19.537731 l 1.5522,0.05134 c 1.52847,0.05055 2.14745,0.141307 3.16817,0.464519 0.28067,0.08888 11.6478,4.919267 25.2603,10.734204 13.6125,5.814938 25.02069,10.678175 25.35153,10.807192 0.33085,0.129018 1.13458,0.352874 1.78609,0.497461 1.65114,0.36643 2.55846,0.816152 3.43474,1.702448 1.00697,1.01848 1.52637,2.072408 1.70876,3.467248 0.0587,0.448681 0.0787,21.789827 0.0617,65.728837 -0.0242,62.55149 -0.0311,65.08414 -0.17943,65.57474 -0.37684,1.2467 -1.09674,2.35454 -1.99205,3.06555 -0.63286,0.5026 -1.68924,1.00877 -2.46132,1.17936 -0.55689,0.12303 -6.50363,0.1342 -65.87242,0.12366 -35.89315,-0.006 -65.35596,-0.0274 -65.4729,-0.0468 z m 131.12551,-1.72958 c 1.44072,-0.33249 2.69305,-1.59633 3.03991,-3.06788 0.11397,-0.48349 0.12859,-7.87062 0.12971,-65.53395 7.9e-4,-42.916445 -0.0276,-65.144635 -0.0837,-65.447168 -0.19883,-1.072271 -1.04267,-2.252512 -1.99807,-2.79459 -0.49831,-0.282744 -1.23108,-0.512765 -1.63347,-0.512765 -0.18706,0 -8.85812,-3.660936 -25.48311,-10.759022 l -25.19957,-10.75902 h -14.3639 -14.36391 l -25.19942,10.75902 c -16.6985,7.129508 -25.2955,10.759022 -25.48422,10.759022 -0.40353,0 -1.13584,0.229706 -1.63472,0.512765 -0.9554,0.542078 -1.79924,1.722319 -1.99806,2.79459 -0.0561,0.302533 -0.0845,22.530723 -0.0837,65.447168 0.001,57.66333 0.0157,65.05046 0.1297,65.53395 0.34129,1.44791 1.48374,2.63142 2.93089,3.03627 0.30606,0.0856 13.46066,0.1078 65.6598,0.11074 42.04229,0.002 65.40475,-0.0258 65.63582,-0.0791 z"
       id="path3326" />
    <path
       style="fill:#a0a0a0;stroke:none;stroke-width:0.0850516"
       d="m 382.73196,161.19178 -3.01933,-0.47138 -13.82087,-0.0552 c -13.67392,-0.0546 -13.82964,-0.0571 -14.64488,-0.23593 -3.01681,-0.66186 -5.5668,-2.04645 -7.66091,-4.15974 -2.17157,-2.19147 -3.45916,-4.66838 -4.12247,-7.93036 -0.14043,-0.69061 -0.1504,-3.12865 -0.17524,-42.8753 -0.0184,-29.493724 0.001,-42.411082 0.0646,-43.036075 0.38747,-3.803211 2.20216,-7.325006 5.01796,-9.738403 2.49348,-2.137153 5.39414,-3.351498 8.62667,-3.61152 1.52505,-0.122674 82.69382,-0.122674 84.21886,0 7.23007,0.581578 12.90998,6.138802 13.64463,13.349923 0.0637,0.624993 0.0831,13.542351 0.0646,43.036075 -0.0248,39.74665 -0.0348,42.18469 -0.17524,42.8753 -0.77622,3.81727 -2.58495,6.86045 -5.42052,9.11998 -1.92585,1.53463 -4.34906,2.61392 -6.79352,3.02582 -1.03535,0.17445 -1.26687,0.17735 -14.17278,0.17735 h -13.12024 l -3.49921,0.51031 -3.49921,0.51031 -9.24682,-0.01 -9.24683,-0.01 z m 20.49742,-1.1673 v -0.97809 h 16.61857 c 10.91346,0 16.92094,-0.0305 17.49935,-0.0887 4.47544,-0.45062 8.36646,-3.05869 10.39862,-6.96992 0.58483,-1.12561 0.90596,-1.99485 1.21236,-3.28168 l 0.24146,-1.01408 v -42.78093 c 0,-41.541236 -0.005,-42.803108 -0.15987,-43.546391 -0.52872,-2.531282 -1.66791,-4.732311 -3.39243,-6.554507 -2.15401,-2.276002 -5.01142,-3.687027 -8.16019,-4.029605 -1.15769,-0.125954 -83.60289,-0.125954 -84.76057,0 -2.40011,0.261123 -4.60696,1.126684 -6.50378,2.550883 -2.59614,1.949283 -4.36639,4.765934 -5.04884,8.033229 -0.15525,0.743283 -0.15988,2.005155 -0.15988,43.546391 v 42.78093 l 0.24194,1.02061 c 1.34396,5.66938 5.87501,9.66757 11.6105,10.24507 0.57841,0.0582 6.58589,0.0887 17.49935,0.0887 h 16.61857 v 0.97809 0.97809 h 8.12242 8.12242 z"
       id="path3365" />
    <path
       style="fill:#a0a0a0;stroke:none;stroke-width:0.170103"
       d="m 7.7032965,369.04748 c -1.73336,-0.54279 -2.99045,-1.64809 -3.77373,-3.31806 l -0.44246,-0.94335 v -65.91493 -65.91495 l 0.44246,-0.94333 c 0.92038,-1.96228 2.11991,-2.86274 4.64762,-3.48886 1.16296,-0.28807 8.2634005,-3.2433 26.5706605,-11.05879 13.74098,-5.86611 25.4046,-10.82758 25.91916,-11.02548 0.92027,-0.35395 1.12893,-0.35983 12.75773,-0.35983 11.62234,0 11.83798,0.006 12.75774,0.35925 0.51456,0.19759 12.1781,5.15903 25.918993,11.02544 17.91706,7.64935 25.42258,10.77537 26.53608,11.05218 0.85396,0.21229 1.7823,0.50689 2.06298,0.65466 1.03208,0.5434 1.94273,1.50435 2.50187,2.64012 l 0.55996,1.13748 v 65.91854 65.9185 l -0.44823,0.95599 c -0.63052,1.34472 -1.53013,2.2669 -2.84097,2.91222 l -1.1263,0.55449 -65.663383,0.0316 c -53.97006,0.0259 -65.7910205,-0.008 -66.3801805,-0.19288 z m 6.7008305,-1.61669 c 0.6207,-0.41021 0.73505,-0.94046 0.73505,-3.4087 0,-2.24642 0.0202,-2.38742 0.40601,-2.83596 0.38225,-0.4444 0.50754,-0.47729 2.14154,-0.56232 2.67471,-0.13917 2.61194,0.0579 2.52107,-7.91504 l -0.0601,-5.2732 -0.69942,-1.44587 c -0.38469,-0.79523 -0.84183,-1.9817 -1.01586,-2.6366 -0.30457,-1.14609 -0.31644,-2.81704 -0.31644,-44.56702 v -43.37629 l 0.46934,-1.49632 c 1.6475,-5.25254 5.3568,-8.88417 10.58736,-10.36566 l 1.36083,-0.38544 41.16494,-0.085 c 37.811533,-0.0781 41.206563,-0.10788 41.675663,-0.36532 0.61211,-0.33591 0.97018,-0.72469 1.33991,-1.45484 0.2445,-0.48282 0.27567,-1.63285 0.27567,-10.16912 0,-10.48456 0.0195,-10.26101 -0.97731,-11.19767 -0.34737,-0.3264 -4.92897,-2.36465 -14.434113,-6.42139 l -13.9252,-5.94321 h -11.8296 -11.82959 l -26.49353,11.31186 c -14.57144,6.22152 -26.6166605,11.31185 -26.7671505,11.31185 -1.16319,0 -2.6893,1.05572 -3.27494,2.26551 l -0.35517,0.73366 v 65.69659 c 0,58.96599 0.027,65.76142 0.26378,66.32903 0.49022,1.17533 1.58781,2.08132 2.92013,2.41033 1.03532,0.25564 5.6740605,0.13904 6.1171305,-0.15381 z m 98.799483,-0.0354 c 0.67435,-0.3733 1.38082,-1.13353 1.60516,-1.72728 0.1092,-0.28906 0.18092,-2.07145 0.18092,-4.49657 0,-3.74652 -0.0243,-4.06799 -0.36081,-4.76303 -0.21735,-0.44899 -0.63513,-0.92688 -1.05072,-1.20189 l -0.68991,-0.45657 h -39.063513 -39.0635 l -0.68991,0.45657 c -0.41559,0.27501 -0.83337,0.7529 -1.05072,1.20189 -0.33659,0.6953 -0.36082,1.01619 -0.36082,4.77957 0,4.40947 0.0584,4.74369 0.9805,5.61023 1.0807,1.0156 -1.60407,0.9548 40.43961,0.91559 35.624463,-0.0332 38.652903,-0.0579 39.123713,-0.31851 z m 26.96134,-0.0791 c 0.94566,-0.43159 1.95949,-1.52969 2.20846,-2.39199 0.13518,-0.46818 0.17343,-18.92901 0.13758,-66.40573 l -0.0497,-65.75728 -0.46109,-0.69675 c -0.62248,-0.94066 -1.41583,-1.51399 -2.43373,-1.75884 -0.46609,-0.11211 -1.80216,-0.58518 -2.96904,-1.05127 -2.38933,-0.95437 -2.98066,-0.96587 -3.6456,-0.0709 -0.32691,0.43997 -0.36357,0.76772 -0.44156,3.94697 -0.0618,2.51988 -0.14536,3.52741 -0.30581,3.6877 -0.14224,0.14211 -0.91596,0.2545 -2.1753,0.31597 -1.8375,0.0897 -1.98217,0.12302 -2.41584,0.55649 l -0.4613,0.46109 -0.0492,5.62463 -0.0492,5.62464 0.76721,1.49648 c 0.42196,0.82307 0.97991,2.17507 1.2399,3.00444 l 0.4727,1.50795 v 43.37629 c 0,41.74998 -0.0118,43.42093 -0.31643,44.56702 -0.17404,0.6549 -0.63117,1.84137 -1.01586,2.6366 l -0.69942,1.44587 -0.0601,5.2732 c -0.0909,7.97295 -0.15364,7.77587 2.52107,7.91504 1.634,0.085 1.75928,0.11792 2.14154,0.56232 0.38616,0.44894 0.40601,0.58851 0.40601,2.85517 0,3.66755 0.0709,3.72866 4.25258,3.66463 2.24189,-0.0343 2.75119,-0.0926 3.40206,-0.3897 z M 26.695677,365.75273 c 1.17332,-0.8691 1.53032,-2.37595 0.84978,-3.58682 -1.0131,-1.80258 -3.74755,-1.77953 -4.69858,0.0396 -0.39341,0.75248 -0.347,1.99993 0.1014,2.72545 0.5151,0.83344 1.59015,1.3462 2.56719,1.22441 0.421,-0.0525 0.9521,-0.23363 1.18021,-0.40262 z m 96.909153,0.127 c 2.39149,-1.15768 1.76567,-4.75128 -0.87934,-5.04941 -2.58151,-0.29099 -3.99313,2.89679 -2.07574,4.68752 0.80351,0.75044 1.88012,0.88228 2.95508,0.36189 z M 19.234737,364.71417 c 1.3797,-1.3797 -0.30363,-3.7251 -2.03206,-2.83128 -0.79432,0.41074 -1.10489,0.98888 -0.99027,1.84343 0.13156,0.98086 0.72779,1.48508 1.75604,1.48508 0.62321,0 0.86336,-0.0943 1.26629,-0.49723 z m 111.660623,0.11424 c 0.5796,-0.49855 0.7612,-1.6334 0.35949,-2.24647 -0.15327,-0.23392 -0.51689,-0.54851 -0.80804,-0.69905 -1.72843,-0.89382 -3.41176,1.45158 -2.03206,2.83128 0.64809,0.64809 1.79838,0.70106 2.48061,0.11424 z m -12.87245,-12.08243 c 4.64091,-1.27045 8.05482,-4.58402 9.50204,-9.22272 l 0.47763,-1.53093 0.0491,-42.10052 c 0.035,-29.98879 -0.005,-42.51647 -0.13865,-43.54639 -0.40483,-3.11693 -1.59567,-5.54168 -3.80827,-7.75428 -1.55484,-1.55483 -3.12044,-2.54909 -5.11769,-3.25007 l -1.36082,-0.47761 H 73.824697 30.023157 l -1.36083,0.47761 c -0.74845,0.26269 -1.89665,0.79095 -2.55154,1.17391 -1.42894,0.83561 -3.83915,3.21887 -4.65492,4.60287 -0.78614,1.33373 -1.49875,3.49798 -1.72127,5.22757 -0.13141,1.02145 -0.17159,13.80414 -0.13687,43.54639 l 0.0491,42.10052 0.47763,1.53093 c 1.63718,5.24759 5.91124,8.87728 11.17443,9.48971 0.32745,0.0381 19.73196,0.06 43.12113,0.0486 39.778773,-0.0193 42.595353,-0.0398 43.602813,-0.31557 z m 5.63547,-116.04407 c 1.60792,-0.83149 1.92113,-3.01615 0.61908,-4.3182 -0.53751,-0.53751 -0.7148,-0.60834 -1.67007,-0.66719 -0.907,-0.0559 -1.15883,-0.005 -1.66409,0.33518 -1.65334,1.11366 -1.5346,3.76057 0.20721,4.61908 0.7013,0.34565 1.87156,0.36018 2.50787,0.0311 z m 7.25296,-1.17711 c 1.18461,-1.18461 0.43912,-2.98112 -1.24077,-2.99003 -0.91809,-0.005 -1.55606,0.52068 -1.69554,1.39676 -0.19247,1.20898 0.59023,2.15758 1.78811,2.1671 0.42481,0.003 0.71706,-0.14268 1.1482,-0.57383 z"
       id="path4248" />
    <path
       style="fill:#a0a0a0;stroke:none;stroke-width:0.170103"
       d="m 171.68267,364.62479 c -1.73335,-0.5428 -2.99044,-1.64809 -3.77372,-3.31806 l -0.44246,-0.94335 V 294.44845 228.5335 l 0.44246,-0.94333 c 0.92038,-1.96228 2.11991,-2.86274 4.64762,-3.48886 1.16296,-0.28807 8.26339,-3.2433 26.57066,-11.05879 13.74097,-5.86611 25.4046,-10.82758 25.91916,-11.02548 0.92027,-0.35395 1.12892,-0.35983 12.75773,-0.35983 11.62233,0 11.83798,0.006 12.75773,0.35925 0.51456,0.19759 12.17811,5.15904 25.919,11.02545 17.91705,7.64934 25.42257,10.77536 26.53607,11.05217 0.85397,0.21229 1.78231,0.50689 2.06298,0.65466 1.03211,0.54341 1.94273,1.50435 2.50187,2.64013 l 0.55997,1.13748 v 65.91853 65.9185 l -0.44823,0.95599 c -0.63053,1.34472 -1.53014,2.2669 -2.84097,2.91222 l -1.1263,0.55449 -65.66338,0.0316 c -53.97006,0.0259 -65.79103,-0.008 -66.38019,-0.19288 z m 40.19231,-1.53363 c 1.00647,-0.42053 1.09409,-0.86376 1.09409,-5.53448 0,-4.3484 -0.1058,-5.04473 -0.82493,-5.42959 -0.22207,-0.11885 -1.99228,-0.18381 -5.00925,-0.18381 h -4.66582 l -0.44845,0.44847 -0.44846,0.44844 v 4.66582 c 0,3.01231 0.065,4.78735 0.1835,5.0087 0.38269,0.71506 1.01962,0.81179 5.39284,0.81883 3.25331,0.005 4.25704,-0.0462 4.72648,-0.24238 z m 15.30928,0 c 1.00175,-0.41855 1.09422,-0.87551 1.09314,-5.40142 -5.3e-4,-2.2003 -0.0791,-4.24162 -0.17672,-4.59325 -0.31772,-1.144 -0.36279,-1.15321 -5.65142,-1.15321 h -4.73277 l -0.41752,0.41754 -0.41753,0.41751 v 4.69675 c 0,3.03443 0.065,4.81812 0.1835,5.03963 0.38269,0.71506 1.01962,0.81179 5.39284,0.81883 3.25331,0.005 4.25704,-0.0462 4.72648,-0.24238 z m 15.38275,-0.0489 c 0.40554,-0.20259 0.66009,-0.48723 0.79839,-0.89278 0.25802,-0.75663 0.29443,-8.15327 0.0446,-9.05299 -0.31741,-1.14289 -0.36754,-1.15321 -5.60584,-1.15321 -5.2383,0 -5.28843,0.0103 -5.60584,1.15321 -0.24987,0.89972 -0.21346,8.29636 0.0446,9.05299 0.37454,1.09828 0.80398,1.1902 5.56128,1.1902 3.62725,0 4.24471,-0.0386 4.76289,-0.29742 z m 15.21599,0.0572 c 0.31692,-0.1324 0.65892,-0.39529 0.76,-0.58418 0.11893,-0.22222 0.1838,-2.00104 0.1838,-5.04018 v -4.69675 l -0.41753,-0.41751 -0.41752,-0.41754 h -4.73277 c -5.28863,0 -5.3337,0.009 -5.65142,1.15321 -0.0977,0.35163 -0.17619,2.39295 -0.17672,4.59325 -0.001,4.48141 0.096,4.97713 1.05583,5.39417 0.80716,0.3507 8.56349,0.36351 9.39633,0.0156 z m 15.30928,0 c 0.31692,-0.1324 0.65892,-0.39529 0.76001,-0.58418 0.11883,-0.22206 0.18378,-1.99226 0.18378,-5.00925 v -4.66582 l -0.44844,-0.44844 -0.44847,-0.44847 h -4.66582 c -3.01696,0 -4.78719,0.065 -5.00925,0.18381 -0.71912,0.38486 -0.82492,1.08119 -0.82492,5.42959 0,4.62574 0.0922,5.10818 1.05677,5.52723 0.80717,0.3507 8.56351,0.36351 9.39634,0.0156 z m -98.40692,-1.76943 c 0.742,-0.54962 1.08414,-1.17168 1.15928,-2.10775 0.0594,-0.73943 0.001,-1.00359 -0.32563,-1.47982 -0.67037,-0.97676 -1.23664,-1.29143 -2.32401,-1.29143 -1.60928,0 -2.6384,1.03135 -2.64422,2.64994 -0.004,1.05193 0.48263,1.84819 1.42733,2.33653 0.88181,0.45583 2.00708,0.41114 2.70725,-0.10747 z m 15.98969,0 c 1.17333,-0.86913 1.53033,-2.37599 0.84979,-3.58685 -1.0131,-1.80255 -3.74755,-1.77954 -4.69859,0.0396 -0.3934,0.75248 -0.34699,1.99993 0.1014,2.72545 0.5151,0.83343 1.59016,1.3462 2.56719,1.22444 0.42101,-0.0525 0.9521,-0.23366 1.18021,-0.40262 z m 96.90914,0.12697 c 2.39149,-1.15768 1.7657,-4.75128 -0.87934,-5.04941 -2.58148,-0.29099 -3.99312,2.89679 -2.07573,4.68752 0.80351,0.75043 1.88013,0.88228 2.95507,0.36189 z m 16.05241,-0.0304 c 1.78144,-0.90294 1.94408,-3.40506 0.29765,-4.57936 -0.75297,-0.53707 -2.26864,-0.55766 -2.96688,-0.0403 -0.75633,0.56039 -1.24573,1.40163 -1.24573,2.14124 0,2.18295 2.00001,3.44906 3.91496,2.47841 z m -120.42249,-1.13519 c 1.3797,-1.37969 -0.30362,-3.72509 -2.03205,-2.83128 -0.79433,0.41074 -1.10489,0.98888 -0.99027,1.84344 0.13156,0.98086 0.72778,1.48508 1.75603,1.48508 0.62322,0 0.86337,-0.0943 1.26629,-0.49724 z m 111.66063,0.11425 c 0.57959,-0.49855 0.7612,-1.63338 0.35948,-2.24647 -0.15327,-0.23392 -0.51689,-0.54851 -0.80803,-0.69906 -1.72845,-0.89381 -3.41175,1.45159 -2.03206,2.83128 0.64807,0.6481 1.79838,0.70107 2.48061,0.11425 z m -114.95179,-5.61687 0.47138,-0.47148 0.0523,-7.77851 c 0.0288,-4.27818 0.004,-8.11311 -0.0561,-8.5221 -0.0704,-0.483 -0.26133,-0.88538 -0.54491,-1.14819 l -0.43658,-0.4046 h -4.71485 -4.71485 l -0.44845,0.44844 -0.44846,0.44847 v 8.4441 c 0,9.1376 -0.0141,8.9921 0.91124,9.3758 0.20049,0.0831 2.41053,0.13505 4.9112,0.11536 l 4.54667,-0.0358 z m 126.19253,-0.006 0.41029,-0.47725 v -8.47249 -8.47246 l -0.44844,-0.44847 -0.44847,-0.44844 h -4.71485 -4.71485 l -0.43659,0.4046 c -0.28358,0.26281 -0.47453,0.66519 -0.54491,1.14821 -0.0596,0.40897 -0.0848,4.23762 -0.056,8.5081 0.0504,7.48626 0.0645,7.77809 0.39249,8.1425 0.18711,0.20788 0.49331,0.44246 0.68042,0.52126 0.18712,0.0788 2.39456,0.12718 4.90543,0.1075 l 4.56523,-0.0358 z m -24.1132,-6.4598 c 4.64092,-1.27045 8.05482,-4.58398 9.50203,-9.22271 l 0.47766,-1.53093 0.0491,-42.10053 c 0.035,-29.98878 -0.005,-42.51646 -0.13867,-43.54638 -0.40481,-3.11694 -1.59565,-5.54168 -3.80825,-7.75428 -1.55483,-1.55483 -3.12045,-2.54909 -5.11768,-3.25007 l -1.36083,-0.47761 h -43.80155 -43.80155 l -1.36082,0.47761 c -0.74845,0.26269 -1.89665,0.79095 -2.55155,1.17391 -1.42893,0.8356 -3.83915,3.21886 -4.65491,4.60287 -0.78614,1.33373 -1.49876,3.49797 -1.72127,5.22757 -0.13141,1.02145 -0.17159,13.80414 -0.13687,43.54638 l 0.0491,42.10053 0.47763,1.53093 c 1.63719,5.24759 5.91125,8.87727 11.17444,9.4897 0.32745,0.0381 19.73195,0.06 43.12113,0.0486 39.77878,-0.0193 42.59535,-0.0398 43.6028,-0.31557 z m -102.83959,-17.6522 c 1.16105,-0.32245 1.22447,-0.56896 1.28657,-5.00063 0.0633,-4.51704 -0.009,-5.25052 -0.57114,-5.81289 l -0.4039,-0.40389 h -4.77835 -4.77835 l -0.41752,0.41751 -0.41753,0.41754 v 4.73276 c 0,5.2323 0.0198,5.33688 1.07077,5.64076 0.76219,0.22037 8.22132,0.2277 9.00945,0.009 z m 126.20987,0.003 c 1.144,-0.31771 1.15321,-0.36279 1.15321,-5.65142 v -4.73276 l -0.41754,-0.41754 -0.41751,-0.41751 h -4.73276 c -5.28865,0 -5.33371,0.009 -5.65142,1.15319 -0.0979,0.35255 -0.17608,2.40358 -0.17646,4.63031 0,4.56988 0.0983,5.01904 1.18949,5.39118 0.75666,0.25802 8.1533,0.29442 9.05299,0.0446 z M 179.38529,315.29296 c 1.00175,-0.41854 1.09422,-0.87551 1.09314,-5.40142 -5.3e-4,-2.2003 -0.0791,-4.24164 -0.17671,-4.59324 -0.31773,-1.14401 -0.3628,-1.15322 -5.65143,-1.15322 h -4.73277 l -0.41752,0.41754 -0.41753,0.41752 v 4.69675 c 0,3.03442 0.065,4.81811 0.1835,5.03962 0.38269,0.71506 1.01962,0.81177 5.39284,0.81883 3.25331,0.005 4.25704,-0.0462 4.72648,-0.24238 z m 126.19668,0.008 c 0.31692,-0.1324 0.65892,-0.39529 0.75999,-0.58417 0.11893,-0.22223 0.18381,-2.00105 0.18381,-5.04018 v -4.69675 l -0.41754,-0.41752 -0.41751,-0.41753 h -4.73276 c -5.28865,0 -5.33371,0.009 -5.65142,1.15321 -0.0977,0.3516 -0.17619,2.39294 -0.17672,4.59324 0,4.48141 0.0959,4.97713 1.05582,5.39417 0.80716,0.35071 8.5635,0.36351 9.39633,0.0156 z M 179.38529,299.98361 c 1.00175,-0.41857 1.09422,-0.8755 1.09314,-5.40144 -5.3e-4,-2.2003 -0.0791,-4.24161 -0.17671,-4.59322 -0.31751,-1.14324 -0.36619,-1.15321 -5.61886,-1.15321 h -4.7002 l -0.45009,0.41714 -0.4501,0.41712 v 4.69714 c 0,3.03469 0.0649,4.81849 0.1835,5.04 0.38269,0.71509 1.01962,0.81179 5.39284,0.81883 3.25331,0.005 4.25704,-0.0462 4.72648,-0.24236 z m 126.19668,0.008 c 0.31692,-0.13242 0.65892,-0.39528 0.75999,-0.58417 0.11893,-0.22222 0.18381,-2.00118 0.18381,-5.04058 v -4.69714 l -0.45008,-0.41712 -0.45011,-0.41714 h -4.70019 c -5.25267,0 -5.30135,0.01 -5.61885,1.15321 -0.0977,0.35161 -0.17619,2.39292 -0.17672,4.59322 0,4.48141 0.0959,4.97716 1.05582,5.39419 0.80716,0.35068 8.5635,0.36351 9.39633,0.0156 z M 179.48061,284.65683 c 0.90203,-0.46646 0.99887,-0.98899 0.99782,-5.38401 -5.3e-4,-2.2003 -0.0791,-4.24161 -0.17671,-4.59324 -0.31752,-1.14327 -0.36602,-1.15322 -5.6205,-1.15322 h -4.70184 l -0.44845,0.44847 -0.44846,0.44845 v 4.66582 c 0,2.86154 0.0674,4.79181 0.17438,4.99165 0.40639,0.75936 0.85369,0.82852 5.40494,0.83571 3.58328,0.006 4.38979,-0.0378 4.81882,-0.25963 z m 126.19804,0.01 c 0.27326,-0.14131 0.57566,-0.4042 0.67196,-0.5842 0.10793,-0.20163 0.17516,-2.11825 0.17516,-4.99308 v -4.66582 l -0.44844,-0.44844 -0.44847,-0.44845 h -4.70183 c -5.2545,0 -5.30299,0.0101 -5.62049,1.15319 -0.24374,0.8776 -0.23165,8.3371 0.0145,9.04362 0.10578,0.30345 0.43108,0.69731 0.72292,0.87527 0.48453,0.29543 0.90448,0.32361 4.83417,0.32419 3.50671,0 4.39555,-0.0469 4.80037,-0.25628 z M 179.45876,269.39648 c 0.91282,-0.45611 1.02015,-1.02426 1.01941,-5.39591 -2.7e-4,-2.19858 -0.0782,-4.2766 -0.17301,-4.61782 -0.31655,-1.13965 -0.44305,-1.16568 -5.66516,-1.16568 h -4.66062 l -0.44845,0.44845 -0.44846,0.44846 v 4.66582 c 0,2.86154 0.0674,4.79182 0.17438,4.99165 0.40714,0.76076 0.85041,0.82866 5.43902,0.83321 3.13576,0.003 4.45546,-0.0546 4.76289,-0.20818 z m 126.21989,-0.0394 c 0.27326,-0.1413 0.57566,-0.40418 0.67196,-0.58418 0.10793,-0.20164 0.17516,-2.11827 0.17516,-4.99308 V 259.114 l -0.44844,-0.44846 -0.44847,-0.44845 h -4.66061 c -5.22211,0 -5.34863,0.026 -5.66518,1.16568 -0.0948,0.34122 -0.17261,2.41924 -0.17299,4.61782 0,4.37165 0.10658,4.9398 1.01939,5.39591 0.67352,0.33653 8.86772,0.30263 9.52918,-0.0394 z M 179.67094,252.22196 c 0.26257,-0.17223 0.52563,-0.56355 0.62895,-0.93557 0.11129,-0.40074 0.17795,-3.5152 0.17854,-8.34212 0.001,-8.6243 -0.007,-8.68978 -1.09314,-9.1437 -0.46725,-0.19523 -1.48037,-0.24903 -4.68942,-0.24903 -4.3484,0 -5.04473,0.10579 -5.4296,0.82493 -0.12454,0.2327 -0.1838,3.04969 -0.1838,8.73686 0,9.26416 -0.0331,8.97681 1.07077,9.30673 0.29986,0.0896 2.46247,0.14834 4.80578,0.13047 3.72743,-0.0284 4.31705,-0.0695 4.71192,-0.32857 z m 125.70162,0.20346 c 1.19787,-0.33268 1.15321,0.028 1.15321,-9.31209 0,-5.68717 -0.0593,-8.50416 -0.18381,-8.73686 -0.38486,-0.71914 -1.08119,-0.82493 -5.42959,-0.82493 -4.68601,0 -5.11305,0.0855 -5.54077,1.10913 -0.21728,0.52002 -0.24805,1.80836 -0.20651,8.64658 0.0543,8.93419 0.0326,8.76923 1.1979,9.10576 0.76261,0.22023 8.22428,0.23051 9.00957,0.0124 z M 211.94845,236.9062 c 0.91785,-0.45862 1.02007,-1.01247 1.02035,-5.52894 2.7e-4,-4.38781 -0.10431,-5.08114 -0.82466,-5.46667 -0.22207,-0.11884 -1.99228,-0.18379 -5.00925,-0.18379 h -4.66582 l -0.44845,0.44845 -0.44846,0.44845 v 4.66583 c 0,2.86154 0.0674,4.79182 0.17438,4.99165 0.40714,0.76075 0.85041,0.82865 5.43902,0.83321 3.13576,0.003 4.45546,-0.0546 4.76289,-0.20819 z m 15.33113,-0.0489 c 0.90203,-0.46646 0.99887,-0.98899 0.99782,-5.38401 -5.3e-4,-2.2003 -0.0791,-4.24162 -0.17672,-4.59323 -0.31751,-1.14326 -0.36601,-1.15321 -5.62049,-1.15321 h -4.70184 l -0.44846,0.44845 -0.44845,0.44845 v 4.66583 c 0,2.86154 0.0674,4.79182 0.17438,4.99165 0.40639,0.75935 0.85369,0.82851 5.40494,0.83571 3.58328,0.006 4.38979,-0.0378 4.81882,-0.25964 z m 15.40456,-0.0655 c 0.79661,-0.48572 0.90159,-1.12048 0.90159,-5.45151 0,-4.11581 -0.11414,-4.91708 -0.76075,-5.34076 -0.62264,-0.40797 -9.41908,-0.40797 -10.04172,0 -0.64661,0.42368 -0.76075,1.22495 -0.76075,5.34076 0,4.33103 0.10498,4.96579 0.90159,5.45151 0.49977,0.30474 0.88324,0.33072 4.88002,0.33072 3.99678,0 4.38025,-0.026 4.88002,-0.33072 z m 15.19555,0.0751 c 0.27325,-0.14131 0.57563,-0.40418 0.67197,-0.58418 0.10791,-0.20164 0.17514,-2.11828 0.17514,-4.99308 v -4.66583 l -0.44845,-0.44845 -0.44846,-0.44845 h -4.70184 c -5.25448,0 -5.30298,0.01 -5.62049,1.15321 -0.24373,0.87757 -0.23164,8.33708 0.0146,9.0436 0.10578,0.30344 0.43111,0.69731 0.72294,0.87527 0.48452,0.29544 0.90447,0.32361 4.83417,0.32419 3.5067,5.3e-4 4.39553,-0.0469 4.80037,-0.25628 z m 15.30927,0 c 0.27326,-0.14131 0.57565,-0.40418 0.67199,-0.58418 0.10789,-0.20164 0.17512,-2.11828 0.17512,-4.99308 v -4.66583 l -0.44844,-0.44845 -0.44847,-0.44845 h -4.66582 c -3.01696,0 -4.78719,0.065 -5.00925,0.18379 -0.72034,0.38553 -0.82494,1.07886 -0.82466,5.46667 2.7e-4,4.51647 0.10251,5.07032 1.02037,5.52894 0.6735,0.33653 8.8677,0.30264 9.52916,-0.0394 z m -98.66054,-4.65126 c 1.19243,-0.63451 1.69355,-2.33304 1.06023,-3.59359 -0.46011,-0.9158 -1.26489,-1.36422 -2.44837,-1.36422 -0.90385,0 -1.05719,0.0562 -1.67426,0.6137 -1.41424,1.27768 -1.22159,3.34412 0.40419,4.33549 0.68001,0.41465 1.8878,0.41857 2.65821,0.009 z m 15.92216,0.0393 c 0.82726,-0.39256 1.3051,-1.14514 1.38084,-2.17478 0.0785,-1.06677 -0.30339,-1.88359 -1.14586,-2.45106 -0.50433,-0.33972 -0.75772,-0.39103 -1.65729,-0.33561 -0.93506,0.0576 -1.1336,0.13487 -1.66179,0.64681 -1.00068,0.9699 -1.13023,2.39288 -0.3225,3.5422 0.6986,0.99403 2.21504,1.33788 3.4066,0.77244 z m 97.18717,0.0244 c 1.60792,-0.83149 1.92114,-3.01615 0.61909,-4.3182 -0.53752,-0.53751 -0.71479,-0.60834 -1.67007,-0.6672 -0.90699,-0.0559 -1.15882,-0.005 -1.6641,0.33518 -1.65333,1.11367 -1.53458,3.76058 0.20722,4.61908 0.70131,0.34565 1.87156,0.36019 2.50786,0.0311 z m 15.99591,-0.003 c 0.58838,-0.30426 1.27402,-1.18122 1.42589,-1.82377 0.19921,-0.84292 -0.161,-1.86657 -0.89961,-2.55656 -0.62907,-0.58765 -0.76179,-0.63789 -1.68489,-0.63789 -0.75864,0 -1.14247,0.0938 -1.58007,0.38613 -2.16963,1.44941 -1.10638,4.88706 1.51157,4.88706 0.40373,0 0.95594,-0.11473 1.22711,-0.25497 z m -120.76377,-0.88311 c 0.61874,-0.3655 0.91308,-1.07289 0.78394,-1.88405 -0.2624,-1.64816 -2.55089,-1.94664 -3.32465,-0.43364 -0.36365,0.71109 -0.23002,1.40855 0.38834,2.02691 0.66247,0.66246 1.36296,0.7571 2.15237,0.29078 z m 112.02083,-0.29078 c 1.18461,-1.18462 0.43913,-2.98113 -1.24077,-2.99003 -0.9181,-0.005 -1.55606,0.52068 -1.69553,1.39676 -0.19248,1.20897 0.59021,2.15758 1.78811,2.16709 0.42479,0.003 0.71705,-0.14268 1.14819,-0.57382 z m -30.07424,-10.34227 c 0.47715,-0.47714 0.11769,-1.3268 -0.56134,-1.3268 -0.45596,0 -0.76546,0.30951 -0.76546,0.76546 0,0.45596 0.3095,0.76547 0.76546,0.76547 0.19648,0 0.44908,-0.0919 0.56134,-0.20413 z m -25.42749,-5.96938 c 1.5372,-1.17248 1.48134,-3.25226 -0.11945,-4.44743 -0.65867,-0.49177 -2.27217,-0.49177 -2.93084,0 -0.88811,0.66307 -1.17118,1.2115 -1.17118,2.26907 0,0.79954 0.0835,1.08834 0.45582,1.57646 0.94463,1.23848 2.5869,1.50098 3.76565,0.6019 z"
       id="path5201" />
    <path
       style="fill:#a0a0a0;stroke:none;stroke-width:0.170103"
       d="m 374.2268,318.9433 v -2.72166 h 7.82474 7.82473 v 2.72166 2.72164 h -0.8505 -0.8505 v -1.44587 -1.44587 h -6.12373 -6.1237 v 1.44587 1.44587 h -0.85053 -0.85051 z"
       id="path7639" />
    <path
       style="display:inline;fill:#a0a0a0;stroke:none;stroke-width:0.170103"
       d="m 374.56702,291.55671 v -2.72166 h 7.82474 7.82473 v 2.72166 2.72164 h -0.8505 -0.8505 v -1.44587 -1.44587 h -6.12373 -6.1237 v 1.44587 1.44587 h -0.85053 -0.85051 z"
       id="path7639-5" />
    <g
       inkscape:label="0"
       id="g975"
       transform="matrix(0.26458333,0,0,0.26458333,391.6351,-494.74173)">
      <path
         d="m 89.23164,960.22677 a 6.082034,6.082034 0 1 0 -12.164068,0 6.082034,6.082034 0 1 0 12.164068,0 z"
         style="fill:none;stroke:#000000;stroke-width:0.9;stroke-linecap:round"
         id="path923" />
      <path
         d="m -77.067572,1284.8126 a 6.082034,6.082034 0 1 0 -12.164068,0 6.082034,6.082034 0 1 0 12.164068,0 z"
         style="fill:none;stroke:#000000;stroke-width:0.9;stroke-linecap:round"
         id="path925" />
      <path
         d="m 8.692913,980.7874 a 8.692913,8.692913 0 1 0 -17.385826,0 8.692913,8.692913 0 1 0 17.385826,0 z"
         style="fill:none;stroke:#000000;stroke-width:0.9;stroke-linecap:round"
         id="path927" />
      <path
         style="fill:none;stroke:#000000;stroke-width:0.9;stroke-linecap:round"
         d="M 116.22,901.417 H 52.9134"
         id="path929" />
      <path
         style="fill:none;stroke:#000000;stroke-width:0.9;stroke-linecap:round"
         d="m 52.9134,901.417 v 11.339"
         id="path931" />
      <path
         style="fill:none;stroke:#000000;stroke-width:0.9;stroke-linecap:round"
         d="M 52.9134,912.756 H -52.9134"
         id="path933" />
      <path
         style="fill:none;stroke:#000000;stroke-width:0.9;stroke-linecap:round"
         d="M -52.9134,912.756 V 901.417"
         id="path935" />
      <path
         style="fill:none;stroke:#000000;stroke-width:0.9;stroke-linecap:round"
         d="M -52.9134,901.417 H -116.22"
         id="path937" />
      <path
         style="fill:none;stroke:#000000;stroke-width:0.9;stroke-linecap:round"
         d="M -116.22,901.417 V 1048.82"
         id="path939" />
      <path
         style="fill:none;stroke:#000000;stroke-width:0.9;stroke-linecap:round"
         d="m -116.22,1048.82 h 11.338"
         id="path941" />
      <path
         style="fill:none;stroke:#000000;stroke-width:0.9;stroke-linecap:round"
         d="m -104.882,1048.82 v 147.4"
         id="path943" />
      <path
         style="fill:none;stroke:#000000;stroke-width:0.9;stroke-linecap:round"
         d="M -104.882,1196.22 H -116.22"
         id="path945" />
      <path
         style="fill:none;stroke:#000000;stroke-width:0.9;stroke-linecap:round"
         d="m -116.22,1196.22 v 147.4"
         id="path947" />
      <path
         style="fill:none;stroke:#000000;stroke-width:0.9;stroke-linecap:round"
         d="m -116.22,1343.62 h 63.3066"
         id="path949" />
      <path
         style="fill:none;stroke:#000000;stroke-width:0.9;stroke-linecap:round"
         d="m -52.9134,1343.62 v -11.34"
         id="path951" />
      <path
         style="fill:none;stroke:#000000;stroke-width:0.9;stroke-linecap:round"
         d="M -52.9134,1332.28 H 52.9134"
         id="path953" />
      <path
         style="fill:none;stroke:#000000;stroke-width:0.9;stroke-linecap:round"
         d="m 52.9134,1332.28 v 11.34"
         id="path955" />
      <path
         style="fill:none;stroke:#000000;stroke-width:0.9;stroke-linecap:round"
         d="M 52.9134,1343.62 H 116.22"
         id="path957" />
      <path
         style="fill:none;stroke:#000000;stroke-width:0.9;stroke-linecap:round"
         d="m 116.22,1343.62 v -147.4"
         id="path959" />
      <path
         style="fill:none;stroke:#000000;stroke-width:0.9;stroke-linecap:round"
         d="M 116.22,1196.22 H 104.882"
         id="path961" />
      <path
         style="fill:none;stroke:#000000;stroke-width:0.9;stroke-linecap:round"
         d="m 104.882,1196.22 v -147.4"
         id="path963" />
      <path
         style="fill:none;stroke:#000000;stroke-width:0.9;stroke-linecap:round"
         d="M 104.882,1048.82 H 116.22"
         id="path965" />
      <path
         style="fill:none;stroke:#000000;stroke-width:0.9;stroke-linecap:round"
         d="M 116.22,1048.82 V 901.417"
         id="path967" />
      <path
         d="m 8.692913,1264.252 a 8.692913,8.692913 0 1 0 -17.385826,0 8.692913,8.692913 0 1 0 17.385826,0 z"
         style="fill:none;stroke:#000000;stroke-width:0.9;stroke-linecap:round"
         id="path969" />
      <path
         d="m 89.23164,1284.8126 a 6.082034,6.082034 0 1 0 -12.164068,0 6.082034,6.082034 0 1 0 12.164068,0 z"
         style="fill:none;stroke:#000000;stroke-width:0.9;stroke-linecap:round"
         id="path971" />
      <path
         d="m -77.067572,960.22677 a 6.082034,6.082034 0 1 0 -12.164068,0 6.082034,6.082034 0 1 0 12.164068,0 z"
         style="fill:none;stroke:#000000;stroke-width:0.9;stroke-linecap:round"
         id="path973" />
    </g>
    <g
       inkscape:label="0"
       id="g1104"
       transform="matrix(0.26458333,0,0,0.26458333,-178.9782,-615.98503)">
      <path
         d="m -24.566929,1046.9291 a 13.228347,13.228347 0 1 0 -26.456693,0 13.228347,13.228347 0 1 0 26.456693,0 z"
         style="fill:none;stroke:#000000;stroke-width:0.9;stroke-linecap:round"
         id="path1040" />
      <path
         d="m -24.566929,1122.5197 a 13.228347,13.228347 0 1 0 -26.456693,0 13.228347,13.228347 0 1 0 26.456693,0 z"
         style="fill:none;stroke:#000000;stroke-width:0.9;stroke-linecap:round"
         id="path1042" />
      <path
         d="m -24.566929,1198.1102 a 13.228347,13.228347 0 1 0 -26.456693,0 13.228347,13.228347 0 1 0 26.456693,0 z"
         style="fill:none;stroke:#000000;stroke-width:0.9;stroke-linecap:round"
         id="path1044" />
      <path
         d="m 89.23164,960.22677 a 6.082034,6.082034 0 1 0 -12.164068,0 6.082034,6.082034 0 1 0 12.164068,0 z"
         style="fill:none;stroke:#000000;stroke-width:0.9;stroke-linecap:round"
         id="path1046" />
      <path
         d="m -77.067572,1284.8126 a 6.082034,6.082034 0 1 0 -12.164068,0 6.082034,6.082034 0 1 0 12.164068,0 z"
         style="fill:none;stroke:#000000;stroke-width:0.9;stroke-linecap:round"
         id="path1048" />
      <path
         d="m 8.692913,980.7874 a 8.692913,8.692913 0 1 0 -17.385826,0 8.692913,8.692913 0 1 0 17.385826,0 z"
         style="fill:none;stroke:#000000;stroke-width:0.9;stroke-linecap:round"
         id="path1050" />
      <path
         style="fill:none;stroke:#000000;stroke-width:0.9;stroke-linecap:round"
         d="M 116.22,901.417 H 52.9134"
         id="path1052" />
      <path
         style="fill:none;stroke:#000000;stroke-width:0.9;stroke-linecap:round"
         d="m 52.9134,901.417 v 11.339"
         id="path1054" />
      <path
         style="fill:none;stroke:#000000;stroke-width:0.9;stroke-linecap:round"
         d="M 52.9134,912.756 H -52.9134"
         id="path1056" />
      <path
         style="fill:none;stroke:#000000;stroke-width:0.9;stroke-linecap:round"
         d="M -52.9134,912.756 V 901.417"
         id="path1058" />
      <path
         style="fill:none;stroke:#000000;stroke-width:0.9;stroke-linecap:round"
         d="M -52.9134,901.417 H -116.22"
         id="path1060" />
      <path
         style="fill:none;stroke:#000000;stroke-width:0.9;stroke-linecap:round"
         d="M -116.22,901.417 V 1048.82"
         id="path1062" />
      <path
         style="fill:none;stroke:#000000;stroke-width:0.9;stroke-linecap:round"
         d="m -116.22,1048.82 h 11.338"
         id="path1064" />
      <path
         style="fill:none;stroke:#000000;stroke-width:0.9;stroke-linecap:round"
         d="m -104.882,1048.82 v 147.4"
         id="path1066" />
      <path
         style="fill:none;stroke:#000000;stroke-width:0.9;stroke-linecap:round"
         d="M -104.882,1196.22 H -116.22"
         id="path1068" />
      <path
         style="fill:none;stroke:#000000;stroke-width:0.9;stroke-linecap:round"
         d="m -116.22,1196.22 v 147.4"
         id="path1070" />
      <path
         style="fill:none;stroke:#000000;stroke-width:0.9;stroke-linecap:round"
         d="m -116.22,1343.62 h 63.3066"
         id="path1072" />
      <path
         style="fill:none;stroke:#000000;stroke-width:0.9;stroke-linecap:round"
         d="m -52.9134,1343.62 v -11.34"
         id="path1074" />
      <path
         style="fill:none;stroke:#000000;stroke-width:0.9;stroke-linecap:round"
         d="M -52.9134,1332.28 H 52.9134"
         id="path1076" />
      <path
         style="fill:none;stroke:#000000;stroke-width:0.9;stroke-linecap:round"
         d="m 52.9134,1332.28 v 11.34"
         id="path1078" />
      <path
         style="fill:none;stroke:#000000;stroke-width:0.9;stroke-linecap:round"
         d="M 52.9134,1343.62 H 116.22"
         id="path1080" />
      <path
         style="fill:none;stroke:#000000;stroke-width:0.9;stroke-linecap:round"
         d="m 116.22,1343.62 v -147.4"
         id="path1082" />
      <path
         style="fill:none;stroke:#000000;stroke-width:0.9;stroke-linecap:round"
         d="M 116.22,1196.22 H 104.882"
         id="path1084" />
      <path
         style="fill:none;stroke:#000000;stroke-width:0.9;stroke-linecap:round"
         d="m 104.882,1196.22 v -147.4"
         id="path1086" />
      <path
         style="fill:none;stroke:#000000;stroke-width:0.9;stroke-linecap:round"
         d="M 104.882,1048.82 H 116.22"
         id="path1088" />
      <path
         style="fill:none;stroke:#000000;stroke-width:0.9;stroke-linecap:round"
         d="M 116.22,1048.82 V 901.417"
         id="path1090" />
      <path
         d="m 8.692913,1264.252 a 8.692913,8.692913 0 1 0 -17.385826,0 8.692913,8.692913 0 1 0 17.385826,0 z"
         style="fill:none;stroke:#000000;stroke-width:0.9;stroke-linecap:round"
         id="path1092" />
      <path
         d="m 89.23164,1284.8126 a 6.082034,6.082034 0 1 0 -12.164068,0 6.082034,6.082034 0 1 0 12.164068,0 z"
         style="fill:none;stroke:#000000;stroke-width:0.9;stroke-linecap:round"
         id="path1094" />
      <path
         d="m -77.067572,960.22677 a 6.082034,6.082034 0 1 0 -12.164068,0 6.082034,6.082034 0 1 0 12.164068,0 z"
         style="fill:none;stroke:#000000;stroke-width:0.9;stroke-linecap:round"
         id="path1096" />
      <path
         d="m 51.023622,1198.1102 a 13.228347,13.228347 0 1 0 -26.456693,0 13.228347,13.228347 0 1 0 26.456693,0 z"
         style="fill:none;stroke:#000000;stroke-width:0.9;stroke-linecap:round"
         id="path1098" />
      <path
         d="m 51.023622,1122.5197 a 13.228347,13.228347 0 1 0 -26.456693,0 13.228347,13.228347 0 1 0 26.456693,0 z"
         style="fill:none;stroke:#000000;stroke-width:0.9;stroke-linecap:round"
         id="path1100" />
      <path
         d="m 51.023622,1046.9291 a 13.228347,13.228347 0 1 0 -26.456693,0 13.228347,13.228347 0 1 0 26.456693,0 z"
         style="fill:none;stroke:#000000;stroke-width:0.9;stroke-linecap:round"
         id="path1102" />
    </g>
    <g
       inkscape:label="0"
       id="g1215"
       transform="matrix(0.26458333,0,0,0.26458333,-21.169466,-582.78785)">
      <path
         style="fill:none;stroke:#000000;stroke-width:0.9;stroke-linecap:round"
         d="m -73.7008,1145.2 v 11.34"
         id="path1175" />
      <path
         style="fill:none;stroke:#000000;stroke-width:0.9;stroke-linecap:round"
         d="M -73.7008,1156.54 H 73.7008"
         id="path1177" />
      <path
         style="fill:none;stroke:#000000;stroke-width:0.9;stroke-linecap:round"
         d="M 73.7008,1156.54 V 1145.2"
         id="path1179" />
      <path
         style="fill:none;stroke:#000000;stroke-width:0.9;stroke-linecap:round"
         d="M 73.7008,1145.2 H 221.102"
         id="path1181" />
      <path
         style="fill:none;stroke:#000000;stroke-width:0.9;stroke-linecap:round"
         d="m 221.102,1145.2 v -15.12"
         id="path1183" />
      <path
         style="fill:none;stroke:#000000;stroke-width:0.9;stroke-linecap:round"
         d="M 221.102,1130.08 H 209.764"
         id="path1185" />
      <path
         style="fill:none;stroke:#000000;stroke-width:0.9;stroke-linecap:round"
         d="m 209.764,1130.08 v -15.12"
         id="path1187" />
      <path
         style="fill:none;stroke:#000000;stroke-width:0.9;stroke-linecap:round"
         d="m 209.764,1114.96 h 11.338"
         id="path1189" />
      <path
         style="fill:none;stroke:#000000;stroke-width:0.9;stroke-linecap:round"
         d="m 221.102,1114.96 v -15.12"
         id="path1191" />
      <path
         style="fill:none;stroke:#000000;stroke-width:0.9;stroke-linecap:round"
         d="M 221.102,1099.84 H 73.7008"
         id="path1193" />
      <path
         style="fill:none;stroke:#000000;stroke-width:0.9;stroke-linecap:round"
         d="M 73.7008,1099.84 V 1088.5"
         id="path1195" />
      <path
         style="fill:none;stroke:#000000;stroke-width:0.9;stroke-linecap:round"
         d="M 73.7008,1088.5 H -73.7008"
         id="path1197" />
      <path
         style="fill:none;stroke:#000000;stroke-width:0.9;stroke-linecap:round"
         d="m -73.7008,1088.5 v 11.34"
         id="path1199" />
      <path
         style="fill:none;stroke:#000000;stroke-width:0.9;stroke-linecap:round"
         d="M -73.7008,1099.84 H -221.102"
         id="path1201" />
      <path
         style="fill:none;stroke:#000000;stroke-width:0.9;stroke-linecap:round"
         d="m -221.102,1099.84 v 15.12"
         id="path1203" />
      <path
         style="fill:none;stroke:#000000;stroke-width:0.9;stroke-linecap:round"
         d="m -221.102,1114.96 h 11.338"
         id="path1205" />
      <path
         style="fill:none;stroke:#000000;stroke-width:0.9;stroke-linecap:round"
         d="m -209.764,1114.96 v 15.12"
         id="path1207" />
      <path
         style="fill:none;stroke:#000000;stroke-width:0.9;stroke-linecap:round"
         d="m -209.764,1130.08 h -11.338"
         id="path1209" />
      <path
         style="fill:none;stroke:#000000;stroke-width:0.9;stroke-linecap:round"
         d="m -221.102,1130.08 v 15.12"
         id="path1211" />
      <path
         style="fill:none;stroke:#000000;stroke-width:0.9;stroke-linecap:round"
         d="M -221.102,1145.2 H -73.7008"
         id="path1213" />
    </g>
    <g
       inkscape:label="0"
       id="g1322"
       transform="matrix(0.26458333,0,0,0.26458333,-101.99833,-543.8168)">
      <path
         style="fill:none;stroke:#000000;stroke-width:0.9;stroke-linecap:round"
         d="m -52.9134,1145.2 v 11.34"
         id="path1274" />
      <path
         style="fill:none;stroke:#000000;stroke-width:0.9;stroke-linecap:round"
         d="M -52.9134,1156.54 H 52.9134"
         id="path1276" />
      <path
         style="fill:none;stroke:#000000;stroke-width:0.9;stroke-linecap:round"
         d="M 52.9134,1156.54 V 1145.2"
         id="path1278" />
      <path
         style="fill:none;stroke:#000000;stroke-width:0.9;stroke-linecap:round"
         d="M 52.9134,1145.2 H 104.882"
         id="path1280" />
      <path
         style="fill:none;stroke:#000000;stroke-width:0.9;stroke-linecap:round"
         d="m 104.882,1145.2 v -15.12"
         id="path1282" />
      <path
         style="fill:none;stroke:#000000;stroke-width:0.9;stroke-linecap:round"
         d="M 104.882,1130.08 H 116.22"
         id="path1284" />
      <path
         style="fill:none;stroke:#000000;stroke-width:0.9;stroke-linecap:round"
         d="m 116.22,1130.08 v -15.12"
         id="path1286" />
      <path
         style="fill:none;stroke:#000000;stroke-width:0.9;stroke-linecap:round"
         d="M 116.22,1114.96 H 104.882"
         id="path1288" />
      <path
         style="fill:none;stroke:#000000;stroke-width:0.9;stroke-linecap:round"
         d="m 104.882,1114.96 v -15.12"
         id="path1290" />
      <path
         style="fill:none;stroke:#000000;stroke-width:0.9;stroke-linecap:round"
         d="M 104.882,1099.84 H 52.9134"
         id="path1292" />
      <path
         style="fill:none;stroke:#000000;stroke-width:0.9;stroke-linecap:round"
         d="M 52.9134,1099.84 V 1088.5"
         id="path1294" />
      <path
         style="fill:none;stroke:#000000;stroke-width:0.9;stroke-linecap:round"
         d="M 52.9134,1088.5 H -52.9134"
         id="path1296" />
      <path
         style="fill:none;stroke:#000000;stroke-width:0.9;stroke-linecap:round"
         d="m -52.9134,1088.5 v 11.34"
         id="path1298" />
      <path
         style="fill:none;stroke:#000000;stroke-width:0.9;stroke-linecap:round"
         d="M -52.9134,1099.84 H -104.882"
         id="path1300" />
      <path
         style="fill:none;stroke:#000000;stroke-width:0.9;stroke-linecap:round"
         d="m -104.882,1099.84 v 15.12"
         id="path1302" />
      <path
         style="fill:none;stroke:#000000;stroke-width:0.9;stroke-linecap:round"
         d="M -104.882,1114.96 H -116.22"
         id="path1304" />
      <path
         style="fill:none;stroke:#000000;stroke-width:0.9;stroke-linecap:round"
         d="m -116.22,1114.96 v 15.12"
         id="path1306" />
      <path
         style="fill:none;stroke:#000000;stroke-width:0.9;stroke-linecap:round"
         d="m -116.22,1130.08 h 11.338"
         id="path1308" />
      <path
         style="fill:none;stroke:#000000;stroke-width:0.9;stroke-linecap:round"
         d="m -104.882,1130.08 v 15.12"
         id="path1310" />
      <path
         style="fill:none;stroke:#000000;stroke-width:0.9;stroke-linecap:round"
         d="m -104.882,1145.2 h 51.9686"
         id="path1312" />
      <path
         style="fill:none;stroke:#000000;stroke-width:0.9;stroke-linecap:round"
         d="M 45.3543,1107.4 H -45.3543"
         id="path1314" />
      <path
         style="fill:none;stroke:#000000;stroke-width:0.9;stroke-linecap:round"
         d="M 45.3543,1130.08 V 1107.4"
         id="path1316" />
      <path
         style="fill:none;stroke:#000000;stroke-width:0.9;stroke-linecap:round"
         d="M -45.3543,1130.08 H 45.3543"
         id="path1318" />
      <path
         style="fill:none;stroke:#000000;stroke-width:0.9;stroke-linecap:round"
         d="m -45.3543,1107.4 v 22.68"
         id="path1320" />
    </g>
  </g>
  <g
     inkscape:groupmode="layer"
     id="layer2"
     inkscape:label="Closed Paths"
     style="display:inline">
    <path
       style="fill:#a0a0a0;stroke:none;stroke-width:0.120281"
       d="m 18.111908,199.30748 c -2.162703,-0.3199 -3.890915,-1.75647 -4.71584,-3.92003 l -0.268337,-0.70377 -0.03073,-65.35119 c -0.03369,-71.648484 -0.08856,-66.047876 0.662247,-67.594395 0.422736,-0.870754 1.585344,-2.060583 2.435644,-2.492666 0.363851,-0.184894 1.36519,-0.51185 2.2252,-0.726575 1.40529,-0.350864 4.091369,-1.470575 26.52197,-11.055868 C 58.669137,41.59698 70.30633,36.657271 70.80249,36.485854 c 0.77271,-0.266962 1.165214,-0.31958 2.736392,-0.366828 l 1.834287,-0.05516 v 0.976874 0.976874 h 0.962248 0.962249 v 9.021078 9.021079 h 6.194473 6.194475 V 47.03869 38.017612 h 1.022387 1.02239 v -0.975359 -0.975358 l 1.774145,0.05502 c 1.399111,0.04339 1.948974,0.111735 2.601185,0.323322 0.454869,0.147568 11.983809,5.033842 25.619869,10.858386 13.63604,5.824545 25.0886,10.696206 25.4501,10.825916 0.36152,0.129706 1.13753,0.33846 1.72451,0.463894 2.31739,0.495228 3.81455,1.712602 4.72408,3.841234 0.22712,0.531513 0.23183,1.724144 0.26188,66.195253 0.0277,59.48416 0.0128,65.72365 -0.15925,66.39514 -0.47372,1.84896 -1.79562,3.27463 -3.73488,4.02809 l -0.82743,0.32149 -65.192337,0.0159 c -35.85578,0.009 -65.493393,-0.0286 -65.86136,-0.0831 z m 2.315316,-3.54397 c 0.336934,-0.23357 0.638083,-0.59126 0.85915,-1.02044 0.29262,-0.56809 0.332049,-0.7594 0.281024,-1.36361 -0.08351,-0.98881 -0.549849,-1.7103 -1.388748,-2.14855 -2.553492,-1.33395 -5.077091,1.63542 -3.380442,3.97758 0.513868,0.70937 1.197661,0.99954 2.245784,0.95302 0.728279,-0.0323 0.946181,-0.095 1.383232,-0.398 z m 15.682694,0.19601 c 0.967836,-0.43958 1.591488,-1.59953 1.464715,-2.72425 -0.237564,-2.10767 -2.927564,-3.09802 -4.461192,-1.64245 -1.404628,1.33313 -0.977062,3.76028 0.787125,4.46823 0.481687,0.19329 1.681644,0.13816 2.209352,-0.10153 z m 97.187082,0 c 1.26952,-0.5766 1.84159,-2.18407 1.2452,-3.49888 -0.33009,-0.7277 -0.54649,-0.94881 -1.2537,-1.28099 -1.37449,-0.6456 -2.87501,-0.14653 -3.55931,1.18383 -0.27471,0.53407 -0.30885,1.71712 -0.0663,2.29762 0.20263,0.48496 0.76857,1.06112 1.29902,1.32249 0.54914,0.27057 1.71279,0.25858 2.3351,-0.0241 z m 15.99738,0 c 1.26952,-0.5766 1.84159,-2.18407 1.2452,-3.49888 -0.33009,-0.7277 -0.54649,-0.94881 -1.2537,-1.28099 -1.35548,-0.63666 -2.89073,-0.1304 -3.55538,1.17244 -0.25376,0.4974 -0.31872,1.67075 -0.12125,2.19011 0.16798,0.44183 0.8296,1.14676 1.31916,1.40551 0.57564,0.30425 1.70963,0.30992 2.36597,0.0118 z M 28.455015,195.13454 c 1.483825,-0.75662 1.173681,-2.93325 -0.472575,-3.31658 -0.834587,-0.19434 -1.782944,0.40937 -2.026022,1.28974 -0.401228,1.45311 1.152304,2.71333 2.498597,2.02684 z m 111.741095,0 c 1.1992,-0.61149 1.28429,-2.35996 0.14899,-3.06161 -0.46652,-0.28833 -1.36357,-0.34219 -1.8009,-0.10815 -0.90359,0.48359 -1.18967,1.89413 -0.54064,2.66547 0.58646,0.69696 1.43291,0.89164 2.19255,0.50429 z m -62.537597,-11.0356 v -1.02238 h 5.833631 5.833631 v 1.02238 1.02239 h 1.202812 1.202809 v -1.01967 -1.01968 l 17.591104,-0.0369 17.5911,-0.0369 0.92497,-0.26749 c 2.92464,-0.84578 5.48136,-2.55808 7.20448,-4.82501 0.82681,-1.08775 1.84608,-3.19595 2.24432,-4.64204 l 0.33125,-1.20281 V 128.95008 85.829328 l -0.3225,-1.167424 c -0.37807,-1.368599 -1.07601,-2.911747 -1.82971,-4.045466 -1.98724,-2.989244 -5.42083,-5.171567 -8.9165,-5.667158 -0.70289,-0.09965 -12.35951,-0.126595 -43.599029,-0.100771 l -42.639633,0.03524 -1.15697,0.319844 c -5.305317,1.466654 -9.115769,5.907201 -9.720167,11.327495 -0.17516,1.570855 -0.178835,83.275072 -0.0038,84.818062 0.187491,1.65293 0.548142,2.86643 1.323218,4.45225 1.51784,3.10554 4.123846,5.42447 7.410767,6.59437 1.978483,0.7042 1.289619,0.68078 20.021989,0.68078 h 17.186902 v 1.02238 1.02239 h 1.142669 1.14267 z M 20.429621,66.579978 c 0.663728,-0.460092 1.177924,-1.432957 1.177924,-2.228649 0,-0.773544 -0.517455,-1.743813 -1.177334,-2.207593 -0.645308,-0.453541 -1.690902,-0.56238 -2.485897,-0.258768 -1.783543,0.681141 -2.261517,3.080292 -0.878142,4.407762 0.848377,0.814094 2.410911,0.947537 3.363449,0.287248 z m 15.997379,0 c 0.660525,-0.45787 1.177925,-1.433359 1.177925,-2.220817 0,-0.784231 -0.517578,-1.763086 -1.172117,-2.216735 -1.053462,-0.730134 -2.583453,-0.528188 -3.495614,0.461391 -1.201076,1.303012 -0.757071,3.416541 0.878877,4.183589 0.750771,0.352012 1.940195,0.257519 2.610929,-0.207428 z m 96.88381,0.174003 c 2.4934,-1.207037 1.62129,-5.041003 -1.14668,-5.041003 -1.5642,0 -2.66448,1.092729 -2.66448,2.646183 0,1.12274 0.57577,2.026523 1.56365,2.45442 0.61758,0.267502 1.62711,0.240731 2.24751,-0.0596 z m 15.99738,0 c 2.4934,-1.207037 1.62129,-5.041003 -1.14668,-5.041003 -1.5642,0 -2.66448,1.092729 -2.66448,2.646183 0,1.12274 0.57577,2.026523 1.56365,2.45442 0.61758,0.267502 1.62711,0.240731 2.24751,-0.0596 z M 28.459248,65.892744 c 0.684435,-0.350959 0.998741,-0.913085 0.932958,-1.668566 -0.06362,-0.730626 -0.440439,-1.239853 -1.105395,-1.493803 -0.696195,-0.26588 -1.280746,-0.15594 -1.82394,0.343035 -0.942365,0.865651 -0.681782,2.396178 0.49718,2.920174 0.520863,0.231498 0.900935,0.205934 1.499197,-0.10084 z m 111.741092,0 c 0.68444,-0.350959 0.99874,-0.913085 0.93296,-1.668566 -0.0636,-0.730626 -0.44043,-1.239853 -1.10539,-1.493803 -0.6962,-0.26588 -1.28074,-0.15594 -1.82395,0.343035 -0.94236,0.865651 -0.68177,2.396178 0.49719,2.920174 0.52086,0.231498 0.90092,0.205934 1.49919,-0.10084 z"
       id="path2177" />
  </g>
</svg>
